<svg xmlns="http://www.w3.org/2000/svg" xmlns:xlink="http://www.w3.org/1999/xlink" width="70" height="85" viewBox="0 0 70 85">
  <defs>
    <clipPath id="clip-path">
      <rect id="Rect치ngulo_37608" data-name="Rect치ngulo 37608" width="46.031" height="46.311" fill="none"/>
    </clipPath>
  </defs>
  <g id="Grupo_163999" data-name="Grupo 163999" transform="translate(-377 -5504)">
    <g id="Grupo_156312" data-name="Grupo 156312" transform="translate(-163 3797)">
      <rect id="Rect치ngulo_36766" data-name="Rect치ngulo 36766" width="70" height="85" rx="12" transform="translate(540 1707)" fill="#1169e3"/>
    </g>
    <g id="Grupo_156657" data-name="Grupo 156657" transform="translate(-563 -5412)">
      <g id="Grupo_156656" data-name="Grupo 156656" transform="translate(593 6270)">
        <path id="Trazado_127053" data-name="Trazado 127053" d="M15.507,123.96c-.454.1-.559-.113-.555-.537.012-1.063-.007-1.081-1.106-1.075-.409,0-.536-.124-.528-.529.007-.377.077-.553.512-.551,1.1,0,1.131-.018,1.119-1.119-.005-.5.239-.507.608-.511s.56.058.56.5c0,1.115.023,1.135,1.112,1.131.421,0,.521.15.522.541s-.1.541-.52.539c-1.11-.006-1.137.014-1.112,1.066.012.488-.169.631-.611.545" transform="translate(339.683 4573.993)" fill="#29c4bb"/>
        <path id="Trazado_127054" data-name="Trazado 127054" d="M213.642,151.161c.406-.078.632.057.565.517-.056.385.077.6.5.533s.57.088.573.537c0,.47-.189.578-.589.525-.383-.052-.5.115-.5.5.012.6-.357.826-.934.645-.274-.086-.214-.3-.2-.477.048-.472-.06-.76-.616-.666-.431.073-.457-.2-.456-.527s.014-.6.451-.53c.471.073.694-.1.616-.6-.075-.475.23-.5.582-.454" transform="translate(195.806 4552.685)" fill="#29c4bb"/>
        <path id="Trazado_127055" data-name="Trazado 127055" d="M210.718,69.268c.1.453-.1.608-.527.537-.46-.078-.648.111-.567.569s-.113.548-.542.553-.609-.127-.532-.557c.082-.459-.109-.648-.565-.562-.472.089-.513-.158-.531-.555-.021-.466.16-.588.566-.517.441.077.606-.106.531-.537-.072-.412.061-.579.521-.563.4.014.639.072.552.536s.115.639.567.563c.425-.072.632.081.526.534" transform="translate(199.254 4608.526)" fill="#010000"/>
        <path id="Trazado_127056" data-name="Trazado 127056" d="M55.04,186.64c.1.423-.11.578-.532.5-.5-.09-.614.169-.543.587.079.465-.146.537-.555.535-.39,0-.6-.091-.518-.511.108-.553-.169-.688-.645-.607s-.466-.225-.467-.559.007-.6.448-.512c.593.117.745-.168.665-.7-.077-.508.311-.362.569-.377.274-.016.579-.052.5.389-.1.545.092.8.67.687.482-.092.423.243.409.566" transform="translate(311.829 4530.025)" fill="#010000"/>
        <path id="Trazado_127057" data-name="Trazado 127057" d="M121.786,17.426c-.114-.483.153-.577.548-.518.41.061.572-.109.509-.513s.058-.588.522-.578c.427.009.623.119.548.558s.131.6.553.533c.391-.059.587.035.589.513s-.182.62-.608.553c-.45-.072-.6.133-.533.553.078.472-.175.526-.572.534-.424.009-.562-.151-.5-.54.068-.427-.09-.622-.535-.547s-.62-.106-.523-.547" transform="translate(261.153 4643.184)" fill="#29c4bb"/>
      </g>
      <g id="Grupo_157521" data-name="Grupo 157521" transform="translate(953.984 10937.235)">
        <g id="Grupo_157521-2" data-name="Grupo 157521" clip-path="url(#clip-path)">
          <path id="Trazado_129766" data-name="Trazado 129766" d="M7.237,54.715c-.385-.117-.42-.394-.341-.731a4.182,4.182,0,0,1,4.083-3.164,4.08,4.08,0,0,1,3.98,3.271,16.751,16.751,0,0,1,.009,4.73,3.413,3.413,0,0,1-1,1.933.73.73,0,0,0-.237.565c.014.614.024,1.231,0,1.844-.013.3.115.388.368.453,1.543.4,3.087.8,4.624,1.218a4.046,4.046,0,0,1,3.118,4.049c.015,4.365,0,8.731.007,13.1,0,.291-.012.579-.362.652s-.49-.172-.585-.452a1.028,1.028,0,0,1-.141-.75q0-6.195,0-12.39a2.987,2.987,0,0,0-2.405-3.2c-.958-.28-1.93-.507-2.889-.78-.342-.137-.706-.2-1.105-.31.428,1.013.9,1.957,1.345,2.907.29.611.563,1.229.861,1.837.272.554.193.789-.333,1.108-.433.263-.877.51-1.32.757a.447.447,0,0,0-.215.649c.29.744.545,1.5.838,2.246a.979.979,0,0,1-.189,1.064c-1.086,1.355-2.167,2.715-3.282,4.046a2.073,2.073,0,0,0-.54,1.727c-.026.367.1.749-.117,1.1-.055.26-.181.456-.476.456s-.421-.2-.476-.455c-.211-.346-.091-.728-.118-1.093A2,2,0,0,0,9.8,79.367c-1.086-1.253-2.081-2.584-3.161-3.842a1.338,1.338,0,0,1-.247-1.56c.282-.648.487-1.326.747-1.983.118-.3.081-.481-.218-.636-.422-.218-.828-.469-1.242-.7-.612-.348-.7-.611-.388-1.237.768-1.534,1.472-3.1,2.242-4.681-.387.157-.768.2-1.127.329-.992.277-1.994.518-2.984.8A3.027,3.027,0,0,0,1.2,67.935a3.153,3.153,0,0,0-.1.958q0,6.27,0,12.539c0,.255.057.529-.148.746-.1.276-.231.528-.582.455S0,82.277,0,81.985C0,77.625-.007,73.264.009,68.9A4.058,4.058,0,0,1,3.24,64.809c1.511-.4,3.019-.8,4.532-1.188.262-.068.39-.176.356-.464a3.769,3.769,0,0,1,0-.69,2.7,2.7,0,0,0-.652-2.272,3.209,3.209,0,0,1-.691-2.009c-.033-.372.073-.631.457-.73.477-.038.543.29.585.647a3.184,3.184,0,0,0,.94,2.048,2.964,2.964,0,0,0,3.323.658,2.949,2.949,0,0,0,1.933-2.743c.064-1.042.036-2.09.008-3.135a3.1,3.1,0,0,0-6.074-.83c-.19.6-.264.661-.717.615" transform="translate(0 -36.336)"/>
          <path id="Trazado_129767" data-name="Trazado 129767" d="M94.969,65.391c-.032-.38.178-.549.52-.636,1.44-.369,2.876-.755,4.318-1.118.3-.075.455-.188.4-.522a2.956,2.956,0,0,1,0-.6A2.722,2.722,0,0,0,99.55,60.2a2.64,2.64,0,0,1-.657-1.784,22.589,22.589,0,0,1,.047-4.142,4.127,4.127,0,0,1,8.189.4,23.294,23.294,0,0,1-.056,4,3.619,3.619,0,0,1-.99,2.037.891.891,0,0,0-.264.695c.016.569.03,1.139,0,1.706-.021.337.113.443.411.519q2.273.579,4.536,1.192a4.046,4.046,0,0,1,3.16,4.065c.019,4.366.006,8.732.008,13.1,0,.293-.026.576-.374.645s-.48-.189-.581-.46c-.2-.22-.143-.493-.143-.748,0-4.147-.039-8.294.015-12.44a3.137,3.137,0,0,0-2.462-3.176c-.956-.227-1.9-.489-2.85-.751-.341-.14-.705-.19-1.1-.315.438,1.03.912,1.985,1.365,2.949.294.624.574,1.256.882,1.874.222.446.149.691-.28.972-.449.294-.925.545-1.394.806a.463.463,0,0,0-.226.682c.3.723.532,1.472.822,2.2a1,1,0,0,1-.19,1.1c-1.093,1.345-2.146,2.724-3.275,4.04a2.043,2.043,0,0,0-.536,1.725c-.024.369.093.752-.118,1.1-.045.267-.182.447-.47.448s-.414-.2-.476-.451c-.218-.345-.1-.727-.124-1.093a2.008,2.008,0,0,0-.532-1.723c-1.088-1.269-2.1-2.6-3.183-3.876a1.264,1.264,0,0,1-.24-1.473c.286-.66.491-1.355.764-2.023a.449.449,0,0,0-.248-.668c-.423-.215-.828-.467-1.241-.7-.572-.327-.676-.576-.383-1.166.538-1.086,1.024-2.2,1.578-3.276.231-.45.419-.919.657-1.429-.379.1-.716.18-1.051.272-.868.235-1.734.476-2.606.691a1.2,1.2,0,0,1-.676.023c-.165-.055-.307-.145-.275-.359" transform="translate(-67.9 -36.341)"/>
          <path id="Trazado_129768" data-name="Trazado 129768" d="M63.095,1.594l.88.213a1.724,1.724,0,0,0,.889.735,7.647,7.647,0,0,1,3.873,9.5,6.562,6.562,0,0,1-.774,1.515,1,1,0,0,0-.119,1c.157.417.3.84.421,1.269s.015.525-.4.414a14.551,14.551,0,0,1-1.409-.434.95.95,0,0,0-.874.083,7.467,7.467,0,0,1-7.921.019,1.04,1.04,0,0,0-.963-.094c-.4.154-.812.284-1.225.4-.173.05-.377.153-.527.013s-.042-.349.012-.52c.114-.367.222-.737.367-1.092a1.142,1.142,0,0,0-.135-1.122,7.382,7.382,0,0,1-.324-7.637,7.289,7.289,0,0,1,5.385-3.934,1.4,1.4,0,0,0,1-.469l.892.031c.415.441.418.441.949.11" transform="translate(-38.578 -1.039)" fill="#efbf20"/>
          <path id="Trazado_129769" data-name="Trazado 129769" d="M40.017,117.561q0-.6,0-1.2c1.5-1.705,2.862-3.528,4.318-5.271a1.532,1.532,0,0,0,.291-1.7c-.222-.555-.4-1.128-.63-1.682a.522.522,0,0,1,.252-.764c.322-.178.644-.357.958-.552a1.145,1.145,0,0,0,.52-1.642q-.446-.985-.921-1.958c-.338-.689-.639-1.4-.98-2.084-.066-.133-.312-.429.151-.409,1.156.3,2.331.55,3.462.928a2.764,2.764,0,0,1,2.051,2.633c.06,4.565.021,9.131.02,13.7H46.926c-.2-.217-.148-.492-.148-.746q-.007-4.658,0-9.316a2.162,2.162,0,0,0-.058-.686c-.045-.137-.122-.262-.286-.259s-.225.138-.254.28a3.309,3.309,0,0,0-.031.644q0,4.682,0,9.363c0,.267.072.56-.162.783a.891.891,0,0,0-.449-.062l-5.514,0" transform="translate(-28.612 -71.713)" fill="#72c1e8"/>
          <path id="Trazado_129770" data-name="Trazado 129770" d="M124.829,117.537v-1.2c1.507-1.723,2.881-3.555,4.35-5.308a1.512,1.512,0,0,0,.286-1.623c-.223-.605-.429-1.217-.671-1.815a.458.458,0,0,1,.224-.651c.344-.2.7-.39,1.036-.6a1.128,1.128,0,0,0,.5-1.575c-.247-.579-.524-1.145-.8-1.711-.383-.788-.729-1.592-1.122-2.375-.076-.151-.278-.427.157-.424,1.1.286,2.2.55,3.293.865a3.055,3.055,0,0,1,2.248,2.891c.023,4.473.01,8.946.01,13.42a.465.465,0,0,1-.019.09l-2.584.012c-.216-.231-.15-.522-.15-.79q-.008-4.631,0-9.262a2.228,2.228,0,0,0-.053-.686c-.043-.135-.111-.266-.279-.262s-.229.135-.26.276a2.958,2.958,0,0,0-.035.643q0,4.654,0,9.308c0,.267.072.56-.165.781l-5.962,0" transform="translate(-89.253 -71.681)" fill="#868686"/>
          <path id="Trazado_129771" data-name="Trazado 129771" d="M89.761,100.739c.185.335.473.34.8.255q1.4-.368,2.8-.73c.442-.007.227.272.155.42-.312.651-.616,1.3-.925,1.957-.322.679-.666,1.348-.97,2.037a1.2,1.2,0,0,0,.5,1.7,10.216,10.216,0,0,0,.92.524.5.5,0,0,1,.282.743c-.237.583-.4,1.2-.664,1.766a1.321,1.321,0,0,0,.227,1.528c1.481,1.8,2.908,3.647,4.441,5.405q0,.6,0,1.2l-5.685-.006c-.137,0-.278-.018-.385.1-.221-.229-.152-.52-.153-.788q-.008-4.677,0-9.353a4.109,4.109,0,0,0-.019-.6c-.025-.168-.05-.362-.273-.36-.207,0-.267.181-.3.351a2.843,2.843,0,0,0-.032.6q0,4.654,0,9.307c0,.255.056.528-.145.747l-2.493,0a.793.793,0,0,1-.143-.61q-.005-6.424,0-12.847a2.058,2.058,0,0,1,.047-.549,1.79,1.79,0,0,0,0-1.039c.145-.282.427-.485.471-.824.646.069.646.069.737-.553l.824-.37" transform="translate(-62.691 -71.689)" fill="#868686"/>
          <path id="Trazado_129772" data-name="Trazado 129772" d="M12.778,116.286v1.2H6.733c-.25-.215-.172-.51-.173-.776q-.009-4.656,0-9.312a3.491,3.491,0,0,0-.024-.6c-.027-.155-.066-.319-.264-.32s-.258.153-.3.3a2.716,2.716,0,0,0-.042.689q0,4.61,0,9.22c0,.269.066.559-.15.791l-2.5,0c-.009-.153-.025-.305-.025-.458q0-6.238,0-12.476a3.231,3.231,0,0,1,2.765-3.6c.932-.246,1.866-.481,2.8-.72.206-.087.253.025.233.2a1,1,0,0,1-.134.342c-.572,1.088-1.038,2.227-1.609,3.315q-.1.183-.177.375c-.442,1.05-.283,1.455.708,2.035,1.279.748,1.159.354.66,1.83-.138.407-.294.808-.452,1.208a1.189,1.189,0,0,0,.223,1.287c1.474,1.769,2.857,3.613,4.4,5.327.041.046.07.1.111.147" transform="translate(-2.326 -71.638)" fill="#72c1e8"/>
          <path id="Trazado_129773" data-name="Trazado 129773" d="M59.332.414c-.023.359-.235.473-.572.525a7.38,7.38,0,0,0-6.407,5.884,7.188,7.188,0,0,0,1.062,5.634,1.062,1.062,0,0,1,.143,1.067c-.2.527-.359,1.072-.563,1.7.669-.217,1.273-.4,1.867-.61a.9.9,0,0,1,.824.089,7.355,7.355,0,0,0,7.975,0,.894.894,0,0,1,.823-.086c.589.207,1.187.389,1.859.606-.2-.617-.37-1.184-.574-1.738a.993.993,0,0,1,.135-.984A7.484,7.484,0,0,0,62.9,1.615a3.74,3.74,0,0,0-.422-.182.55.55,0,0,1-.422-.664c.2-.325.465-.322.795-.189A8.408,8.408,0,0,1,66.871,12.69a.938.938,0,0,0-.093.9c.241.679.447,1.369.677,2.051a.546.546,0,0,1-.078.639.535.535,0,0,1-.6.056c-.77-.258-1.547-.5-2.315-.76a.615.615,0,0,0-.555.056,8.283,8.283,0,0,1-8.467,0,.617.617,0,0,0-.555-.055c-.782.269-1.574.508-2.358.772a.484.484,0,0,1-.654-.662c.243-.743.473-1.49.732-2.227a.679.679,0,0,0-.056-.644A8.39,8.39,0,0,1,57.987.131c.225-.049.454-.079.681-.117a.51.51,0,0,1,.664.4" transform="translate(-36.658 0)"/>
          <path id="Trazado_129774" data-name="Trazado 129774" d="M25.214,57.007c.333,0,.476-.189.56-.5a3.219,3.219,0,0,1,6.35.826,21.329,21.329,0,0,1-.07,3.5,3.164,3.164,0,0,1-3.427,2.617,3.2,3.2,0,0,1-2.936-3.022c-.019-.354-.118-.592-.476-.68a2.471,2.471,0,0,0-.073-.9c.491-.383.491-.383.072-.943q0-.446,0-.893" transform="translate(-17.977 -38.628)" fill="#fdb59e"/>
          <path id="Trazado_129775" data-name="Trazado 129775" d="M85.712,108.029a.526.526,0,0,1,.223.711,2.771,2.771,0,0,0-.147.995q0,6.556,0,13.111c0,.076.013.152.019.229-.1.275-.233.527-.584.455s-.366-.357-.365-.648q0-6.562,0-13.124a4.5,4.5,0,0,1,.182-1.268c.1-.357.3-.52.668-.461" transform="translate(-60.673 -77.232)" fill="#010101"/>
          <path id="Trazado_129776" data-name="Trazado 129776" d="M77.149,74.322a.491.491,0,0,1-.383.446,2.006,2.006,0,0,0-1.476,1.705c-.065.293-.164.583-.542.579s-.477-.295-.528-.589a1.978,1.978,0,0,0-1.446-1.676.5.5,0,0,1-.413-.488.477.477,0,0,1,.4-.492A1.959,1.959,0,0,0,74.2,72.18a2.334,2.334,0,0,1,.1-.353.487.487,0,0,1,.9,0c.072.186.12.38.174.572a1.8,1.8,0,0,0,1.29,1.37.553.553,0,0,1,.484.549" transform="translate(-51.737 -51.144)"/>
          <path id="Trazado_129777" data-name="Trazado 129777" d="M60.941,132.748q0-5.231,0-10.463c0-.138,0-.277.007-.414a.45.45,0,0,1,.888-.058,1.984,1.984,0,0,1,.027.457q0,4.955,0,9.91c0,.168.012.337.018.505-.078.237-.179.455-.477.459a.447.447,0,0,1-.468-.4" transform="translate(-43.573 -86.84)" fill="#000101"/>
          <path id="Trazado_129778" data-name="Trazado 129778" d="M12.1,132.677q.009-3.754.018-7.508c0-1.044-.005-2.088,0-3.133,0-.451.284-.69.621-.559.286.111.3.35.3.607q-.005,1.981,0,3.962.006,3.316.016,6.633c-.05.264-.178.453-.474.455s-.408-.215-.484-.458" transform="translate(-8.655 -86.831)" fill="#000101"/>
          <path id="Trazado_129779" data-name="Trazado 129779" d="M96.936,132.7q.009-4.03.017-8.061c0-.86,0-1.72,0-2.58,0-.335.132-.6.5-.585.342.013.43.275.43.591q-.01,5.366-.01,10.732a.427.427,0,0,1-.451.361c-.3,0-.4-.223-.482-.459" transform="translate(-69.309 -86.853)" fill="#010101"/>
          <path id="Trazado_129780" data-name="Trazado 129780" d="M145.747,132.69q.006-5.207.013-10.414c0-.6.146-.876.473-.828.487.072.45.461.45.82q.006,5.207.014,10.413c-.071.245-.182.454-.478.454s-.426-.178-.472-.446" transform="translate(-104.209 -86.832)"/>
          <path id="Trazado_129781" data-name="Trazado 129781" d="M24.256,67.622c.257.082.485.2.457.519s-.24.424-.529.424a.454.454,0,0,1-.381-.494c.018-.272.228-.374.453-.449" transform="translate(-17.018 -48.35)" fill="#070606"/>
          <path id="Trazado_129782" data-name="Trazado 129782" d="M83.64.638a.46.46,0,0,1-.5.378C82.835,1,82.749.777,82.691.528c.1-.238.234-.445.534-.408s.4.242.415.518" transform="translate(-59.124 -0.083)" fill="#050503"/>
          <path id="Trazado_129783" data-name="Trazado 129783" d="M90.06,102.857c.148.253.17.5-.094.683a.458.458,0,0,1-.643-.13.433.433,0,0,1,.117-.6.462.462,0,0,1,.619.051" transform="translate(-63.814 -73.437)" fill="#040404"/>
          <path id="Trazado_129784" data-name="Trazado 129784" d="M24.146,102.433c.13.4,1.866,12.2,1.862,12.664-.766-.942-1.449-1.888-2.247-2.725a1.448,1.448,0,0,1-.3-1.858c.3-.632.485-1.321.747-1.974a.57.57,0,0,0-.306-.828c-.527-.28-1.038-.591-1.557-.886-.123-.07-.25-.121-.16-.308.65-1.348,1.3-2.7,1.959-4.084" transform="translate(-15.842 -73.24)" fill="#eee"/>
          <path id="Trazado_129785" data-name="Trazado 129785" d="M40.9,114.808l1.858-12.635c.688,1.461,1.313,2.805,1.955,4.141.108.225-.036.258-.166.332-.505.29-1,.6-1.518.864a.611.611,0,0,0-.317.9c.342.869.649,1.751.972,2.627.058.157.134.292-.007.464-.9,1.1-1.791,2.217-2.684,3.327l-.094-.023" transform="translate(-29.243 -73.054)" fill="#eee"/>
          <path id="Trazado_129786" data-name="Trazado 129786" d="M21.55,115.543c-.528-.217-.787-.713-1.122-1.117-1.181-1.423-2.333-2.869-3.5-4.3a1.223,1.223,0,0,1-.254-1.28c.257-.688.471-1.394.763-2.066.149-.343.036-.442-.243-.577a9.442,9.442,0,0,1-1.071-.624,1.136,1.136,0,0,1-.462-1.561c.636-1.379,1.306-2.741,1.948-4.116.053-.115.338-.3-.02-.418l1.144-.327c.058.181-.054.284-.108.4q-1.056,2.222-2.119,4.44c-.321.672-.291.764.343,1.122.454.256.9.53,1.361.771.246.129.314.255.2.53-.3.753-.541,1.533-.864,2.277a1.052,1.052,0,0,0,.216,1.243c1.108,1.315,2.154,2.682,3.275,3.985a1.84,1.84,0,0,1,.508,1.623" transform="translate(-11.098 -70.894)" fill="#4ba4c7"/>
          <path id="Trazado_129787" data-name="Trazado 129787" d="M43.9,99.53c-.29.056-.125.221-.07.338q.913,1.933,1.836,3.861a1.79,1.79,0,0,1,.254,1.009,1.142,1.142,0,0,1-.571.894c-.4.231-.785.479-1.2.685-.239.12-.251.255-.167.475.236.614.434,1.243.69,1.849a1.546,1.546,0,0,1-.306,1.732c-1.232,1.5-2.429,3.024-3.651,4.53a1.852,1.852,0,0,1-.778.689,1.854,1.854,0,0,1,.506-1.624c1.144-1.345,2.219-2.747,3.341-4.111a.87.87,0,0,0,.156-1c-.326-.793-.588-1.613-.9-2.411-.1-.261-.046-.38.189-.5.488-.257.964-.538,1.442-.815.547-.317.584-.429.319-.992q-1.038-2.205-2.081-4.408c-.071-.15-.138-.3-.229-.5a5.592,5.592,0,0,1,1.218.308" transform="translate(-28.534 -70.944)" fill="#4ba4c7"/>
          <path id="Trazado_129788" data-name="Trazado 129788" d="M35.037,115.339c-.4-2.714-.8-5.417-1.206-8.119a.823.823,0,0,1,.311-.92c.347-.246.61-.811.959-.787s.638.517.962.8a.735.735,0,0,1,.337.735c-.409,2.655-.8,5.314-1.191,7.971-.017.115.013.256-.171.324" transform="translate(-24.172 -75.441)" fill="#71c1e8"/>
          <path id="Trazado_129789" data-name="Trazado 129789" d="M35.438,93.027c-.512.508-1.129.883-1.681,1.34a.225.225,0,0,1-.327,0c-.549-.461-1.167-.835-1.681-1.34-.007-.013-.02-.027-.021-.04-.067-1.213-.111-1.15.977-.9a4.712,4.712,0,0,0,2.091-.069c.673-.152.691-.133.685.566a.832.832,0,0,1-.043.449" transform="translate(-22.665 -65.734)" fill="#fdb59e"/>
          <path id="Trazado_129790" data-name="Trazado 129790" d="M35.406,90.944c-.049-.316.13-.728-.081-.929s-.565.069-.856.121a4.862,4.862,0,0,1-2.348-.123c-.307-.1-.423-.044-.4.288.017.212,0,.427-.008.642a13.565,13.565,0,0,1-.041-1.922,4.989,4.989,0,0,0,3.773,0,13.1,13.1,0,0,1-.042,1.921" transform="translate(-22.633 -63.651)" fill="#e98e7b"/>
          <path id="Trazado_129791" data-name="Trazado 129791" d="M32.547,102.03l-.207-1.455a5.458,5.458,0,0,1,.988.715l-.781.74" transform="translate(-23.123 -71.911)" fill="#6ebbe1"/>
          <path id="Trazado_129792" data-name="Trazado 129792" d="M42.049,101.94c-.809-.7-.809-.7-.05-1.269l.23-.17a7.016,7.016,0,0,1-.18,1.439" transform="translate(-29.627 -71.858)" fill="#6fbde2"/>
          <path id="Trazado_129793" data-name="Trazado 129793" d="M118.171,58.974a12.4,12.4,0,0,1-.063,1.9,3.189,3.189,0,0,1-3.36,2.6,3.137,3.137,0,0,1-2.995-2.907,17.446,17.446,0,0,1,.054-3.91,3.176,3.176,0,0,1,3.365-2.595,3.239,3.239,0,0,1,2.994,3.08c.02.553,0,1.107,0,1.834" transform="translate(-79.845 -38.647)" fill="#fdb59e"/>
          <path id="Trazado_129794" data-name="Trazado 129794" d="M110.791,115.2c-.753-.925-1.473-1.881-2.273-2.764a1.236,1.236,0,0,1-.251-1.585,18.434,18.434,0,0,0,.744-1.979c.229-.632.194-.714-.408-1.057-.467-.266-.933-.534-1.4-.8-.124-.07-.25-.124-.159-.312.643-1.338,1.282-2.679,2.017-4.008l1.831,12.458-.1.046" transform="translate(-76.514 -73.425)" fill="#868686"/>
          <path id="Trazado_129795" data-name="Trazado 129795" d="M125.747,115.134l1.832-12.46.083-.019q.41.862.82,1.725c.327.693.629,1.4.987,2.077.176.333.087.466-.211.618-.478.244-.926.545-1.4.789a.587.587,0,0,0-.316.834c.331.891.657,1.784.985,2.675.058.156.14.3,0,.467-.9,1.105-1.787,2.218-2.678,3.328l-.1-.034" transform="translate(-89.909 -73.398)" fill="#868686"/>
          <path id="Trazado_129796" data-name="Trazado 129796" d="M128.733,99.522c-.33.079-.106.258-.052.374q.9,1.937,1.825,3.867a1.321,1.321,0,0,1-.6,2.032c-.387.241-1,.347-1.109.74-.1.351.247.82.4,1.237a3.014,3.014,0,0,0,.16.431,2.053,2.053,0,0,1-.452,2.574c-1.176,1.349-2.255,2.782-3.386,4.17a1.735,1.735,0,0,1-.749.659,1.894,1.894,0,0,1,.508-1.626c1.187-1.384,2.3-2.83,3.447-4.25a.625.625,0,0,0,.112-.68c-.322-.829-.609-1.671-.936-2.5-.127-.32-.076-.492.241-.65.507-.254.986-.562,1.481-.839a.546.546,0,0,0,.25-.835c-.792-1.643-1.56-3.3-2.361-5a5.81,5.81,0,0,1,1.22.292" transform="translate(-89.192 -70.949)" fill="#4c4944"/>
          <path id="Trazado_129797" data-name="Trazado 129797" d="M106.431,115.5c-.515-.211-.766-.7-1.093-1.09-1.183-1.429-2.342-2.878-3.509-4.32a1.29,1.29,0,0,1-.234-1.412c.271-.651.492-1.322.752-1.978.1-.243.07-.381-.182-.505a11.735,11.735,0,0,1-1.118-.641,1.24,1.24,0,0,1-.472-1.682c.645-1.359,1.3-2.715,1.939-4.076.054-.113.285-.294-.05-.374l1.229-.336c-.207.453-.373.834-.553,1.21-.589,1.231-1.186,2.458-1.774,3.69-.292.61-.247.736.33,1.06.481.27.951.562,1.442.813.237.121.25.251.165.472-.308.8-.6,1.609-.905,2.409a.9.9,0,0,0,.147,1.012c1.148,1.376,2.239,2.8,3.408,4.158a1.89,1.89,0,0,1,.477,1.591" transform="translate(-71.803 -70.846)" fill="#4c4944"/>
          <path id="Trazado_129798" data-name="Trazado 129798" d="M119.9,115.447q-.257-1.725-.514-3.449c-.235-1.594-.453-3.19-.71-4.781a.855.855,0,0,1,.33-.954c.345-.25.6-.806.964-.779.323.023.612.509.917.791.211.2.412.351.355.724-.433,2.817-.836,5.638-1.249,8.458l-.094-.009" transform="translate(-84.834 -75.42)" fill="#71c1e8"/>
          <path id="Trazado_129799" data-name="Trazado 129799" d="M120.309,93.027c-.518.5-1.132.882-1.683,1.34-.143.119-.247.05-.363-.04-.5-.385-.988-.778-1.5-1.144-.207-.149-.175-.337-.175-.531,0-.214.012-.428.019-.642.221-.154.444-.049.662,0A5.04,5.04,0,0,0,119.718,92c.583-.153.637-.1.63.487a1.22,1.22,0,0,1-.039.541" transform="translate(-83.36 -65.726)" fill="#fcb59e"/>
          <path id="Trazado_129800" data-name="Trazado 129800" d="M120.362,90.969c-.065-.324.15-.777-.117-.945-.194-.121-.6.109-.91.16a5.566,5.566,0,0,1-2.316-.156c-.118-.031-.238-.051-.357-.077V89.09c.1-.093.174-.008.251.022a4.123,4.123,0,0,0,3.172,0c.279-.115.353-.063.334.223a8.389,8.389,0,0,1-.056,1.631" transform="translate(-83.413 -63.669)" fill="#e98e7b"/>
          <path id="Trazado_129801" data-name="Trazado 129801" d="M126.482,101.876l-.795-.751,1.007-.769c-.076.547-.138.987-.212,1.52" transform="translate(-89.866 -71.754)" fill="#6ebbe0"/>
          <path id="Trazado_129802" data-name="Trazado 129802" d="M118.161,101.27l-.773.734-.216-1.455a6.136,6.136,0,0,1,.99.721" transform="translate(-83.777 -71.892)" fill="#6fbce2"/>
          <path id="Trazado_129803" data-name="Trazado 129803" d="M67.624,20.612c-1.337,0-2.675,0-4.012,0-.863,0-1.224-.372-1.226-1.245q-.006-2.26,0-4.519c0-.886.381-1.26,1.264-1.263.461,0,.923-.011,1.383,0,.242.007.347-.042.356-.323.048-1.485.2-1.623,1.716-1.623.538,0,1.076-.006,1.614,0a1.033,1.033,0,0,1,1.136,1.147c.016.792.016.792.8.792.369,0,.738-.008,1.107,0A1,1,0,0,1,72.84,14.6q.036,2.49,0,4.98a.991.991,0,0,1-1.114,1.024c-1.368.011-2.736,0-4.1,0" transform="translate(-44.603 -8.322)"/>
          <path id="Trazado_129804" data-name="Trazado 129804" d="M91.413,112.393q0-2.235,0-4.471a2.508,2.508,0,0,1,2.539-2.5.438.438,0,0,1,.185.851c-.2.073-.41.126-.617.182a1.415,1.415,0,0,0-1.183,1.527q-.005,4.378,0,8.757c0,.123,0,.246,0,.369,0,.316-.136.569-.471.562s-.455-.245-.453-.573c.007-1.567,0-3.134,0-4.7" transform="translate(-65.358 -75.373)" fill="#eee"/>
          <path id="Trazado_129805" data-name="Trazado 129805" d="M92.311,152.453c.011.267,0,.53-.279.673a.419.419,0,0,1-.561-.162,1.432,1.432,0,0,1,.037-1.1.442.442,0,0,1,.587-.074c.244.15.226.414.217.662" transform="translate(-65.335 -108.474)" fill="#ededed"/>
          <path id="Trazado_129806" data-name="Trazado 129806" d="M6.606,112.383c0-1.507,0-3.014,0-4.521a2.5,2.5,0,0,1,2.585-2.39.387.387,0,0,1,.426.338.406.406,0,0,1-.3.5c-.247.08-.5.138-.749.219a1.358,1.358,0,0,0-1.041,1.442q0,4.405,0,8.811c0,.108,0,.215,0,.323,0,.333-.139.616-.483.612s-.444-.3-.442-.629c.007-1.568,0-3.137,0-4.705" transform="translate(-4.72 -75.412)" fill="#c4e4fd"/>
          <path id="Trazado_129807" data-name="Trazado 129807" d="M7.469,152.484a.869.869,0,0,1-.086.492.444.444,0,0,1-.5.246c-.288-.068-.439-.595-.334-1.1a.408.408,0,0,1,.51-.343c.432.055.394.4.408.7" transform="translate(-4.661 -108.521)" fill="#c3e4fd"/>
          <path id="Trazado_129808" data-name="Trazado 129808" d="M33.411,75.365a1.935,1.935,0,0,1-1.872-1.8c-.01-.3.074-.533.393-.573.341-.042.486.166.534.487a1.011,1.011,0,0,0,2.019.009c.046-.325.187-.536.525-.5s.425.3.4.611a1.945,1.945,0,0,1-2,1.764" transform="translate(-22.55 -52.184)" fill="#010100"/>
          <path id="Trazado_129809" data-name="Trazado 129809" d="M79.112,80.083a1.576,1.576,0,0,1-.157-.194c-.132-.236-.53-.351-.49-.591s.336-.412.517-.617c.056-.063.109-.2.2-.084a6.946,6.946,0,0,0,.569.656c.1.1-.034.152-.09.214l-.548.615" transform="translate(-56.1 -56.165)" fill="#ecbd20"/>
          <path id="Trazado_129810" data-name="Trazado 129810" d="M118.309,75.362a1.944,1.944,0,0,1-1.94-1.732c-.032-.327.042-.61.413-.646.336-.032.47.188.513.513a1.01,1.01,0,0,0,2.015.011c.043-.318.166-.551.506-.525.374.028.446.31.422.638a1.937,1.937,0,0,1-1.928,1.742" transform="translate(-83.198 -52.181)" fill="#010100"/>
          <path id="Trazado_129811" data-name="Trazado 129811" d="M69.893,32.547c-1.275,0-2.551-.01-3.826.007-.344,0-.494-.064-.476-.451.032-.705.029-1.414,0-2.12-.015-.363.12-.412.42-.327.176.05.361.073.542.105.267.048.486.081.549.453a.421.421,0,0,0,.782.074.317.317,0,0,1,.43-.173c.133.035.275.042.4.087a5.405,5.405,0,0,0,2.987-.127c.253-.053.49-.159.6.222.057.195.271.236.469.2a.437.437,0,0,0,.363-.419c.017-.127-.043-.29.167-.32.286-.04.569-.1.856-.12.08,0,.06.156.06.244,0,.783-.011,1.567.007,2.35.008.339-.192.317-.417.317q-1.959,0-3.918,0" transform="translate(-46.897 -21.179)" fill="#71c1e8"/>
          <path id="Trazado_129812" data-name="Trazado 129812" d="M69.965,21.68c1.29,0,2.579.009,3.869-.007.3,0,.433.083.394.388a1.065,1.065,0,0,0,0,.138c0,.8-.087.887-.882.942-.182.013-.226-.1-.321-.2a.426.426,0,0,0-.761.156c-.071.259-.208.3-.412.327a3.681,3.681,0,0,0-.63.128,5.325,5.325,0,0,1-2.983-.074c-.161-.037-.269-.082-.272-.29a.42.42,0,0,0-.376-.406.412.412,0,0,0-.484.265c-.069.167-.151.2-.311.144a2.892,2.892,0,0,0-.361-.069c-.846-.167-.827-.168-.84-1.026-.006-.361.123-.432.454-.428,1.3.017,2.61.007,3.915.007" transform="translate(-46.901 -15.496)" fill="#71c1e8"/>
          <path id="Trazado_129813" data-name="Trazado 129813" d="M77.3,15.9h-.642c-.655,0-.8-.189-.652-.834.036-.162.124-.185.258-.185.7,0,1.407.005,2.11,0,.2,0,.25.09.265.275.062.747.068.746-.7.746H77.3" transform="translate(-54.31 -10.636)" fill="#eebf20"/>
        </g>
      </g>
    </g>
  </g>
</svg>
