<svg xmlns="http://www.w3.org/2000/svg" xmlns:xlink="http://www.w3.org/1999/xlink" width="70" height="85" viewBox="0 0 70 85">
  <defs>
    <clipPath id="clip-path">
      <rect id="Rect치ngulo_37139" data-name="Rect치ngulo 37139" width="50.322" height="48.755" fill="none"/>
    </clipPath>
  </defs>
  <g id="Grupo_163935" data-name="Grupo 163935" transform="translate(-1238 -1837)">
    <rect id="Rect치ngulo_37872" data-name="Rect치ngulo 37872" width="70" height="85" rx="12" transform="translate(1238 1837)" fill="#1169e3"/>
    <g id="Grupo_156585" data-name="Grupo 156585" transform="translate(565 -2805.486)">
      <g id="Grupo_156581" data-name="Grupo 156581" transform="translate(683 4660)">
        <g id="Grupo_156580" data-name="Grupo 156580" transform="translate(0 0)" clip-path="url(#clip-path)">
          <path id="Trazado_127031" data-name="Trazado 127031" d="M50.318,34.813c-.005-.725-.285-1.035-1.018-.988-.5.032-.564-.146-.563-.593q.021-14.125.01-28.25a2.393,2.393,0,0,0-2.618-2.622q-7.885,0-15.771,0c-.406,0-.936.133-1.185-.07s-.053-.766-.082-1.169c-.007-.1,0-.2,0-.294a.776.776,0,0,0-.8-.816q-3.119-.021-6.239,0a.768.768,0,0,0-.812.8,7.066,7.066,0,0,0,0,1.08c.039.39-.1.476-.477.476q-8.3-.019-16.606-.009a2.383,2.383,0,0,0-2.581,2.56q0,4.913,0,9.826,0,9.31.009,18.621c0,.365-.081.5-.451.446A1.1,1.1,0,0,0,0,34.3v2.948a1.286,1.286,0,0,0,1.18.5c4.536-.013,9.073-.008,13.609-.008h.528a.476.476,0,0,1-.05.352q-1.691,4.725-3.379,9.45c-.259.723.06,1.2.826,1.2,1.228,0,2.457-.008,3.685.005a.849.849,0,0,0,.906-.65c.338-.988.711-1.964,1.042-2.955a.42.42,0,0,1,.488-.337q6.313.013,12.626,0a.451.451,0,0,1,.523.358c.324.975.7,1.934,1.025,2.908a.867.867,0,0,0,.936.675c1.228-.015,2.456,0,3.685-.006.735,0,1.059-.485.81-1.178-1.118-3.118-2.224-6.241-3.359-9.353-.168-.461-.028-.484.374-.483q6.9.018,13.806.007c.8,0,1.056-.263,1.059-1.062,0-.622,0-1.244,0-1.867M23.134,1.568c.686.023,1.374.007,2.061.007.654,0,1.309.019,1.962-.009.319-.014.389.1.368.388-.017.236.028.424-.339.417q-2.035-.038-4.072,0c-.391.007-.294-.223-.316-.437-.027-.262.038-.376.337-.366M3.145,5.163c0-1.022.209-1.229,1.239-1.229h39.7c.179,0,.359.01.539.015.556-.005,1.113-.023,1.668-.013a.813.813,0,0,1,.885.89c0,.1,0,.2,0,.294q0,14.069.01,28.137c0,.44-.1.6-.556.562-.6-.046-1.21-.021-1.815-.026-.18.005-.36.015-.54.015q-20.266,0-40.532.013c-.491,0-.611-.11-.61-.607q.026-14.027.013-28.053m14.1,38.4c-.368,1.029-.762,2.05-1.089,3.092-.132.42-.317.595-.75.526a3.751,3.751,0,0,0-.589-.005h-.54c-.582,0-.584,0-.4-.523C14.888,43.826,15.905,41,16.9,38.168c.118-.335.269-.458.621-.434.472.032.949.018,1.423,0,.272-.008.383.019.264.345-.668,1.822-1.314,3.653-1.967,5.481m13.505-.318q-5.575,0-11.148-.01c-.165,0-.51.168-.489-.14.019-.278.049-.68.585-.651.914.049,1.833.014,2.75.014h7.907c.727,0,.727,0,.883.786ZM19.882,40.867c.357-1,.71-1.963,1.041-2.933.067-.2.188-.192.337-.192h7.8c.152,0,.268,0,.335.2.331.97.684,1.932,1.04,2.929ZM36.07,45.627c.175.49.348.98.55,1.549-.732,0-1.407-.005-2.082,0-.273,0-.254-.227-.307-.373q-1.4-3.892-2.782-7.788c-.141-.4-.281-.8-.45-1.275.707,0,1.345.02,1.982-.009.306-.014.342.183.411.377q1.342,3.758,2.68,7.517m12.324-9.453c-.67-.021-1.342-.015-2.012-.019-.147,0-.294.013-.442.013l-43.827,0c-.292,0-.592.077-.555-.42.024-.315.124-.372.407-.372q22.159.01,44.319.008a.877.877,0,0,1,.1.011c.671,0,1.342.006,2.012-.02.342-.013.354.165.359.424s-.072.382-.359.373" transform="translate(0 0)"/>
          <path id="Trazado_127032" data-name="Trazado 127032" d="M8.343,39.6q20.266-.022,40.532-.013c.18,0,.36-.011.54-.016q0-14.5.005-29a1.86,1.86,0,0,0-.2-.847c-.18-.005-.36-.015-.539-.015H8.985c-1.03,0-1.239.207-1.239,1.23q0,14.026-.013,28.053c0,.5.119.607.61.607m21.187-4.5c.245.216.469.457.7.692a.954.954,0,0,1,.314.645.774.774,0,0,1-1.117.688,2.266,2.266,0,0,1-.386-.3c-.3-.248-.524-.768-.855-.733-.309.032-.574.483-.858.75-.036.034-.069.07-.106.1A.789.789,0,0,1,26.073,37a.778.778,0,0,1,.026-1.142,10.613,10.613,0,0,1,.763-.765c.173-.159.177-.274,0-.435a10.45,10.45,0,0,1-.763-.765.784.784,0,1,1,1.114-1.1,4.782,4.782,0,0,1,.623.625c.265.343.468.3.717-.016a4.918,4.918,0,0,1,.624-.625.782.782,0,1,1,1.116,1.1,9.054,9.054,0,0,1-.762.765c-.192.173-.2.3,0,.47M41.218,18.589c.308-.114.342-.27.34-.536-.008-1.162-.006-2.325,0-3.487,0-.644.279-.922.924-.923,1.49,0,2.98-.005,4.47,0,.773,0,1.169.614.738,1.257a1.762,1.762,0,0,0-.013,2.176c.44.684.06,1.277-.749,1.282-1.1.006-2.194,0-3.291,0h-.462A5.025,5.025,0,0,1,44.748,19.5a3.141,3.141,0,1,1-3.53-.913m-1.973,10.5c.738.735.738.735,1.47,0,.035-.035.069-.07.1-.1.484-.471.926-.528,1.285-.166s.289.791-.171,1.288c-.262.283-.766.5-.725.858.034.3.471.55.736.817.322.324.544.671.267,1.13a.752.752,0,0,1-1.185.16,8.148,8.148,0,0,1-.805-.79c-.173-.189-.291-.2-.471-.005a10.921,10.921,0,0,1-.886.846.674.674,0,0,1-.824.06.79.79,0,0,1-.411-.669,1.271,1.271,0,0,1,.493-.832c.745-.746.744-.746.022-1.47-.576-.578-.665-1-.288-1.389s.819-.307,1.389.262M24.491,12.313a.789.789,0,0,1,1.144.025c.346.292.608.883,1,.854.339-.025.634-.557.961-.852a.77.77,0,0,1,.9-.19.791.791,0,0,1,.468.621.758.758,0,0,1-.18.568c-.324.365-.893.7-.927,1.083-.036.4.624.683.915,1.074a.761.761,0,0,1-.052,1.066.752.752,0,0,1-1.067,0,8.521,8.521,0,0,1-.8-.791c-.175-.192-.3-.192-.47,0a9.055,9.055,0,0,1-.765.762.772.772,0,0,1-1.107.028.785.785,0,0,1,.008-1.144c.292-.347.88-.61.861-1-.016-.333-.551-.635-.843-.963a.78.78,0,0,1-.043-1.143M18.183,28.054a11.642,11.642,0,0,1,1.465-1.378,25.83,25.83,0,0,1,11.037-5.3,30.393,30.393,0,0,1,4.258-.6c-.127-.169-.227-.29-.315-.42a.709.709,0,0,1,.1-.979.669.669,0,0,1,.938-.094,12.941,12.941,0,0,1,1.843,1.826.72.72,0,0,1-.165,1.011c-.433.423-.862.851-1.293,1.277-.5.5-.851.58-1.24.3s-.417-.639-.055-1.312a23.929,23.929,0,0,0-2.573.308,25.029,25.029,0,0,0-10.01,4.055,18.65,18.65,0,0,0-2.692,2.208.988.988,0,0,1-.807.4.758.758,0,0,1-.634-.478.727.727,0,0,1,.14-.822M12.548,18.042a.746.746,0,0,1,1.191-.27,7.6,7.6,0,0,1,.846.817c.175.19.292.192.471,0a11.059,11.059,0,0,1,.886-.846.674.674,0,0,1,.824-.058.79.79,0,0,1,.409.669,1.277,1.277,0,0,1-.495.832c-.743.744-.742.745-.019,1.47.576.577.663,1,.284,1.389s-.818.305-1.389-.265c-.736-.734-.736-.734-1.47,0l-.1.1c-.484.47-.927.526-1.285.163s-.286-.79.174-1.288c.262-.283.766-.5.724-.858-.035-.3-.474-.549-.737-.817-.289-.294-.517-.606-.311-1.044m2.293,11.329a3.141,3.141,0,1,1-3.161,3.1,3.175,3.175,0,0,1,3.161-3.1" transform="translate(-4.601 -5.777)" fill="#48ceac"/>
          <path id="Trazado_127033" data-name="Trazado 127033" d="M110.487,10.294a5.068,5.068,0,0,1,.026.736q0,13.8,0,27.6c0,.319.082.661-.159.943.605.005,1.213-.02,1.815.026.458.035.556-.122.556-.562q-.02-14.069-.01-28.137c0-.1,0-.2,0-.294a.813.813,0,0,0-.885-.89c-.556-.01-1.112.007-1.668.013a.647.647,0,0,1,.33.566" transform="translate(-65.537 -5.778)" fill="#37bb9a"/>
          <path id="Trazado_127034" data-name="Trazado 127034" d="M110.351,39.6c.241-.282.159-.624.159-.943q.007-13.8,0-27.6a5.01,5.01,0,0,0-.026-.736.647.647,0,0,0-.33-.566,1.852,1.852,0,0,1,.2.847q-.007,14.5-.005,29" transform="translate(-65.537 -5.801)" fill="#37bb9a"/>
          <path id="Trazado_127035" data-name="Trazado 127035" d="M48.665,87.362a.877.877,0,0,0-.1-.011q-22.159,0-44.319-.008c-.283,0-.384.057-.407.372-.037.5.262.42.555.42l43.827,0c.147,0,.294-.009.442-.014v-.757" transform="translate(-2.284 -51.964)" fill="#656d78"/>
          <path id="Trazado_127036" data-name="Trazado 127036" d="M39.167,93.157c-.474.013-.951.028-1.423,0-.352-.024-.5.1-.621.434-1,2.833-2.013,5.658-3.023,8.486-.187.523-.186.523.4.523h.54a3.8,3.8,0,0,1,.589.005c.433.069.618-.106.75-.526.328-1.042.722-2.063,1.09-3.092.653-1.828,1.3-3.659,1.967-5.481.119-.326.008-.352-.264-.345" transform="translate(-20.221 -55.419)" fill="#fed1a5"/>
          <path id="Trazado_127037" data-name="Trazado 127037" d="M78.509,93.155c-.636.029-1.274.008-1.981.008.169.479.309.877.45,1.275q1.388,3.9,2.782,7.788c.053.147.035.377.307.373.675-.008,1.35,0,2.082,0-.2-.57-.375-1.06-.55-1.549q-1.339-3.759-2.679-7.517c-.069-.193-.1-.39-.411-.377" transform="translate(-45.53 -55.421)" fill="#fed1a5"/>
          <path id="Trazado_127038" data-name="Trazado 127038" d="M58.419,104.8H50.512c-.917,0-1.835.036-2.749-.014-.536-.029-.566.372-.585.651-.021.308.324.139.489.14q5.574.018,11.148.009H59.3c-.156-.786-.156-.786-.883-.786" transform="translate(-28.068 -62.342)" fill="#f6c191"/>
          <path id="Trazado_127039" data-name="Trazado 127039" d="M56.591,4.67q2.035-.035,4.072,0c.367.007.322-.181.339-.417.021-.289-.049-.4-.368-.388-.653.028-1.308.008-1.962.008-.687,0-1.374.016-2.06-.007-.3-.01-.363.1-.337.366.022.213-.075.444.316.437" transform="translate(-33.477 -2.3)" fill="#fed1a5"/>
          <path id="Trazado_127040" data-name="Trazado 127040" d="M116.518,87.338c-.67.026-1.342.016-2.012.02a.569.569,0,0,1,0,.758c.671,0,1.342,0,2.012.019.288.009.365-.1.359-.373s-.017-.437-.359-.424" transform="translate(-68.124 -51.961)" fill="#434a54"/>
          <path id="Trazado_127041" data-name="Trazado 127041" d="M114.506,87.39v.757a.569.569,0,0,0,0-.757" transform="translate(-68.124 -51.992)" fill="#434a54"/>
          <path id="Trazado_127042" data-name="Trazado 127042" d="M87.767,30.311a3.132,3.132,0,0,0,3.2-5.038,5.025,5.025,0,0,0-1.575-1.142h.462c1.1,0,2.194,0,3.291,0,.809,0,1.189-.6.749-1.282a1.762,1.762,0,0,1,.013-2.176c.431-.642.035-1.254-.738-1.257-1.49-.006-2.98,0-4.47,0-.645,0-.922.279-.924.923,0,1.163-.006,2.325,0,3.488,0,.265-.032.422-.34.535a3.118,3.118,0,0,0-2.013,3.068,3.162,3.162,0,0,0,2.345,2.883m2.772-9.325h1.473a1.282,1.282,0,0,0,0,1.572c-.862,0-1.641,0-2.42,0-.192,0-.27-.07-.25-.257a.328.328,0,0,0,0-.049c-.074-1.269-.074-1.269,1.195-1.269m-2.767,4.988c0,.416,0,.775,0,1.134.009.583.3.939.771.948.489.01.791-.354.8-.969,0-.356,0-.711,0-1.081a1.408,1.408,0,0,1,.766,1.54,1.6,1.6,0,0,1-1.464,1.3,1.557,1.557,0,0,1-1.585-1.132,1.452,1.452,0,0,1,.712-1.738" transform="translate(-50.818 -11.549)"/>
          <path id="Trazado_127043" data-name="Trazado 127043" d="M33.716,43.2a.987.987,0,0,0,.807-.4,18.694,18.694,0,0,1,2.692-2.208,25.028,25.028,0,0,1,10.01-4.055,23.953,23.953,0,0,1,2.573-.308c-.362.673-.338,1.027.055,1.312s.739.2,1.24-.3c.431-.426.859-.854,1.293-1.277a.719.719,0,0,0,.165-1.011,12.917,12.917,0,0,0-1.843-1.826.669.669,0,0,0-.939.094.709.709,0,0,0-.1.979c.087.13.188.252.315.42a30.4,30.4,0,0,0-4.258.6,25.826,25.826,0,0,0-11.036,5.3A11.587,11.587,0,0,0,33.222,41.9a.727.727,0,0,0-.14.822.758.758,0,0,0,.634.478" transform="translate(-19.639 -19.62)"/>
          <path id="Trazado_127044" data-name="Trazado 127044" d="M20.6,64.53a3.141,3.141,0,1,0-3.122-3.185A3.175,3.175,0,0,0,20.6,64.53m.021-4.711a1.57,1.57,0,1,1-1.572,1.6,1.581,1.581,0,0,1,1.572-1.6" transform="translate(-10.398 -34.653)"/>
          <path id="Trazado_127045" data-name="Trazado 127045" d="M49.655,17.89c.019.388-.569.652-.861,1a.785.785,0,0,0-.009,1.144.772.772,0,0,0,1.107-.028,9.115,9.115,0,0,0,.765-.762c.173-.193.3-.193.47,0a8.525,8.525,0,0,0,.8.791.752.752,0,0,0,1.067,0,.761.761,0,0,0,.052-1.066c-.292-.391-.951-.67-.915-1.074.034-.384.6-.718.927-1.083a.758.758,0,0,0,.18-.568.791.791,0,0,0-.469-.621.769.769,0,0,0-.9.19c-.327.295-.622.828-.961.852-.393.029-.654-.562-1-.854a.788.788,0,0,0-1.144-.025.779.779,0,0,0,.043,1.143c.292.329.827.63.843.963" transform="translate(-28.879 -9.249)"/>
          <path id="Trazado_127046" data-name="Trazado 127046" d="M20.553,31.451c.042.355-.463.575-.724.858-.461.5-.531.926-.174,1.288s.8.307,1.285-.163c.035-.034.07-.069.1-.1.734-.732.734-.732,1.47,0,.572.57,1.009.653,1.389.265s.291-.813-.285-1.389c-.723-.725-.724-.725.019-1.47a1.275,1.275,0,0,0,.495-.832.789.789,0,0,0-.409-.669.674.674,0,0,0-.824.059,11.049,11.049,0,0,0-.886.845c-.179.19-.3.188-.471,0a7.6,7.6,0,0,0-.846-.817.746.746,0,0,0-1.191.27c-.206.439.023.75.311,1.044.263.268.7.519.737.817" transform="translate(-11.557 -17.326)"/>
          <path id="Trazado_127047" data-name="Trazado 127047" d="M82.051,57.94c.722.723.723.724-.022,1.47a1.273,1.273,0,0,0-.493.832.791.791,0,0,0,.411.669.675.675,0,0,0,.824-.061A10.986,10.986,0,0,0,83.656,60c.18-.192.3-.184.471,0a8.147,8.147,0,0,0,.805.79.752.752,0,0,0,1.185-.16c.277-.459.055-.806-.267-1.13-.265-.267-.7-.52-.736-.817-.041-.354.463-.575.725-.858.46-.5.529-.927.171-1.288s-.8-.3-1.285.166l-.1.1c-.733.731-.733.731-1.47,0-.57-.569-1.009-.651-1.389-.262s-.289.812.288,1.389" transform="translate(-48.509 -33.501)"/>
          <path id="Trazado_127048" data-name="Trazado 127048" d="M56.883,67.37a.782.782,0,1,0-1.116-1.1,4.889,4.889,0,0,0-.624.625c-.249.311-.451.359-.717.016a4.76,4.76,0,0,0-.623-.626.784.784,0,1,0-1.114,1.1,10.532,10.532,0,0,0,.763.765c.175.161.172.276,0,.435a10.451,10.451,0,0,0-.763.765.777.777,0,0,0-.026,1.142.789.789,0,0,0,1.144-.043c.037-.032.07-.069.106-.1.284-.267.549-.717.858-.75.331-.035.557.485.855.734a2.287,2.287,0,0,0,.386.3.774.774,0,0,0,1.117-.688.954.954,0,0,0-.314-.646c-.228-.235-.452-.476-.7-.692-.2-.173-.191-.3,0-.47a8.994,8.994,0,0,0,.762-.765" transform="translate(-31.19 -39.277)"/>
          <path id="Trazado_127049" data-name="Trazado 127049" d="M90.952,38.482a1.6,1.6,0,0,0,1.464-1.3,1.407,1.407,0,0,0-.765-1.54c0,.369,0,.725,0,1.081-.008.615-.31.979-.8.969-.469-.009-.762-.364-.771-.947-.006-.359,0-.719,0-1.134a1.451,1.451,0,0,0-.712,1.738,1.556,1.556,0,0,0,1.585,1.132" transform="translate(-53.126 -21.188)" fill="#f3f5f8"/>
          <path id="Trazado_127050" data-name="Trazado 127050" d="M95.074,24.617c-.02.187.058.259.25.257.779-.007,1.558,0,2.42,0a1.282,1.282,0,0,1,0-1.572H96.268c-1.269,0-1.269,0-1.195,1.269a.328.328,0,0,1,0,.049" transform="translate(-56.548 -13.862)" fill="#ec5565"/>
          <path id="Trazado_127051" data-name="Trazado 127051" d="M22.951,65.266a1.57,1.57,0,1,0-1.592-1.534,1.581,1.581,0,0,0,1.592,1.534m0-2.351a.781.781,0,0,1,.006,1.562.823.823,0,0,1-.789-.779.814.814,0,0,1,.783-.783" transform="translate(-12.707 -36.962)" fill="#f3f5f8"/>
          <path id="Trazado_127052" data-name="Trazado 127052" d="M24.134,65.636a.781.781,0,0,0-.006-1.562.814.814,0,0,0-.783.783.823.823,0,0,0,.789.779" transform="translate(-13.889 -38.12)" fill="#030303"/>
        </g>
      </g>
      <g id="Grupo_156584" data-name="Grupo 156584" transform="translate(326 -5.514)">
        <path id="Trazado_127053" data-name="Trazado 127053" d="M15.507,123.96c-.454.1-.559-.113-.555-.537.012-1.063-.007-1.081-1.106-1.075-.409,0-.536-.124-.528-.529.007-.377.077-.553.512-.551,1.1,0,1.131-.018,1.119-1.119-.005-.5.239-.507.608-.511s.56.058.56.5c0,1.115.023,1.135,1.112,1.131.421,0,.521.15.522.541s-.1.541-.52.539c-1.11-.006-1.137.014-1.112,1.066.012.488-.169.631-.611.545" transform="translate(339.683 4576.256)" fill="#29c4bb"/>
        <path id="Trazado_127054" data-name="Trazado 127054" d="M213.642,151.161c.406-.078.632.057.565.517-.056.385.077.6.5.533s.57.088.573.537c0,.47-.189.578-.589.525-.383-.052-.5.115-.5.5.012.6-.357.826-.934.645-.274-.086-.214-.3-.2-.477.048-.472-.06-.76-.616-.666-.431.073-.457-.2-.456-.527s.014-.6.451-.53c.471.073.694-.1.616-.6-.075-.475.23-.5.582-.454" transform="translate(195.806 4555.561)" fill="#29c4bb"/>
        <path id="Trazado_127055" data-name="Trazado 127055" d="M210.718,69.268c.1.453-.1.608-.527.537-.46-.078-.648.111-.567.569s-.113.548-.542.553-.609-.127-.532-.557c.082-.459-.109-.648-.565-.562-.472.089-.513-.158-.531-.555-.021-.466.16-.588.566-.517.441.077.606-.106.531-.537-.072-.412.061-.579.521-.563.4.014.639.072.552.536s.115.639.567.563c.425-.072.632.081.526.534" transform="translate(199.254 4609.627)" fill="#010000"/>
        <path id="Trazado_127056" data-name="Trazado 127056" d="M55.04,186.64c.1.423-.11.578-.532.5-.5-.09-.614.169-.543.587.079.465-.146.537-.555.535-.39,0-.6-.091-.518-.511.108-.553-.169-.688-.645-.607s-.466-.225-.467-.559.007-.6.448-.512c.593.117.745-.168.665-.7-.077-.508.311-.362.569-.377.274-.016.579-.052.5.389-.1.545.092.8.67.687.482-.092.423.243.409.566" transform="translate(311.829 4533.616)" fill="#010000"/>
        <path id="Trazado_127057" data-name="Trazado 127057" d="M121.786,17.426c-.114-.483.153-.577.548-.518.41.061.572-.109.509-.513s.058-.588.522-.578c.427.009.623.119.548.558s.131.6.553.533c.391-.059.587.035.589.513s-.182.62-.608.553c-.45-.072-.6.133-.533.553.078.472-.175.526-.572.534-.424.009-.562-.151-.5-.54.068-.427-.09-.622-.535-.547s-.62-.106-.523-.547" transform="translate(261.153 4643.184)" fill="#29c4bb"/>
      </g>
    </g>
  </g>
</svg>
