<svg xmlns="http://www.w3.org/2000/svg" width="90.773" height="90.773" viewBox="0 0 90.773 90.773">
  <g id="Grupo_163983" data-name="Grupo 163983" transform="translate(-758.368 -1777.146)">
    <path id="Trazado_127483" data-name="Trazado 127483" d="M45.387,0A45.387,45.387,0,1,1,0,45.387,45.387,45.387,0,0,1,45.387,0Z" transform="translate(758.368 1777.146)" fill="#b0c8cb"/>
    <g id="Grupo_156583" data-name="Grupo 156583" transform="translate(467.566 -2865.112)">
      <g id="Grupo_156578" data-name="Grupo 156578" transform="translate(311 4665)">
        <g id="Grupo_156579" data-name="Grupo 156579" transform="translate(0 -0.001)">
          <path id="Trazado_127003" data-name="Trazado 127003" d="M50.613,33.736a12.34,12.34,0,0,1-1.038,2.688c-.111.235-.2.478-.307.717-.23.1-.383-.066-.55-.164A4,4,0,0,0,43.3,42.631c.147.232.4.419.37.741a16.926,16.926,0,0,1-5.386,2.7A.527.527,0,0,1,38,45.856c-.211-.243-.453-.422-.791-.284a.732.732,0,0,0-.466.716c0,.1.016.2-.087.271a22.794,22.794,0,0,1-4.759.493c-.328-.077-.464-.371-.658-.595a.414.414,0,0,1,.013-.558c.1-.131.214-.244.309-.375a.684.684,0,0,0,.01-.943c-.262-.285-.586-.208-.9-.069a.283.283,0,0,0-.1.065c-.436.517-.837.477-1.313.009a.663.663,0,0,0-.988,0c-.324.349-.176.7.087,1.038.484.616.477.659-.036.947a18.6,18.6,0,0,1-7.143-3.2c-.028-.322.222-.509.37-.741a3.989,3.989,0,0,0-2.686-6.226,3.766,3.766,0,0,0-2.575.474c-.219.121-.4.367-.7.262-.365-.848-.733-1.694-1.1-2.543a2.258,2.258,0,0,1-.249-.862c.218-.209.494-.153.751-.155.913-.009,1.827.007,2.739-.006,1.038-.014,1.3-.346,1.16-1.352A5.808,5.808,0,0,0,16.3,28.069c-.475-.329-.479-.4-.1-.849a3.936,3.936,0,0,0-1.022-6.193c-.183-.111-.427-.168-.458-.441a16.249,16.249,0,0,1,1.346-2.695c.241-.264.563-.187.857-.188,1.844-.008,3.689,0,5.533,0a5.023,5.023,0,0,0,.668-.018.794.794,0,0,0,.786-.949,5.8,5.8,0,0,0-1.959-3.99c-.178-.158-.408-.283-.4-.572a3.964,3.964,0,0,1,1.278-.894,18.767,18.767,0,0,1,6.964-2.408,19.514,19.514,0,0,1,8,.59,21.2,21.2,0,0,1,4.916,2.216c.218.13.487.224.6.5.009.263-.189.389-.356.533a5.8,5.8,0,0,0-1.994,3.784c-.108.829.177,1.2,1.012,1.206,1.987.02,3.975,0,5.963.011.294,0,.617-.076.858.188l1.45,2.669c.019.284-.237.3-.4.383a3.939,3.939,0,0,0-1.186,6.276c.385.459.387.513-.146.888a5.827,5.827,0,0,0-2.563,4.236c-.1.829.164,1.2,1,1.224.973.033,1.948,0,2.921.013.257,0,.533-.054.751.155" transform="translate(-7.429 -4.537)" fill="#b0c8cb"/>
          <path id="Trazado_127004" data-name="Trazado 127004" d="M77.714,13.354l-6.764-.023c-1.082,0-1.352-.334-1.234-1.423a6.133,6.133,0,0,1,2.514-4.276,1.247,1.247,0,0,0,.541-.334,4.155,4.155,0,0,1-1.4-3.469A4.026,4.026,0,0,1,72.7,1.1a4.168,4.168,0,0,1,5.739.088,4.211,4.211,0,0,1-.165,6.129c.186.126.369.245.547.371a5.826,5.826,0,0,1,2.52,4.4c.086.9-.23,1.238-1.125,1.246l-2.5.023" transform="translate(-36.358 0)"/>
          <path id="Trazado_127005" data-name="Trazado 127005" d="M7.293,33.325A4.225,4.225,0,0,1,8.565,40.43a5.929,5.929,0,0,1,3.08,4.652c.114,1-.185,1.35-1.185,1.358q-1.824.015-3.649.035-2.772-.019-5.544-.036C.191,46.433-.1,46.09.031,45.015a5.919,5.919,0,0,1,3.08-4.583,4.171,4.171,0,0,1,3.824-7.174c.118.03.239.046.358.068" transform="translate(0 -17.276)"/>
          <path id="Trazado_127006" data-name="Trazado 127006" d="M84.991,46.52c-1.2-.012-2.4-.026-3.6-.034-1.078-.007-1.365-.347-1.231-1.431a5.891,5.891,0,0,1,3.014-4.542c.031-.157-.1-.207-.178-.287a4.137,4.137,0,0,1,1.461-6.785.965.965,0,0,0,.151-.1c2.538-.543,4.572.477,5.3,2.659.517,1.55.168,2.874-1.2,4.482a5.793,5.793,0,0,1,2.9,3.793c.408,1.835.284,2.283-1.691,2.219-1.644-.054-3.291.011-4.937.023" transform="translate(-41.807 -17.321)"/>
          <path id="Trazado_127007" data-name="Trazado 127007" d="M19.578,7.634a6.1,6.1,0,0,1,2.512,4.276c.118,1.095-.146,1.419-1.231,1.422l-6.763.023c-.852-.008-1.7-.013-2.556-.024-.82-.01-1.139-.349-1.071-1.177A5.809,5.809,0,0,1,13.128,7.6l.4-.27C11.7,5.194,11.678,2.757,13.471,1.1a4.166,4.166,0,1,1,5.589,6.18.886.886,0,0,0,.517.353" transform="translate(-5.456 -0.001)"/>
          <path id="Trazado_127008" data-name="Trazado 127008" d="M72.6,73.369a4.242,4.242,0,0,1-1.19-3.683,4.159,4.159,0,0,1,6.535-2.713c.082.057.167.11.25.165,1.894,1.962,2,4.1.286,6.12-.223.263-.14.331.091.478a5.8,5.8,0,0,1,2.75,4.373c.137,1.068-.154,1.4-1.244,1.4q-4.6,0-9.2,0c-1.013,0-1.287-.327-1.172-1.352a5.83,5.83,0,0,1,2.7-4.4c.222-.147.221-.148.186-.385" transform="translate(-36.356 -34.534)"/>
          <path id="Trazado_127009" data-name="Trazado 127009" d="M13.606,67.135c1.961-1.309,3.936-1.259,5.471.136a4.141,4.141,0,0,1,.572,5.522c-.142.2-.3.383-.447.573-.312.309.093.31.192.377a5.906,5.906,0,0,1,2.569,3.635c.01.039.026.077.035.116.359,1.7.1,2.015-1.63,2.015q-4.355,0-8.71,0c-1.011,0-1.3-.335-1.186-1.344a5.868,5.868,0,0,1,2.7-4.41c.149-.1.463-.1.187-.456-1.761-2.245-1.674-4.142.246-6.163" transform="translate(-5.45 -34.531)"/>
          <path id="Trazado_127010" data-name="Trazado 127010" d="M43.235,85.278c.591-.315.244-.575-.044-.849a.842.842,0,0,1-.231-1.141.8.8,0,0,1,.954-.348,1.231,1.231,0,0,1,.617.475c.216.258.39.3.61.01a1.629,1.629,0,0,1,.4-.37.784.784,0,0,1,1.056.085.771.771,0,0,1,.1,1.052,1.007,1.007,0,0,1-.242.272c-.431.306-.392.582.011.882a2.372,2.372,0,0,1,.352.412.854.854,0,0,1-.409,1.042.905.905,0,0,1-1.177-.336c-.235-.283-.411-.42-.738-.054-.5.559-.974.624-1.364.3-.42-.353-.387-.786.109-1.429" transform="translate(-22.341 -43.244)"/>
          <path id="Trazado_127011" data-name="Trazado 127011" d="M61.076,86.549c-.123-.627.046-1.022.529-1.157.591-.165.887.19,1.1.669a.921.921,0,0,1-.651.921.856.856,0,0,1-.975-.433" transform="translate(-31.844 -44.528)"/>
          <path id="Trazado_127012" data-name="Trazado 127012" d="M64.388,4.329a.83.83,0,1,1-.835-.865.849.849,0,0,1,.835.865" transform="translate(-32.726 -1.807)"/>
          <path id="Trazado_127013" data-name="Trazado 127013" d="M47.832,46.743c0,.895.01,1.79,0,2.685-.01.651-.286.928-.934.932q-2.38.014-4.759,0c-.674,0-.938-.282-.945-.983-.016-1.626-.055-3.253-.02-4.878a6.331,6.331,0,0,0-1.8-4.693,6.9,6.9,0,0,1-1.058-8.234,6.763,6.763,0,0,1,6.667-3.657,6.662,6.662,0,0,1,6,4.225,6.715,6.715,0,0,1-1.109,7.407,7.269,7.269,0,0,0-2.018,4.392c-.039.933-.007,1.869-.007,2.8h-.015" transform="translate(-19.514 -14.554)"/>
          <path id="Trazado_127014" data-name="Trazado 127014" d="M52.164,20.865a6.174,6.174,0,0,1-.007.852.793.793,0,0,1-.859.768.77.77,0,0,1-.794-.769,12.089,12.089,0,0,1,0-1.766.763.763,0,0,1,.794-.765.787.787,0,0,1,.858.766,6.6,6.6,0,0,1,.008.913" transform="translate(-26.331 -10.009)"/>
          <path id="Trazado_127015" data-name="Trazado 127015" d="M45.251,25.129a2.7,2.7,0,0,1-1.676-1.651.774.774,0,0,1,.437-.745.728.728,0,0,1,.859.062A11.221,11.221,0,0,1,45.9,23.828a.74.74,0,0,1,.052.859.806.806,0,0,1-.7.442" transform="translate(-22.733 -11.802)"/>
          <path id="Trazado_127016" data-name="Trazado 127016" d="M57.426,22.637a.845.845,0,0,1,.722.423.722.722,0,0,1-.036.858,9.974,9.974,0,0,1-1.074,1.072.7.7,0,0,1-.857.021.774.774,0,0,1-.4-.706,2.584,2.584,0,0,1,1.642-1.668" transform="translate(-29.103 -11.81)"/>
          <path id="Trazado_127017" data-name="Trazado 127017" d="M77.5,20.73c-1.2,0-2.4-.012-3.6.007-.419.006-.468-.121-.344-.5a4.165,4.165,0,0,1,7.885,0c.124.384.064.505-.35.5-1.2-.018-2.4-.006-3.6-.006" transform="translate(-38.349 -9.086)" fill="#29c4bb"/>
          <path id="Trazado_127018" data-name="Trazado 127018" d="M79.155,8.43a2.431,2.431,0,0,1-2.476-2.451,2.492,2.492,0,1,1,4.984-.041A2.464,2.464,0,0,1,79.155,8.43" transform="translate(-40.004 -1.802)" fill="#fee7db"/>
          <path id="Trazado_127019" data-name="Trazado 127019" d="M7.764,53.863c-1.177,0-2.354-.011-3.53.006-.4.005-.493-.1-.365-.493a4.183,4.183,0,0,1,7.914,0c.132.4.025.495-.367.489-1.217-.016-2.434-.006-3.652-.006" transform="translate(-1.991 -26.373)" fill="#29c4bb"/>
          <path id="Trazado_127020" data-name="Trazado 127020" d="M11.972,39.07a2.489,2.489,0,1,1-2.455-2.5,2.489,2.489,0,0,1,2.455,2.5" transform="translate(-3.648 -19.077)" fill="#fee7db"/>
          <path id="Trazado_127021" data-name="Trazado 127021" d="M87.971,53.865c-1.2,0-2.393-.015-3.589.008-.456.009-.511-.134-.369-.534a4.18,4.18,0,0,1,7.868-.035c.154.42.11.58-.381.57-1.176-.025-2.352-.008-3.528-.008" transform="translate(-43.794 -26.374)" fill="#1169e3"/>
          <path id="Trazado_127022" data-name="Trazado 127022" d="M87.126,39.049a2.489,2.489,0,1,1,2.439,2.517,2.488,2.488,0,0,1-2.439-2.517" transform="translate(-45.454 -19.078)" fill="#fee7db"/>
          <path id="Trazado_127023" data-name="Trazado 127023" d="M18.243,20.733c-1.177,0-2.354-.016-3.53.008-.451.01-.507-.116-.367-.524a4.169,4.169,0,0,1,7.885.025c.158.465-.01.5-.4.5-1.2-.016-2.394-.006-3.591-.006" transform="translate(-7.449 -9.086)" fill="#29c4bb"/>
          <path id="Trazado_127024" data-name="Trazado 127024" d="M19.891,8.43A2.458,2.458,0,0,1,17.43,5.953a2.491,2.491,0,1,1,4.983.01A2.434,2.434,0,0,1,19.891,8.43" transform="translate(-9.093 -1.802)" fill="#fee7db"/>
          <path id="Trazado_127025" data-name="Trazado 127025" d="M77.494,86.941c-1.2,0-2.4-.011-3.6.006-.407.006-.483-.105-.355-.5a4.163,4.163,0,0,1,7.892-.058c.158.454.055.564-.4.556-1.178-.022-2.357-.008-3.536-.008" transform="translate(-38.338 -43.607)" fill="#1169e3"/>
          <path id="Trazado_127026" data-name="Trazado 127026" d="M79.172,74.653a2.478,2.478,0,1,1-.014-4.956,2.482,2.482,0,0,1,2.5,2.507,2.449,2.449,0,0,1-2.489,2.448" transform="translate(-40.003 -36.361)" fill="#fee7db"/>
          <path id="Trazado_127027" data-name="Trazado 127027" d="M18.293,86.961c-1.158,0-2.318-.021-3.475.01-.556.014-.625-.178-.442-.648a4.167,4.167,0,0,1,7.888.174c.126.374-.027.47-.373.468-1.2-.009-2.4,0-3.6,0" transform="translate(-7.453 -43.606)" fill="#1169e3"/>
          <path id="Trazado_127028" data-name="Trazado 127028" d="M19.913,69.7a2.462,2.462,0,0,1,2.5,2.5,2.492,2.492,0,0,1-4.983-.034A2.482,2.482,0,0,1,19.913,69.7" transform="translate(-9.093 -36.361)" fill="#fee7db"/>
          <path id="Trazado_127029" data-name="Trazado 127029" d="M47.2,42.807c-.477-1.416.361-2.576,1.608-3.572a4.319,4.319,0,0,0,.642-.65.791.791,0,0,0-.02-1.152.754.754,0,0,0-1.142-.014c-.508.469-1.012.946-1.47,1.461-.328.368-.551.426-.9.02a18.863,18.863,0,0,0-1.378-1.381c-.469-.443-.919-.456-1.283-.069a.847.847,0,0,0,.109,1.245q.914.94,1.857,1.852a.876.876,0,0,1,.3.691c-.014,1.261-.011,2.522,0,3.782,0,.279-.023.465-.383.451-.3-.012-.466-.033-.507-.41a7.649,7.649,0,0,0-2.187-4.582,5.361,5.361,0,0,1-.886-6.214,5.4,5.4,0,0,1,10.13,1.56,5.132,5.132,0,0,1-1.215,4.434,8.759,8.759,0,0,0-2.391,4.9c-.045.4-.306.286-.529.308-.261.027-.359-.086-.354-.349.012-.671,0-1.342,0-2.307" transform="translate(-21.357 -16.352)" fill="#fee734"/>
          <path id="Trazado_127030" data-name="Trazado 127030" d="M50.464,64.4c.386,0,.773.012,1.159,0,.32-.014.492.069.485.436-.018.834-.013,1.668,0,2.5,0,.305-.1.445-.42.441-.834-.012-1.668-.014-2.5,0-.347.007-.457-.129-.459-.467,0-.357.184-.392.461-.384.386.011.774.018,1.159,0a.841.841,0,1,0,0-1.676c-.407-.012-.814-.016-1.22,0-.286.011-.4-.088-.394-.384.008-.278.043-.478.394-.465.447.016.894,0,1.342,0" transform="translate(-25.42 -33.597)" fill="#b39f9a"/>
        </g>
      </g>
      <g id="Grupo_156582" data-name="Grupo 156582" transform="translate(-46 -1)">
        <path id="Trazado_127053" data-name="Trazado 127053" d="M15.507,123.96c-.454.1-.559-.113-.555-.537.012-1.063-.007-1.081-1.106-1.075-.409,0-.536-.124-.528-.529.007-.377.077-.553.512-.551,1.1,0,1.131-.018,1.119-1.119-.005-.5.239-.507.608-.511s.56.058.56.5c0,1.115.023,1.135,1.112,1.131.421,0,.521.15.522.541s-.1.541-.52.539c-1.11-.006-1.137.014-1.112,1.066.012.488-.169.631-.611.545" transform="translate(339.683 4573.993)" fill="#29c4bb"/>
        <path id="Trazado_127054" data-name="Trazado 127054" d="M213.642,151.161c.406-.078.632.057.565.517-.056.385.077.6.5.533s.57.088.573.537c0,.47-.189.578-.589.525-.383-.052-.5.115-.5.5.012.6-.357.826-.934.645-.274-.086-.214-.3-.2-.477.048-.472-.06-.76-.616-.666-.431.073-.457-.2-.456-.527s.014-.6.451-.53c.471.073.694-.1.616-.6-.075-.475.23-.5.582-.454" transform="translate(195.806 4552.685)" fill="#29c4bb"/>
        <path id="Trazado_127055" data-name="Trazado 127055" d="M210.718,69.268c.1.453-.1.608-.527.537-.46-.078-.648.111-.567.569s-.113.548-.542.553-.609-.127-.532-.557c.082-.459-.109-.648-.565-.562-.472.089-.513-.158-.531-.555-.021-.466.16-.588.566-.517.441.077.606-.106.531-.537-.072-.412.061-.579.521-.563.4.014.639.072.552.536s.115.639.567.563c.425-.072.632.081.526.534" transform="translate(199.254 4608.526)" fill="#010000"/>
        <path id="Trazado_127056" data-name="Trazado 127056" d="M55.04,186.64c.1.423-.11.578-.532.5-.5-.09-.614.169-.543.587.079.465-.146.537-.555.535-.39,0-.6-.091-.518-.511.108-.553-.169-.688-.645-.607s-.466-.225-.467-.559.007-.6.448-.512c.593.117.745-.168.665-.7-.077-.508.311-.362.569-.377.274-.016.579-.052.5.389-.1.545.092.8.67.687.482-.092.423.243.409.566" transform="translate(311.829 4530.025)" fill="#010000"/>
        <path id="Trazado_127057" data-name="Trazado 127057" d="M121.786,17.426c-.114-.483.153-.577.548-.518.41.061.572-.109.509-.513s.058-.588.522-.578c.427.009.623.119.548.558s.131.6.553.533c.391-.059.587.035.589.513s-.182.62-.608.553c-.45-.072-.6.133-.533.553.078.472-.175.526-.572.534-.424.009-.562-.151-.5-.54.068-.427-.09-.622-.535-.547s-.62-.106-.523-.547" transform="translate(261.153 4643.184)" fill="#29c4bb"/>
      </g>
    </g>
  </g>
</svg>
