<svg xmlns="http://www.w3.org/2000/svg" xmlns:xlink="http://www.w3.org/1999/xlink" width="90.773" height="90.773" viewBox="0 0 90.773 90.773">
  <defs>
    <clipPath id="clip-path">
      <rect id="Rect치ngulo_37276" data-name="Rect치ngulo 37276" width="41.373" height="41.355" fill="none"/>
    </clipPath>
  </defs>
  <g id="Grupo_163987" data-name="Grupo 163987" transform="translate(-5099 9996)">
    <circle id="Elipse_4762" data-name="Elipse 4762" cx="45.387" cy="45.387" r="45.387" transform="translate(5099 -9996)" fill="#b0c8cb"/>
    <g id="Grupo_158816" data-name="Grupo 158816" transform="translate(4035 -14433.933)">
      <g id="Grupo_156871" data-name="Grupo 156871" transform="translate(1079 4459)">
        <rect id="Rect치ngulo_37271" data-name="Rect치ngulo 37271" width="61" height="50" transform="translate(0 -0.068)" fill="none"/>
        <g id="Grupo_156870" data-name="Grupo 156870" transform="translate(9.713 3.816)">
          <g id="Grupo_156869" data-name="Grupo 156869" clip-path="url(#clip-path)">
            <path id="Trazado_128612" data-name="Trazado 128612" d="M7.315,46.363c-1.889,0-3.779,0-5.668.005-.258,0-.35-.041-.333-.333q.343-5.885.66-11.771.267-4.846.531-9.692c.013-.236.026-.471.045-.707a5.055,5.055,0,0,0-.479-3.194,6.546,6.546,0,0,1-.733-3.42.448.448,0,0,0-.271-.48A1.917,1.917,0,0,1,0,14.975C0,14.128,0,13.28,0,12.433A1.947,1.947,0,0,1,1.12,10.584a.531.531,0,0,0,.311-.39A2.647,2.647,0,0,1,3.89,8.181c1.646-.133,3.293-.274,4.935-.454A2.617,2.617,0,0,1,12,10.156c.022.166.071.2.223.2.736-.006,1.473-.01,2.209,0,.209,0,.252-.069.249-.261-.01-.694,0-1.389-.009-2.083,0-.231.02-.337.3-.335q4.375.018,8.751,0c.244,0,.292.077.291.3q-.01,5.709,0,11.417c0,.242-.074.293-.3.293q-4.376-.011-8.751,0c-.242,0-.3-.073-.293-.3.015-.694-.006-1.389.011-2.083.006-.243-.075-.291-.3-.293-1.037-.011-1.058-.018-1.032,1.012a5.39,5.39,0,0,1-1.207,3.749.548.548,0,0,0-.111.425q.482,8.506.959,17.011c.126,2.26.234,4.521.374,6.78.021.338-.083.377-.377.375-1.889-.012-3.779-.006-5.668-.006" transform="translate(0 -5.016)"/>
            <path id="Trazado_128613" data-name="Trazado 128613" d="M81.045,81.564c-2.542,0-5.083-.006-7.624.008-.309,0-.394-.068-.386-.383a6.971,6.971,0,0,1,.233-1.851.685.685,0,0,0-.011-.446,3.365,3.365,0,0,1,.481-3.234,2.81,2.81,0,0,0,.555-2.425,3.085,3.085,0,0,0-.443-.933,4.351,4.351,0,0,1-.264-4.647c.406-.8.775-1.627,1.222-2.407a7.134,7.134,0,0,1,12.435-.07,30.713,30.713,0,0,1,1.4,2.781,4.1,4.1,0,0,1-.3,4.163,2.852,2.852,0,0,0,.032,3.574,3.315,3.315,0,0,1,.459,3.2.682.682,0,0,0-.009.446,6.822,6.822,0,0,1,.23,1.893c0,.279-.081.338-.346.336-2.555-.01-5.111-.006-7.666-.006" transform="translate(-47.7 -40.217)"/>
            <path id="Trazado_128614" data-name="Trazado 128614" d="M81.048,20.01c-2.542,0-5.085-.006-7.627.008-.312,0-.384-.073-.384-.384a5.787,5.787,0,0,1,4.693-5.976,3.241,3.241,0,0,1,.521-.136c.329-.023.275-.3.356-.484s-.061-.269-.185-.36A3.178,3.178,0,0,1,77.109,10.5a.461.461,0,0,0-.363-.429,10.32,10.32,0,0,1-1-.4,2.213,2.213,0,0,1-1.2-2.874.923.923,0,0,0,.025-.6A4.828,4.828,0,0,1,78.121.133,4.469,4.469,0,0,1,79.192,0c1.236,0,2.473-.012,3.709,0a4.809,4.809,0,0,1,4.665,5.977,1.6,1.6,0,0,0,.034.961,2.2,2.2,0,0,1-1.2,2.7,11.1,11.1,0,0,1-1.079.433.437.437,0,0,0-.328.41,3.184,3.184,0,0,1-1.311,2.185c-.141.1-.267.193-.177.4.077.179.049.389.343.446a9.013,9.013,0,0,1,1.478.412A5.815,5.815,0,0,1,89.058,19.8c-.012.255-.155.207-.3.208h-7.71" transform="translate(-47.702 0)"/>
            <path id="Trazado_128615" data-name="Trazado 128615" d="M51.623,71.357c0,1.875-.008,3.75.008,5.626,0,.311-.071.385-.383.384q-4.293-.021-8.585,0c-.311,0-.385-.072-.384-.384q.019-5.626,0-11.251c0-.31.071-.385.383-.384q4.293.021,8.586,0c.311,0,.386.071.384.383-.017,1.875-.008,3.75-.008,5.626" transform="translate(-27.613 -42.68)"/>
            <path id="Trazado_128616" data-name="Trazado 128616" d="M47.48,46.846c0,.637,0,.637-.655.637-.678,0-.678,0-.678-.7,0-.637,0-.637.655-.637.678,0,.678,0,.678.7" transform="translate(-30.139 -30.141)"/>
            <path id="Trazado_128617" data-name="Trazado 128617" d="M55.171,46.78c0,.7,0,.7-.715.7-.619,0-.619,0-.619-.631,0-.7,0-.7.715-.7.619,0,.619,0,.619.631" transform="translate(-35.162 -30.141)"/>
            <path id="Trazado_128618" data-name="Trazado 128618" d="M62.861,46.783c0,.7,0,.7-.717.7-.617,0-.617,0-.617-.634,0-.7,0-.7.717-.7.617,0,.617,0,.617.634" transform="translate(-40.184 -30.141)"/>
            <path id="Trazado_128619" data-name="Trazado 128619" d="M46.146,104.45c0-.631,0-.631.619-.631.715,0,.715,0,.715.7,0,.631,0,.631-.619.631-.715,0-.715,0-.715-.7" transform="translate(-30.139 -67.806)"/>
            <path id="Trazado_128620" data-name="Trazado 128620" d="M55.171,104.487c0,.666,0,.666-.668.666s-.666,0-.666-.668,0-.665.668-.665.666,0,.666.668" transform="translate(-35.162 -67.806)"/>
            <path id="Trazado_128621" data-name="Trazado 128621" d="M61.527,104.453c0-.634,0-.634.658-.634.675,0,.675,0,.675.658,0,.676,0,.676-.658.676-.675,0-.675,0-.675-.7" transform="translate(-40.184 -67.806)"/>
            <path id="Trazado_128622" data-name="Trazado 128622" d="M8.243,80.389c.129-2.329.263-4.658.383-6.987.012-.246.044-.364.34-.362q3.5.02,7,0c.246,0,.327.056.341.318q.369,6.988.769,13.974c.018.31-.035.393-.359.392q-4.251-.021-8.5,0c-.323,0-.379-.08-.36-.391.14-2.314.257-4.63.382-6.946h0" transform="translate(-5.129 -47.704)" fill="#29c4bb"/>
            <path id="Trazado_128623" data-name="Trazado 128623" d="M12.381,28.585c-1.111,0-2.222-.006-3.332.005a.462.462,0,0,1-.487-.271,7.635,7.635,0,0,1-.886-3.43c-.007-.276.092-.311.331-.31,1.833.009,3.666.006,5.5,0a2.013,2.013,0,0,0,2.18-2.177c0-.611-.008-1.222,0-1.833a1.342,1.342,0,0,1,1.038-1.3c.2-.047.3-.037.3.218-.011,2.263-.005,4.526-.016,6.789a3.261,3.261,0,0,1-.245,1.133c-.4,1.055-.56,1.166-1.673,1.166Z" transform="translate(-5.013 -12.577)" fill="#efcfb3"/>
            <path id="Trazado_128624" data-name="Trazado 128624" d="M52.727,16.133c0,1.431-.007,2.862.006,4.292,0,.267-.029.383-.346.381q-3-.024-6,0c-.288,0-.348-.092-.332-.351.024-.387-.109-.847.059-1.144s.674-.315,1.032-.452c1.009-.386,2.022-.761,3.032-1.144a1.64,1.64,0,0,0-.007-3.17c-1.27-.479-2.539-.96-3.815-1.423-.238-.086-.326-.2-.3-.447.041-.4-.172-.926.085-1.152.222-.195.74-.058,1.127-.059,1.709,0,3.418.006,5.127-.008.275,0,.342.074.34.343-.013,1.445-.006,2.89-.006,4.334" transform="translate(-30.051 -7.456)" fill="#fee9a6"/>
            <path id="Trazado_128625" data-name="Trazado 128625" d="M6.51,21.236c0,.569-.008,1.138,0,1.707,0,.209-.042.294-.272.287-.555-.017-1.11,0-1.665-.008a.662.662,0,0,1-.731-.719q-.015-1.27,0-2.54a.671.671,0,0,1,.756-.737c.541-.008,1.083.011,1.623-.008.251-.009.3.089.29.312-.014.569,0,1.138,0,1.707" transform="translate(-2.507 -12.551)" fill="#a9b1bc"/>
            <path id="Trazado_128626" data-name="Trazado 128626" d="M14.114,66.692c-1.138,0-2.276-.009-3.413.007-.28,0-.343-.075-.324-.348.072-.992.062-.993,1.07-.993,1.984,0,3.969.007,5.952-.007.3,0,.446.056.394.376a.393.393,0,0,0,0,.083c.051.882.051.882-.854.882Z" transform="translate(-6.775 -42.682)" fill="#e5e8ec"/>
            <path id="Trazado_128627" data-name="Trazado 128627" d="M14.359,59c-1.07,0-2.14-.009-3.209.007-.277,0-.345-.076-.334-.348.038-.992.027-.992,1-.992,1.9,0,3.807.007,5.71-.007.293,0,.4.056.42.374.068.967.086.966-.878.966H14.359" transform="translate(-7.063 -37.661)" fill="#29c4bb"/>
            <path id="Trazado_128628" data-name="Trazado 128628" d="M14.68,51.315c-1.026,0-2.052-.006-3.078,0-.244,0-.361-.02-.348-.325.044-1.012.028-1.013,1.049-1.013,1.788,0,3.577.006,5.365-.006.286,0,.411.043.426.369.046.972.062.971-.919.971Z" transform="translate(-7.35 -32.639)" fill="#e5e8ec"/>
            <path id="Trazado_128629" data-name="Trazado 128629" d="M8,12.889a1.258,1.258,0,0,1,1.07-.826q2.712-.267,5.427-.5a1.255,1.255,0,0,1,1.38,1c.039.194.053.33-.238.328-2.525-.011-5.05-.006-7.639-.006" transform="translate(-5.224 -7.55)" fill="#efcfb3"/>
            <path id="Trazado_128630" data-name="Trazado 128630" d="M19.694,19.236a3.376,3.376,0,0,0-.328,1.184c0,.176-.127.148-.232.148-1.179,0-2.358,0-3.537,0-.175,0-.265-.044-.238-.231a.209.209,0,0,0,0-.042c-.045-1.064-.045-1.064,1.026-1.064h3.31" transform="translate(-10.021 -12.563)" fill="#29c4bb"/>
            <path id="Trazado_128631" data-name="Trazado 128631" d="M17.135,28.247c-.5,0-1-.009-1.5,0-.208.006-.281-.042-.288-.27-.029-1.068-.038-1.068,1.026-1.068.888,0,1.776.009,2.663-.006.249,0,.328.051.327.316,0,.832-.181,1.023-1.024,1.023H17.135" transform="translate(-10.02 -17.574)" fill="#fbd670"/>
            <path id="Trazado_128632" data-name="Trazado 128632" d="M46.2,20.116c.4.152.774.3,1.152.428.164.054.162.161.162.289q0,.979,0,1.957c0,.127,0,.234-.162.289-.378.125-.748.276-1.152.428Z" transform="translate(-30.176 -13.138)" fill="#a9b1bc"/>
            <path id="Trazado_128633" data-name="Trazado 128633" d="M39.156,28.259c-.7,0-.7,0-.7-.717,0-.617,0-.617.634-.617.7,0,.7,0,.7.717,0,.617,0,.617-.634.617" transform="translate(-25.116 -17.585)" fill="#fbd670"/>
            <path id="Trazado_128634" data-name="Trazado 128634" d="M39.134,19.236c.656,0,.656,0,.656.637,0,.7,0,.7-.678.7-.656,0-.656,0-.656-.637,0-.7,0-.7.678-.7" transform="translate(-25.116 -12.563)" fill="#29c4bb"/>
            <path id="Trazado_128635" data-name="Trazado 128635" d="M53.818,22.973c.409.154.767.286,1.124.423a.29.29,0,0,1,.21.278.3.3,0,0,1-.2.283.58.58,0,0,1-.075.035,6.085,6.085,0,0,1-1.009.335,10.223,10.223,0,0,1-.045-1.353" transform="translate(-35.149 -15.004)" fill="#a8b0bb"/>
            <path id="Trazado_128636" data-name="Trazado 128636" d="M77.165,79.233q.183-.287.366-.574a3.88,3.88,0,0,0,.01-4.532,3.148,3.148,0,0,1-.193-3.454,23.092,23.092,0,0,1,1.593-2.967,5.8,5.8,0,0,1,9.757.735c.43.809.835,1.631,1.231,2.456a2.92,2.92,0,0,1-.2,3.046,4.034,4.034,0,0,0,.041,4.925c.1.138.254.263.2.514a6.2,6.2,0,0,0-3.511-1.8c-.3-.06-.361-.222-.432-.463s.088-.323.227-.432a3.279,3.279,0,0,0,1.327-2.7q.006-1.125,0-2.25a.975.975,0,0,0-.724-1.084,7.465,7.465,0,0,1-3.033-1.99c-.19-.205-.306-.195-.489,0a7.373,7.373,0,0,1-3.074,2,.863.863,0,0,0-.66.78,18.565,18.565,0,0,0,.056,3.242,3.119,3.119,0,0,0,1.184,1.948c.148.121.361.18.3.479a.559.559,0,0,1-.517.487,6.3,6.3,0,0,0-2.869,1.25c-.176.143-.346.294-.519.441l-.074-.062" transform="translate(-50.239 -42.699)" fill="#656d78"/>
            <path id="Trazado_128637" data-name="Trazado 128637" d="M93.768,82.584a6.941,6.941,0,0,1-.057,1.256,1.992,1.992,0,0,1-1.919,1.551q-.687.015-1.374,0A2,2,0,0,1,88.435,83.4c-.01-.638.007-1.277-.008-1.915a.349.349,0,0,1,.268-.391,7.91,7.91,0,0,0,2.21-1.3c.143-.119.23-.135.382-.007A8.051,8.051,0,0,0,93.533,81.1a.32.32,0,0,1,.239.367c-.012.347,0,.694,0,1.112" transform="translate(-57.754 -52.048)" fill="#efcfb3"/>
            <path id="Trazado_128638" data-name="Trazado 128638" d="M82.309,108.246c-1.685,0-3.3-.008-4.906.007-.326,0-.28-.151-.233-.357a4.537,4.537,0,0,1,3.687-3.416c.167-.025.219,0,.233.165a7.986,7.986,0,0,0,.378,1.871,8.669,8.669,0,0,0,.842,1.73" transform="translate(-50.379 -68.232)" fill="#1169e3"/>
            <path id="Trazado_128639" data-name="Trazado 128639" d="M100.233,108.248a7.644,7.644,0,0,0,1.021-2.4c.078-.379.135-.764.186-1.148.023-.177.046-.262.271-.213a4.493,4.493,0,0,1,3.641,3.358c.077.275.1.418-.288.412-1.512-.024-3.025-.01-4.538-.01Z" transform="translate(-65.464 -68.234)" fill="#1169e3"/>
            <path id="Trazado_128640" data-name="Trazado 128640" d="M93.608,99.941h.5c.733,0,.769.011.831.751a5.711,5.711,0,0,1-.131,1.7c-.037.169-.1.226-.27.223-.625-.009-1.251,0-1.876,0-.121,0-.2-.015-.229-.167a4.7,4.7,0,0,1-.019-2.3c.058-.193.137-.225.318-.213.29.021.583.006.875.006v.01" transform="translate(-60.268 -65.262)" fill="#efcfb3"/>
            <path id="Trazado_128641" data-name="Trazado 128641" d="M94.252,111.559H95.51a3.594,3.594,0,0,1-.489.823c-.1.143-.172.1-.246-.016-.162-.249-.323-.5-.523-.807" transform="translate(-61.558 -72.861)" fill="#fbe6a4"/>
            <path id="Trazado_128642" data-name="Trazado 128642" d="M86.232,3.843a17.928,17.928,0,0,1,2.338.07,3.485,3.485,0,0,1,2.845,3.663c-.02.293-.067.465-.436.338a3.83,3.83,0,0,0-1.365-.063,4.01,4.01,0,0,1-3.235-1.334c-.211-.232-.345-.268-.577-.012A3.99,3.99,0,0,1,82.574,7.85,5.073,5.073,0,0,0,81,7.942c-.309.089-.218-.193-.231-.31A3.487,3.487,0,0,1,82.947,4.1a3.641,3.641,0,0,1,1.34-.254c.6,0,1.194,0,1.945,0" transform="translate(-52.739 -2.505)" fill="#b17946"/>
            <path id="Trazado_128643" data-name="Trazado 128643" d="M93.766,19.146c0,.486.007.972,0,1.458a2,2,0,0,1-1.977,2c-.472.011-.945.014-1.416,0a1.987,1.987,0,0,1-1.935-1.954c-.017-1.041,0-2.083-.011-3.124,0-.238.087-.3.3-.333a4.684,4.684,0,0,0,2.135-.865.331.331,0,0,1,.465,0,4.738,4.738,0,0,0,2.176.873c.214.028.27.12.265.324-.012.541,0,1.083,0,1.624" transform="translate(-57.753 -10.601)" fill="#efcfb3"/>
            <path id="Trazado_128644" data-name="Trazado 128644" d="M83.051,45.368c0,.717-.009,1.378,0,2.039.006.292-.193.211-.339.211q-2.268.006-4.536,0h-.458c-.677,0-.684,0-.484-.634A4.467,4.467,0,0,1,79.33,44.4c.214-.124.322-.122.435.125.26.566.569,1.109.823,1.677.126.281.251.287.5.157.632-.334,1.278-.645,1.967-.989" transform="translate(-50.371 -28.944)" fill="#75b0f1"/>
            <path id="Trazado_128645" data-name="Trazado 128645" d="M98.044,45.369c.689.345,1.333.656,1.966.99.243.128.371.129.5-.154.253-.568.563-1.111.822-1.677.113-.247.22-.249.434-.125a4.492,4.492,0,0,1,2.18,2.907c.053.213.037.321-.238.319q-2.683-.017-5.367,0c-.237,0-.306-.065-.3-.3.016-.633.006-1.266.006-1.959" transform="translate(-64.03 -28.948)" fill="#75b0f1"/>
            <path id="Trazado_128646" data-name="Trazado 128646" d="M107.667,21.268c0-.656,0-1.263,0-1.87,0-.089-.025-.179.122-.215a1.055,1.055,0,0,1,1.134.577.885.885,0,0,1-.39,1.145c-.263.142-.553.234-.867.364" transform="translate(-70.319 -12.514)" fill="#efcfb3"/>
            <path id="Trazado_128647" data-name="Trazado 128647" d="M82.088,21.273c-.3-.121-.547-.207-.782-.319a.888.888,0,0,1-.494-1.136,1.025,1.025,0,0,1,1.139-.63c.18.035.134.147.134.245,0,.6,0,1.19,0,1.841" transform="translate(-52.743 -12.52)" fill="#efcfb3"/>
            <path id="Trazado_128648" data-name="Trazado 128648" d="M93.875,38.412c.305,0,.611,0,.916,0,.112,0,.221-.032.251.132.025.135.089.255-.079.358-.319.2-.63.4-.936.621a.252.252,0,0,1-.335-.01c-.3-.206-.593-.41-.9-.6-.151-.093-.144-.193-.11-.346.041-.183.148-.157.277-.154.3.007.611,0,.916,0h0" transform="translate(-60.52 -25.084)" fill="#eeceb3"/>
            <path id="Trazado_128649" data-name="Trazado 128649" d="M89.6,43.011c-.334.168-.615.3-.89.45-.12.064-.174.015-.221-.089a3.046,3.046,0,0,1-.144-.3c-.046-.145-.272-.317-.109-.426a.664.664,0,0,1,.665-.107,7.854,7.854,0,0,1,.7.469" transform="translate(-57.592 -27.75)" fill="#5c9ae8"/>
            <path id="Trazado_128650" data-name="Trazado 128650" d="M100.015,43.048c.419-.263.7-.654,1.23-.425.179.078.194.125.125.292-.283.685-.278.688-.934.358-.12-.06-.238-.127-.421-.226" transform="translate(-65.322 -27.792)" fill="#5c9ae8"/>
            <path id="Trazado_128651" data-name="Trazado 128651" d="M52.808,72.927c0,1.79,0,3.579,0,5.369,0,.205-.066.252-.26.252q-3.082-.01-6.165,0c-.2,0-.253-.064-.253-.259q.009-4.415,0-8.83c0-.2.057-.256.256-.255q3.082.01,6.165,0c.2,0,.283.055.253.256a.4.4,0,0,0,0,.125,2.323,2.323,0,0,1-.923,2.3c-.993.863-1.885,1.843-2.809,2.784-.186.19-.3.254-.517.025-.61-.631-.607-.6-1.242-.013-.283.263-.276.416,0,.665A14.849,14.849,0,0,1,48.5,76.526c.224.25.352.273.6.013,1.1-1.135,2.231-2.245,3.349-3.365.1-.1.177-.2.266-.306l.088.059" transform="translate(-30.132 -45.199)" fill="#fee9a6"/>
          </g>
        </g>
      </g>
      <g id="Grupo_156897" data-name="Grupo 156897" transform="translate(1079.694 4460.734)">
        <path id="Trazado_126894" data-name="Trazado 126894" d="M15.633,124.208c-.48.107-.591-.119-.587-.568.012-1.124-.007-1.144-1.17-1.137-.433,0-.567-.132-.559-.56.008-.4.081-.585.541-.583,1.166,0,1.2-.019,1.184-1.183-.006-.527.253-.536.643-.54s.593.061.593.529c0,1.179.024,1.2,1.176,1.2.446,0,.551.159.552.573s-.1.572-.55.57c-1.174-.007-1.2.015-1.176,1.128.012.516-.178.667-.647.576" transform="translate(-13.318 -98.255)" fill="#29c4bb"/>
        <path id="Trazado_126895" data-name="Trazado 126895" d="M213.737,151.162c.43-.082.668.06.6.547-.059.407.081.634.532.564s.6.093.606.567c0,.5-.2.612-.623.555-.4-.055-.533.121-.525.524.013.631-.378.873-.988.682-.29-.091-.226-.322-.208-.5.051-.5-.063-.8-.652-.7-.455.077-.483-.208-.482-.558s.015-.632.477-.561c.5.077.734-.105.651-.631-.079-.5.243-.525.615-.48" transform="translate(-156.029 -121.937)" fill="#29c4bb"/>
        <path id="Trazado_126896" data-name="Trazado 126896" d="M210.906,69.361c.111.479-.108.643-.558.568-.487-.082-.685.118-.6.6.083.468-.119.58-.573.584s-.644-.134-.563-.589c.087-.485-.115-.685-.6-.594-.5.094-.543-.167-.562-.587-.022-.493.169-.621.6-.547.467.081.641-.112.561-.567-.076-.436.065-.613.551-.6.428.015.676.076.584.567s.121.676.6.6c.45-.076.669.086.557.565" transform="translate(-161.317 -54.333)" fill="#010000"/>
        <path id="Trazado_126897" data-name="Trazado 126897" d="M55.228,186.735c.1.447-.116.611-.563.531-.525-.095-.649.178-.574.62.084.492-.155.568-.587.565-.413,0-.635-.1-.548-.541.114-.585-.178-.728-.682-.642s-.492-.238-.494-.592.007-.634.474-.541c.628.124.788-.177.7-.739-.081-.538.328-.383.6-.4.29-.017.613-.055.528.412-.1.577.1.844.708.727.509-.1.447.257.432.6" transform="translate(-21.688 -142.438)" fill="#010000"/>
        <path id="Trazado_126898" data-name="Trazado 126898" d="M121.787,17.519c-.12-.51.162-.61.58-.548.434.064.6-.115.539-.543s.061-.622.552-.612c.452.009.658.126.58.59s.139.631.585.564c.413-.062.62.037.623.542s-.192.656-.643.584c-.476-.076-.638.141-.564.585.083.5-.185.556-.6.565-.449.009-.595-.159-.529-.571.072-.451-.095-.657-.565-.578s-.656-.112-.553-.579" transform="translate(-110.604 -15.817)" fill="#29c4bb"/>
      </g>
    </g>
  </g>
</svg>
