<svg xmlns="http://www.w3.org/2000/svg" xmlns:xlink="http://www.w3.org/1999/xlink" width="90.773" height="90.773" viewBox="0 0 90.773 90.773">
  <defs>
    <clipPath id="clip-path">
      <rect id="Rectángulo_37154" data-name="Rectángulo 37154" width="46.692" height="53.85" fill="none"/>
    </clipPath>
  </defs>
  <g id="Grupo_163984" data-name="Grupo 163984" transform="translate(-1108 -1777)">
    <circle id="Elipse_4762" data-name="Elipse 4762" cx="45.387" cy="45.387" r="45.387" transform="translate(1108 1777)" fill="#b0c8cb"/>
    <g id="Grupo_157123" data-name="Grupo 157123" transform="translate(7195.246 4504.268)">
      <g id="Grupo_156595" data-name="Grupo 156595" transform="translate(-6072.246 -2712.267)">
        <path id="Trazado_127053" data-name="Trazado 127053" d="M15.375,123.6c.416.093.513-.1.509-.492-.011-.974.006-.992,1.015-.986.375,0,.492-.114.485-.485-.007-.346-.07-.507-.469-.505-1.011,0-1.037-.017-1.026-1.026,0-.457-.219-.465-.558-.469s-.514.053-.514.459c0,1.022-.021,1.041-1.019,1.037-.386,0-.478.138-.479.5s.091.5.477.494c1.018-.006,1.042.013,1.02.978-.011.448.155.579.561.5" transform="translate(44.792 -83.878)" fill="#29c4bb"/>
        <path id="Trazado_127054" data-name="Trazado 127054" d="M213.5,151.159c-.373-.071-.579.052-.518.474.051.353-.071.55-.461.489s-.522.081-.525.492c0,.431.173.53.54.481.351-.047.462.105.455.455-.011.547.328.757.857.591.251-.079.2-.279.18-.437-.044-.432.055-.7.565-.611.395.067.419-.181.418-.484s-.013-.548-.414-.486c-.432.067-.636-.091-.564-.547.068-.436-.211-.455-.533-.417" transform="translate(-211.994 -104.948)" fill="#29c4bb"/>
        <path id="Trazado_127055" data-name="Trazado 127055" d="M207.478,69.132c-.1.416.094.558.484.492.422-.071.594.1.52.521s.1.5.5.507.558-.116.488-.511c-.075-.42.1-.594.518-.515s.471-.145.487-.509c.019-.427-.147-.539-.519-.474-.4.071-.555-.1-.487-.492.066-.378-.056-.531-.477-.516-.371.013-.586.066-.506.491s-.105.586-.52.516c-.39-.066-.58.074-.483.49" transform="translate(-204.437 -61.871)" fill="#010000"/>
        <path id="Trazado_127056" data-name="Trazado 127056" d="M51.8,186.5c-.091.388.1.53.488.46.455-.082.563.155.5.538-.072.426.134.493.509.49.358,0,.55-.083.475-.469-.1-.507.155-.631.591-.556s.427-.206.428-.513-.006-.549-.411-.47c-.544.108-.683-.154-.61-.641.07-.466-.285-.332-.522-.346s-.531-.047-.458.357c.09.5-.085.732-.614.63-.442-.085-.388.223-.375.519" transform="translate(-4.069 -127.272)" fill="#010000"/>
        <path id="Trazado_127057" data-name="Trazado 127057" d="M124.759,17.292c.1-.443-.141-.529-.5-.475s-.524-.1-.467-.47-.053-.539-.479-.53c-.392.008-.571.109-.5.512s-.121.547-.507.489c-.358-.054-.538.032-.54.47s.167.569.558.507c.413-.066.553.122.489.507-.072.432.16.482.524.49.389.008.516-.138.458-.495-.062-.391.082-.57.49-.5s.569-.1.48-.5" transform="translate(-94.9 -15.817)" fill="#29c4bb"/>
      </g>
      <g id="Grupo_156641" data-name="Grupo 156641" transform="translate(-6064 -2709)">
        <g id="Grupo_156641-2" data-name="Grupo 156641" clip-path="url(#clip-path)">
          <path id="Trazado_127533" data-name="Trazado 127533" d="M90.856,0l.195.229a.67.67,0,0,1-.018.98.722.722,0,0,1-.991,0,.67.67,0,0,1-.012-.98L90.224,0Z" transform="translate(-61.51)" fill="#88d14a"/>
          <path id="Trazado_127534" data-name="Trazado 127534" d="M13.327,40.314c-.492-.526-.918-.988-1.353-1.442-.266-.278-.375-.58-.06-.864.3-.267.577-.126.82.135.489.527,1,1.036,1.469,1.579a.531.531,0,0,0,.722.178c.86-.429,1.745-.814,2.574-1.3a2.452,2.452,0,0,0,1.164-2.374.483.483,0,0,0-.277-.406,8.5,8.5,0,0,1-3.659-5.717c-.045-.26-.161-.289-.378-.308a3.888,3.888,0,0,1-2.6-6.515.921.921,0,0,0,.23-.657,42.409,42.409,0,0,1,.091-4.358,8.9,8.9,0,0,1,7.676-7.519,25.156,25.156,0,0,1,3.784-.055,4.884,4.884,0,0,1,3.6,1.812.421.421,0,0,0,.566.142,5.118,5.118,0,0,1,6.995,4.721c.039,1.822.014,3.645,0,5.467a1.2,1.2,0,0,0,.25.764,3.881,3.881,0,0,1-2.8,6.186c-.319.029-.408.136-.458.413a8.426,8.426,0,0,1-3.379,5.432.653.653,0,0,0-.284.569,2.6,2.6,0,0,0,1.6,2.649c.7.325,1.379.68,2.069,1.018a.582.582,0,0,0,.818-.161c.457-.553.974-1.056,1.464-1.582.247-.265.532-.379.82-.1s.189.567-.058.829L33.376,40.3c.881.226,1.7.436,2.51.644.525.134,1.051.27,1.578.4A6,6,0,0,1,40.512,43.1a.5.5,0,0,0,.589.159c.4-.124.808-.225,1.214-.332a.52.52,0,1,1,.278,1,6.282,6.282,0,0,1-.807.229c-.356.054-.349.182-.214.474,1.294,2.794,2.855,5.447,4.282,8.171a6.76,6.76,0,0,1,.777,2.157,5.331,5.331,0,0,1-5.238,6.173q-18.047.028-36.095,0a5.36,5.36,0,0,1-4.65-7.952c1.208-2.326,2.472-4.623,3.7-6.94.294-.555.521-1.145.814-1.7.143-.271.042-.314-.191-.365-.307-.067-.608-.163-.908-.258a.514.514,0,1,1,.25-1c.542.126,1.133.467,1.608.346s.818-.721,1.283-1.04a10.977,10.977,0,0,1,3.589-1.269c.81-.213,1.625-.408,2.535-.635" transform="translate(0 -7.294)"/>
          <path id="Trazado_127535" data-name="Trazado 127535" d="M107.674,10.233a.643.643,0,0,1-.663-.7c0-.316-.055-.487-.428-.463a.606.606,0,0,1-.719-.646.605.605,0,0,1,.732-.629c.33.028.418-.111.414-.423,0-.41.169-.716.639-.731a.625.625,0,0,1,.7.727c-.009.374.151.444.469.428a.583.583,0,0,1,.673.631.6.6,0,0,1-.671.642c-.379-.024-.467.13-.476.478a.646.646,0,0,1-.665.687" transform="translate(-72.495 -4.546)" fill="#70d5f8"/>
          <path id="Trazado_127536" data-name="Trazado 127536" d="M7.624,94.476A2.555,2.555,0,0,0,5.6,96.435a2.664,2.664,0,0,0-1.974-1.967,2.535,2.535,0,0,0,1.957-1.927,2.665,2.665,0,0,0,2.045,1.935" transform="translate(-2.48 -63.372)" fill="#f4c74c"/>
          <path id="Trazado_127537" data-name="Trazado 127537" d="M29.157,88.022a.548.548,0,0,1,.46.207c.417.449.837.9,1.256,1.344a.5.5,0,0,1,.015.783.512.512,0,0,1-.786-.073c-.432-.459-.865-.918-1.293-1.382a.487.487,0,0,1-.107-.579.478.478,0,0,1,.454-.3" transform="translate(-19.619 -60.277)" fill="#010101"/>
          <path id="Trazado_127538" data-name="Trazado 127538" d="M114.208,88.449a.592.592,0,0,1-.185.473l-1.258,1.342a.515.515,0,0,1-.786.08.492.492,0,0,1,.009-.781q.645-.692,1.291-1.383a.532.532,0,0,1,.626-.131.477.477,0,0,1,.3.4" transform="translate(-76.554 -60.262)" fill="#010101"/>
          <path id="Trazado_127539" data-name="Trazado 127539" d="M115.995,67.311a1.794,1.794,0,0,0,1.272-1.218,1.824,1.824,0,0,0,1.357,1.214,1.906,1.906,0,0,0-1.362,1.32,1.8,1.8,0,0,0-1.267-1.315" transform="translate(-79.433 -45.26)" fill="#f4c84e"/>
          <path id="Trazado_127540" data-name="Trazado 127540" d="M21.069,81.528a.739.739,0,0,1-.705-.708.717.717,0,1,1,1.434.024.742.742,0,0,1-.729.684" transform="translate(-13.945 -54.856)" fill="#fb6880"/>
          <path id="Trazado_127541" data-name="Trazado 127541" d="M9.384,107.807a4.507,4.507,0,0,1,2.09-1.213c1.521-.409,3.054-.77,4.577-1.17a.613.613,0,0,1,.676.248q1.644,1.775,3.306,3.534c.4.42.844.4,1.008-.038.113-.3-.068-.5-.251-.694q-1.4-1.5-2.809-2.99c-.13-.138-.256-.281-.4-.441a4.646,4.646,0,0,1,1.455-.67c.524-.038.663.65.99,1a7.588,7.588,0,0,0,11.736-.74c.218-.3.367-.385.7-.179.354.221.747.38,1.179.593-.733.786-1.445,1.55-2.158,2.311q-.557.6-1.119,1.187c-.249.263-.346.549-.051.826s.576.155.821-.107c1.127-1.2,2.26-2.4,3.378-3.611a.6.6,0,0,1,.68-.223c1.489.394,2.985.762,4.475,1.149a4.955,4.955,0,0,1,2.191,1.24c-1.059.3-2.058.578-3.058.856-.64.178-1.28.359-1.924.524-.375.1-.629.291-.507.7.113.379.427.415.772.319,1.669-.461,3.342-.911,5.008-1.387.346-.1.544-.054.7.293,1.341,2.968,3.017,5.763,4.509,8.653a4.326,4.326,0,0,1-3.926,6.467c-2.28.007-4.561-.011-6.841.012-.411,0-.483-.121-.479-.5.02-1.77.024-3.541,0-5.311-.007-.512.179-.672.674-.669,2.473.016,4.947.007,7.42.007a4.55,4.55,0,0,0,.473-.01c.321-.034.527-.2.515-.543a.483.483,0,0,0-.51-.49c-.14-.011-.281-.008-.421-.008-1.772,0-3.544-.01-5.315.008-.371,0-.554-.058-.5-.479.061-.48-.2-1.127.107-1.4.266-.238.9-.079,1.369-.075.395,0,.736-.086.726-.548-.009-.427-.337-.527-.71-.507a.834.834,0,0,1-.105,0c-.449-.032-1.045.2-1.3-.1-.221-.249-.066-.831-.075-1.266,0-.21,0-.421,0-.631,0-.369-.154-.632-.545-.623-.36.008-.509.26-.508.606,0,.508-.025,1.018.008,1.524.025.38-.068.5-.478.5-1.614-.027-3.228-.009-4.841-.014a.618.618,0,0,0-.624.3.465.465,0,0,0,.02.5.655.655,0,0,0,.643.263c1.614,0,3.228.007,4.841-.009.334,0,.495.072.432.426a.939.939,0,0,0,0,.158c0,.42.128.914-.05,1.241-.194.356-.734.069-1.116.161a1.175,1.175,0,0,0-.8.461c-.332.571-.792.435-1.268.31a1.132,1.132,0,0,1-.541-.311,3.576,3.576,0,0,0-3.179-.84.971.971,0,0,0-.922.813c-.069.408-.262.467-.6.437a4.626,4.626,0,0,0-.684,0,1.871,1.871,0,0,0-1.8,1.676,18.663,18.663,0,0,0,.018,3.412,3.146,3.146,0,0,0,.685,1.5H24.043a3.981,3.981,0,0,0,.783-3c-.01-.525.013-1.052-.006-1.577a1.955,1.955,0,0,0-2.085-2.015,3.743,3.743,0,0,0-.421,0c-.357.038-.548-.04-.634-.465a1.031,1.031,0,0,0-1.046-.8,3.636,3.636,0,0,0-3.114.907,1.568,1.568,0,0,1-1.28.359.268.268,0,0,1-.257-.138,1.5,1.5,0,0,0-1.611-.744c-.482.05-.616-.126-.562-.578a4.152,4.152,0,0,0,0-.945c-.044-.389.119-.452.47-.448,1.561.019,3.122.005,4.684.01.407,0,.845,0,.833-.542s-.463-.514-.861-.513c-1.561,0-3.123-.007-4.684.009-.325,0-.468-.056-.444-.421.034-.506,0-1.016.01-1.524.005-.383-.119-.684-.544-.677-.392.007-.517.293-.512.656.007.508-.016,1.017.009,1.524.016.327-.056.477-.422.443s-.736,0-1.1-.009-.685.114-.678.542c.007.393.292.519.655.513.4-.006.807.01,1.21-.006.236-.009.352.04.338.311a9.732,9.732,0,0,0,0,1.261c.028.357-.136.393-.43.391-1.807-.01-3.613-.006-5.42,0a2.757,2.757,0,0,0-.523.033.446.446,0,0,0-.376.443.456.456,0,0,0,.342.522,2.249,2.249,0,0,0,.572.05q3.711,0,7.42,0c.7,0,.739.037.739.745,0,1.753-.01,3.506.009,5.258,0,.363-.083.468-.457.465-2.315-.018-4.631,0-6.947-.012a4.3,4.3,0,0,1-3.889-6.347c1.208-2.368,2.5-4.694,3.74-7.045.294-.556.553-1.131.8-1.708.156-.36.369-.42.738-.314,1.631.469,3.271.907,4.906,1.364.286.08.553.133.767-.132.262-.326.09-.716-.4-.855-1.515-.427-3.035-.839-4.552-1.259-.132-.037-.26-.084-.427-.137" transform="translate(-2.26 -71.45)" fill="#70d5f8"/>
          <path id="Trazado_127542" data-name="Trazado 127542" d="M64.79,44.645c-.039,1.091.069,2.424-.056,3.753a7.558,7.558,0,0,1-14.847,1.126,6.938,6.938,0,0,1-.23-1.766c0-2.015.011-4.031-.008-6.046,0-.395.092-.43.469-.38a9.051,9.051,0,0,0,8.443-2.819c.112-.124.177-.3.4-.1a8.914,8.914,0,0,0,5.371,1.986c.418.029.47.186.464.541-.02,1.156-.008,2.313-.008,3.71" transform="translate(-33.999 -26.243)" fill="#f8cfb3"/>
          <path id="Trazado_127543" data-name="Trazado 127543" d="M61.939,24.7a4.576,4.576,0,0,0-1.5-.426c-.225-.02-.283-.108-.3-.323-.1-1.063-.277-1.207-1.308-1.287a8.268,8.268,0,0,1-5.1-1.936c-.523-.468-1.068-.363-1.58.266a7.173,7.173,0,0,1-3.632,2.384,8.5,8.5,0,0,1-4.1.186c-.6-.119-1.167-.122-1.465.563a.216.216,0,0,1-.21.132,7.712,7.712,0,0,0-1.407.286c0-2.207-.247-4.412.907-6.432a7.728,7.728,0,0,1,6.8-4.138,15.472,15.472,0,0,1,3.147.066,4.009,4.009,0,0,1,2.709,1.733c.383.546.473.569,1.075.27a4.091,4.091,0,0,1,5.976,3.642c.016,1.644,0,3.289,0,5.014" transform="translate(-28.285 -9.541)" fill="#5b5d60"/>
          <path id="Trazado_127544" data-name="Trazado 127544" d="M47.063,152.619c-.877,0-1.754-.011-2.631.006-.289.006-.392-.066-.389-.374q.022-2.418,0-4.837c0-.316.114-.376.4-.372a2.4,2.4,0,0,0,1.806-.72,2.648,2.648,0,0,1,2.165-.54c.2,0,.192.16.23.291a1.157,1.157,0,0,0,1.289.976c1.692.025,1.742.076,1.742,1.759,0,.543.012,1.087,0,1.63a2.085,2.085,0,0,1-2.237,2.181c-.79,0-1.579,0-2.368,0" transform="translate(-30.161 -99.827)" fill="#f8cfb3"/>
          <path id="Trazado_127545" data-name="Trazado 127545" d="M84.5,152.594c-.824,0-1.649.006-2.473,0a2.051,2.051,0,0,1-2.157-2.04c-.038-.857-.027-1.718,0-2.576.017-.631.367-.937,1.013-.952.263-.006.526,0,.789,0a1.115,1.115,0,0,0,1.207-.942c.061-.259.165-.322.419-.335a2.614,2.614,0,0,1,2.17.693,2.15,2.15,0,0,0,1.645.577c.307-.011.379.1.376.389q-.018,2.418,0,4.837c0,.275-.075.362-.353.357-.877-.016-1.754-.006-2.631-.006" transform="translate(-54.681 -99.802)" fill="#f8cfb3"/>
          <path id="Trazado_127546" data-name="Trazado 127546" d="M56.695,95.884A3.515,3.515,0,0,0,58.5,93.124c.024-.255.114-.277.336-.19a8.522,8.522,0,0,0,6.64-.092c.267-.112.33-.061.351.207a3.356,3.356,0,0,0,1.607,2.684c.229.148.148.246.033.395a6.56,6.56,0,0,1-10.775-.242" transform="translate(-38.825 -63.54)" fill="#f8cfb3"/>
          <path id="Trazado_127547" data-name="Trazado 127547" d="M40.163,52.908c0,.821-.01,1.643.006,2.464.006.284-.046.4-.369.369a2.859,2.859,0,0,1,.06-5.674c.288-.022.31.1.307.326-.009.838,0,1.677,0,2.516" transform="translate(-25.558 -34.284)" fill="#f8cfb3"/>
          <path id="Trazado_127548" data-name="Trazado 127548" d="M101,52.887c0-.822.014-1.644-.007-2.465-.009-.332.119-.373.4-.329a2.856,2.856,0,0,1,.1,5.636c-.37.07-.53.006-.509-.429.038-.8.011-1.608.011-2.413" transform="translate(-69.156 -34.294)" fill="#f8cfb3"/>
          <path id="Trazado_127549" data-name="Trazado 127549" d="M68.643,122.475a2.678,2.678,0,0,1-.737,1.77c-.994,1.014-1.994,2.022-3.01,3.014a1.152,1.152,0,0,1-1.769-.026c-.976-.957-1.949-1.919-2.9-2.9a2.786,2.786,0,0,1,3.42-4.347.651.651,0,0,0,.786-.022,2.811,2.811,0,0,1,4.21,2.512" transform="translate(-40.68 -81.886)"/>
          <path id="Trazado_127550" data-name="Trazado 127550" d="M93.359,123.477c-.409.01-.612-.1-.676-.384a.463.463,0,0,1,.3-.6q1.539-.523,3.09-1.015a.469.469,0,0,1,.6.306.445.445,0,0,1-.206.632c-1.068.384-2.148.733-3.105,1.055" transform="translate(-63.457 -83.175)" fill="#000101"/>
          <path id="Trazado_127551" data-name="Trazado 127551" d="M46.079,123.508c-.088-.026-.223-.061-.356-.1-.881-.286-1.76-.578-2.644-.857-.364-.115-.548-.346-.421-.709.116-.333.388-.408.729-.294.946.315,1.9.614,2.844.923a.524.524,0,0,1,.425.628c-.05.283-.247.407-.577.413" transform="translate(-29.185 -83.2)" fill="#000101"/>
          <path id="Trazado_127552" data-name="Trazado 127552" d="M67.356,75.276a6.282,6.282,0,0,1-2.6-.542c-.327-.144-.547-.375-.4-.736.163-.395.486-.372.838-.223a5.427,5.427,0,0,0,4.384,0c.328-.139.639-.173.812.185.184.383-.037.624-.385.778a6.268,6.268,0,0,1-2.652.54" transform="translate(-44.041 -50.452)" fill="#010000"/>
          <path id="Trazado_127553" data-name="Trazado 127553" d="M62.487,58.474a1.046,1.046,0,1,1-2.091-.04,1.046,1.046,0,0,1,2.091.04" transform="translate(-41.359 -39.321)" fill="#010101"/>
          <path id="Trazado_127554" data-name="Trazado 127554" d="M82.143,59.509A1.058,1.058,0,0,1,81.1,58.478a1.046,1.046,0,1,1,1.044,1.032" transform="translate(-55.537 -39.321)" fill="#010101"/>
          <path id="Trazado_127555" data-name="Trazado 127555" d="M62.738,124.655a1.71,1.71,0,0,1,.922-1.531,1.748,1.748,0,0,1,1.929.157c.7.5.734.507,1.449-.01a1.788,1.788,0,0,1,2.383.211,1.7,1.7,0,0,1-.05,2.374c-.923.957-1.88,1.881-2.811,2.831-.2.2-.322.179-.51-.011-.932-.948-1.878-1.883-2.816-2.826a1.8,1.8,0,0,1-.5-1.2" transform="translate(-42.963 -84.166)" fill="#fb657d"/>
        </g>
      </g>
    </g>
  </g>
</svg>
