<svg xmlns="http://www.w3.org/2000/svg" xmlns:xlink="http://www.w3.org/1999/xlink" width="70" height="85" viewBox="0 0 70 85">
  <defs>
    <clipPath id="clip-path">
      <rect id="Rect치ngulo_37868" data-name="Rect치ngulo 37868" width="52" height="47.69" fill="none"/>
    </clipPath>
  </defs>
  <g id="Grupo_163995" data-name="Grupo 163995" transform="translate(-503 -4089)">
    <rect id="Rect치ngulo_37872" data-name="Rect치ngulo 37872" width="70" height="85" rx="12" transform="translate(503 4089)" fill="#1169e3"/>
    <g id="Grupo_163970" data-name="Grupo 163970" transform="translate(512 4107.655)">
      <g id="Grupo_158003" data-name="Grupo 158003" clip-path="url(#clip-path)">
        <path id="Trazado_131228" data-name="Trazado 131228" d="M42.642,14.048a.582.582,0,0,1,.658-.5c1.007.005,2.016-.022,3.023.01a2.6,2.6,0,0,1,2.556,2.661c.019.734,0,1.469,0,2.2q0,10.683-.011,21.366c0,.444.092.619.557.562a5.957,5.957,0,0,1,1.024,0,1.5,1.5,0,0,1,1.5,1.4,14,14,0,0,1-.045,2.863,3.575,3.575,0,0,1-3.495,3.067c-1.093.025-2.186.007-3.279.008q-16.167,0-32.334,0c-.415,0-.8,0-.892-.527-.057-.432.243-.564.57-.646a3.774,3.774,0,0,1,.919-.042q17.341,0,34.682,0a2.454,2.454,0,0,0,2.706-2.393c.048-.63.021-1.263.013-1.894a.544.544,0,0,0-.634-.617c-.187.005-.375,0-.563,0H34.126c-.137,0-.273,0-.41,0-.565.015-.613.062-.628.616-.006.222.005.444-.016.665a1.722,1.722,0,0,1-1.823,1.685q-5.251.013-10.5,0a1.67,1.67,0,0,1-1.818-1.821c-.018-1.234.112-1.145-1.181-1.145q-7.736,0-15.471,0c-1.052,0-1.064.014-1.065,1.048,0,.461,0,.922,0,1.383A2.374,2.374,0,0,0,3.66,46.467c1.366.015,2.732,0,4.1.005a1.6,1.6,0,0,1,.753.115c.253.131.48.289.347.636a.549.549,0,0,1-.629.462c-1.588-.008-3.178.024-4.765-.017A3.572,3.572,0,0,1,.018,44.215c-.025-.785-.021-1.571,0-2.357A1.5,1.5,0,0,1,1.4,40.352a11.525,11.525,0,0,1,1.382-.023c.249.006.344-.077.315-.323a3.082,3.082,0,0,1,0-.358c0-7.72.027-15.441-.021-23.16a2.8,2.8,0,0,1,2.958-2.959c3.5.053,7,.007,10.5.026.42,0,.479-.112.385-.48-.176-.693-.348-1.39-.463-2.1-.057-.349-.214-.393-.51-.391-1.315.01-2.631.019-3.945-.009a1.67,1.67,0,0,1-1.572-1.248,1.749,1.749,0,0,1,.668-1.9,1.931,1.931,0,0,1,1.16-.335c1.247,0,2.494.013,3.74-.006a.711.711,0,0,1,.81.657c.2.985.439,1.963.625,2.95.059.313.192.374.475.37,1.042-.014,2.084-.016,3.125,0,.305.005.411-.065.408-.393q-.026-2.536,0-5.073c0-.33-.1-.406-.407-.389-.426.024-.854.014-1.281,0a.87.87,0,0,1-.967-.944q-.016-1.665,0-3.33A.846.846,0,0,1,19.7.008q2.408-.015,4.817,0c.6,0,.864.275.938.91a1.643,1.643,0,0,0,1.323,1.549,1.558,1.558,0,0,0,1.665-.92A2.555,2.555,0,0,0,28.6.8.8.8,0,0,1,29.439.01q2.485-.018,4.97,0a.816.816,0,0,1,.844.85q.033,1.742,0,3.484a.853.853,0,0,1-.939.87c-.461.013-.923.015-1.383,0-.243-.009-.319.061-.318.312.01,1.742.013,3.484,0,5.226,0,.309.145.313.374.312q1.87-.01,3.74,0c.63,0,.8.216.676.82-.024.117-.055.232-.076.349-.078.428-.412,1.006-.187,1.236s.837.059,1.279.081,1-.173,1.178.5c.128.4-.154.514-.442.621a14.547,14.547,0,0,1-1.636.025c-.408,0-.658.123-.7.554a1.866,1.866,0,0,1-.058.249c-.23.968-.23.968.783.954,2.409-.027,4.815-.017,7.223-.006.857,0,1.133.3,1.134,1.152q.008,9.859,0,19.718c0,.892-.193,1.079-1.094,1.079q-18.823,0-37.646,0c-.94,0-1.147-.2-1.149-1.146q-.011-4.661,0-9.321c0-.746.157-.943.76-1.046.5.134.588.518.592.955.007,1.093,0,2.186,0,3.279,0,1.742,0,3.484,0,5.226,0,.661.035.695.7.695q17.883,0,35.766,0c.681,0,.713-.037.713-.735q0-8.915,0-17.83a1.908,1.908,0,0,0-.044-.507c-.1-.217-.3-.192-.487-.192-2.356,0-4.712-.014-7.068.009-.641.006-.685.049-.822.665q-.4,1.8-.783,3.6c-.174.813-.346.956-1.181.956q-6.607,0-13.214.005c-.244,0-.574-.113-.708.15a1.646,1.646,0,0,0-.034,1.055c.034.178.195.158.333.156a3.252,3.252,0,0,1,3.283,2.142.6.6,0,0,0,.635.4c1.332,0,2.663-.016,3.995.006.448.007.558-.263.705-.592a3.174,3.174,0,0,1,5.78-.167,3.176,3.176,0,1,1-5.755,2.684.866.866,0,0,0-.953-.619c-1.229.031-2.458.019-3.687,0a.713.713,0,0,0-.773.5A3.187,3.187,0,0,1,18.745,30a3.035,3.035,0,0,1-.627-4.062,4.181,4.181,0,0,0,.634-3.528c-.185-1.385-.581-2.737-.856-4.109-.087-.432-.338-.528-.729-.529-2.339-.008-4.678,0-7.016,0q-1.127,0-2.254,0c-.184,0-.386-.037-.49.183A21.266,21.266,0,0,0,7.365,20.3c-.014.953.006,1.907-.009,2.86-.006.4-.1.753-.568.843-.475.038-.678-.238-.751-.658a2.963,2.963,0,0,1-.027-.51c0-1.756-.007-3.513,0-5.269,0-.824.279-1.118,1.109-1.12,3.223-.009,6.447-.026,9.669.006.653-.047.67-.069.534-.7C17.1,14.7,17.1,14.7,16.034,14.7H6.1a1.666,1.666,0,0,0-.754.1,1.586,1.586,0,0,0-1.056,1.686Q4.3,23.4,4.291,30.315q0,4.558,0,9.117c0,.756.025.783.77.784q20.924,0,41.848,0c.777,0,.813-.035.813-.8q0-11.319,0-22.638a4.257,4.257,0,0,0-.027-.562,1.5,1.5,0,0,0-1.59-1.478c-.835-.038-1.673-.006-2.509-.013a1.732,1.732,0,0,1-.609-.061c-.277-.105-.487-.263-.346-.612" transform="translate(0 0)"/>
        <path id="Trazado_131229" data-name="Trazado 131229" d="M28.109,55.185c-.613.01-1.226.028-1.839.029q-3.965,0-7.931,0c-.766,0-.884.121-.884.892,0,1.876.005,3.752,0,5.628,0,.436.11.741.61.75a1.046,1.046,0,0,1,.1.91.138.138,0,0,1-.021.045c-.585.592-.585.592.023,1.164a1.034,1.034,0,0,1-.1.934c-.433.049-.606.289-.605.726.009,3.279,0,6.558.006,9.838,0,.582.142.72.731.72q19.062,0,38.124,0c.629,0,.733-.108.733-.763q0-10.017,0-20.034c0-.676-.132-.809-.809-.81q-3.485,0-6.969,0c-.187,0-.374-.015-.561-.022a2.831,2.831,0,0,1,.277-1.856c.055-.156.247-.146.4-.153a5.4,5.4,0,0,0,1.063-.037.626.626,0,0,0,.421-.521l1,0c.482.487.518.487,1.055,0l1,0c.051.4.3.53.679.525.922-.011,1.844-.007,2.766,0a1.612,1.612,0,0,1,1.769,1.742q.009,11.808.009,23.617c0,.3-.072.456-.4.412a1.9,1.9,0,0,0-.256,0q-21.236,0-42.472.013c-.529,0-.634-.138-.633-.644q.026-11.68.013-23.36a1.541,1.541,0,0,1,1.217-1.7,1.132,1.132,0,0,1,.455-.035c3.377,0,6.755.01,10.132-.014.484,0,.693.171.746.611.056.467.324.909.165,1.4" transform="translate(-11.275 -38.577)" fill="#72c0e7"/>
        <path id="Trazado_131230" data-name="Trazado 131230" d="M11.688,160.79c-.038-.472-.353-.568-.753-.567q-2.126.005-4.252,0a2.6,2.6,0,0,1-2.82-2.8q0-.845,0-1.69c0-.7.108-.806.8-.806q5.072,0,10.144,0c2.152,0,4.3.015,6.455-.011.49-.006.737.078.65.629a4.824,4.824,0,0,0-.006.87,1.512,1.512,0,0,0,1.507,1.548c.9.027,1.81.011,2.715.011q3.869,0,7.736,0c1.287,0,1.866-.588,1.868-1.883,0-1.163,0-1.163,1.164-1.163H52.833c.851,0,.944.093.945.934q0,.717,0,1.434a2.65,2.65,0,0,1-2.913,2.924q-17.6,0-35.2,0c-.412,0-.8.006-.933.5a3.283,3.283,0,0,0-1,.067c-.483-.492-.483-.492-1.056-.066a3.426,3.426,0,0,0-.994.064" transform="translate(-2.83 -113.567)" fill="#72c0e7"/>
        <path id="Trazado_131231" data-name="Trazado 131231" d="M140.1,14.7a.506.506,0,0,1-.509-.48,2.142,2.142,0,0,0-1.573-1.877.5.5,0,0,1-.383-.488.5.5,0,0,1,.421-.512,2.028,2.028,0,0,0,1.491-1.7c.077-.312.155-.624.541-.639.424-.017.514.325.591.645a2.03,2.03,0,0,0,1.493,1.7.513.513,0,0,1,.01,1,2.074,2.074,0,0,0-1.515,1.746c-.068.3-.16.61-.568.609" transform="translate(-100.893 -6.6)"/>
        <path id="Trazado_131232" data-name="Trazado 131232" d="M153.121,51.27c-.066.289-.2.517-.534.515s-.478-.212-.521-.516a.522.522,0,0,1,.5-.493c.321-.015.48.206.557.494" transform="translate(-111.475 -37.222)" fill="#050606"/>
        <path id="Trazado_131233" data-name="Trazado 131233" d="M36.91,175.34c.087-.282.246-.509.568-.484a.511.511,0,0,1,.487.551.5.5,0,0,1-.526.453c-.342,0-.462-.236-.53-.52" transform="translate(-27.058 -128.181)" fill="#050707"/>
        <path id="Trazado_131234" data-name="Trazado 131234" d="M25.4,75.5q0-.5.005-1c.368-.351.255-.7,0-1.049q0-.5.005-1c.361-.109.423-.379.422-.716,0-1.817.01-3.634.018-5.45.135-.111.3-.057.443-.057,2.971,0,5.943.007,8.914-.013a.631.631,0,0,1,.737.582c.255,1.29.593,2.563.825,3.856a11.275,11.275,0,0,1,.039,2.453,1.637,1.637,0,0,1-.412.811,3.814,3.814,0,0,0,1.983,5.833A3.758,3.758,0,0,0,42.8,77.967a.97.97,0,0,1,.976-.577q1.357.028,2.715,0a.985.985,0,0,1,.98.574,3.759,3.759,0,0,0,5.394,1.318,3.814,3.814,0,0,0-.1-6.443c-.222-.137-.651-.217-.569-.492.087-.293.508-.17.787-.175,1-.017,1.385-.312,1.612-1.279.316-1.347.582-2.7.9-4.051.143-.617.151-.624.778-.624q3.279,0,6.557,0a.886.886,0,0,1,.5.048c.013.169.037.337.037.506,0,6.147,0,12.294.013,18.442,0,.455-.112.553-.557.552q-18.238-.02-36.476,0c-.422,0-.534-.093-.531-.525.021-2.988.006-5.977.017-8.965A.72.72,0,0,0,25.4,75.5" transform="translate(-18.621 -48.535)" fill="#eee"/>
        <path id="Trazado_131235" data-name="Trazado 131235" d="M76.866,12.745q-.01-2.3-.021-4.609c0-.857-.281-1.136-1.131-1.14-.393,0-.786-.015-1.178,0-.274.014-.35-.089-.346-.352q.02-1.255,0-2.51c0-.255.093-.313.328-.312,1.332.009,2.664.017,4,0,.377-.006.338.245.389.463a2.6,2.6,0,0,0,2.049,1.986,2.526,2.526,0,0,0,2.588-1.09,1.828,1.828,0,0,0,.385-.936c.023-.37.2-.427.525-.423q1.87.026,3.74,0c.314,0,.457.052.444.413-.028.8-.017,1.605,0,2.407,0,.263-.076.366-.349.356-.443-.018-.888-.011-1.332,0a.861.861,0,0,0-.968.983c-.011,1.588-.013,3.175-.019,4.763a.866.866,0,0,1-.672.167q-3.875.007-7.749,0a.9.9,0,0,1-.674-.166" transform="translate(-54.386 -2.802)" fill="#fb5d3d"/>
        <path id="Trazado_131236" data-name="Trazado 131236" d="M64.555,66.125c-2.357,0-4.714.016-7.071,0-.385,0-.538.121-.612.484-.3,1.466-.616,2.929-.937,4.391a1.422,1.422,0,0,1-1.46,1.177c-.324,0-.647,0-1.09,0,.4.279.756.421,1.059.655a3.957,3.957,0,1,1-5.936,4.951.576.576,0,0,0-.618-.4c-1.007.021-2.016.019-3.023,0a.585.585,0,0,0-.631.374,3.946,3.946,0,1,1-6.619-4.231,1.561,1.561,0,0,0,.314-.884,18.953,18.953,0,0,0-.789-5.386c-.233-1.132-.253-1.128-1.408-1.128h-8.66c.116-.2.306-.1.457-.1,3.244,0,6.487.015,9.731.007.376,0,.527.1.6.482.259,1.32.586,2.628.847,3.948a17.725,17.725,0,0,1,.081,2.912c.006.18-.131.263-.238.373a3.014,3.014,0,0,0-.674,3.436,3.071,3.071,0,0,0,2.857,1.81A3.02,3.02,0,0,0,43.563,76.8a.4.4,0,0,1,.458-.336q2.279.022,4.559,0c.272,0,.361.088.443.346a3,3,0,0,0,3.4,2.141,3.039,3.039,0,0,0-.12-6.017,3,3,0,0,0-3.246,2.09.505.505,0,0,1-.594.431c-1.468-.022-2.936-.018-4.4,0a.425.425,0,0,1-.5-.354,2.96,2.96,0,0,0-3.392-2.13c-.285.039-.343-.038-.354-.307-.058-1.4-.065-1.4,1.306-1.4H54.077c.736,0,.791-.051.946-.774.29-1.349.592-2.7.874-4.047.057-.273.141-.4.457-.4,2.629.007,5.258-.007,7.887-.01.108,0,.245-.06.315.089" transform="translate(-19.846 -48.391)" fill="#aeaeae"/>
        <path id="Trazado_131237" data-name="Trazado 131237" d="M91.151,45.249c1.093,0,2.186.012,3.278-.007.325-.006.4.075.347.4-.174,1.181-.321,2.366-.463,3.551-.039.325-.157.447-.509.443q-2.689-.03-5.379,0c-.387.005-.491-.137-.531-.486-.131-1.152-.259-2.307-.453-3.449-.076-.449.084-.463.431-.459,1.093.016,2.186.006,3.278.006" transform="translate(-64.087 -33.166)" fill="#efbf20"/>
        <path id="Trazado_131238" data-name="Trazado 131238" d="M93.1,65.494c.854,0,1.708.008,2.562,0,.278,0,.393.044.346.366-.178,1.215-.332,2.434-.48,3.653-.034.276-.143.359-.421.356q-2.05-.022-4.1,0c-.271,0-.4-.07-.434-.353-.151-1.236-.306-2.472-.488-3.7-.051-.348.14-.313.35-.313H93.1" transform="translate(-66.034 -48.008)" fill="#efbf20"/>
        <path id="Trazado_131239" data-name="Trazado 131239" d="M81.156,154.942c1.825,0,3.651.009,5.476-.008.362,0,.457.111.456.463,0,1.672.054,1.571-1.553,1.568-3.1-.006-6.209,0-9.314,0-.844,0-.919-.074-.92-.894,0-1.127,0-1.127,1.147-1.127h4.708" transform="translate(-55.201 -113.577)" fill="#aeaeae"/>
        <path id="Trazado_131240" data-name="Trazado 131240" d="M68.87,45.251c.615,0,1.23.013,1.844-.006.268-.008.392.059.426.345q.223,1.854.485,3.7c.034.242-.007.341-.273.339q-1.767-.014-3.534,0c-.241,0-.326-.094-.372-.309-.27-1.267-.542-2.533-.829-3.8-.06-.263.053-.282.256-.281.666.006,1.332,0,2,0" transform="translate(-48.823 -33.168)" fill="#efbf20"/>
        <path id="Trazado_131241" data-name="Trazado 131241" d="M122.047,45.26c-.305,1.392-.606,2.732-.888,4.076-.049.231-.142.306-.37.3q-1.763-.012-3.526,0c-.231,0-.331-.043-.291-.32.177-1.229.327-2.462.491-3.693.024-.178.021-.372.306-.37,1.411.009,2.822,0,4.278,0" transform="translate(-85.742 -33.176)" fill="#efbf20"/>
        <path id="Trazado_131242" data-name="Trazado 131242" d="M73.072,65.487c.545,0,1.091.009,1.636,0,.235-.005.374.033.408.31q.232,1.9.5,3.8c.031.22-.047.264-.238.263-1.056,0-2.113-.006-3.169,0-.22,0-.281-.1-.323-.3q-.389-1.847-.806-3.688c-.062-.275-.019-.4.305-.388.561.024,1.124.007,1.686.007" transform="translate(-52.089 -48.001)" fill="#efbf20"/>
        <path id="Trazado_131243" data-name="Trazado 131243" d="M116.878,65.484c.545,0,1.09.009,1.635,0,.257-.006.384.048.318.342q-.417,1.866-.813,3.737c-.049.232-.166.295-.388.293q-1.533-.013-3.066,0c-.231,0-.327-.035-.286-.314.177-1.212.332-2.427.479-3.643.038-.314.159-.434.487-.418.544.027,1.09.007,1.635.007" transform="translate(-83.767 -47.998)" fill="#efbf20"/>
        <path id="Trazado_131244" data-name="Trazado 131244" d="M116.663,97.766a2.021,2.021,0,1,1-1.954-2.088,2.037,2.037,0,0,1,1.954,2.088" transform="translate(-82.56 -70.138)" fill="#eee"/>
        <path id="Trazado_131245" data-name="Trazado 131245" d="M74.419,97.678a2.019,2.019,0,1,1-2.037-2.007,2.034,2.034,0,0,1,2.037,2.007" transform="translate(-51.594 -70.134)" fill="#eee"/>
        <path id="Trazado_131246" data-name="Trazado 131246" d="M84.163,37.244h9.1c.06,1.119.06,1.119-1.039,1.119q-3.714,0-7.427,0c-.729,0-.643.1-.649-.657,0-.153.013-.306.019-.459" transform="translate(-61.683 -27.302)" fill="#d84f34"/>
        <path id="Trazado_131247" data-name="Trazado 131247" d="M45.245,31.846c-.6,0-1.193.011-1.789,0a.687.687,0,0,1-.766-.706.71.71,0,0,1,.755-.73c1.124-.019,2.249,0,3.374-.013.235,0,.323.09.38.306.306,1.149.311,1.147-.881,1.147H45.245Z" transform="translate(-31.295 -22.281)" fill="#aeaeae"/>
        <path id="Trazado_131248" data-name="Trazado 131248" d="M31.488,56.576c-.105-.462-.226-.921-.312-1.387-.074-.4-.222-.58-.691-.577-3.345.026-6.69.014-10.036.014-.153,0-.306-.009-.46-.014a.806.806,0,0,1,.543-.084c3.633,0,7.267.012,10.9,0,.377,0,.509.128.561.465a6.327,6.327,0,0,0,.233,1.1c.16.464-.009.58-.435.518-.1-.015-.2-.02-.3-.029" transform="translate(-14.653 -39.967)" fill="#4aa4c6"/>
        <path id="Trazado_131249" data-name="Trazado 131249" d="M139.3,54.554c-.319.179-.665.068-1,.082-.261.011-.4.083-.447.366-.081.535-.2,1.064-.3,1.6-1.083.073-1.083.073-.847-.977s.238-1.061,1.321-1.077c.423-.007.847.005,1.27.009" transform="translate(-100.123 -39.984)" fill="#4aa4c6"/>
        <path id="Trazado_131250" data-name="Trazado 131250" d="M23.78,93.326c.588.383.59.714,0,1.049-.328-.005-.58-.137-.6-.487-.017-.382.257-.517.591-.561" transform="translate(-16.999 -68.415)" fill="#050708"/>
        <path id="Trazado_131251" data-name="Trazado 131251" d="M143.694,162.152q-2.687,0-5.375,0a1.816,1.816,0,0,1-.5-.057.5.5,0,0,1,.075-.948,2.58,2.58,0,0,1,.459-.017,51.227,51.227,0,0,0,10.493,0c.77,0,.88-.112.882-.889,0-.239-.015-.479.006-.716a.517.517,0,0,1,.559-.538c.34.01.462.24.46.555s0,.648,0,.972a1.539,1.539,0,0,1-1.63,1.638c-1.809.006-3.617,0-5.426,0" transform="translate(-100.806 -116.546)" fill="#72c0e7"/>
        <path id="Trazado_131252" data-name="Trazado 131252" d="M126.992,168.022a3.358,3.358,0,0,1-.561-.006.464.464,0,0,1-.437-.529.456.456,0,0,1,.488-.476c.306-.009.614,0,.92-.006a.51.51,0,0,1,.6.489c.013.354-.229.549-.6.538-.136,0-.273,0-.409,0v-.009" transform="translate(-92.361 -122.426)" fill="#72c0e7"/>
        <path id="Trazado_131253" data-name="Trazado 131253" d="M144.1,17.453a4.824,4.824,0,0,0,.735-.838.518.518,0,0,1,.085.065c.206.261.581.533.567.783s-.4.5-.639.759c-.118-.136-.235-.28-.363-.413s-.247-.23-.384-.356" transform="translate(-105.638 -12.18)" fill="#ebbc1f"/>
        <path id="Trazado_131254" data-name="Trazado 131254" d="M57.038,88.226H41.927c-.1,0-.205-.006-.307,0-.388.025-.733-.105-.73-.518s.355-.511.74-.511q11.474.007,22.949,0c2.356,0,4.713-.015,7.069.012.49.006.589-.154.587-.609q-.022-7.222-.007-14.444a.872.872,0,0,1,.076-.547.519.519,0,0,1,.5-.2.359.359,0,0,1,.363.293,1.888,1.888,0,0,1,.088.6q0,7.5,0,15.008c0,.74-.167.905-.9.905H57.038" transform="translate(-29.975 -52.354)" fill="#eee"/>
        <path id="Trazado_131255" data-name="Trazado 131255" d="M43.715,81.887a.509.509,0,0,1-.5-.486,2.142,2.142,0,0,0-1.576-1.874.494.494,0,0,1-.378-.491.478.478,0,0,1,.379-.489,2.1,2.1,0,0,0,1.556-1.826c.062-.287.194-.527.523-.536.361-.01.495.253.561.553a2.118,2.118,0,0,0,1.569,1.819.459.459,0,0,1,.35.5.454.454,0,0,1-.347.456,2.158,2.158,0,0,0-1.589,1.864c-.064.289-.2.508-.545.506" transform="translate(-30.246 -55.85)"/>
        <path id="Trazado_131256" data-name="Trazado 131256" d="M31.783,131.547c-.495.046-.872-.063-.871-.5s.382-.54.777-.512a2.74,2.74,0,0,1,.4.017.476.476,0,0,1,.438.523c-.01.309-.2.412-.441.468a1.053,1.053,0,0,1-.307.005" transform="translate(-22.661 -95.686)" fill="#eee"/>
        <path id="Trazado_131257" data-name="Trazado 131257" d="M92.216,89.194a4.838,4.838,0,0,0-1.793,1.422c-.028.043-.079.076-.092.122-.207.778-.771.837-1.454.794-.815-.051-1.636-.01-2.454-.014-.161,0-.36.061-.451-.145a4.406,4.406,0,0,0-2.135-2.179Z" transform="translate(-61.459 -65.386)" fill="#eee"/>
        <path id="Trazado_131258" data-name="Trazado 131258" d="M119.333,101.594c-.013.363-.157.627-.529.626-.34,0-.5-.229-.5-.57s.106-.619.488-.634.521.248.545.578" transform="translate(-86.722 -74.052)" fill="#050505"/>
        <path id="Trazado_131259" data-name="Trazado 131259" d="M77.087,101.584c-.011.363-.149.63-.523.634-.341,0-.5-.221-.51-.563s.1-.621.481-.641.523.243.552.57" transform="translate(-55.753 -74.05)" fill="#050505"/>
        <path id="Trazado_131260" data-name="Trazado 131260" d="M47.669,84.7a4.261,4.261,0,0,0,.712-.8c.1-.075.119,0,.133.032.139.306.613.477.555.777-.05.258-.424.454-.6.785a4.484,4.484,0,0,0-.8-.8" transform="translate(-34.945 -61.485)" fill="#ebbc1f"/>
      </g>
    </g>
  </g>
</svg>
