<svg xmlns="http://www.w3.org/2000/svg" width="70" height="85" viewBox="0 0 70 85">
  <g id="Grupo_163990" data-name="Grupo 163990" transform="translate(-503 -4089)">
    <rect id="Rectángulo_37872" data-name="Rectángulo 37872" width="70" height="85" rx="12" transform="translate(503 4089)" fill="#1169e3"/>
    <g id="Grupo_163965" data-name="Grupo 163965" transform="translate(513.869 4106)">
      <g id="Grupo_156576" data-name="Grupo 156576">
        <path id="Trazado_126976" data-name="Trazado 126976" d="M49.467,5.82c.455-.1.683.1.86.522a10.241,10.241,0,0,1-7.636,14,9.961,9.961,0,0,1-10.242-4.195c-.2-.263-.3-.35-.629-.163q-4.71,2.713-9.445,5.381c-.287.162-.33.275-.19.583a11.383,11.383,0,0,1,.011,9.821c-.153.339-.081.452.208.615q4.442,2.5,8.866,5.037c.356.2.5.157.641-.2a5.237,5.237,0,0,1,.288-.49.631.631,0,0,1,.852-.366c.472.2.339.553.194.867-.209.454-.482.879-.7,1.331a9.085,9.085,0,0,0,1.99,10.22c.028.026.057.038.134.032,0-.543-.007-1.092,0-1.64a4.316,4.316,0,0,1,2.38-3.914c.5-.28.507-.267.238-.75a4.141,4.141,0,1,1,7.6-3,3.939,3.939,0,0,1-.554,3.078c-.166.264-.212.434.132.6a4.645,4.645,0,0,1,2.622,4.478,9.844,9.844,0,0,0,.024,1.077,6.58,6.58,0,0,0,1.557-1.874,9.111,9.111,0,0,0-6.411-13.6,8.815,8.815,0,0,0-5.394.823,6.526,6.526,0,0,1-.892.418c-.3.094-.594.113-.7-.289-.15-.381.02-.609.342-.807a10.312,10.312,0,1,1-4.481,5.529c.1-.293.042-.411-.22-.559q-4.53-2.554-9.042-5.14c-.3-.17-.411-.121-.6.145-2.814,3.891-6.644,5.676-11.376,4.931A11.09,11.09,0,0,1,.42,29.758a11.126,11.126,0,0,1,1.436-9.142c.2-.329.423-.608.871-.412.373.23.444.47.206.889-.221.391-.461.772-.649,1.181A10.114,10.114,0,0,0,2.923,32.55a10.044,10.044,0,0,0,9.021,4.768,9.932,9.932,0,0,0,6.381-2.4,9.953,9.953,0,0,0,3.745-7.151,9.976,9.976,0,0,0-4.688-9.618,10.119,10.119,0,0,0-11.36-.077c-.6.356-.78.359-1.1-.029-.211-.452.038-.693.389-.926A11.626,11.626,0,0,1,21.2,20.238c.26.381.424.38.789.17q4.622-2.656,9.268-5.27c.339-.191.386-.348.225-.707A10.255,10.255,0,0,1,41.452.019a10.144,10.144,0,0,1,6.005,2.394c.347.287.469.582.212.98-.337.385-.647.181-.939-.056A9.689,9.689,0,0,0,44.2,1.825,9.091,9.091,0,0,0,34.047,16.309a1.609,1.609,0,0,0,.564.5,3.375,3.375,0,0,0,.054-1.146,4.418,4.418,0,0,1,2.613-4.5c.36-.18.2-.361.068-.573a3.977,3.977,0,0,1-.168-4.1,4.14,4.14,0,0,1,4.011-2.247,4.226,4.226,0,0,1,3.687,3.18,3.948,3.948,0,0,1-.55,3.175c-.179.286-.228.411.146.592A4.387,4.387,0,0,1,47,14.693a17.511,17.511,0,0,1,.1,2.142,8.77,8.77,0,0,0,2.386-3.768,8.968,8.968,0,0,0-.216-6.194c-.247-.619-.2-.794.2-1.052" transform="translate(0 0)"/>
        <path id="Trazado_126977" data-name="Trazado 126977" d="M6.741,45.678c.371.311.688.131,1.028-.086a10.429,10.429,0,0,1,12.452.758,10.068,10.068,0,0,1,3.484,10.811A10.007,10.007,0,0,1,15.4,64.893,10.542,10.542,0,0,1,2.913,53.8a10.309,10.309,0,0,1,1.655-5.009c.216-.332.345-.646-.022-.957l.659-.777a.143.143,0,0,1,.044-.023c.679-.079.679-.079.741-.722l.751-.636" transform="translate(-1.819 -27.632)" fill="#1169e3"/>
        <path id="Trazado_126978" data-name="Trazado 126978" d="M89.022,90.384c.282.338.583.264.916.07A9.216,9.216,0,0,1,103.6,96.464a9.069,9.069,0,0,1-2.616,8.585c-.069.069-.15.126-.322.268,0-.453-.015-.806,0-1.157A4.562,4.562,0,0,0,97.607,99.2a4.111,4.111,0,0,0,.953-3.186,3.966,3.966,0,0,0-1.377-2.536,4.012,4.012,0,0,0-5.189-.006c-1.676,1.424-1.839,3.431-.447,5.749-2.864,1.064-3.232,3.4-2.962,6.154a6.559,6.559,0,0,1-1.051-1.024,9.2,9.2,0,0,1-.794-10.777c.217-.351.44-.684.057-1.059l.646-.762c.7-.074.7-.074.8-.731l.777-.641" transform="translate(-53.747 -56.152)" fill="#29c4bb"/>
        <path id="Trazado_126979" data-name="Trazado 126979" d="M103.168,7.578c-.333.306-.225.63-.08.989a9.184,9.184,0,0,1-2.017,9.965c-.118.117-.243.227-.457.426,0-.558-.011-1,0-1.439a4.476,4.476,0,0,0-3.052-4.7,4.08,4.08,0,0,0,.906-3.48A3.957,3.957,0,0,0,97.029,7a4.018,4.018,0,0,0-5.149.141,4.075,4.075,0,0,0-.363,5.683C88.663,13.893,88.25,16.2,88.529,18.8c-.223.1-.286-.037-.36-.113a8.876,8.876,0,0,1-2.363-9.517,9.2,9.2,0,0,1,14.67-4.2.782.782,0,0,0,.894.179l.73.672c-.056.644-.056.644.611.894a3.213,3.213,0,0,1,.457.862" transform="translate(-53.701 -1.758)" fill="#0c487b"/>
        <path id="Trazado_126980" data-name="Trazado 126980" d="M63.333,22.675a.473.473,0,0,1-.382.492A2.339,2.339,0,0,0,61.218,25.2c0,.017-.014.032-.018.049-.069.3-.223.52-.553.513s-.484-.238-.533-.536a2.323,2.323,0,0,0-1.722-2.046.518.518,0,0,1-.416-.528.486.486,0,0,1,.386-.491A2.37,2.37,0,0,0,60.1,20.129a1.858,1.858,0,0,1,.08-.245.514.514,0,0,1,.955.017c.08.246.137.5.22.744A2.062,2.062,0,0,0,62.777,22.1c.286.082.569.2.556.578" transform="translate(-36.503 -12.321)"/>
        <path id="Trazado_126981" data-name="Trazado 126981" d="M45.647,114.511a.477.477,0,0,1-.479-.328,1.857,1.857,0,0,1-.1-.349,2.21,2.21,0,0,0-1.59-1.859c-.269-.084-.521-.219-.512-.567s.254-.465.532-.547a2.057,2.057,0,0,0,1.449-1.487c.064-.214.137-.427.193-.643a.5.5,0,0,1,.521-.414.518.518,0,0,1,.512.432c.066.231.133.463.2.693a1.986,1.986,0,0,0,1.39,1.408c.3.089.571.217.57.573,0,.329-.251.476-.533.551a2.315,2.315,0,0,0-1.6,1.975c-.078.311-.187.56-.56.562" transform="translate(-27.055 -68.198)"/>
        <path id="Trazado_126982" data-name="Trazado 126982" d="M122.441,62.327a.49.49,0,0,1-.47-.464A2.419,2.419,0,0,0,120.2,59.73a.507.507,0,0,1-.392-.493.479.479,0,0,1,.373-.5,2.417,2.417,0,0,0,1.776-2.074c.008-.034.012-.068.021-.1a.524.524,0,0,1,1.03-.016c.07.249.137.5.22.744a2.013,2.013,0,0,0,1.369,1.372c.294.089.574.2.583.562s-.274.493-.563.577a2.242,2.242,0,0,0-1.533,1.851c-.136.537-.269.674-.64.681" transform="translate(-75.43 -35.335)"/>
        <path id="Trazado_126983" data-name="Trazado 126983" d="M9.691,50.2a.557.557,0,0,1-.029.716.565.565,0,0,1-.756.029.531.531,0,0,1,.031-.744.58.58,0,0,1,.755,0" transform="translate(-5.52 -31.517)" fill="#050403"/>
        <path id="Trazado_126984" data-name="Trazado 126984" d="M91.568,93.9a.552.552,0,0,1-.041.714.573.573,0,0,1-.759.016c-.142-.259-.206-.521.047-.746a.573.573,0,0,1,.753.015" transform="translate(-57.07 -59.024)" fill="#060404"/>
        <path id="Trazado_126985" data-name="Trazado 126985" d="M130.919,11.769c-.271.066-.543.117-.731-.165a.551.551,0,0,1,.12-.73c.273-.082.539-.113.73.161s.058.511-.119.733" transform="translate(-81.909 -6.81)" fill="#030404"/>
        <path id="Trazado_126986" data-name="Trazado 126986" d="M96.713,111.784a8.125,8.125,0,0,1,.106-1.81,3.223,3.223,0,0,1,2.087-2.27c1.089-.4,1.251-.942.531-1.838a2.972,2.972,0,1,1,4.56.03c-.683.827-.513,1.436.5,1.79a3.252,3.252,0,0,1,2.257,3.1c.036.829,0,1.66.018,2.49a.525.525,0,0,1-.342.516A9.156,9.156,0,0,1,97,113.771a.512.512,0,0,1-.293-.538c.016-.449,0-.9,0-1.449" transform="translate(-60.889 -63.592)" fill="#b0c8cb"/>
        <path id="Trazado_126987" data-name="Trazado 126987" d="M96.712,25.4a8.378,8.378,0,0,1,.073-1.665,3.244,3.244,0,0,1,2.19-2.425c.978-.346,1.16-.962.511-1.753a2.971,2.971,0,1,1,5.2-2.217,2.9,2.9,0,0,1-.709,2.209c-.663.8-.488,1.4.488,1.758a3.159,3.159,0,0,1,2.255,2.877c.07.912.024,1.832.043,2.748a.456.456,0,0,1-.274.449,9.157,9.157,0,0,1-9.516.011.478.478,0,0,1-.269-.5c.014-.467,0-.934,0-1.493" transform="translate(-60.887 -9.218)" fill="#b0c8cb"/>
        <path id="Trazado_126988" data-name="Trazado 126988" d="M15.9,55.906h.259c3.1,0,3.1,0,5.868-1.38.23-.114.364-.234.329-.5a2.92,2.92,0,0,1,0-.414.513.513,0,1,1,1.024-.023c.02.57.009,1.141.01,1.711,0,.19,0,.38,0,.57a3.576,3.576,0,0,0,.023,1.031c.123.386.589.205.886.341A2.169,2.169,0,0,1,25.6,59.4a2.033,2.033,0,0,1-1.646,1.829c-.476.079-.6.257-.577.726.045.914.014,1.832.013,2.748,0,.355-.069.69-.506.7-.478.013-.584-.342-.522-.712.094-.562-.179-.8-.654-.978a7.261,7.261,0,0,1-1.222-.561,5.448,5.448,0,0,0-3.229-.68c-.381.023-.42.15-.371.462.16,1.023.3,2.05.459,3.074a1.149,1.149,0,0,1-1.238,1.481c-.311.006-.623.008-.934,0a1.125,1.125,0,0,1-1.193-1.052c-.179-1.178-.361-2.355-.514-3.536-.043-.331-.167-.423-.49-.425a1.593,1.593,0,0,1-1.491-.944.443.443,0,0,0-.505-.31,4.459,4.459,0,0,1-.622,0,.953.953,0,0,1-1.064-1.054c-.009-.657-.01-1.314,0-1.97a.933.933,0,0,1,1.036-1.023,2.52,2.52,0,0,1,.363,0,.752.752,0,0,0,.888-.462,1.491,1.491,0,0,1,1.413-.8c.968-.006,1.936,0,2.9,0v0" transform="translate(-5.846 -33.407)"/>
        <path id="Trazado_126989" data-name="Trazado 126989" d="M64.781,26.171a4.033,4.033,0,0,0-.861.964c-.039-.024-.079-.034-.09-.058-.177-.386-.81-.583-.721-.947.079-.322.546-.583.769-.981a3.5,3.5,0,0,0,.9,1.023" transform="translate(-39.729 -15.834)" fill="#29c4bb"/>
        <path id="Trazado_126990" data-name="Trazado 126990" d="M47.741,114.978a3.658,3.658,0,0,0,.913-1.022,6.09,6.09,0,0,1,.711.9c.191.441-.446.585-.607.952-.1.23-.217-.03-.278-.112a4.343,4.343,0,0,0-.738-.718" transform="translate(-30.058 -71.748)" fill="#29c4bb"/>
        <path id="Trazado_126991" data-name="Trazado 126991" d="M125.551,63.763a3.715,3.715,0,0,0-.93-.95,5.165,5.165,0,0,0,.9-1.066,3.8,3.8,0,0,0,.741.889c.183.142.056.222-.052.313a3.05,3.05,0,0,0-.658.813" transform="translate(-78.463 -38.877)" fill="#29c4bb"/>
        <path id="Trazado_126992" data-name="Trazado 126992" d="M20.8,68.036c-.846,0-1.692.007-2.538,0a.7.7,0,0,1-.8-.793q-.019-1.45,0-2.9c.007-.55.25-.8.79-.8,1.709-.009,3.418,0,5.126-.011.327,0,.4.108.4.416-.016,1.225-.02,2.451,0,3.676.007.356-.116.432-.443.423-.845-.02-1.691-.007-2.537-.007" transform="translate(-10.991 -39.998)" fill="#72c0e7"/>
        <path id="Trazado_126993" data-name="Trazado 126993" d="M37.325,62.043c-.067-1.03-.067-1.03.845-1.446l1.722-.784c.147.116.092.247.092.357,0,2.142-.005,4.284.01,6.425,0,.413-.068.533-.477.325-.6-.3-1.215-.577-1.833-.842a.523.523,0,0,1-.389-.574c.034-.775.024-1.553.032-2.329.243-.357.679-.373,1.014-.568.117-.069.256-.1.377-.163.214-.116.376-.28.286-.536-.1-.282-.339-.225-.566-.177-.378.081-.692.391-1.114.311" transform="translate(-23.481 -37.659)" fill="#fa5c3d"/>
        <path id="Trazado_126994" data-name="Trazado 126994" d="M24.079,78.452c.434-.113.6.1.644.619.09.977.257,1.949.426,2.918.054.312.03.446-.325.431-1.133-.047-.9.2-1.075-.924-.12-.767-.225-1.536-.349-2.3-.121-.744-.128-.743.679-.742" transform="translate(-14.696 -49.376)" fill="#fa5c3d"/>
        <path id="Trazado_126995" data-name="Trazado 126995" d="M37.378,64.942c.365-.151.729-.3,1.094-.453.307-.125.6-.111.74.226s-.028.6-.361.738q-.734.312-1.47.622l0-1.133" transform="translate(-23.534 -40.558)" fill="#fec9c0"/>
        <path id="Trazado_126996" data-name="Trazado 126996" d="M47.332,67.749c0-.172-.009-.345,0-.516s-.086-.392.076-.481c.189-.1.405.02.579.13a1,1,0,0,1,.508,1.049,1.039,1.039,0,0,1-.818.893c-.238.066-.361.028-.35-.249s0-.551,0-.826" transform="translate(-29.791 -42.004)" fill="#71bfe6"/>
        <path id="Trazado_126997" data-name="Trazado 126997" d="M13.036,67.867a3.019,3.019,0,0,0,0,.463c.07.433-.1.557-.53.537-.332-.016-.458-.095-.429-.436.028-.324.006-.652.006-.979,0-.552.244-.719.789-.573.17.046.159.149.16.266,0,.241,0,.481,0,.722" transform="translate(-7.603 -42.076)" fill="#fb5d3d"/>
        <path id="Trazado_126998" data-name="Trazado 126998" d="M22.987,66.662c.674,0,1.349.026,2.022-.009.446-.023.457.21.454.54,0,.306-.006.523-.426.516-1.33-.023-2.661-.007-3.992-.01a1.156,1.156,0,0,1-.356-.046c-.267-.088-.462-.249-.424-.566s.248-.426.545-.425c.726,0,1.452,0,2.177,0" transform="translate(-12.756 -41.964)" fill="#c4e4fe"/>
      </g>
      <path id="Trazado_126999" data-name="Trazado 126999" d="M219.54,132.772c.395-.075.614.055.549.5-.055.374.075.583.489.518s.553.086.557.521c0,.457-.183.562-.573.51-.372-.05-.49.112-.483.482.012.58-.347.8-.908.627-.266-.083-.208-.3-.191-.464.047-.458-.058-.739-.6-.647-.419.071-.444-.191-.443-.513s.014-.581.438-.515c.458.071.674-.1.6-.58-.073-.462.224-.482.565-.441" transform="translate(-213.868 -128.764)"/>
      <path id="Trazado_127002" data-name="Trazado 127002" d="M219.54,132.772c.395-.075.614.055.549.5-.055.374.075.583.489.518s.553.086.557.521c0,.457-.183.562-.573.51-.372-.05-.49.112-.483.482.012.58-.347.8-.908.627-.266-.083-.208-.3-.191-.464.047-.458-.058-.739-.6-.647-.419.071-.444-.191-.443-.513s.014-.581.438-.515c.458.071.674-.1.6-.58-.073-.462.224-.482.565-.441" transform="translate(-190.868 -84.599)"/>
      <path id="Trazado_127000" data-name="Trazado 127000" d="M219.787,132.775c.456-.087.708.064.633.58-.063.432.086.673.564.6s.639.1.643.6c0,.527-.212.649-.661.589-.429-.058-.566.129-.557.556.014.669-.4.926-1.048.724-.307-.1-.24-.341-.22-.535.054-.529-.067-.853-.691-.747-.483.082-.513-.221-.512-.592s.016-.671.506-.6c.528.082.778-.112.691-.67-.084-.533.258-.557.653-.51" transform="translate(-185.868 -108.1)" fill="#29c4bb"/>
      <path id="Trazado_127001" data-name="Trazado 127001" d="M219.787,132.775c.456-.087.708.064.633.58-.063.432.086.673.564.6s.639.1.643.6c0,.527-.212.649-.661.589-.429-.058-.566.129-.557.556.014.669-.4.926-1.048.724-.307-.1-.24-.341-.22-.535.054-.529-.067-.853-.691-.747-.483.082-.513-.221-.512-.592s.016-.671.506-.6c.528.082.778-.112.691-.67-.084-.533.258-.557.653-.51" transform="translate(-213.868 -85.1)" fill="#29c4bb"/>
    </g>
  </g>
</svg>
