<svg xmlns="http://www.w3.org/2000/svg" xmlns:xlink="http://www.w3.org/1999/xlink" width="70" height="85" viewBox="0 0 70 85">
  <defs>
    <clipPath id="clip-path">
      <rect id="Rect치ngulo_37895" data-name="Rect치ngulo 37895" width="41.13" height="51.662" fill="none"/>
    </clipPath>
  </defs>
  <g id="Grupo_164012" data-name="Grupo 164012" transform="translate(-503 -4089)">
    <g id="Grupo_163998" data-name="Grupo 163998">
      <rect id="Rect치ngulo_37872" data-name="Rect치ngulo 37872" width="70" height="85" rx="12" transform="translate(503 4089)" fill="#1169e3"/>
      <g id="Grupo_163971" data-name="Grupo 163971" transform="translate(509.977 4104.942)">
        <path id="Trazado_127053" data-name="Trazado 127053" d="M15.13,123.127c.367.082.452-.091.448-.433-.009-.858.005-.873.893-.868.33,0,.433-.1.427-.427-.006-.3-.062-.446-.413-.445-.891,0-.913-.015-.9-.9,0-.4-.193-.41-.491-.413s-.453.047-.453.4c0,.9-.018.916-.9.913-.34,0-.421.121-.421.437s.08.437.42.435c.9-.005.918.012.9.861-.009.394.136.509.494.44" transform="translate(37.855 -88.147)" fill="#29c4bb"/>
        <path id="Trazado_127054" data-name="Trazado 127054" d="M213.319,151.157c-.328-.063-.51.046-.456.417.045.311-.062.484-.406.431s-.46.071-.463.433c0,.38.152.467.476.424s.407.093.4.4c-.01.482.288.667.754.521.221-.069.173-.246.159-.385-.039-.381.048-.614.5-.538.348.059.369-.159.368-.426s-.011-.483-.364-.428c-.38.059-.56-.08-.5-.482.06-.384-.186-.4-.47-.367" transform="translate(-211.994 -110.462)" fill="#29c4bb"/>
        <path id="Trazado_127055" data-name="Trazado 127055" d="M207.475,68.953c-.085.366.083.491.426.433.372-.063.523.09.458.459s.091.443.437.446.492-.1.43-.45c-.066-.37.088-.523.456-.454s.414-.128.429-.448c.017-.376-.129-.475-.457-.417-.356.062-.489-.085-.429-.433s-.05-.468-.42-.454c-.327.012-.516.058-.446.433s-.093.516-.458.454c-.343-.058-.51.065-.425.431" transform="translate(-204.797 -62.559)" fill="#010000"/>
        <path id="Trazado_127056" data-name="Trazado 127056" d="M51.8,186.323c-.08.342.088.467.43.405.4-.072.5.136.438.474-.064.376.118.434.448.432s.485-.073.418-.413c-.087-.446.136-.556.521-.49s.376-.182.377-.452-.006-.484-.362-.413c-.479.095-.6-.135-.537-.564.062-.411-.251-.292-.46-.3s-.468-.042-.4.314c.08.44-.075.644-.541.555-.389-.075-.341.2-.33.457" transform="translate(-9.765 -134.163)" fill="#010000"/>
        <path id="Trazado_127057" data-name="Trazado 127057" d="M124.4,17.116c.092-.39-.124-.466-.443-.418s-.462-.088-.411-.414-.046-.475-.422-.467c-.345.007-.5.1-.443.451s-.106.481-.447.43c-.316-.047-.474.028-.475.414s.147.5.491.446c.364-.058.487.108.431.447-.063.381.141.425.461.431.342.007.454-.122.4-.436-.055-.344.072-.5.432-.442s.5-.086.422-.442" transform="translate(-98.106 -15.817)" fill="#29c4bb"/>
      </g>
    </g>
    <g id="Grupo_163972" data-name="Grupo 163972" transform="translate(517.74 4105.352)">
      <g id="Grupo_158056" data-name="Grupo 158056" clip-path="url(#clip-path)">
        <path id="Trazado_131870" data-name="Trazado 131870" d="M5.469,40.933c-.625.42-1.14.807-1.695,1.127-.517.3-.948.989-1.67.6-.694-.376-.352-1.1-.421-1.678a3.242,3.242,0,0,1,0-.669c.027-.3-.094-.369-.382-.377C.133,39.9.016,39.767.014,38.585Q.007,35.122,0,31.66C0,30.841.239,30.6,1.062,30.6c1.3-.01,2.606-.03,3.909-.021.35,0,.485-.075.483-.461q-.021-5.78,0-11.56c0-.368-.1-.481-.47-.468-.744.026-1.489.01-2.233,0A1.822,1.822,0,0,1,.8,16.13Q.789,14.064.8,12A1.819,1.819,0,0,1,2.775,10.01c.744-.011,1.49-.015,2.233.015.372.015.471-.106.469-.472-.016-2.159-.01-4.318-.007-6.477A2.8,2.8,0,0,1,8.5,0Q20.567-.005,32.63,0a2.794,2.794,0,0,1,3.028,3.024c.005,1.787.01,3.574-.005,5.36,0,.361.045.528.47.618a6.267,6.267,0,0,1,0,12.277c-.334.075-.482.172-.478.559.024,2.01.019,4.021,0,6.031,0,.339.09.467.436.557A6.269,6.269,0,0,1,36.1,40.573c-.358.094-.454.239-.452.6.017,2.475.012,4.951.008,7.427a2.8,2.8,0,0,1-3.052,3.058q-12.034.008-24.069,0a2.813,2.813,0,0,1-3.068-3.1q0-3.49,0-6.979v-.648" transform="translate(0 0)"/>
        <path id="Trazado_131871" data-name="Trazado 131871" d="M39.765,27.527c4.3,0,8.6.008,12.9-.011.471,0,.708.083.609.6a.943.943,0,0,0,0,.334c.08.457-.107.61-.565.714a6.259,6.259,0,0,0,.038,12.232c.43.1.543.256.536.69-.029,1.9-.024,3.8,0,5.7,0,.418-.061.6-.542.667a6.265,6.265,0,0,0,.021,12.375c.364.054.584.142.52.58-.07.471.2,1.109-.12,1.384-.275.235-.888.086-1.351.086q-12.452,0-24.9.013c-.506,0-.686-.119-.642-.641a13.143,13.143,0,0,0,0-1.73c-.017-.36.086-.479.461-.474,1.34.019,2.68,0,4.02,0,.742,0,1.014-.266,1.014-1q0-3.685-.021-7.37c0-.7-.286-.987-.983-.99-1.321-.006-2.643,0-3.964.02-.375.007-.513-.082-.511-.489q.023-5.751,0-11.5c0-.408.134-.5.511-.48.706.03,1.414.014,2.121.008a1.836,1.836,0,0,0,1.994-1.925q.037-2.121.009-4.243a1.786,1.786,0,0,0-1.89-1.9c-.781-.017-1.563-.028-2.345-.016-.31,0-.43-.084-.416-.41a14.757,14.757,0,0,0,0-1.674c-.031-.441.109-.554.549-.552,4.318.017,8.636.01,12.954.01" transform="translate(-19.206 -20.129)" fill="#e0eff4"/>
        <path id="Trazado_131872" data-name="Trazado 131872" d="M39.791,165.26c4.3,0,8.594.006,12.891-.009.452,0,.614.1.6.583-.033,1.208-.007,2.418-.013,3.627,0,1.023-.479,1.493-1.513,1.493q-12.026,0-24.052,0a1.283,1.283,0,0,1-1.449-1.44c-.01-1.228.02-2.456-.013-3.683-.013-.48.152-.583.6-.581,4.316.016,8.631.009,12.947.009" transform="translate(-19.197 -120.89)" fill="#58727f"/>
        <path id="Trazado_131873" data-name="Trazado 131873" d="M39.76,10.089c-4.3,0-8.6-.007-12.893.01-.475,0-.668-.1-.634-.611.046-.685.006-1.376.012-2.064a1.3,1.3,0,0,1,1.47-1.476q12,0,24,0c1.073,0,1.539.462,1.545,1.518,0,.689-.024,1.378.01,2.065.022.441-.117.573-.562.568-1.972-.023-3.944-.01-5.916-.01H39.76" transform="translate(-19.188 -4.35)" fill="#58727f"/>
        <path id="Trazado_131874" data-name="Trazado 131874" d="M115.953,120.486a4.656,4.656,0,1,1,4.612-4.844,4.661,4.661,0,0,1-4.612,4.844" transform="translate(-81.364 -81.335)" fill="#baebfe"/>
        <path id="Trazado_131875" data-name="Trazado 131875" d="M10.64,119.864c1.4,0,2.791.01,4.186-.007.334,0,.453.083.45.433q-.017,2.651.012,5.3c0,.321-.1.414-.415.411-1.209-.012-2.419,0-3.628,0a1.39,1.39,0,0,0-.837.243c-.795.55-1.6,1.087-2.4,1.624-.1.067-.2.211-.339.129s-.052-.237-.065-.359a3.092,3.092,0,0,1,0-.335c0-1.111-.144-1.276-1.232-1.278-.36,0-.433-.124-.431-.451.008-1.749.007-3.5-.019-5.247-.006-.386.131-.459.481-.455,1.414.017,2.828.007,4.242.007v-.016" transform="translate(-4.329 -87.681)" fill="#bee59e"/>
        <path id="Trazado_131876" data-name="Trazado 131876" d="M117.112,39.169a4.643,4.643,0,1,1-4.657,4.621,4.635,4.635,0,0,1,4.657-4.621" transform="translate(-82.267 -28.654)" fill="#baebfe"/>
        <path id="Trazado_131877" data-name="Trazado 131877" d="M8.952,46.822,11.4,48.914a1.885,1.885,0,0,0,2.825-.012c.77-.658,1.543-1.312,2.4-2.04,0,1.258,0,2.4,0,3.545,0,.249-.129.315-.349.315q-3.483-.009-6.965-.009c-.227,0-.358-.077-.358-.314,0-1.145,0-2.291,0-3.577" transform="translate(-6.549 -34.253)" fill="#fee682"/>
        <path id="Trazado_131878" data-name="Trazado 131878" d="M14.32,43.459h4.839c-.8.684-1.517,1.288-2.228,1.9-.188.161-.333.075-.486-.059-.671-.584-1.345-1.164-2.125-1.837" transform="translate(-10.476 -31.793)" fill="#eacc6c"/>
        <path id="Trazado_131879" data-name="Trazado 131879" d="M53.234,61.519a8.563,8.563,0,1,1-8.575,8.529,8.565,8.565,0,0,1,8.575-8.529" transform="translate(-32.67 -45.004)"/>
        <path id="Trazado_131880" data-name="Trazado 131880" d="M65.984,172.8c.947,0,1.893,0,2.84,0,.665,0,1.057.3,1.081.8.021.453-.488.853-1.108.854q-2.784.005-5.569,0c-.672,0-1.112-.355-1.094-.856s.4-.8,1.066-.8c.928,0,1.856,0,2.784,0" transform="translate(-45.454 -126.409)"/>
        <path id="Trazado_131881" data-name="Trazado 131881" d="M121.269,120.117c0-.707-.019-1.414.005-2.12.03-.867.642-1.2,1.366-.737q1.62,1.034,3.214,2.111c.7.468.686,1.07-.023,1.545q-1.575,1.054-3.168,2.081c-.736.474-1.368.128-1.391-.76-.018-.706,0-1.413,0-2.12" transform="translate(-88.71 -85.629)"/>
        <path id="Trazado_131882" data-name="Trazado 131882" d="M13.973,132.849c.818,0,1.637,0,2.456,0,.6,0,.952.284.976.763.026.513-.308.85-.943.859q-2.539.035-5.079.017a.823.823,0,0,1-.9-.8.835.835,0,0,1,.922-.83c.856-.013,1.712,0,2.567,0v-.009" transform="translate(-7.669 -97.185)"/>
        <path id="Trazado_131883" data-name="Trazado 131883" d="M13.973,125.33c-.837,0-1.674.008-2.511,0-.633-.008-.995-.316-1-.813s.373-.814.99-.818q2.483-.013,4.966-.008c.594,0,.95.3.967.773.019.516-.322.819-.962.827-.818.01-1.636,0-2.454,0v.039" transform="translate(-7.656 -90.484)"/>
        <path id="Trazado_131884" data-name="Trazado 131884" d="M119.784,45.994c.607.339,1.334.033,2.072-.005a2.22,2.22,0,0,1,2.121,2.981,5.255,5.255,0,0,1-2.778,3.249.749.749,0,0,1-.7.043,5.072,5.072,0,0,1-3.031-3.735,2.23,2.23,0,0,1,2.311-2.532" transform="translate(-85.913 -33.641)"/>
        <path id="Trazado_131885" data-name="Trazado 131885" d="M57.672,81.4a6.945,6.945,0,1,1,6.958-6.883A6.931,6.931,0,0,1,57.672,81.4" transform="translate(-37.126 -49.389)" fill="#a5dafe"/>
        <path id="Trazado_131886" data-name="Trazado 131886" d="M127.472,125.735l1.1.717a5.1,5.1,0,0,1-1.1.774Z" transform="translate(-93.253 -91.982)" fill="#e26652"/>
        <path id="Trazado_131887" data-name="Trazado 131887" d="M126.883,52.666a3.685,3.685,0,0,1-1.519,2.248.355.355,0,0,1-.4-.082,3.867,3.867,0,0,1-1.367-1.722c-.13-.34-.2-.71.145-.967.324-.241.617-.095.9.141a.79.79,0,0,0,1.151-.06.679.679,0,0,1,.771-.157.56.56,0,0,1,.321.6" transform="translate(-90.337 -38.047)" fill="#f3b9a5"/>
        <path id="Trazado_131888" data-name="Trazado 131888" d="M54.883,79.641A2.23,2.23,0,0,1,58.264,78a.792.792,0,0,0,.912.048,6.471,6.471,0,0,1,.664-.286,1.775,1.775,0,0,0,1.362-1.35,2.114,2.114,0,0,1,2.986-1.254,2.223,2.223,0,0,1,1.019,3.11,2.192,2.192,0,0,1-3.168.782.8.8,0,0,0-.939-.075c-.482.238-.986.432-1.483.638-.146.06-.265.12-.258.31.006.172.136.21.25.259.6.259,1.2.5,1.79.771.275.126.412-.07.589-.188a2.236,2.236,0,1,1-.205,3.53,1.977,1.977,0,0,1-.735-1.393.525.525,0,0,0-.394-.526,8.629,8.629,0,0,1-.871-.37,1.832,1.832,0,0,0-1.878-.06c-1.394.714-3.024-.469-3.023-2.3" transform="translate(-40.15 -54.823)"/>
        <path id="Trazado_131889" data-name="Trazado 131889" d="M84.993,81.671a.572.572,0,0,1-.636.553.581.581,0,0,1-.591-.667.566.566,0,0,1,.636-.564.589.589,0,0,1,.59.678" transform="translate(-61.279 -59.249)" fill="#dcebf4"/>
        <path id="Trazado_131890" data-name="Trazado 131890" d="M85,101.8c-.033.39-.221.623-.592.636a.564.564,0,0,1-.64-.61.576.576,0,0,1,.641-.615A.588.588,0,0,1,85,101.8" transform="translate(-61.284 -74.04)" fill="#deecf5"/>
        <path id="Trazado_131891" data-name="Trazado 131891" d="M61.449,91.116a.616.616,0,1,1,.056,1.231.616.616,0,0,1-.056-1.231" transform="translate(-44.532 -66.656)" fill="#dcebf4"/>
      </g>
    </g>
  </g>
</svg>
