<svg xmlns="http://www.w3.org/2000/svg" width="70" height="85" viewBox="0 0 70 85">
  <g id="Grupo_163991" data-name="Grupo 163991" transform="translate(-503 -4089)">
    <rect id="Rectángulo_37872" data-name="Rectángulo 37872" width="70" height="85" rx="12" transform="translate(503 4089)" fill="#1169e3"/>
    <g id="Grupo_163966" data-name="Grupo 163966" transform="translate(-518.045 -550.563)">
      <g id="Grupo_156587" data-name="Grupo 156587" transform="translate(1032 4661)">
        <g id="Grupo_156590" data-name="Grupo 156590">
          <path id="Trazado_127058" data-name="Trazado 127058" d="M18.841,5.486q9.167,0,18.333.005c.333,0,.489-.023.518-.444a5.477,5.477,0,1,1,6.6,5.794c-.283.064-.36.148-.359.43q.013,7.352,0,14.7a.645.645,0,0,0,.253.534c3.835,3.451,5.321,7.736,4.016,12.721a12.008,12.008,0,0,1-9.61,9.126,12.525,12.525,0,0,1-14.86-10.233c-.024-.161-.059-.321-.078-.483-.092-.781-.091-.781-.857-.781q-11.127,0-22.254.012c-.463,0-.541-.136-.54-.561Q.02,21.165,0,6.02c0-.457.127-.545.557-.544q9.142.021,18.284.01" transform="translate(0 0)"/>
          <path id="Trazado_127059" data-name="Trazado 127059" d="M46.29,42.821A12.59,12.59,0,0,0,30.6,45.408c0-.692.012-1.3,0-1.906-.013-.516.223-1.207-.1-1.5-.281-.255-.962-.073-1.466-.075-.931,0-1.863.009-2.794-.007-.276,0-.353.072-.352.35q.015,4.362,0,8.724c0,.278.075.366.352.35.391-.023.784.007,1.176-.01.232-.01.285.083.239.285-.025.111-.039.225-.064.337-.067.3.085.743-.146.882a2.135,2.135,0,0,1-1,.068q-10.2,0-20.392.01c-.416,0-.568-.063-.567-.536q.025-13.6,0-27.2c0-.453.134-.515.539-.515q17.647.016,35.294,0c.364,0,.552.077.663.444a3.184,3.184,0,0,0,.464.91.427.427,0,0,1-.06.679c-1.425,1.394-2.829,2.809-4.232,4.225a.464.464,0,0,1-.588.146,1.816,1.816,0,0,0-1.389,0,.446.446,0,0,1-.584-.157c-.164-.182-.34-.354-.517-.522-.456-.431-.86-.779-.6-1.59a2.1,2.1,0,0,0-1.182-2.271,2.3,2.3,0,0,0-2.574.221,2.186,2.186,0,0,0-.8,2.445.64.64,0,0,1-.205.752Q28.071,31.56,26.458,33.2a.637.637,0,0,1-.754.2,2.262,2.262,0,0,0-2.56.963A2.35,2.35,0,1,0,27.458,35.5a.362.362,0,0,0-.013-.145c-.361-.632.044-.99.453-1.386,1-.966,1.974-1.954,2.949-2.943.2-.2.354-.321.665-.19a1.815,1.815,0,0,0,1.388-.017.383.383,0,0,1,.506.12,5.506,5.506,0,0,0,.485.485c.5.457.926.846.679,1.7a2.077,2.077,0,0,0,1.214,2.252,2.249,2.249,0,0,0,2.53-.223,2.21,2.21,0,0,0,.815-2.439.668.668,0,0,1,.226-.791q2.1-2.064,4.16-4.159c.209-.212.345-.243.6-.062A4.677,4.677,0,0,0,46,28.476c.22.041.3.1.3.331-.007,4.654,0,9.308,0,14.014" transform="translate(-3.92 -17.617)" fill="#e5e8ec"/>
          <path id="Trazado_127060" data-name="Trazado 127060" d="M103.977,148.945a11.1,11.1,0,0,1-8.88-4.44c-.27-.347-.2-.483.154-.669.664-.347,1.316-.721,1.949-1.123.3-.191.423-.089.618.146a7.8,7.8,0,0,0,12.155.019c.235-.285.386-.329.7-.131.646.41,1.315.787,1.988,1.152.261.142.321.242.124.5a10.9,10.9,0,0,1-7.548,4.433c-.436.057-.877.077-1.26.11" transform="translate(-67.811 -101.871)" fill="#1169e3"/>
          <path id="Trazado_127061" data-name="Trazado 127061" d="M98.084,89.65c0,.392-.018.785.006,1.176.018.291-.085.38-.372.428a7.644,7.644,0,0,0-6.084,4.74,7.414,7.414,0,0,0-.052,5.86c.113.285.087.415-.187.563-.688.371-1.37.759-2.031,1.176-.317.2-.41.1-.546-.2a10.972,10.972,0,0,1,8.837-15.3c.329-.037.47.006.437.377-.034.389-.008.783-.008,1.175" transform="translate(-62.774 -62.922)" fill="#0c487b"/>
          <path id="Trazado_127062" data-name="Trazado 127062" d="M139.266,99.181a11.084,11.084,0,0,1-.931,4.212c-.13.3-.23.4-.543.2-.663-.415-1.343-.805-2.031-1.177-.269-.146-.308-.268-.2-.559a7.791,7.791,0,0,0-3.416-9.679,7.094,7.094,0,0,0-2.712-.925c-.287-.035-.385-.129-.378-.423.02-.8.023-1.6,0-2.4-.009-.32.086-.359.385-.337a11.013,11.013,0,0,1,9.422,7.979,11.484,11.484,0,0,1,.4,3.109" transform="translate(-92.189 -62.922)" fill="#29c4bb"/>
          <path id="Trazado_127063" data-name="Trazado 127063" d="M116.928,110.575a6.275,6.275,0,1,1-6.265-6.26,6.292,6.292,0,0,1,6.265,6.26" transform="translate(-74.559 -74.514)" fill="#cbd0d8"/>
          <path id="Trazado_127064" data-name="Trazado 127064" d="M141.214,13.32a3.921,3.921,0,1,1,3.956-3.9,3.937,3.937,0,0,1-3.956,3.9" transform="translate(-98.095 -3.913)" fill="#29c4bb"/>
          <path id="Trazado_127065" data-name="Trazado 127065" d="M82.376,93.691c0-.929.01-1.858-.006-2.786,0-.275.073-.35.35-.355,1.225-.018,1.225-.028,1.225,1.185a7.176,7.176,0,0,0,.007,1.025,6.864,6.864,0,0,1-.864,3.873c-.136.3-.343.179-.527.193-.287.021-.179-.216-.181-.349-.009-.929,0-1.858,0-2.786" transform="translate(-58.833 -64.678)" fill="#1169e3"/>
          <path id="Trazado_127066" data-name="Trazado 127066" d="M97.709,36.444a.784.784,0,1,1-.791-.763.8.8,0,0,1,.791.763" transform="translate(-68.675 -25.487)" fill="#29c4bb"/>
          <path id="Trazado_127067" data-name="Trazado 127067" d="M113.361,53.718a.784.784,0,1,1,.82-.734.8.8,0,0,1-.82.734" transform="translate(-80.443 -37.252)" fill="#29c4bb"/>
          <path id="Trazado_127068" data-name="Trazado 127068" d="M72.212,61.955A.784.784,0,1,1,73,61.187a.8.8,0,0,1-.787.768" transform="translate(-51.025 -43.136)" fill="#29c4bb"/>
          <path id="Trazado_127069" data-name="Trazado 127069" d="M59.642,80.417c0,1.944-.008,3.888.008,5.831,0,.319-.08.407-.4.4q-1.96-.028-3.92,0c-.322,0-.4-.085-.4-.4q.017-5.88,0-11.761c0-.319.08-.407.4-.4q1.96.028,3.92,0c.322,0,.4.085.4.4-.015,1.976-.007,3.953-.007,5.929" transform="translate(-39.236 -52.92)"/>
          <path id="Trazado_127070" data-name="Trazado 127070" d="M11.006,94.493c0-1.192.008-2.385-.006-3.577,0-.275.071-.355.35-.352q2.009.022,4.018,0c.277,0,.353.073.351.351q-.016,3.577,0,7.154c0,.275-.071.355-.349.352q-2.009-.021-4.018,0c-.277,0-.355-.073-.352-.351.015-1.192.007-2.385.007-3.577" transform="translate(-7.857 -64.691)"/>
          <path id="Trazado_127071" data-name="Trazado 127071" d="M32.972,99.2c0-.931.01-1.862-.006-2.793-.005-.276.072-.355.35-.352q2.009.022,4.018,0c.276,0,.353.073.351.351q-.018,2.792,0,5.585c0,.275-.072.355-.35.352q-2.009-.021-4.018,0c-.277,0-.357-.073-.352-.351.017-.931.007-1.862.007-2.793" transform="translate(-23.548 -68.613)"/>
          <path id="Trazado_127072" data-name="Trazado 127072" d="M27.445,31.73c-1.682,0-3.365-.011-5.047.009-.351,0-.427-.094-.423-.431.015-1.146,0-1.146,1.168-1.146,3.12,0,6.24.008,9.359-.01.392,0,.48.107.472.481-.023,1.1-.007,1.1-1.12,1.1h-4.41" transform="translate(-15.697 -21.537)"/>
          <path id="Trazado_127073" data-name="Trazado 127073" d="M27.433,42.717c-1.682,0-3.365-.007-5.047.006-.3,0-.417-.046-.415-.388.008-1.187-.008-1.187,1.178-1.187,3.12,0,6.239.005,9.359-.008.343,0,.475.048.466.439-.026,1.137,0,1.138-1.131,1.138Z" transform="translate(-15.694 -29.388)"/>
          <path id="Trazado_127074" data-name="Trazado 127074" d="M27.454,53.7c-1.7,0-3.4-.007-5.1.007-.291,0-.385-.055-.385-.369,0-1.206-.014-1.206,1.207-1.206,3.12,0,6.239.005,9.359-.008.333,0,.439.066.435.42-.016,1.157,0,1.157-1.159,1.157H27.454" transform="translate(-15.696 -37.231)"/>
          <path id="Trazado_127075" data-name="Trazado 127075" d="M27.512,63.115c1.682,0,3.365.007,5.047-.007.308,0,.411.062.409.394-.008,1.182.007,1.182-1.183,1.182-3.12,0-6.24-.006-9.359.008-.353,0-.468-.064-.46-.445.024-1.132,0-1.132,1.135-1.132h4.41" transform="translate(-15.691 -45.079)"/>
          <path id="Trazado_127076" data-name="Trazado 127076" d="M12.592,30.994c0,.761,0,.761-.759.761-.81,0-.81,0-.81-.808,0-.761,0-.761.759-.761.81,0,.81,0,.81.808" transform="translate(-7.874 -21.562)"/>
          <path id="Trazado_127077" data-name="Trazado 127077" d="M11.855,41.168c.737,0,.737,0,.737.734,0,.835,0,.835-.832.835-.737,0-.737,0-.737-.734,0-.835,0-.835.832-.835" transform="translate(-7.874 -29.407)"/>
          <path id="Trazado_127078" data-name="Trazado 127078" d="M11.769,53.719c-.746,0-.746,0-.746-.774,0-.794,0-.794.774-.794.794,0,.794,0,.794.774,0,.794,0,.794-.823.794" transform="translate(-7.874 -37.252)"/>
          <path id="Trazado_127079" data-name="Trazado 127079" d="M12.592,63.94c0,.761,0,.761-.759.761-.81,0-.81,0-.81-.808,0-.761,0-.761.759-.761.81,0,.81,0,.81.808" transform="translate(-7.874 -45.096)"/>
          <path id="Trazado_127080" data-name="Trazado 127080" d="M114.561,119.218a4.706,4.706,0,1,1,4.72-4.692,4.723,4.723,0,0,1-4.72,4.692" transform="translate(-78.482 -78.437)"/>
          <path id="Trazado_127081" data-name="Trazado 127081" d="M61.992,84.282c0,1.436-.009,2.873.007,4.309,0,.312-.07.41-.4.409-1.178-.005-1.178.008-1.178-1.188,0-2.595.007-5.19-.009-7.785,0-.358.072-.467.449-.459,1.129.022,1.129,0,1.129,1.14v3.574" transform="translate(-43.155 -56.836)" fill="#1169e3"/>
          <path id="Trazado_127082" data-name="Trazado 127082" d="M18.067,98.447c0,.636-.014,1.272.006,1.908.01.3-.051.417-.39.415-1.185-.006-1.185.009-1.185-1.18,0-1.044.01-2.087-.007-3.131,0-.3.051-.417.391-.415,1.185.006,1.185-.009,1.185,1.18v1.223" transform="translate(-11.78 -68.606)" fill="#1169e3"/>
          <path id="Trazado_127083" data-name="Trazado 127083" d="M38.364,103.067c0-.147-.008-.294,0-.44.024-.368-.166-.926.078-1.06.34-.187.85-.059,1.287-.074.19-.007.2.1.2.246,0,.88-.005,1.76,0,2.639,0,.184-.053.241-.245.259-1.328.125-1.327.13-1.327-1.179v-.391" transform="translate(-27.371 -72.477)" fill="#1169e3"/>
          <path id="Trazado_127084" data-name="Trazado 127084" d="M118.521,121.571a3.137,3.137,0,1,1,3.115-3.173,3.149,3.149,0,0,1-3.115,3.173" transform="translate(-82.404 -82.358)" fill="#1169e3"/>
        </g>
      </g>
      <g id="Grupo_156584" data-name="Grupo 156584" transform="translate(674 -6)">
        <path id="Trazado_127053" data-name="Trazado 127053" d="M15.507,123.96c-.454.1-.559-.113-.555-.537.012-1.063-.007-1.081-1.106-1.075-.409,0-.536-.124-.528-.529.007-.377.077-.553.512-.551,1.1,0,1.131-.018,1.119-1.119-.005-.5.239-.507.608-.511s.56.058.56.5c0,1.115.023,1.135,1.112,1.131.421,0,.521.15.522.541s-.1.541-.52.539c-1.11-.006-1.137.014-1.112,1.066.012.488-.169.631-.611.545" transform="translate(339.683 4573.259)" fill="#29c4bb"/>
        <path id="Trazado_127054" data-name="Trazado 127054" d="M213.642,151.161c.406-.078.632.057.565.517-.056.385.077.6.5.533s.57.088.573.537c0,.47-.189.578-.589.525-.383-.052-.5.115-.5.5.012.6-.357.826-.934.645-.274-.086-.214-.3-.2-.477.048-.472-.06-.76-.616-.666-.431.073-.457-.2-.456-.527s.014-.6.451-.53c.471.073.694-.1.616-.6-.075-.475.23-.5.582-.454" transform="translate(195.806 4551.753)" fill="#29c4bb"/>
        <path id="Trazado_127055" data-name="Trazado 127055" d="M210.718,69.268c.1.453-.1.608-.527.537-.46-.078-.648.111-.567.569s-.113.548-.542.553-.609-.127-.532-.557c.082-.459-.109-.648-.565-.562-.472.089-.513-.158-.531-.555-.021-.466.16-.588.566-.517.441.077.606-.106.531-.537-.072-.412.061-.579.521-.563.4.014.639.072.552.536s.115.639.567.563c.425-.072.632.081.526.534" transform="translate(199.254 4608.17)" fill="#010000"/>
        <path id="Trazado_127056" data-name="Trazado 127056" d="M55.04,186.64c.1.423-.11.578-.532.5-.5-.09-.614.169-.543.587.079.465-.146.537-.555.535-.39,0-.6-.091-.518-.511.108-.553-.169-.688-.645-.607s-.466-.225-.467-.559.007-.6.448-.512c.593.117.745-.168.665-.7-.077-.508.311-.362.569-.377.274-.016.579-.052.5.389-.1.545.092.8.67.687.482-.092.423.243.409.566" transform="translate(311.829 4528.862)" fill="#010000"/>
        <path id="Trazado_127057" data-name="Trazado 127057" d="M121.786,17.426c-.114-.483.153-.577.548-.518.41.061.572-.109.509-.513s.058-.588.522-.578c.427.009.623.119.548.558s.131.6.553.533c.391-.059.587.035.589.513s-.182.62-.608.553c-.45-.072-.6.133-.533.553.078.472-.175.526-.572.534-.424.009-.562-.151-.5-.54.068-.427-.09-.622-.535-.547s-.62-.106-.523-.547" transform="translate(261.153 4643.184)" fill="#29c4bb"/>
      </g>
    </g>
  </g>
</svg>
