<svg xmlns="http://www.w3.org/2000/svg" xmlns:xlink="http://www.w3.org/1999/xlink" width="100.02" height="123.195" viewBox="0 0 100.02 123.195">
  <defs>
    <radialGradient id="radial-gradient" cx="0.5" cy="0.5" r="1.078" gradientTransform="matrix(1, -0.02, 0.012, 0.605, -0.006, 0.207)" gradientUnits="objectBoundingBox">
      <stop offset="0" stop-color="#fde08c"/>
      <stop offset="1" stop-color="#ee7b1d"/>
    </radialGradient>
    <radialGradient id="radial-gradient-2" cx="0.5" cy="0.5" r="0.466" gradientTransform="translate(-0.083) scale(1.166 1)" gradientUnits="objectBoundingBox">
      <stop offset="0.061" stop-color="#fff"/>
      <stop offset="0.154" stop-color="#fcfafc"/>
      <stop offset="0.994" stop-color="#edbcdb"/>
    </radialGradient>
    <linearGradient id="linear-gradient" x1="0.5" y1="1" x2="0.5" gradientUnits="objectBoundingBox">
      <stop offset="0.006" stop-color="#bf84be"/>
      <stop offset="0.939" stop-color="#f5dbcf"/>
    </linearGradient>
    <radialGradient id="radial-gradient-3" cx="0.5" cy="0.5" r="0.5" gradientTransform="matrix(0.16, 0.987, -0.987, 0.16, 0.913, -0.074)" gradientUnits="objectBoundingBox">
      <stop offset="0.006" stop-color="#ffffab"/>
      <stop offset="0.086" stop-color="#e0e096"/>
      <stop offset="0.277" stop-color="#9d9d69"/>
      <stop offset="0.458" stop-color="#656543"/>
      <stop offset="0.625" stop-color="#393926"/>
      <stop offset="0.773" stop-color="#191911"/>
      <stop offset="0.898" stop-color="#060604"/>
      <stop offset="0.985"/>
    </radialGradient>
    <radialGradient id="radial-gradient-4" cx="0.5" cy="0.5" r="0.277" gradientTransform="matrix(1.423, -0.378, 1.107, 1.762, 5.522, -2.327)" xlink:href="#radial-gradient-3"/>
    <linearGradient id="linear-gradient-3" x1="0.5" y1="1" x2="0.5" gradientUnits="objectBoundingBox">
      <stop offset="0.006" stop-color="#bf84be"/>
      <stop offset="0.939" stop-color="#fff"/>
    </linearGradient>
    <radialGradient id="radial-gradient-5" cx="0.472" cy="0.139" r="0.665" gradientTransform="translate(0.176 -0.025) scale(0.628 1.183)" gradientUnits="objectBoundingBox">
      <stop offset="0" stop-color="#b0add0"/>
      <stop offset="0.468" stop-color="#aeaace"/>
      <stop offset="0.697" stop-color="#a7a3c7"/>
      <stop offset="0.874" stop-color="#9d96bc"/>
      <stop offset="0.979" stop-color="#938ab2"/>
    </radialGradient>
    <linearGradient id="linear-gradient-4" x1="0.5" y1="1" x2="0.5" gradientUnits="objectBoundingBox">
      <stop offset="0" stop-color="#7d7ab1"/>
      <stop offset="0.979" stop-color="#63558d"/>
    </linearGradient>
    <radialGradient id="radial-gradient-6" cx="0.5" cy="0.5" r="1.441" gradientTransform="translate(0.373 -0.43) scale(0.253 1.859)" gradientUnits="objectBoundingBox">
      <stop offset="0" stop-color="#4a4c70"/>
      <stop offset="0.431" stop-color="#48496d"/>
      <stop offset="0.713" stop-color="#454064"/>
      <stop offset="0.953" stop-color="#403156"/>
      <stop offset="0.985" stop-color="#3f2f54"/>
    </radialGradient>
    <radialGradient id="radial-gradient-7" cx="0.5" cy="0.5" r="1.337" gradientTransform="translate(0.363 -0.43) scale(0.274 1.859)" gradientUnits="objectBoundingBox">
      <stop offset="0" stop-color="#918ebd"/>
      <stop offset="0.461" stop-color="#8f8bbb"/>
      <stop offset="0.687" stop-color="#8984b4"/>
      <stop offset="0.861" stop-color="#7f77a8"/>
      <stop offset="0.979" stop-color="#75699c"/>
    </radialGradient>
    <radialGradient id="radial-gradient-8" cx="0.5" cy="0.5" r="1.263" gradientTransform="translate(0.354 -0.43) scale(0.292 1.859)" xlink:href="#radial-gradient-7"/>
    <linearGradient id="linear-gradient-5" x1="0.5" y1="1" x2="0.5" gradientUnits="objectBoundingBox">
      <stop offset="0.021" stop-color="#ada9c4"/>
      <stop offset="1" stop-color="#c9c8df"/>
    </linearGradient>
  </defs>
  <g id="Grupo_163907" data-name="Grupo 163907" transform="matrix(0.951, 0.309, -0.309, 0.951, 73.534, -318.243)">
    <path id="Trazado_176821" data-name="Trazado 176821" d="M130.242,356.076c-.357,1.609-.763,3.1-1.2,4.472v.009c-5.187,16.4-15.344,17.941-20.705,45.259H77.016c-5.468-27.9-15.949-28.9-21.028-46.33q-.472-1.605-.871-3.41c-4.647-20.8,19.85-39.177,37.559-39.177S134.881,335.272,130.242,356.076Z" fill="url(#radial-gradient)"/>
    <g id="Grupo_163788" data-name="Grupo 163788" opacity="0.8" style="mix-blend-mode: multiply;isolation: isolate">
      <path id="Trazado_176822" data-name="Trazado 176822" d="M92.676,317.4c10.639,0,23.356,6.6,30.926,16.043,3.988,4.976,8.292,12.922,6.149,22.521-2.065,9.248-5.516,14.249-9.17,19.544-4.424,6.41-9.433,13.668-12.655,29.8h-30.5c-3.222-16.134-8.231-23.392-12.655-29.8-3.654-5.295-7.105-10.3-9.17-19.544-2.143-9.6,2.161-17.545,6.149-22.521C69.32,324,82.037,317.4,92.676,317.4Zm0-.5c-17.709,0-42.208,18.365-37.563,39.173s16.1,20.125,21.9,49.737h31.322c5.806-29.612,17.257-28.929,21.9-49.737S110.385,316.9,92.676,316.9Z" fill="url(#radial-gradient-2)"/>
    </g>
    <path id="Trazado_176823" data-name="Trazado 176823" d="M99.373,362.294s1.121,12.618-6.471,14.957c-7.592-2.339-6.471-14.957-6.471-14.957l-1.679,1.01c2.68,13.116,3.358,39.932,3.358,39.932h9.584s.679-26.816,3.358-39.932Z" fill-rule="evenodd" opacity="0.8" fill="url(#linear-gradient)" style="mix-blend-mode: multiply;isolation: isolate"/>
    <path id="Trazado_176824" data-name="Trazado 176824" d="M75.494,399.165c1.37,3.813,27.366,5.529,34.048,1.225l-.784,3.372-32.081.389Z" fill-rule="evenodd" opacity="0.8" fill="url(#linear-gradient)" style="mix-blend-mode: multiply;isolation: isolate"/>
    <circle id="Elipse_5834" data-name="Elipse 5834" cx="17.767" cy="17.767" r="17.767" transform="matrix(0.16, -0.987, 0.987, 0.16, 85.621, 354.45)" fill="url(#radial-gradient-3)" style="mix-blend-mode: screen;isolation: isolate"/>
    <path id="Trazado_176825" data-name="Trazado 176825" d="M73.6,357.168c3.462,8.471,2.662,16.812-1.788,18.63s-10.863-3.574-14.325-12.045-2.662-16.812,1.788-18.631S70.136,348.7,73.6,357.168Z" fill="url(#radial-gradient-4)" style="mix-blend-mode: screen;isolation: isolate"/>
    <path id="Trazado_176826" data-name="Trazado 176826" d="M129.039,360.557c-5.187,16.4-15.344,17.941-20.705,45.259H77.016c-5.468-27.9-15.949-28.9-21.028-46.33,5.95,12.688,19.875,17.56,42.571,16.721C121.28,375.369,129.039,360.557,129.039,360.557Z" opacity="0.3" fill="url(#linear-gradient-3)" style="mix-blend-mode: multiply;isolation: isolate"/>
    <path id="Trazado_176827" data-name="Trazado 176827" d="M73.77,404.676l2.361,22.083s11-2.83,32.547,0l2.987-20.99S95.942,400.3,73.77,404.676Z" fill-rule="evenodd" fill="url(#radial-gradient-5)"/>
    <path id="Trazado_176828" data-name="Trazado 176828" d="M76.131,426.759s16.352,4.559,32.547,0C108.678,426.759,89.653,422.671,76.131,426.759Z" fill-rule="evenodd" fill="url(#linear-gradient-4)"/>
    <path id="Trazado_176829" data-name="Trazado 176829" d="M82.027,426.759,83.6,429.9a43.074,43.074,0,0,0,17.453,0l1.572-3.039A43.476,43.476,0,0,0,82.027,426.759Z" fill-rule="evenodd" fill="url(#radial-gradient-6)"/>
    <path id="Trazado_176830" data-name="Trazado 176830" d="M83.6,429.9s9.88-2.41,17.453,0C101.052,429.9,91.906,431.895,83.6,429.9Z" fill="#5b497e" fill-rule="evenodd" opacity="0.5" style="mix-blend-mode: multiply;isolation: isolate"/>
    <path id="Trazado_176831" data-name="Trazado 176831" d="M75.85,424.135l-2.969-2.722s18.03-10.063,40.042-7.966l-2.993,4.513S91.5,413.23,75.85,424.135Z" fill-rule="evenodd" fill="url(#radial-gradient-7)"/>
    <path id="Trazado_176832" data-name="Trazado 176832" d="M74.967,415.87l-2.086-1.69s15.121-12.185,41.51-10.2l-3.124,4.587A47.261,47.261,0,0,0,74.967,415.87Z" fill-rule="evenodd" fill="url(#radial-gradient-8)"/>
    <path id="Trazado_176833" data-name="Trazado 176833" d="M72.881,414.18l1.671-2.189s20.761-11.784,39.839-8.01C114.391,403.981,93.741,400.658,72.881,414.18Z" fill-rule="evenodd" fill="url(#linear-gradient-5)"/>
    <path id="Trazado_176834" data-name="Trazado 176834" d="M72.881,421.413l2.383-2.766a82.061,82.061,0,0,1,35.41-5.911l2.249.711S92.326,411.429,72.881,421.413Z" fill-rule="evenodd" fill="url(#linear-gradient-5)"/>
    <path id="Trazado_176835" data-name="Trazado 176835" d="M72.881,421.413l2.969,2.722.281,1.785s4.979-6.813,17.033-8.071,16.275,3.564,16.275,3.564l.491-3.453,2.993-4.513S90.151,412.372,72.881,421.413Z" fill="#5b497e" opacity="0.3" style="mix-blend-mode: multiply;isolation: isolate"/>
    <path id="Trazado_176836" data-name="Trazado 176836" d="M72.881,414.18l2.086,1.69.3,2.777s3.854-7.664,17.062-9.6,18.527,2.43,18.527,2.43l.414-2.906,3.124-4.587A64.512,64.512,0,0,0,72.881,414.18Z" fill="#5b497e" opacity="0.3" style="mix-blend-mode: multiply;isolation: isolate"/>
  </g>
</svg>
