<svg xmlns="http://www.w3.org/2000/svg" xmlns:xlink="http://www.w3.org/1999/xlink" width="217" height="164.051" viewBox="0 0 217 164.051">
  <defs>
    <linearGradient id="linear-gradient" x1="-0.499" y1="4.248" x2="-0.499" y2="3.328" gradientUnits="objectBoundingBox">
      <stop offset="0.021" stop-color="#b287ac"/>
      <stop offset="1" stop-color="#e591a9"/>
    </linearGradient>
    <linearGradient id="linear-gradient-2" x1="-0.486" y1="3.68" x2="-0.486" y2="3.06" xlink:href="#linear-gradient"/>
    <linearGradient id="linear-gradient-3" x1="-0.498" y1="3.322" x2="-0.498" y2="2.928" xlink:href="#linear-gradient"/>
    <linearGradient id="linear-gradient-4" x1="-0.559" y1="3.177" x2="-0.559" y2="2.869" xlink:href="#linear-gradient"/>
    <linearGradient id="linear-gradient-5" x1="-14.865" y1="36.709" x2="-14.865" y2="35.709" gradientUnits="objectBoundingBox">
      <stop offset="0.021" stop-color="#ada9c4"/>
      <stop offset="1" stop-color="#c9c8df"/>
    </linearGradient>
    <linearGradient id="linear-gradient-6" x1="-25.971" y1="62.521" x2="-25.971" y2="61.521" gradientUnits="objectBoundingBox">
      <stop offset="0" stop-color="#a3a1c8"/>
      <stop offset="0.979" stop-color="#867ca8"/>
    </linearGradient>
    <clipPath id="clip-path">
      <path id="Trazado_176874" data-name="Trazado 176874" d="M4.767,0A4.767,4.767,0,0,0,0,4.767V29.778l9.534.937V4.767A4.766,4.766,0,0,0,4.767,0Z" fill="none"/>
    </clipPath>
    <radialGradient id="radial-gradient" cx="0.498" cy="0.038" r="0.875" gradientTransform="matrix(3.222, 0, 0, -1, 77.913, 20.948)" gradientUnits="objectBoundingBox">
      <stop offset="0" stop-color="#34375f"/>
      <stop offset="0.985" stop-color="#26143e"/>
      <stop offset="1" stop-color="#26143e"/>
    </radialGradient>
    <clipPath id="clip-path-2">
      <rect id="Rectángulo_38625" data-name="Rectángulo 38625" width="29.371" height="99.855" fill="none"/>
    </clipPath>
    <clipPath id="clip-path-3">
      <path id="Trazado_176876" data-name="Trazado 176876" d="M1.612,1.541,0,12.814c12.686-2.088,18.149,0,18.149,0L16.633,1.541A15.051,15.051,0,0,0,9.734,0,23.378,23.378,0,0,0,1.612,1.541" fill="none"/>
    </clipPath>
    <radialGradient id="radial-gradient-2" cx="0.657" cy="0.437" r="0.625" gradientTransform="matrix(0.706, 0, 0, -2.257, -5.342, 75.625)" xlink:href="#radial-gradient"/>
    <clipPath id="clip-path-4">
      <path id="Trazado_176877" data-name="Trazado 176877" d="M0,1.669V5.736S12.9.686,25.3,5.149l-.2-3.48S21.387,0,13.949,0A63.836,63.836,0,0,0,0,1.669" fill="none"/>
    </clipPath>
    <radialGradient id="radial-gradient-3" cx="0.498" cy="0.038" r="2.168" gradientTransform="matrix(0.227, 0, 0, -1, -9.968, 99.615)" xlink:href="#radial-gradient"/>
    <clipPath id="clip-path-5">
      <rect id="Rectángulo_38629" data-name="Rectángulo 38629" width="11.782" height="58.07" fill="none"/>
    </clipPath>
    <clipPath id="clip-path-6">
      <path id="Trazado_176878" data-name="Trazado 176878" d="M11.782.737s-.582,21.4-1.142,33.777c-.192,4.266-.383,7.457-.545,8.341a7.684,7.684,0,0,1-.45,1.511C8.643,46.826,6.676,48.2,7,49.353A3.267,3.267,0,0,0,7.589,50.5H7.6a5.946,5.946,0,0,1,1.238,2.69c.575,2.527-2.94,4.885-2.94,4.885s-3.522-2.358-2.947-4.885a6.858,6.858,0,0,1,.575-1.672c.479-.944.987-1.2,1.259-2.159.368-1.311-2.247-2.925-3.006-6.093v-.007a3.414,3.414,0,0,1-.089-.4c-.243-1.341-.552-7.995-.839-15.636v-.007C.39,15.194,0,.737,0,.737A39.21,39.21,0,0,1,5.894,0a39.208,39.208,0,0,1,5.887.737" fill="none" clip-rule="evenodd"/>
    </clipPath>
    <linearGradient id="linear-gradient-7" x1="-28.281" y1="4.852" x2="-28.223" y2="4.852" gradientUnits="objectBoundingBox">
      <stop offset="0" stop-color="#f2cfde"/>
      <stop offset="0.021" stop-color="#f2cfde"/>
      <stop offset="1" stop-color="#f8e6dc"/>
    </linearGradient>
    <clipPath id="clip-path-7">
      <path id="Trazado_176880" data-name="Trazado 176880" d="M.839,15.635c.626,3.441,3.478,5.136,3.095,6.5s-1.26,1.3-1.835,3.832,2.947,4.885,2.947,4.885,3.515-2.358,2.94-4.885S6.542,23.5,6.152,22.134s2.469-3.058,3.094-6.5c.163-.885.354-4.075.546-8.341C.611,7.729.022.309,0,0,.287,7.64.6,14.294.839,15.635" fill="none"/>
    </clipPath>
    <clipPath id="clip-path-8">
      <path id="Trazado_176881" data-name="Trazado 176881" d="M3.444,53.3a5.334,5.334,0,0,1,1.078-2.4,3.937,3.937,0,0,0,.749-1.4c.246-.87-.337-1.667-1.075-2.679A9.764,9.764,0,0,1,2.187,42.76C1.609,39.587.642,5.43.523,1.157A35.751,35.751,0,0,1,5.89.511a35.763,35.763,0,0,1,5.367.646c-.119,4.273-1.086,38.43-1.665,41.6a9.764,9.764,0,0,1-2.007,4.055c-.738,1.011-1.322,1.809-1.075,2.679a3.926,3.926,0,0,0,.75,1.4,5.335,5.335,0,0,1,1.077,2.4c.4,1.765-1.669,3.543-2.446,4.138-.777-.595-2.849-2.373-2.447-4.138M0,.736S1.056,39.406,1.685,42.853s3.48,5.137,3.094,6.5-1.258,1.3-1.834,3.828S5.89,58.069,5.89,58.069s3.521-2.358,2.945-4.886S7.389,50.721,7,49.355s2.466-3.057,3.094-6.5S11.78.736,11.78.736A39.286,39.286,0,0,0,5.89,0,39.286,39.286,0,0,0,0,.736" fill="none"/>
    </clipPath>
    <linearGradient id="linear-gradient-8" x1="-28.284" y1="4.853" x2="-28.226" y2="4.853" gradientUnits="objectBoundingBox">
      <stop offset="0" stop-color="#a42d6b"/>
      <stop offset="0.021" stop-color="#a42d6b"/>
      <stop offset="0.595" stop-color="#cea6cf"/>
      <stop offset="1" stop-color="#f5dee6"/>
    </linearGradient>
    <clipPath id="clip-path-9">
      <rect id="Rectángulo_38632" data-name="Rectángulo 38632" width="11.781" height="5.477" fill="none"/>
    </clipPath>
    <clipPath id="clip-path-10">
      <rect id="Rectángulo_38634" data-name="Rectángulo 38634" width="8.024" height="8.26" fill="#e3d445"/>
    </clipPath>
    <clipPath id="clip-path-11">
      <path id="Trazado_176885" data-name="Trazado 176885" d="M7.869,1.113C6.868,3.574,4.9,4.951,5.224,6.1a3.267,3.267,0,0,0,.589,1.142A10.257,10.257,0,0,0,1.747,8.26c.479-.944.987-1.2,1.26-2.159C3.375,4.79.759,3.176,0,.008V0A8.93,8.93,0,0,0,8.024.656Z" fill="#e3d445" clip-rule="evenodd"/>
    </clipPath>
    <clipPath id="clip-path-12">
      <rect id="Rectángulo_38635" data-name="Rectángulo 38635" width="3.448" height="3.98" fill="none"/>
    </clipPath>
    <clipPath id="clip-path-13">
      <rect id="Rectángulo_38636" data-name="Rectángulo 38636" width="1.615" height="11.753" fill="none"/>
    </clipPath>
    <clipPath id="clip-path-14">
      <rect id="Rectángulo_38638" data-name="Rectángulo 38638" width="6.28" height="12.523" fill="none"/>
    </clipPath>
    <clipPath id="clip-path-15">
      <path id="Trazado_176889" data-name="Trazado 176889" d="M0,12.523,1.612,1.25S5.141.155,6.279,0L5.756,11.826Z" fill="none" clip-rule="evenodd"/>
    </clipPath>
    <linearGradient id="linear-gradient-9" x1="-52.52" y1="23.737" x2="-52.412" y2="23.737" gradientUnits="objectBoundingBox">
      <stop offset="0" stop-color="#a4bbc6"/>
      <stop offset="0.006" stop-color="#a4bbc6"/>
      <stop offset="0.149" stop-color="#81939c"/>
      <stop offset="0.361" stop-color="#535f65"/>
      <stop offset="0.558" stop-color="#2f3639"/>
      <stop offset="0.734" stop-color="#15181a"/>
      <stop offset="0.882" stop-color="#050606"/>
      <stop offset="0.985"/>
      <stop offset="1"/>
    </linearGradient>
    <clipPath id="clip-path-16">
      <rect id="Rectángulo_38640" data-name="Rectángulo 38640" width="4.82" height="24.698" fill="none"/>
    </clipPath>
    <clipPath id="clip-path-17">
      <path id="Trazado_176890" data-name="Trazado 176890" d="M0,24.7.053,4.767S-.314.675,4.59,0l.23,24.149A13.538,13.538,0,0,0,0,24.7" fill="none" clip-rule="evenodd"/>
    </clipPath>
    <linearGradient id="linear-gradient-10" x1="-65.053" y1="13.025" x2="-64.921" y2="13.025" xlink:href="#linear-gradient-9"/>
    <clipPath id="clip-path-18">
      <rect id="Rectángulo_38642" data-name="Rectángulo 38642" width="6.038" height="5.132" fill="none"/>
    </clipPath>
    <clipPath id="clip-path-19">
      <path id="Trazado_176891" data-name="Trazado 176891" d="M0,5.132V1.065A53.719,53.719,0,0,1,6.038,0V3.5S4.758,3.376,0,5.132" fill="none" clip-rule="evenodd"/>
    </clipPath>
    <linearGradient id="linear-gradient-11" x1="-54.019" y1="55.55" x2="-53.906" y2="55.55" xlink:href="#linear-gradient-9"/>
  </defs>
  <g id="paleta" transform="translate(-812.333 -99.828)">
    <g id="Grupo_163787" data-name="Grupo 163787" transform="translate(812.333 99.829)">
      <g id="Grupo_163782" data-name="Grupo 163782" transform="translate(0.431 46.278)">
        <path id="Trazado_176791" data-name="Trazado 176791" d="M699.81,64.875l-118.013,81a4.2,4.2,0,0,0-.988,5.932l20.538,28.054a4.2,4.2,0,0,0,5.675,1.034l117.145-76.338a4.2,4.2,0,0,0,1.3-5.676L705.794,66.158A4.192,4.192,0,0,0,699.81,64.875ZM588.964,152.212a2.536,2.536,0,1,1,.739-3.509A2.538,2.538,0,0,1,588.964,152.212Z" transform="translate(-579.734 -63.805)" fill-rule="evenodd" fill="url(#linear-gradient)"/>
        <path id="Trazado_176792" data-name="Trazado 176792" d="M699.521,64.52l-118.013,81a4.2,4.2,0,0,0-.988,5.931l20.538,28.054a4.2,4.2,0,0,0,5.675,1.034L723.877,104.2a4.2,4.2,0,0,0,1.3-5.676L705.5,65.8A4.192,4.192,0,0,0,699.521,64.52ZM588.675,151.857a2.536,2.536,0,1,1,.74-3.509A2.537,2.537,0,0,1,588.675,151.857Z" transform="translate(-579.707 -63.771)" fill="#fcfdfd" fill-rule="evenodd"/>
        <g id="Grupo_163781" data-name="Grupo 163781" transform="translate(13.094 7.54)">
          <path id="Trazado_176793" data-name="Trazado 176793" d="M628.753,169.467l-14.7,9.58-19.861-28.131L608.9,140.852Z" transform="translate(-594.192 -78.715)" fill="#698620" fill-rule="evenodd"/>
          <path id="Trazado_176794" data-name="Trazado 176794" d="M647.706,157.029l-15.093,9.835L612.759,138.18l15.1-10.337Z" transform="translate(-595.976 -77.466)" fill="#709142" fill-rule="evenodd"/>
          <path id="Trazado_176795" data-name="Trazado 176795" d="M667.162,144.261l-15.5,10.1L631.82,125.1l15.518-10.621Z" transform="translate(-597.806 -76.182)" fill="#9db06c" fill-rule="evenodd"/>
          <path id="Trazado_176796" data-name="Trazado 176796" d="M687.15,131.142,671.225,141.52,651.4,111.669l15.951-10.917Z" transform="translate(-599.688 -74.863)" fill="#b7ca30" fill-rule="evenodd"/>
          <path id="Trazado_176797" data-name="Trazado 176797" d="M707.693,117.66l-16.367,10.666L671.535,97.859l16.4-11.225Z" transform="translate(-601.621 -73.507)" fill="#dcca30" fill-rule="evenodd"/>
          <path id="Trazado_176798" data-name="Trazado 176798" d="M728.813,103.8l-16.828,10.966-19.752-31.1L709.1,72.112Z" transform="translate(-603.61 -72.112)" fill="#e3d445" fill-rule="evenodd"/>
        </g>
      </g>
      <g id="Grupo_163784" data-name="Grupo 163784" transform="translate(1.11 24.136)">
        <path id="Trazado_176799" data-name="Trazado 176799" d="M680.651,40.881l-98.7,103.668a4.2,4.2,0,0,0,.261,6.007l25.9,23.2a4.2,4.2,0,0,0,5.765-.163l98.814-98.926a4.2,4.2,0,0,0,.1-5.822L686.77,40.9A4.191,4.191,0,0,0,680.651,40.881ZM590.275,149.264a2.536,2.536,0,1,1,0-3.587A2.537,2.537,0,0,1,590.275,149.264Z" transform="translate(-580.492 -39.303)" fill-rule="evenodd" fill="url(#linear-gradient-2)"/>
        <path id="Trazado_176800" data-name="Trazado 176800" d="M680.295,40.594,581.6,144.262a4.2,4.2,0,0,0,.261,6.007l25.9,23.2a4.2,4.2,0,0,0,5.765-.163l98.814-98.926a4.2,4.2,0,0,0,.1-5.822l-26.02-27.944A4.192,4.192,0,0,0,680.295,40.594ZM589.919,148.977a2.536,2.536,0,1,1,0-3.587A2.537,2.537,0,0,1,589.919,148.977Z" transform="translate(-580.458 -39.275)" fill="#fcfdfd" fill-rule="evenodd"/>
        <g id="Grupo_163783" data-name="Grupo 163783" transform="translate(11.771 8.216)">
          <path id="Trazado_176801" data-name="Trazado 176801" d="M631.132,160.286l-12.4,12.414L593.48,149.288l12.3-12.889Z" transform="translate(-593.48 -56.82)" fill="#355d84" fill-rule="evenodd"/>
          <path id="Trazado_176802" data-name="Trazado 176802" d="M647.107,144.186l-12.731,12.745-25.361-23.955,12.638-13.238Z" transform="translate(-594.972 -55.22)" fill="#335ad3" fill-rule="evenodd"/>
          <path id="Trazado_176803" data-name="Trazado 176803" d="M663.505,127.659l-13.075,13.09-25.466-24.518,12.985-13.6Z" transform="translate(-596.504 -53.576)" fill="#5b5bfa" fill-rule="evenodd"/>
          <path id="Trazado_176804" data-name="Trazado 176804" d="M680.353,110.679,666.92,124.128l-25.568-25.1L654.7,85.044Z" transform="translate(-598.078 -51.887)" fill="#8c8ffb" fill-rule="evenodd"/>
          <path id="Trazado_176805" data-name="Trazado 176805" d="M697.668,93.228l-13.806,13.821L658.2,81.338l13.723-14.376Z" transform="translate(-599.696 -50.15)" fill="#bdb8fc" fill-rule="evenodd"/>
          <path id="Trazado_176806" data-name="Trazado 176806" d="M715.47,75.285,701.276,89.5l-25.76-26.344,14.116-14.787Z" transform="translate(-601.36 -48.364)" fill="#e48bef" fill-rule="evenodd"/>
        </g>
      </g>
      <g id="Grupo_163786" data-name="Grupo 163786" transform="translate(0 6.178)">
        <path id="Trazado_176807" data-name="Trazado 176807" d="M657.356,22.3,580.949,143.334a4.2,4.2,0,0,0,1.436,5.839l29.952,17.657a4.2,4.2,0,0,0,5.621-1.293L695.41,49.126a4.2,4.2,0,0,0-1.047-5.728l-31-22.288A4.191,4.191,0,0,0,657.356,22.3ZM590.035,146.322a2.536,2.536,0,1,1-.706-3.516A2.537,2.537,0,0,1,590.035,146.322Z" transform="translate(-579.334 -19.497)" fill="#80497e" fill-rule="evenodd" opacity="0.5" style="mix-blend-mode: multiply;isolation: isolate"/>
        <path id="Trazado_176808" data-name="Trazado 176808" d="M656.676,21.6,580.269,142.633a4.2,4.2,0,0,0,1.435,5.839l29.952,17.657a4.2,4.2,0,0,0,5.622-1.293L694.73,48.426a4.2,4.2,0,0,0-1.046-5.728l-31-22.288A4.193,4.193,0,0,0,656.676,21.6Zm-67.32,124.027a2.536,2.536,0,1,1-.707-3.516A2.537,2.537,0,0,1,589.356,145.622Z" transform="translate(-579.269 -19.43)" fill-rule="evenodd" fill="url(#linear-gradient-3)"/>
        <path id="Trazado_176809" data-name="Trazado 176809" d="M656.271,21.384,579.864,142.421a4.2,4.2,0,0,0,1.435,5.839l29.952,17.657a4.2,4.2,0,0,0,5.621-1.293L694.325,48.214a4.2,4.2,0,0,0-1.047-5.728l-31-22.288A4.191,4.191,0,0,0,656.271,21.384ZM588.95,145.41a2.536,2.536,0,1,1-.706-3.516A2.537,2.537,0,0,1,588.95,145.41Z" transform="translate(-579.23 -19.409)" fill="#fcfdfd" fill-rule="evenodd"/>
        <g id="Grupo_163785" data-name="Grupo 163785" transform="translate(10.214 8.697)">
          <path id="Trazado_176810" data-name="Trazado 176810" d="M629.607,150.3l-9.72,14.608-29.359-17.995,9.532-15.055Z" transform="translate(-590.529 -38.907)" fill="#74005a" fill-rule="evenodd"/>
          <path id="Trazado_176811" data-name="Trazado 176811" d="M642.116,131.37l-9.979,15-29.573-18.505,9.791-15.463Z" transform="translate(-591.685 -37.038)" fill="#b8005a" fill-rule="evenodd"/>
          <path id="Trazado_176812" data-name="Trazado 176812" d="M654.955,111.937l-10.248,15.4L614.92,108.3l10.06-15.888Z" transform="translate(-592.872 -35.119)" fill="#df665c" fill-rule="evenodd"/>
          <path id="Trazado_176813" data-name="Trazado 176813" d="M668.146,91.97,657.617,107.8l-30-19.59,10.34-16.33Z" transform="translate(-594.091 -33.146)" fill="#e5908b" fill-rule="evenodd"/>
          <path id="Trazado_176814" data-name="Trazado 176814" d="M681.7,71.449,670.882,87.714,640.665,67.546,651.3,50.754Z" transform="translate(-595.345 -31.117)" fill="#efc2b8" fill-rule="evenodd"/>
          <path id="Trazado_176815" data-name="Trazado 176815" d="M695.642,50.35,684.516,67.072,654.083,46.3,665.019,29.03Z" transform="translate(-596.634 -29.03)" fill="#f3d68f" fill-rule="evenodd"/>
        </g>
      </g>
      <path id="Trazado_176816" data-name="Trazado 176816" d="M643.917,15.5l-62.568,128.76a4.2,4.2,0,0,0,2.044,5.655l31,14.062a4.2,4.2,0,0,0,5.453-1.877l64.74-123.933a4.2,4.2,0,0,0-1.644-5.586L649.762,13.689A4.192,4.192,0,0,0,643.917,15.5ZM590.7,146.274a2.536,2.536,0,1,1-1.074-3.422A2.537,2.537,0,0,1,590.7,146.274Z" transform="translate(-579.393 -12.629)" fill="#80497e" fill-rule="evenodd" opacity="0.5" style="mix-blend-mode: multiply;isolation: isolate"/>
      <path id="Trazado_176817" data-name="Trazado 176817" d="M643.23,15.143,580.662,143.9a4.2,4.2,0,0,0,2.044,5.655l31,14.062a4.2,4.2,0,0,0,5.453-1.878L683.9,37.809a4.2,4.2,0,0,0-1.644-5.586L649.076,13.331A4.192,4.192,0,0,0,643.23,15.143ZM590.015,145.916a2.536,2.536,0,1,1-1.074-3.422A2.538,2.538,0,0,1,590.015,145.916Z" transform="translate(-579.327 -12.595)" fill-rule="evenodd" fill="url(#linear-gradient-4)"/>
      <path id="Trazado_176818" data-name="Trazado 176818" d="M642.836,14.937,580.268,143.7a4.2,4.2,0,0,0,2.044,5.655l31,14.062a4.2,4.2,0,0,0,5.454-1.878L683.508,37.6a4.2,4.2,0,0,0-1.644-5.586L648.682,13.125A4.192,4.192,0,0,0,642.836,14.937ZM589.621,145.71a2.536,2.536,0,1,1-1.074-3.422A2.537,2.537,0,0,1,589.621,145.71Z" transform="translate(-579.289 -12.575)" fill="#fcfdfd" fill-rule="evenodd"/>
      <path id="Trazado_176819" data-name="Trazado 176819" d="M583.831,156.069a4.376,4.376,0,1,0,5.9-1.859A4.373,4.373,0,0,0,583.831,156.069Zm5.858,3.06a2.237,2.237,0,1,1-.947-3.018A2.238,2.238,0,0,1,589.689,159.129Z" transform="translate(-579.624 -26.132)" fill-rule="evenodd" fill="url(#linear-gradient-5)"/>
      <path id="Trazado_176820" data-name="Trazado 176820" d="M585.653,157.114a2.54,2.54,0,1,0,3.426-1.082A2.538,2.538,0,0,0,585.653,157.114Zm4.23,2.209a2.237,2.237,0,1,1-.947-3.018A2.238,2.238,0,0,1,589.884,159.324Z" transform="translate(-579.819 -26.327)" fill-rule="evenodd" fill="url(#linear-gradient-6)"/>
      <text id="COLOR_PALETTE" data-name="COLOR
PALETTE" transform="matrix(0.463, -0.886, 0.886, 0.463, 63.345, 41.405)" fill="#59334d" font-size="12" font-family="Poppins-Regular, Poppins"><tspan x="-20.304" y="0">COLOR</tspan><tspan x="-22.758" y="14">PALETTE</tspan></text>
    </g>
    <g id="Grupo_163848" data-name="Grupo 163848" transform="translate(1014.647 123.701) rotate(60)">
      <g id="Grupo_163803" data-name="Grupo 163803" transform="translate(10.747 1.866)">
        <g id="Grupo_163802" data-name="Grupo 163802" clip-path="url(#clip-path)">
          <rect id="Rectángulo_38624" data-name="Rectángulo 38624" width="9.534" height="30.715" transform="translate(0 0)" fill="url(#radial-gradient)"/>
        </g>
      </g>
      <g id="Grupo_163805" data-name="Grupo 163805">
        <g id="Grupo_163804" data-name="Grupo 163804" clip-path="url(#clip-path-2)">
          <path id="Trazado_176875" data-name="Trazado 176875" d="M0,3.039s14.921,1.305,25.3-.586c0,0-12.464-5.891-25.3.586" transform="translate(2.608 40.571)" fill="#160029" fill-rule="evenodd"/>
        </g>
      </g>
      <g id="Grupo_163807" data-name="Grupo 163807" transform="translate(6.209 26.015)">
        <g id="Grupo_163806" data-name="Grupo 163806" transform="translate(0 0)" clip-path="url(#clip-path-3)">
          <rect id="Rectángulo_38626" data-name="Rectángulo 38626" width="18.149" height="12.814" transform="translate(0 0)" fill="url(#radial-gradient-2)"/>
        </g>
      </g>
      <g id="Grupo_163809" data-name="Grupo 163809" transform="translate(2.608 37.874)">
        <g id="Grupo_163808" data-name="Grupo 163808" transform="translate(0 0)" clip-path="url(#clip-path-4)">
          <rect id="Rectángulo_38627" data-name="Rectángulo 38627" width="25.304" height="5.736" transform="translate(0 0)" fill="url(#radial-gradient-3)"/>
        </g>
      </g>
      <g id="Grupo_163814" data-name="Grupo 163814" transform="translate(9.622 41.784)" opacity="0.78">
        <g id="Grupo_163813" data-name="Grupo 163813" transform="translate(0 0)">
          <g id="Grupo_163812" data-name="Grupo 163812" clip-path="url(#clip-path-5)">
            <g id="Grupo_163811" data-name="Grupo 163811" transform="translate(0.001 0)">
              <g id="Grupo_163810" data-name="Grupo 163810" clip-path="url(#clip-path-6)">
                <rect id="Rectángulo_38628" data-name="Rectángulo 38628" width="11.782" height="58.07" transform="translate(0 0)" fill="url(#linear-gradient-7)"/>
              </g>
            </g>
          </g>
        </g>
      </g>
      <path id="Trazado_176879" data-name="Trazado 176879" d="M0,0S7.69,3.042,8.771,5.23C8.771,5.23,2.78,7.1,0,0" transform="translate(10.963 71.082)" fill="#f0c74f" fill-rule="evenodd"/>
      <g id="Grupo_163816" data-name="Grupo 163816" transform="translate(10.47 69.004)">
        <g id="Grupo_163815" data-name="Grupo 163815" clip-path="url(#clip-path-7)">
          <path id="Trazado_176938" data-name="Trazado 176938" d="M0,0H9.792V30.851H0Z" fill="#e3d445"/>
        </g>
      </g>
      <g id="Grupo_163818" data-name="Grupo 163818" transform="translate(9.624 41.783)">
        <g id="Grupo_163817" data-name="Grupo 163817" clip-path="url(#clip-path-8)">
          <rect id="Rectángulo_38631" data-name="Rectángulo 38631" width="11.78" height="58.069" transform="translate(0 0)" fill="url(#linear-gradient-8)"/>
        </g>
      </g>
      <g id="Grupo_163821" data-name="Grupo 163821" transform="translate(9.623 41.565)" opacity="0.5" style="mix-blend-mode: multiply;isolation: isolate">
        <g id="Grupo_163820" data-name="Grupo 163820">
          <g id="Grupo_163819" data-name="Grupo 163819" clip-path="url(#clip-path-9)">
            <path id="Trazado_176882" data-name="Trazado 176882" d="M0,5.476s6.948-3.118,11.781-2.7V.955S7.259-1.194,0,.955Z" transform="translate(0.001 0)" fill="#0a0007" fill-rule="evenodd"/>
          </g>
        </g>
      </g>
      <path id="Trazado_176883" data-name="Trazado 176883" d="M1.132,23.657.3,0s-1.064,14.719.834,23.657" transform="translate(10.833 55.611)" fill="#fff" fill-rule="evenodd"/>
      <path id="Trazado_176884" data-name="Trazado 176884" d="M.427,32.274,1.615,0S-1,13.008.427,32.274" transform="translate(19.142 48.53)" fill="#fff" fill-rule="evenodd"/>
      <g id="Grupo_163826" data-name="Grupo 163826" transform="translate(11.398 85.037)" opacity="0.6" style="mix-blend-mode: multiply;isolation: isolate">
        <g id="Grupo_163825" data-name="Grupo 163825">
          <g id="Grupo_163824" data-name="Grupo 163824" clip-path="url(#clip-path-10)">
            <g id="Grupo_163823" data-name="Grupo 163823" transform="translate(0 0)">
              <g id="Grupo_163822" data-name="Grupo 163822" clip-path="url(#clip-path-11)">
                <rect id="Rectángulo_38633" data-name="Rectángulo 38633" width="8.024" height="8.26" transform="translate(0 0)" fill="#e3d445"/>
              </g>
            </g>
          </g>
        </g>
      </g>
      <path id="Trazado_176886" data-name="Trazado 176886" d="M.01,0S-.165,2.336.952,2.62A2.113,2.113,0,0,0,.01,0" transform="translate(16.373 93.297)" fill="#fff" fill-rule="evenodd"/>
      <g id="Grupo_163829" data-name="Grupo 163829" transform="translate(21.404 38.132)" opacity="0.6" style="mix-blend-mode: soft-light;isolation: isolate">
        <g id="Grupo_163828" data-name="Grupo 163828">
          <g id="Grupo_163827" data-name="Grupo 163827" clip-path="url(#clip-path-12)">
            <path id="Trazado_176887" data-name="Trazado 176887" d="M0,0V3.344l3.448.636V.562Z" transform="translate(0 0)" fill="#fff" fill-rule="evenodd"/>
          </g>
        </g>
      </g>
      <g id="Grupo_163832" data-name="Grupo 163832" transform="translate(19.142 26.305)" opacity="0.6" style="mix-blend-mode: soft-light;isolation: isolate">
        <g id="Grupo_163831" data-name="Grupo 163831">
          <g id="Grupo_163830" data-name="Grupo 163830" clip-path="url(#clip-path-13)">
            <path id="Trazado_176888" data-name="Trazado 176888" d="M0,11.752V0L1.616.4l-.081,11.35Z" transform="translate(0 0)" fill="#fff" fill-rule="evenodd"/>
          </g>
        </g>
      </g>
      <g id="Grupo_163837" data-name="Grupo 163837" transform="translate(6.208 26.305)" style="mix-blend-mode: screen;isolation: isolate">
        <g id="Grupo_163836" data-name="Grupo 163836">
          <g id="Grupo_163835" data-name="Grupo 163835" clip-path="url(#clip-path-14)">
            <g id="Grupo_163834" data-name="Grupo 163834" transform="translate(0.001 0.001)">
              <g id="Grupo_163833" data-name="Grupo 163833" clip-path="url(#clip-path-15)">
                <rect id="Rectángulo_38637" data-name="Rectángulo 38637" width="6.279" height="12.523" transform="translate(0 0)" fill="url(#linear-gradient-9)"/>
              </g>
            </g>
          </g>
        </g>
      </g>
      <g id="Grupo_163842" data-name="Grupo 163842" transform="translate(10.693 1.866)" opacity="0.5" style="mix-blend-mode: screen;isolation: isolate">
        <g id="Grupo_163841" data-name="Grupo 163841">
          <g id="Grupo_163840" data-name="Grupo 163840" clip-path="url(#clip-path-16)">
            <g id="Grupo_163839" data-name="Grupo 163839" transform="translate(0 0)">
              <g id="Grupo_163838" data-name="Grupo 163838" clip-path="url(#clip-path-17)">
                <rect id="Rectángulo_38639" data-name="Rectángulo 38639" width="5.133" height="24.699" transform="translate(-0.314 0)" fill="url(#linear-gradient-10)"/>
              </g>
            </g>
          </g>
        </g>
      </g>
      <g id="Grupo_163847" data-name="Grupo 163847" transform="translate(2.608 38.478)" style="mix-blend-mode: screen;isolation: isolate">
        <g id="Grupo_163846" data-name="Grupo 163846" transform="translate(0 0)">
          <g id="Grupo_163845" data-name="Grupo 163845" clip-path="url(#clip-path-18)">
            <g id="Grupo_163844" data-name="Grupo 163844">
              <g id="Grupo_163843" data-name="Grupo 163843" clip-path="url(#clip-path-19)">
                <rect id="Rectángulo_38641" data-name="Rectángulo 38641" width="6.038" height="5.132" transform="translate(0 0)" fill="url(#linear-gradient-11)"/>
              </g>
            </g>
          </g>
        </g>
      </g>
    </g>
  </g>
</svg>
