<svg xmlns="http://www.w3.org/2000/svg" xmlns:xlink="http://www.w3.org/1999/xlink" width="1240" height="480.001" viewBox="0 0 1240 480.001">
  <defs>
    <clipPath id="clip-path">
      <rect id="Background" width="1240" height="480" rx="6" transform="translate(0 0.111)" fill="#cbdadd"/>
    </clipPath>
  </defs>
  <g id="Grupo_164013" data-name="Grupo 164013" transform="translate(-10508.599 10136.846)">
    <g id="Grupo_161521" data-name="Grupo 161521" transform="translate(0 -10)">
      <rect id="Background-2" data-name="Background" width="1240" height="480" rx="6" transform="translate(10508.599 -10126.845)" fill="#b0c8cb"/>
      <g id="Enmascarar_grupo_230" data-name="Enmascarar grupo 230" transform="translate(10508.599 -10126.956)" opacity="0.074" clip-path="url(#clip-path)">
        <g id="Grupo_158858" data-name="Grupo 158858" transform="translate(-126.602 -270.967)">
          <g id="Grupo_158857" data-name="Grupo 158857" transform="translate(0 0)" style="mix-blend-mode: multiply;isolation: isolate">
            <path id="Trazado_169033" data-name="Trazado 169033" d="M56.762,291.51c31.349,0,56.762-28.571,56.762-63.815V0H0V227.7C0,262.939,25.413,291.51,56.762,291.51Z" transform="translate(97.281 200.852)" fill="#29c4bb"/>
            <path id="Trazado_169034" data-name="Trazado 169034" d="M67.012,745.715c35.244,0,63.815-29.239,63.815-65.307L127.63,0H0L3.2,680.408C3.2,716.476,31.768,745.715,67.012,745.715Z" transform="translate(447.782 814.247) rotate(-90)" fill="#29c4bb"/>
            <path id="Trazado_169035" data-name="Trazado 169035" d="M52.965,0C80.821,0,103.4,23.11,103.4,51.617L100.876,589.4H0L2.527,51.617C2.527,23.11,25.109,0,52.965,0Z" transform="translate(523.107 304.255) rotate(-90)" fill="#29c4bb"/>
            <rect id="Rectángulo_38452" data-name="Rectángulo 38452" width="447.441" height="429.809" transform="translate(1085.65)" fill="#0c487b" style="mix-blend-mode: multiply;isolation: isolate"/>
            <rect id="Rectángulo_38453" data-name="Rectángulo 38453" width="447.441" height="426.694" rx="50" transform="translate(0 562.177)" fill="#1169e3" style="mix-blend-mode: multiply;isolation: isolate"/>
            <rect id="Rectángulo_38454" data-name="Rectángulo 38454" width="447.441" height="428.252" transform="translate(1233.063 663.401)" fill="#0c487b" style="mix-blend-mode: multiply;isolation: isolate"/>
          </g>
        </g>
      </g>
    </g>
    <g id="Grupo_163958" data-name="Grupo 163958" transform="translate(0 30)">
      <g id="Grupo_160152" data-name="Grupo 160152" transform="translate(10376.599 -12049.345)">
        <rect id="Rectángulo_38443" data-name="Rectángulo 38443" width="295" height="85" rx="15" transform="translate(987 1974)" fill="#f2f3e0"/>
        <path id="Polígono_12" data-name="Polígono 12" d="M21.5,0,43,37H0Z" transform="translate(966.998 2024.033) rotate(-2)" fill="#f2f3e0"/>
      </g>
      <path id="Trazado_176956" data-name="Trazado 176956" d="M7.914,12.172H3.6v2.719H8.7V17H.859V5.625H8.711V7.742H3.6v2.4H7.914ZM12.469,17H9.828V5h2.641Zm9.18-1.875a1.171,1.171,0,0,0,.859-.3,1.1,1.1,0,0,0,.3-.84h2.469a2.922,2.922,0,0,1-1,2.281,3.705,3.705,0,0,1-2.566.891A3.751,3.751,0,0,1,18.8,16a4.556,4.556,0,0,1-1.062-3.2v-.109a5.149,5.149,0,0,1,.473-2.262,3.441,3.441,0,0,1,1.363-1.508,4.065,4.065,0,0,1,2.109-.527A3.658,3.658,0,0,1,24.3,9.3a3.242,3.242,0,0,1,.969,2.477H22.8a1.445,1.445,0,0,0-.32-1.008,1.106,1.106,0,0,0-.859-.352q-1.023,0-1.2,1.3a9.206,9.206,0,0,0-.055,1.141,3.616,3.616,0,0,0,.3,1.766A1.055,1.055,0,0,0,21.648,15.125Zm4.406-2.43a4.989,4.989,0,0,1,.492-2.254,3.52,3.52,0,0,1,1.414-1.52,4.259,4.259,0,0,1,2.164-.531,3.887,3.887,0,0,1,2.992,1.176,4.512,4.512,0,0,1,1.094,3.2v.094A4.378,4.378,0,0,1,33.113,16a3.9,3.9,0,0,1-2.973,1.16,3.942,3.942,0,0,1-2.9-1.082,4.232,4.232,0,0,1-1.18-2.934Zm2.633.164a3.145,3.145,0,0,0,.367,1.719,1.223,1.223,0,0,0,1.086.547q1.406,0,1.438-2.164V12.7q0-2.273-1.453-2.273-1.32,0-1.43,1.961Zm9.1-4.312.086.992a2.867,2.867,0,0,1,2.414-1.148,2.412,2.412,0,0,1,1.973.789,3.757,3.757,0,0,1,.676,2.375V17H40.3V11.664a1.426,1.426,0,0,0-.258-.941,1.193,1.193,0,0,0-.937-.3,1.256,1.256,0,0,0-1.148.609V17H35.32V8.547Zm9.672-2.1v2.1h1.391v1.828H47.461v3.867a.987.987,0,0,0,.172.664.922.922,0,0,0,.68.188,3.862,3.862,0,0,0,.656-.047V16.93a4.859,4.859,0,0,1-1.484.227,2.758,2.758,0,0,1-2.008-.641,2.626,2.626,0,0,1-.648-1.945v-4.2H43.75V8.547h1.078v-2.1ZM49.32,12.7a4.989,4.989,0,0,1,.492-2.254,3.52,3.52,0,0,1,1.414-1.52,4.259,4.259,0,0,1,2.164-.531,3.887,3.887,0,0,1,2.992,1.176,4.512,4.512,0,0,1,1.094,3.2v.094A4.378,4.378,0,0,1,56.379,16a3.9,3.9,0,0,1-2.973,1.16,3.942,3.942,0,0,1-2.9-1.082,4.232,4.232,0,0,1-1.18-2.934Zm2.633.164a3.145,3.145,0,0,0,.367,1.719,1.223,1.223,0,0,0,1.086.547q1.406,0,1.438-2.164V12.7q0-2.273-1.453-2.273-1.32,0-1.43,1.961Zm11.8-1.93-.867-.062a1.558,1.558,0,0,0-1.594.781V17H58.656V8.547h2.469l.086,1.086a2.039,2.039,0,0,1,1.852-1.242,2.567,2.567,0,0,1,.734.094Zm3.367-2.383.086.992a2.867,2.867,0,0,1,2.414-1.148,2.412,2.412,0,0,1,1.973.789,3.757,3.757,0,0,1,.676,2.375V17H69.625V11.664a1.426,1.426,0,0,0-.258-.941,1.193,1.193,0,0,0-.937-.3,1.256,1.256,0,0,0-1.148.609V17H64.648V8.547ZM73.391,12.7a4.989,4.989,0,0,1,.492-2.254A3.52,3.52,0,0,1,75.3,8.922a4.259,4.259,0,0,1,2.164-.531,3.887,3.887,0,0,1,2.992,1.176,4.512,4.512,0,0,1,1.094,3.2v.094A4.378,4.378,0,0,1,80.449,16a3.9,3.9,0,0,1-2.973,1.16,3.942,3.942,0,0,1-2.9-1.082,4.232,4.232,0,0,1-1.18-2.934Zm2.633.164a3.145,3.145,0,0,0,.367,1.719,1.223,1.223,0,0,0,1.086.547q1.406,0,1.438-2.164V12.7q0-2.273-1.453-2.273-1.32,0-1.43,1.961Zm6.992,6.406L82.2,18.7a3.77,3.77,0,0,0,.766-2.109v-1.3h1.414v1.133A3.559,3.559,0,0,1,83.988,18,3.7,3.7,0,0,1,83.016,19.266ZM92.125,6.5V8.547H93.7V9.664H92.125v5.249a1.173,1.173,0,0,0,.211.763.888.888,0,0,0,.719.254,3.5,3.5,0,0,0,.688-.094V17a4.215,4.215,0,0,1-1.109.155,1.8,1.8,0,0,1-1.461-.586,2.517,2.517,0,0,1-.492-1.664V9.664H89.141V8.547H90.68V6.5ZM96.961,17H95.516V8.547h1.445ZM95.4,6.3a.863.863,0,0,1,.215-.594.807.807,0,0,1,.637-.242.819.819,0,0,1,.641.242.854.854,0,0,1,.219.594.826.826,0,0,1-.219.586.834.834,0,0,1-.641.234.821.821,0,0,1-.637-.234A.834.834,0,0,1,95.4,6.3Zm7.383,10.852a3.693,3.693,0,0,1-2.8-1.129,4.19,4.19,0,0,1-1.078-3.02v-.266a5.073,5.073,0,0,1,.48-2.246,3.748,3.748,0,0,1,1.344-1.547,3.378,3.378,0,0,1,1.871-.559,3.166,3.166,0,0,1,2.563,1.086,4.7,4.7,0,0,1,.914,3.109v.6h-5.727a3,3,0,0,0,.73,2.02,2.3,2.3,0,0,0,1.777.77,2.517,2.517,0,0,0,1.3-.312,3.259,3.259,0,0,0,.93-.828l.883.688A3.55,3.55,0,0,1,102.781,17.156Zm-.18-7.578a1.928,1.928,0,0,0-1.469.637A3.1,3.1,0,0,0,100.4,12h4.234v-.109a2.753,2.753,0,0,0-.594-1.707A1.815,1.815,0,0,0,102.6,9.578Zm6.516-1.031.047,1.063A3.08,3.08,0,0,1,111.7,8.391q2.68,0,2.7,3.023V17h-1.445V11.406a1.946,1.946,0,0,0-.418-1.352,1.675,1.675,0,0,0-1.277-.437,2.086,2.086,0,0,0-1.234.375,2.546,2.546,0,0,0-.828.984V17H107.75V8.547Zm10.969,8.609a3.693,3.693,0,0,1-2.8-1.129,4.19,4.19,0,0,1-1.078-3.02v-.266a5.073,5.073,0,0,1,.48-2.246,3.748,3.748,0,0,1,1.344-1.547,3.378,3.378,0,0,1,1.871-.559,3.166,3.166,0,0,1,2.563,1.086,4.7,4.7,0,0,1,.914,3.109v.6h-5.727a3,3,0,0,0,.73,2.02,2.3,2.3,0,0,0,1.777.77,2.517,2.517,0,0,0,1.3-.312,3.259,3.259,0,0,0,.93-.828l.883.688A3.55,3.55,0,0,1,120.086,17.156Zm-.18-7.578a1.928,1.928,0,0,0-1.469.637A3.1,3.1,0,0,0,117.7,12h4.234v-.109a2.753,2.753,0,0,0-.594-1.707A1.815,1.815,0,0,0,119.906,9.578Zm8.758,3.125a4.961,4.961,0,0,1,.914-3.152A3.226,3.226,0,0,1,134.4,9.4l.063-.852h1.328v11.7h-1.445V16.219a3.033,3.033,0,0,1-2.328.938,2.915,2.915,0,0,1-2.441-1.191,5.072,5.072,0,0,1-.91-3.16Zm1.445.164a3.761,3.761,0,0,0,.613,2.281,1.951,1.951,0,0,0,1.652.828,2.164,2.164,0,0,0,1.969-1.141V10.7a2.171,2.171,0,0,0-1.953-1.117,1.965,1.965,0,0,0-1.664.832A4.094,4.094,0,0,0,130.109,12.867Zm13.219,3.3a3.07,3.07,0,0,1-2.477.992,2.628,2.628,0,0,1-2.059-.785,3.4,3.4,0,0,1-.715-2.324v-5.5h1.445v5.461q0,1.922,1.563,1.922a2.163,2.163,0,0,0,2.2-1.234V8.547h1.445V17h-1.375Zm7.109.992a3.693,3.693,0,0,1-2.8-1.129,4.19,4.19,0,0,1-1.078-3.02v-.266a5.073,5.073,0,0,1,.48-2.246,3.748,3.748,0,0,1,1.344-1.547,3.378,3.378,0,0,1,1.871-.559,3.166,3.166,0,0,1,2.563,1.086,4.7,4.7,0,0,1,.914,3.109v.6h-5.727a3,3,0,0,0,.73,2.02,2.3,2.3,0,0,0,1.777.77,2.517,2.517,0,0,0,1.3-.312,3.258,3.258,0,0,0,.93-.828l.883.688A3.55,3.55,0,0,1,150.438,17.156Zm-.18-7.578a1.928,1.928,0,0,0-1.469.637A3.1,3.1,0,0,0,148.055,12h4.234v-.109a2.753,2.753,0,0,0-.594-1.707A1.815,1.815,0,0,0,150.258,9.578Zm11.9,5.461,2.094-6.492h1.477L162.7,17h-1.1l-3.062-8.453h1.477Zm8.469,2.117a3.693,3.693,0,0,1-2.8-1.129,4.19,4.19,0,0,1-1.078-3.02v-.266a5.073,5.073,0,0,1,.48-2.246,3.748,3.748,0,0,1,1.344-1.547,3.378,3.378,0,0,1,1.871-.559,3.166,3.166,0,0,1,2.563,1.086,4.7,4.7,0,0,1,.914,3.109v.6H168.2a3,3,0,0,0,.73,2.02,2.3,2.3,0,0,0,1.777.77,2.517,2.517,0,0,0,1.3-.312,3.258,3.258,0,0,0,.93-.828l.883.688A3.55,3.55,0,0,1,170.625,17.156Zm-.18-7.578a1.928,1.928,0,0,0-1.469.637A3.1,3.1,0,0,0,168.242,12h4.234v-.109a2.753,2.753,0,0,0-.594-1.707A1.815,1.815,0,0,0,170.445,9.578Zm9.234.266a4.331,4.331,0,0,0-.711-.055A1.9,1.9,0,0,0,177.039,11v6h-1.445V8.547H177l.023.977a2.251,2.251,0,0,1,2.016-1.133,1.477,1.477,0,0,1,.641.109Zm8.68,6.133a2.082,2.082,0,0,0,1.352-.469,1.649,1.649,0,0,0,.641-1.172h1.367a2.621,2.621,0,0,1-.5,1.383,3.293,3.293,0,0,1-1.23,1.047,3.55,3.55,0,0,1-1.629.391A3.482,3.482,0,0,1,185.613,16a4.59,4.59,0,0,1-1.02-3.152v-.242a5.089,5.089,0,0,1,.453-2.2,3.451,3.451,0,0,1,1.3-1.492,3.7,3.7,0,0,1,2-.531,3.39,3.39,0,0,1,2.363.852,3.043,3.043,0,0,1,1,2.211h-1.367a1.992,1.992,0,0,0-.621-1.348,1.932,1.932,0,0,0-1.379-.527,2.023,2.023,0,0,0-1.707.793,3.724,3.724,0,0,0-.605,2.293v.273a3.65,3.65,0,0,0,.6,2.25A2.033,2.033,0,0,0,188.359,15.977Zm4.6-3.281a4.993,4.993,0,0,1,.488-2.234,3.642,3.642,0,0,1,1.359-1.531,3.7,3.7,0,0,1,1.988-.539,3.565,3.565,0,0,1,2.793,1.2,4.6,4.6,0,0,1,1.066,3.18v.1a5.036,5.036,0,0,1-.473,2.215,3.589,3.589,0,0,1-1.352,1.527,3.743,3.743,0,0,1-2.02.547,3.556,3.556,0,0,1-2.785-1.2,4.575,4.575,0,0,1-1.066-3.164Zm1.453.172a3.616,3.616,0,0,0,.652,2.258,2.211,2.211,0,0,0,3.5-.012,3.954,3.954,0,0,0,.648-2.418,3.61,3.61,0,0,0-.66-2.254,2.1,2.1,0,0,0-1.754-.863,2.075,2.075,0,0,0-1.727.852A3.925,3.925,0,0,0,194.414,12.867Zm9.422-4.32.047,1.063a3.08,3.08,0,0,1,2.531-1.219q2.68,0,2.7,3.023V17h-1.445V11.406a1.946,1.946,0,0,0-.418-1.352,1.675,1.675,0,0,0-1.277-.437,2.086,2.086,0,0,0-1.234.375,2.546,2.546,0,0,0-.828.984V17h-1.445V8.547Zm14.93,8.609a3.693,3.693,0,0,1-2.8-1.129,4.19,4.19,0,0,1-1.078-3.02v-.266a5.073,5.073,0,0,1,.48-2.246,3.748,3.748,0,0,1,1.344-1.547,3.378,3.378,0,0,1,1.871-.559,3.166,3.166,0,0,1,2.563,1.086,4.7,4.7,0,0,1,.914,3.109v.6h-5.727a3,3,0,0,0,.73,2.02,2.3,2.3,0,0,0,1.777.77,2.517,2.517,0,0,0,1.3-.312,3.258,3.258,0,0,0,.93-.828l.883.688A3.55,3.55,0,0,1,218.766,17.156Zm-.18-7.578a1.928,1.928,0,0,0-1.469.637A3.1,3.1,0,0,0,216.383,12h4.234v-.109a2.753,2.753,0,0,0-.594-1.707A1.815,1.815,0,0,0,218.586,9.578ZM225.3,17h-1.445V5H225.3ZM.75,36.7a4.968,4.968,0,0,1,.914-3.145,2.923,2.923,0,0,1,2.422-1.168A2.908,2.908,0,0,1,6.5,33.484l.07-.937h1.32V40.8a3.439,3.439,0,0,1-.973,2.586,3.589,3.589,0,0,1-2.613.945,4.348,4.348,0,0,1-1.789-.391,3.08,3.08,0,0,1-1.336-1.07L1.93,42A2.826,2.826,0,0,0,4.2,43.148a2.214,2.214,0,0,0,1.645-.594,2.269,2.269,0,0,0,.59-1.672v-.727a2.971,2.971,0,0,1-2.367,1,2.887,2.887,0,0,1-2.4-1.2A5.224,5.224,0,0,1,.75,36.7Zm1.453.164a3.79,3.79,0,0,0,.586,2.246,1.9,1.9,0,0,0,1.641.816,2.117,2.117,0,0,0,2.008-1.242V34.828a2.142,2.142,0,0,0-1.992-1.211,1.921,1.921,0,0,0-1.648.82A4.128,4.128,0,0,0,2.2,36.867Zm11.953-3.023a4.331,4.331,0,0,0-.711-.055A1.9,1.9,0,0,0,11.516,35v6H10.07V32.547h1.406l.023.977a2.251,2.251,0,0,1,2.016-1.133,1.477,1.477,0,0,1,.641.109Zm.789,2.852a4.993,4.993,0,0,1,.488-2.234,3.643,3.643,0,0,1,1.359-1.531,3.7,3.7,0,0,1,1.988-.539,3.565,3.565,0,0,1,2.793,1.2,4.6,4.6,0,0,1,1.066,3.18v.1a5.036,5.036,0,0,1-.473,2.215,3.589,3.589,0,0,1-1.352,1.527,3.743,3.743,0,0,1-2.02.547,3.556,3.556,0,0,1-2.785-1.2A4.575,4.575,0,0,1,14.945,36.8Zm1.453.172a3.616,3.616,0,0,0,.652,2.258,2.211,2.211,0,0,0,3.5-.012A3.955,3.955,0,0,0,21.2,36.7a3.61,3.61,0,0,0-.66-2.254,2.1,2.1,0,0,0-1.754-.863,2.075,2.075,0,0,0-1.727.852A3.925,3.925,0,0,0,16.4,36.867Zm12.977,1.891a1.064,1.064,0,0,0-.441-.91,4.249,4.249,0,0,0-1.539-.559,7.277,7.277,0,0,1-1.742-.562,2.479,2.479,0,0,1-.953-.781,1.869,1.869,0,0,1-.309-1.078,2.193,2.193,0,0,1,.879-1.758,3.432,3.432,0,0,1,2.246-.719,3.532,3.532,0,0,1,2.332.742,2.357,2.357,0,0,1,.895,1.9H29.289a1.3,1.3,0,0,0-.5-1.023,1.888,1.888,0,0,0-1.27-.43,1.976,1.976,0,0,0-1.234.344,1.082,1.082,0,0,0-.445.9.877.877,0,0,0,.414.789,5.1,5.1,0,0,0,1.5.508A7.8,7.8,0,0,1,29.5,36.7a2.558,2.558,0,0,1,1,.809,1.988,1.988,0,0,1,.324,1.152,2.163,2.163,0,0,1-.906,1.816,3.8,3.8,0,0,1-2.352.684,4.257,4.257,0,0,1-1.8-.359,2.922,2.922,0,0,1-1.223-1A2.42,2.42,0,0,1,24.1,38.4h1.445a1.5,1.5,0,0,0,.582,1.152,2.258,2.258,0,0,0,1.434.426,2.331,2.331,0,0,0,1.316-.332A1.02,1.02,0,0,0,29.375,38.758ZM32.32,36.7a4.993,4.993,0,0,1,.488-2.234,3.643,3.643,0,0,1,1.359-1.531,3.7,3.7,0,0,1,1.988-.539,3.565,3.565,0,0,1,2.793,1.2,4.6,4.6,0,0,1,1.066,3.18v.1a5.036,5.036,0,0,1-.473,2.215,3.589,3.589,0,0,1-1.352,1.527,3.743,3.743,0,0,1-2.02.547,3.556,3.556,0,0,1-2.785-1.2A4.575,4.575,0,0,1,32.32,36.8Zm1.453.172a3.616,3.616,0,0,0,.652,2.258,2.211,2.211,0,0,0,3.5-.012A3.955,3.955,0,0,0,38.57,36.7a3.61,3.61,0,0,0-.66-2.254,2.1,2.1,0,0,0-1.754-.863,2.075,2.075,0,0,0-1.727.852A3.925,3.925,0,0,0,33.773,36.867Zm12.141-3.023a4.331,4.331,0,0,0-.711-.055A1.9,1.9,0,0,0,43.273,35v6H41.828V32.547h1.406l.023.977a2.251,2.251,0,0,1,2.016-1.133,1.477,1.477,0,0,1,.641.109ZM50.852,36.7a4.952,4.952,0,0,1,.922-3.129,3.137,3.137,0,0,1,4.766-.168V29h1.445V41H56.656l-.07-.906a2.943,2.943,0,0,1-2.414,1.063,2.887,2.887,0,0,1-2.395-1.2,5.008,5.008,0,0,1-.926-3.141Zm1.445.164a3.749,3.749,0,0,0,.594,2.25,1.919,1.919,0,0,0,1.641.813A2.108,2.108,0,0,0,56.539,38.7V34.813a2.125,2.125,0,0,0-1.992-1.2,1.929,1.929,0,0,0-1.656.82A4.128,4.128,0,0,0,52.3,36.867Zm11.438,4.289a3.693,3.693,0,0,1-2.8-1.129,4.19,4.19,0,0,1-1.078-3.02v-.266a5.073,5.073,0,0,1,.48-2.246,3.748,3.748,0,0,1,1.344-1.547,3.378,3.378,0,0,1,1.871-.559,3.166,3.166,0,0,1,2.563,1.086,4.7,4.7,0,0,1,.914,3.109v.6H61.3a3,3,0,0,0,.73,2.02,2.3,2.3,0,0,0,1.777.77,2.517,2.517,0,0,0,1.3-.312,3.259,3.259,0,0,0,.93-.828l.883.688A3.55,3.55,0,0,1,63.734,41.156Zm-.18-7.578a1.928,1.928,0,0,0-1.469.637A3.1,3.1,0,0,0,61.352,36h4.234v-.109a2.753,2.753,0,0,0-.594-1.707A1.815,1.815,0,0,0,63.555,33.578ZM74.234,41H72.789V29h1.445Zm7.531,0a3.036,3.036,0,0,1-.2-.891,3.225,3.225,0,0,1-2.406,1.047,2.984,2.984,0,0,1-2.051-.707,2.288,2.288,0,0,1-.8-1.793,2.39,2.39,0,0,1,1-2.051,4.733,4.733,0,0,1,2.824-.73h1.406v-.664A1.623,1.623,0,0,0,81.086,34a1.821,1.821,0,0,0-1.336-.449,2.107,2.107,0,0,0-1.3.391,1.151,1.151,0,0,0-.523.945H76.477a2,2,0,0,1,.449-1.223,3.066,3.066,0,0,1,1.219-.934,4.1,4.1,0,0,1,1.691-.344,3.342,3.342,0,0,1,2.289.73,2.635,2.635,0,0,1,.859,2.012v3.891a4.757,4.757,0,0,0,.3,1.852V41Zm-2.4-1.1a2.54,2.54,0,0,0,1.289-.352,2.127,2.127,0,0,0,.883-.914V36.9H80.406q-2.656,0-2.656,1.555a1.316,1.316,0,0,0,.453,1.063A1.742,1.742,0,0,0,79.367,39.9ZM90.781,41H89.336V29h1.445Zm3.883,0H93.211V32.547h1.453Zm.016-11.992h1.75l-2.094,2.3-1.164,0Zm3.734,3.539.047,1.063a3.08,3.08,0,0,1,2.531-1.219q2.68,0,2.7,3.023V41H102.25V35.406a1.946,1.946,0,0,0-.418-1.352,1.675,1.675,0,0,0-1.277-.437,2.086,2.086,0,0,0-1.234.375,2.546,2.546,0,0,0-.828.984V41H97.047V32.547Zm10.969,8.609a3.693,3.693,0,0,1-2.8-1.129,4.19,4.19,0,0,1-1.078-3.02v-.266a5.073,5.073,0,0,1,.48-2.246,3.748,3.748,0,0,1,1.344-1.547,3.378,3.378,0,0,1,1.871-.559,3.166,3.166,0,0,1,2.563,1.086,4.7,4.7,0,0,1,.914,3.109v.6h-5.727a3,3,0,0,0,.73,2.02,2.3,2.3,0,0,0,1.777.77,2.517,2.517,0,0,0,1.3-.312,3.259,3.259,0,0,0,.93-.828l.883.688A3.55,3.55,0,0,1,109.383,41.156Zm-.18-7.578a1.928,1.928,0,0,0-1.469.637A3.1,3.1,0,0,0,107,36h4.234v-.109a2.753,2.753,0,0,0-.594-1.707A1.815,1.815,0,0,0,109.2,33.578ZM119.57,41a3.036,3.036,0,0,1-.2-.891,3.225,3.225,0,0,1-2.406,1.047,2.984,2.984,0,0,1-2.051-.707,2.288,2.288,0,0,1-.8-1.793,2.39,2.39,0,0,1,1-2.051,4.733,4.733,0,0,1,2.824-.73h1.406v-.664A1.623,1.623,0,0,0,118.891,34a1.821,1.821,0,0,0-1.336-.449,2.107,2.107,0,0,0-1.3.391,1.151,1.151,0,0,0-.523.945h-1.453a2,2,0,0,1,.449-1.223,3.066,3.066,0,0,1,1.219-.934,4.1,4.1,0,0,1,1.691-.344,3.342,3.342,0,0,1,2.289.73,2.635,2.635,0,0,1,.859,2.012v3.891a4.757,4.757,0,0,0,.3,1.852V41Zm-2.4-1.1a2.54,2.54,0,0,0,1.289-.352,2.127,2.127,0,0,0,.883-.914V36.9h-1.133q-2.656,0-2.656,1.555a1.316,1.316,0,0,0,.453,1.063A1.742,1.742,0,0,0,117.172,39.9Zm5.914.344a.905.905,0,0,1,.223-.625.848.848,0,0,1,.668-.25.874.874,0,0,1,.676.25.887.887,0,0,1,.23.625.839.839,0,0,1-.23.6.89.89,0,0,1-.676.242.8.8,0,0,1-.891-.844Z" transform="translate(11382.599 -10050.345)" fill="#12263f"/>
    </g>
    <g id="Grupo_163959" data-name="Grupo 163959" transform="translate(59.585 34)">
      <g id="Background_Complete" data-name="Background Complete" transform="translate(10794.765 -10104.741)">
        <g id="Grupo_161551" data-name="Grupo 161551" transform="translate(0 290.248)">
          <g id="Grupo_161550" data-name="Grupo 161550">
            <g id="Grupo_161525" data-name="Grupo 161525" transform="translate(0.171 0)">
              <g id="Grupo_161524" data-name="Grupo 161524">
                <g id="Grupo_161523" data-name="Grupo 161523">
                  <g id="Grupo_161522" data-name="Grupo 161522">
                    <path id="Trazado_169540" data-name="Trazado 169540" d="M92.989,384.6v38.624H86.54v4.192h6.449v25.851H213.533V429.743H204.6v-5.123h8.929v-7.685H217.5V413.44h-4.713V384.6Z" transform="translate(-86.54 -384.598)" fill="#f5f5f5"/>
                  </g>
                </g>
              </g>
            </g>
            <g id="Grupo_161529" data-name="Grupo 161529" transform="translate(95.152)">
              <g id="Grupo_161528" data-name="Grupo 161528">
                <g id="Grupo_161527" data-name="Grupo 161527">
                  <g id="Grupo_161526" data-name="Grupo 161526">
                    <path id="Trazado_169541" data-name="Trazado 169541" d="M197.956,384.71v68.124h32.011V429.312h-8.929v-4.693l8.929.159v-7.685l4.046.005-.077-3.972-4.713-.116V384.6Z" transform="translate(-197.956 -384.598)" fill="#ebebeb"/>
                  </g>
                </g>
              </g>
            </g>
            <g id="Grupo_161534" data-name="Grupo 161534" transform="translate(0 41.833)">
              <g id="Grupo_161533" data-name="Grupo 161533">
                <g id="Grupo_161532" data-name="Grupo 161532">
                  <g id="Grupo_161531" data-name="Grupo 161531">
                    <g id="Grupo_161530" data-name="Grupo 161530">
                      <path id="Trazado_169542" data-name="Trazado 169542" d="M183.773,434.1c0,.237-21.813.429-48.714.429s-48.719-.192-48.719-.429,21.809-.428,48.719-.428S183.773,433.861,183.773,434.1Z" transform="translate(-86.34 -433.669)" fill="#e0e0e0"/>
                    </g>
                  </g>
                </g>
              </g>
            </g>
            <g id="Grupo_161539" data-name="Grupo 161539" transform="translate(0 37.91)">
              <g id="Grupo_161538" data-name="Grupo 161538">
                <g id="Grupo_161537" data-name="Grupo 161537">
                  <g id="Grupo_161536" data-name="Grupo 161536">
                    <g id="Grupo_161535" data-name="Grupo 161535">
                      <path id="Trazado_169543" data-name="Trazado 169543" d="M183.773,429.495c0,.237-21.813.428-48.714.428s-48.719-.191-48.719-.428,21.809-.428,48.719-.428S183.773,429.259,183.773,429.495Z" transform="translate(-86.34 -429.067)" fill="#e0e0e0"/>
                    </g>
                  </g>
                </g>
              </g>
            </g>
            <g id="Grupo_161544" data-name="Grupo 161544" transform="translate(6.258 27.351)">
              <g id="Grupo_161543" data-name="Grupo 161543">
                <g id="Grupo_161542" data-name="Grupo 161542">
                  <g id="Grupo_161541" data-name="Grupo 161541">
                    <g id="Grupo_161540" data-name="Grupo 161540">
                      <path id="Trazado_169544" data-name="Trazado 169544" d="M191.113,417.109c0,.237-21.813.428-48.714.428s-48.718-.191-48.718-.428,21.808-.428,48.718-.428S191.113,416.873,191.113,417.109Z" transform="translate(-93.681 -416.681)" fill="#e0e0e0"/>
                    </g>
                  </g>
                </g>
              </g>
            </g>
            <g id="Grupo_161549" data-name="Grupo 161549" transform="translate(6.859 56.124)">
              <g id="Grupo_161548" data-name="Grupo 161548">
                <g id="Grupo_161547" data-name="Grupo 161547">
                  <g id="Grupo_161546" data-name="Grupo 161546">
                    <g id="Grupo_161545" data-name="Grupo 161545">
                      <path id="Trazado_169545" data-name="Trazado 169545" d="M191.819,450.861c0,.237-21.814.429-48.714.429s-48.719-.192-48.719-.429,21.809-.428,48.719-.428S191.819,450.625,191.819,450.861Z" transform="translate(-94.386 -450.433)" fill="#e0e0e0"/>
                    </g>
                  </g>
                </g>
              </g>
            </g>
          </g>
        </g>
        <g id="Grupo_161554" data-name="Grupo 161554" transform="translate(235.757 11.853)">
          <g id="Grupo_161553" data-name="Grupo 161553" transform="translate(0)">
            <g id="Grupo_161552" data-name="Grupo 161552">
              <path id="Trazado_169546" data-name="Trazado 169546" d="M387.774,70.713a35.737,35.737,0,0,1,8.722-3.791l1.8-8.633,14.587-.256,2.1,8.564a35.72,35.72,0,0,1,8.851,3.482l7.372-4.832L441.7,75.38l-4.569,7.536a35.721,35.721,0,0,1,3.791,8.724l8.632,1.8.257,14.587-8.565,2.1a35.74,35.74,0,0,1-3.482,8.85l4.832,7.372-10.133,10.5-7.537-4.57a35.714,35.714,0,0,1-8.724,3.79l-1.8,8.634-14.586.256-2.1-8.565a35.8,35.8,0,0,1-8.85-3.482l-7.372,4.832L371,127.6l4.57-7.536a35.682,35.682,0,0,1-3.791-8.724l-8.633-1.8-.256-14.586,8.564-2.1a35.763,35.763,0,0,1,3.482-8.85L370.1,76.639l10.133-10.5,7.538,4.57Zm7.776,19.432a15.65,15.65,0,1,0,22.129-.39A15.65,15.65,0,0,0,395.55,90.145Z" transform="translate(-362.889 -58.033)" fill="#98b9ba"/>
            </g>
          </g>
        </g>
        <g id="Grupo_161557" data-name="Grupo 161557" transform="translate(327.095)">
          <g id="Grupo_161556" data-name="Grupo 161556" transform="translate(0)">
            <g id="Grupo_161555" data-name="Grupo 161555">
              <path id="Trazado_169547" data-name="Trazado 169547" d="M484.55,51.526a20.878,20.878,0,0,1,5.089-2.211l1.048-5.037,8.511-.149,1.224,5a20.844,20.844,0,0,1,5.164,2.031l4.3-2.819,6.123,5.912-2.666,4.4a20.826,20.826,0,0,1,2.211,5.09l5.037,1.048.149,8.51-5,1.225a20.852,20.852,0,0,1-2.031,5.163l2.818,4.3L510.619,90.1l-4.4-2.666a20.829,20.829,0,0,1-5.089,2.211l-1.049,5.037-8.51.149-1.225-5a20.888,20.888,0,0,1-5.163-2.032l-4.3,2.819-6.123-5.912,2.667-4.4a20.856,20.856,0,0,1-2.212-5.089l-5.037-1.048-.149-8.51,5-1.226a20.9,20.9,0,0,1,2.032-5.163l-2.818-4.3,5.911-6.123,4.4,2.666Zm4.536,11.336A9.13,9.13,0,1,0,502,62.636,9.131,9.131,0,0,0,489.086,62.863Z" transform="translate(-470.032 -44.129)" fill="#98b9ba"/>
            </g>
          </g>
        </g>
        <g id="Grupo_161560" data-name="Grupo 161560" transform="translate(449.656 128.186)">
          <g id="Grupo_161559" data-name="Grupo 161559">
            <g id="Grupo_161558" data-name="Grupo 161558">
              <path id="Trazado_169548" data-name="Trazado 169548" d="M633.127,204.343A27.736,27.736,0,0,1,639.9,201.4l1.4-6.7,11.329-.2,1.63,6.651a27.764,27.764,0,0,1,6.875,2.7l5.725-3.753,8.151,7.87-3.548,5.852A27.776,27.776,0,0,1,674.4,220.6l6.7,1.395.2,11.329-6.652,1.631a27.753,27.753,0,0,1-2.7,6.873l3.752,5.726-7.869,8.152-5.853-3.549A27.777,27.777,0,0,1,655.2,255.1l-1.4,6.7-11.328.2-1.631-6.651a27.79,27.79,0,0,1-6.874-2.7L628.25,256.4l-8.152-7.87,3.549-5.853A27.785,27.785,0,0,1,620.7,235.9l-6.7-1.4-.2-11.329,6.652-1.631a27.805,27.805,0,0,1,2.7-6.874l-3.753-5.725,7.869-8.152,5.855,3.55Zm6.039,15.092a12.154,12.154,0,1,0,17.186-.3A12.154,12.154,0,0,0,639.166,219.435Z" transform="translate(-613.799 -194.495)" fill="#98b9ba"/>
            </g>
          </g>
        </g>
      </g>
      <g id="Table" transform="translate(10756.056 -9745.385)">
        <g id="Grupo_161562" data-name="Grupo 161562">
          <g id="Grupo_161561" data-name="Grupo 161561">
            <path id="Trazado_169549" data-name="Trazado 169549" d="M596.8,465.887c0,.123-124.445.223-277.922.223-153.529,0-277.948-.1-277.948-.223s124.419-.222,277.948-.222C472.358,465.665,596.8,465.765,596.8,465.887Z" transform="translate(-40.934 -465.665)" fill="#263238"/>
          </g>
        </g>
      </g>
      <g id="Artboard" transform="translate(10758.952 -10112.131)">
        <g id="Grupo_161682" data-name="Grupo 161682">
          <g id="Grupo_161563" data-name="Grupo 161563">
            <rect id="Rectángulo_38559" data-name="Rectángulo 38559" width="304.699" height="238.422" fill="#fff"/>
          </g>
          <g id="Grupo_161564" data-name="Grupo 161564" transform="translate(0.06)">
            <rect id="Rectángulo_38560" data-name="Rectángulo 38560" width="305.84" height="19.825" fill="#263238"/>
          </g>
          <g id="Grupo_161565" data-name="Grupo 161565" transform="translate(0.06 19.825)">
            <rect id="Rectángulo_38561" data-name="Rectángulo 38561" width="17.014" height="218.597" fill="#455a64"/>
          </g>
          <g id="Grupo_161566" data-name="Grupo 161566" transform="translate(0.06 19.825)">
            <rect id="Rectángulo_38562" data-name="Rectángulo 38562" width="305.84" height="13.139" fill="#455a64"/>
          </g>
          <g id="Grupo_161567" data-name="Grupo 161567" transform="translate(5.876 4.291)">
            <path id="Trazado_169550" data-name="Trazado 169550" d="M51.65,51.218a.426.426,0,0,1-.3-.725l9.707-9.872a.426.426,0,0,1,.608.6l-9.707,9.871A.427.427,0,0,1,51.65,51.218Z" transform="translate(-51.224 -40.494)" fill="#fff"/>
          </g>
          <g id="Grupo_161568" data-name="Grupo 161568" transform="translate(5.794 4.373)">
            <path id="Trazado_169551" data-name="Trazado 169551" d="M61.425,51.151a.423.423,0,0,1-.3-.122l-9.872-9.707a.426.426,0,0,1,.6-.608l9.871,9.707a.426.426,0,0,1-.3.73Z" transform="translate(-51.128 -40.59)" fill="#fff"/>
          </g>
          <g id="Grupo_161570" data-name="Grupo 161570" transform="translate(4.348 32.742)">
            <g id="Grupo_161569" data-name="Grupo 161569">
              <path id="Trazado_169552" data-name="Trazado 169552" d="M349.392,74.09c0,.123-67.154.223-149.973.223-82.848,0-149.987-.1-149.987-.223s67.139-.222,149.987-.222C282.239,73.868,349.392,73.968,349.392,74.09Z" transform="translate(-49.432 -73.868)" fill="#263238"/>
            </g>
          </g>
          <g id="Grupo_161572" data-name="Grupo 161572" transform="translate(16.852 22.239)">
            <g id="Grupo_161571" data-name="Grupo 161571">
              <path id="Trazado_169553" data-name="Trazado 169553" d="M64.321,276.956c-.123,0-.222-48.225-.222-107.7,0-59.495.1-107.709.222-107.709s.222,48.215.222,107.709C64.542,228.732,64.443,276.956,64.321,276.956Z" transform="translate(-64.099 -61.548)" fill="#263238"/>
            </g>
          </g>
          <g id="Grupo_161574" data-name="Grupo 161574" transform="translate(34.327 22.239)">
            <g id="Grupo_161573" data-name="Grupo 161573">
              <path id="Trazado_169554" data-name="Trazado 169554" d="M84.82,72.052A31.255,31.255,0,0,1,84.6,66.8a31.262,31.262,0,0,1,.222-5.252,31.2,31.2,0,0,1,.223,5.252A31.194,31.194,0,0,1,84.82,72.052Z" transform="translate(-84.598 -61.548)" fill="#263238"/>
            </g>
          </g>
          <g id="Grupo_161576" data-name="Grupo 161576" transform="translate(51.789 22.239)">
            <g id="Grupo_161575" data-name="Grupo 161575">
              <path id="Trazado_169555" data-name="Trazado 169555" d="M105.3,72.052a31.2,31.2,0,0,1-.223-5.251,31.2,31.2,0,0,1,.223-5.252,31.262,31.262,0,0,1,.222,5.252A31.256,31.256,0,0,1,105.3,72.052Z" transform="translate(-105.082 -61.548)" fill="#263238"/>
            </g>
          </g>
          <g id="Grupo_161578" data-name="Grupo 161578" transform="translate(69.253 22.239)">
            <g id="Grupo_161577" data-name="Grupo 161577">
              <path id="Trazado_169556" data-name="Trazado 169556" d="M125.789,72.052a31.194,31.194,0,0,1-.223-5.251,31.2,31.2,0,0,1,.223-5.252,31.37,31.37,0,0,1,.222,5.252A31.363,31.363,0,0,1,125.789,72.052Z" transform="translate(-125.567 -61.548)" fill="#263238"/>
            </g>
          </g>
          <g id="Grupo_161580" data-name="Grupo 161580" transform="translate(86.716 22.239)">
            <g id="Grupo_161579" data-name="Grupo 161579">
              <path id="Trazado_169557" data-name="Trazado 169557" d="M146.275,72.052a31.194,31.194,0,0,1-.223-5.251,31.2,31.2,0,0,1,.223-5.252A31.373,31.373,0,0,1,146.5,66.8,31.367,31.367,0,0,1,146.275,72.052Z" transform="translate(-146.052 -61.548)" fill="#263238"/>
            </g>
          </g>
          <g id="Grupo_161582" data-name="Grupo 161582" transform="translate(104.18 22.239)">
            <g id="Grupo_161581" data-name="Grupo 161581">
              <path id="Trazado_169558" data-name="Trazado 169558" d="M166.759,72.052a31.254,31.254,0,0,1-.222-5.251,31.26,31.26,0,0,1,.222-5.252,31.2,31.2,0,0,1,.223,5.252A31.194,31.194,0,0,1,166.759,72.052Z" transform="translate(-166.537 -61.548)" fill="#263238"/>
            </g>
          </g>
          <g id="Grupo_161584" data-name="Grupo 161584" transform="translate(121.643 22.239)">
            <g id="Grupo_161583" data-name="Grupo 161583">
              <path id="Trazado_169559" data-name="Trazado 169559" d="M187.244,72.052a31.251,31.251,0,0,1-.222-5.251,31.257,31.257,0,0,1,.222-5.252,31.264,31.264,0,0,1,.222,5.252A31.258,31.258,0,0,1,187.244,72.052Z" transform="translate(-187.022 -61.548)" fill="#263238"/>
            </g>
          </g>
          <g id="Grupo_161586" data-name="Grupo 161586" transform="translate(139.105 22.239)">
            <g id="Grupo_161585" data-name="Grupo 161585">
              <path id="Trazado_169560" data-name="Trazado 169560" d="M207.729,72.052a31.2,31.2,0,0,1-.223-5.251,31.2,31.2,0,0,1,.223-5.252,31.371,31.371,0,0,1,.222,5.252A31.365,31.365,0,0,1,207.729,72.052Z" transform="translate(-207.506 -61.548)" fill="#263238"/>
            </g>
          </g>
          <g id="Grupo_161588" data-name="Grupo 161588" transform="translate(156.569 22.239)">
            <g id="Grupo_161587" data-name="Grupo 161587" transform="translate(0)">
              <path id="Trazado_169561" data-name="Trazado 169561" d="M228.213,72.052a31.362,31.362,0,0,1-.222-5.251,31.368,31.368,0,0,1,.222-5.252,31.206,31.206,0,0,1,.222,5.252A31.2,31.2,0,0,1,228.213,72.052Z" transform="translate(-227.991 -61.548)" fill="#263238"/>
            </g>
          </g>
          <g id="Grupo_161590" data-name="Grupo 161590" transform="translate(174.032 22.239)">
            <g id="Grupo_161589" data-name="Grupo 161589">
              <path id="Trazado_169562" data-name="Trazado 169562" d="M248.7,72.052a31.25,31.25,0,0,1-.222-5.251,31.256,31.256,0,0,1,.222-5.252,31.205,31.205,0,0,1,.222,5.252A31.2,31.2,0,0,1,248.7,72.052Z" transform="translate(-248.476 -61.548)" fill="#263238"/>
            </g>
          </g>
          <g id="Grupo_161592" data-name="Grupo 161592" transform="translate(191.495 22.239)">
            <g id="Grupo_161591" data-name="Grupo 161591">
              <path id="Trazado_169563" data-name="Trazado 169563" d="M269.183,72.052a31.247,31.247,0,0,1-.222-5.251,31.253,31.253,0,0,1,.222-5.252A31.267,31.267,0,0,1,269.4,66.8,31.261,31.261,0,0,1,269.183,72.052Z" transform="translate(-268.961 -61.548)" fill="#263238"/>
            </g>
          </g>
          <g id="Grupo_161594" data-name="Grupo 161594" transform="translate(208.958 22.239)">
            <g id="Grupo_161593" data-name="Grupo 161593">
              <path id="Trazado_169564" data-name="Trazado 169564" d="M289.667,72.052a31.2,31.2,0,0,1-.223-5.251,31.2,31.2,0,0,1,.223-5.252,31.261,31.261,0,0,1,.222,5.252A31.255,31.255,0,0,1,289.667,72.052Z" transform="translate(-289.445 -61.548)" fill="#263238"/>
            </g>
          </g>
          <g id="Grupo_161596" data-name="Grupo 161596" transform="translate(226.421 22.239)">
            <g id="Grupo_161595" data-name="Grupo 161595">
              <path id="Trazado_169565" data-name="Trazado 169565" d="M310.152,72.052a31.2,31.2,0,0,1-.223-5.251,31.2,31.2,0,0,1,.223-5.252,31.366,31.366,0,0,1,.222,5.252A31.36,31.36,0,0,1,310.152,72.052Z" transform="translate(-309.93 -61.548)" fill="#263238"/>
            </g>
          </g>
          <g id="Grupo_161598" data-name="Grupo 161598" transform="translate(243.885 22.239)">
            <g id="Grupo_161597" data-name="Grupo 161597">
              <path id="Trazado_169566" data-name="Trazado 169566" d="M330.637,72.052a31.257,31.257,0,0,1-.222-5.251,31.263,31.263,0,0,1,.222-5.252,31.2,31.2,0,0,1,.222,5.252A31.2,31.2,0,0,1,330.637,72.052Z" transform="translate(-330.415 -61.548)" fill="#263238"/>
            </g>
          </g>
          <g id="Grupo_161600" data-name="Grupo 161600" transform="translate(261.348 22.239)">
            <g id="Grupo_161599" data-name="Grupo 161599">
              <path id="Trazado_169567" data-name="Trazado 169567" d="M351.122,72.052A31.243,31.243,0,0,1,350.9,66.8a31.249,31.249,0,0,1,.222-5.252,31.259,31.259,0,0,1,.222,5.252A31.253,31.253,0,0,1,351.122,72.052Z" transform="translate(-350.9 -61.548)" fill="#263238"/>
            </g>
          </g>
          <g id="Grupo_161602" data-name="Grupo 161602" transform="translate(278.81 22.239)">
            <g id="Grupo_161601" data-name="Grupo 161601">
              <path id="Trazado_169568" data-name="Trazado 169568" d="M371.606,72.052a31.194,31.194,0,0,1-.223-5.251,31.2,31.2,0,0,1,.223-5.252,31.261,31.261,0,0,1,.222,5.252A31.255,31.255,0,0,1,371.606,72.052Z" transform="translate(-371.384 -61.548)" fill="#263238"/>
            </g>
          </g>
          <g id="Grupo_161604" data-name="Grupo 161604" transform="translate(296.274 22.239)">
            <g id="Grupo_161603" data-name="Grupo 161603">
              <path id="Trazado_169569" data-name="Trazado 169569" d="M392.092,72.052a31.186,31.186,0,0,1-.223-5.251,31.192,31.192,0,0,1,.223-5.252,31.382,31.382,0,0,1,.222,5.252A31.376,31.376,0,0,1,392.092,72.052Z" transform="translate(-391.869 -61.548)" fill="#263238"/>
            </g>
          </g>
          <g id="Grupo_161606" data-name="Grupo 161606" transform="translate(4.348 47.606)">
            <g id="Grupo_161605" data-name="Grupo 161605">
              <path id="Trazado_169570" data-name="Trazado 169570" d="M62.157,91.526a45.709,45.709,0,0,1-6.362.222,45.707,45.707,0,0,1-6.363-.222A45.785,45.785,0,0,1,55.8,91.3,45.787,45.787,0,0,1,62.157,91.526Z" transform="translate(-49.432 -91.304)" fill="#263238"/>
            </g>
          </g>
          <g id="Grupo_161608" data-name="Grupo 161608" transform="translate(4.348 63.698)">
            <g id="Grupo_161607" data-name="Grupo 161607">
              <path id="Trazado_169571" data-name="Trazado 169571" d="M62.157,110.4a45.706,45.706,0,0,1-6.362.223,45.7,45.7,0,0,1-6.363-.223,45.944,45.944,0,0,1,6.363-.222A45.947,45.947,0,0,1,62.157,110.4Z" transform="translate(-49.432 -110.181)" fill="#263238"/>
            </g>
          </g>
          <g id="Grupo_161610" data-name="Grupo 161610" transform="translate(4.348 79.791)">
            <g id="Grupo_161609" data-name="Grupo 161609">
              <path id="Trazado_169572" data-name="Trazado 169572" d="M62.157,129.281a45.792,45.792,0,0,1-6.362.222,45.789,45.789,0,0,1-6.363-.222,45.7,45.7,0,0,1,6.363-.223A45.7,45.7,0,0,1,62.157,129.281Z" transform="translate(-49.432 -129.058)" fill="#263238"/>
            </g>
          </g>
          <g id="Grupo_161612" data-name="Grupo 161612" transform="translate(4.348 95.884)">
            <g id="Grupo_161611" data-name="Grupo 161611">
              <path id="Trazado_169573" data-name="Trazado 169573" d="M62.157,148.158a45.708,45.708,0,0,1-6.362.223,45.705,45.705,0,0,1-6.363-.223,45.786,45.786,0,0,1,6.363-.222A45.789,45.789,0,0,1,62.157,148.158Z" transform="translate(-49.432 -147.936)" fill="#263238"/>
            </g>
          </g>
          <g id="Grupo_161614" data-name="Grupo 161614" transform="translate(4.348 111.977)">
            <g id="Grupo_161613" data-name="Grupo 161613">
              <path id="Trazado_169574" data-name="Trazado 169574" d="M62.157,167.036a45.957,45.957,0,0,1-6.362.222,45.954,45.954,0,0,1-6.363-.222,45.7,45.7,0,0,1,6.363-.222A45.7,45.7,0,0,1,62.157,167.036Z" transform="translate(-49.432 -166.813)" fill="#263238"/>
            </g>
          </g>
          <g id="Grupo_161616" data-name="Grupo 161616" transform="translate(4.348 128.07)">
            <g id="Grupo_161615" data-name="Grupo 161615">
              <path id="Trazado_169575" data-name="Trazado 169575" d="M62.157,185.913a45.788,45.788,0,0,1-6.362.222,45.786,45.786,0,0,1-6.363-.222,45.788,45.788,0,0,1,6.363-.222A45.79,45.79,0,0,1,62.157,185.913Z" transform="translate(-49.432 -185.691)" fill="#263238"/>
            </g>
          </g>
          <g id="Grupo_161618" data-name="Grupo 161618" transform="translate(4.348 144.163)">
            <g id="Grupo_161617" data-name="Grupo 161617">
              <path id="Trazado_169576" data-name="Trazado 169576" d="M62.157,204.79a45.7,45.7,0,0,1-6.362.223,45.7,45.7,0,0,1-6.363-.223,45.792,45.792,0,0,1,6.363-.222A45.794,45.794,0,0,1,62.157,204.79Z" transform="translate(-49.432 -204.568)" fill="#263238"/>
            </g>
          </g>
          <g id="Grupo_161620" data-name="Grupo 161620" transform="translate(4.348 160.255)">
            <g id="Grupo_161619" data-name="Grupo 161619">
              <path id="Trazado_169577" data-name="Trazado 169577" d="M62.157,223.667a45.95,45.95,0,0,1-6.362.222,45.947,45.947,0,0,1-6.363-.222,45.7,45.7,0,0,1,6.363-.222A45.706,45.706,0,0,1,62.157,223.667Z" transform="translate(-49.432 -223.445)" fill="#263238"/>
            </g>
          </g>
          <g id="Grupo_161622" data-name="Grupo 161622" transform="translate(4.348 176.349)">
            <g id="Grupo_161621" data-name="Grupo 161621">
              <path id="Trazado_169578" data-name="Trazado 169578" d="M62.157,242.545a45.789,45.789,0,0,1-6.362.222,45.786,45.786,0,0,1-6.363-.222,45.781,45.781,0,0,1,6.363-.222A45.783,45.783,0,0,1,62.157,242.545Z" transform="translate(-49.432 -242.323)" fill="#263238"/>
            </g>
          </g>
          <g id="Grupo_161624" data-name="Grupo 161624" transform="translate(4.348 192.441)">
            <g id="Grupo_161623" data-name="Grupo 161623">
              <path id="Trazado_169579" data-name="Trazado 169579" d="M62.157,261.422a45.7,45.7,0,0,1-6.362.223,45.7,45.7,0,0,1-6.363-.223A45.94,45.94,0,0,1,55.8,261.2,45.943,45.943,0,0,1,62.157,261.422Z" transform="translate(-49.432 -261.2)" fill="#263238"/>
            </g>
          </g>
          <g id="Grupo_161626" data-name="Grupo 161626" transform="translate(4.348 208.534)">
            <g id="Grupo_161625" data-name="Grupo 161625">
              <path id="Trazado_169580" data-name="Trazado 169580" d="M62.157,280.3a45.963,45.963,0,0,1-6.362.222,45.96,45.96,0,0,1-6.363-.222,45.7,45.7,0,0,1,6.363-.223A45.7,45.7,0,0,1,62.157,280.3Z" transform="translate(-49.432 -280.077)" fill="#263238"/>
            </g>
          </g>
          <g id="Grupo_161628" data-name="Grupo 161628" transform="translate(4.348 224.627)">
            <g id="Grupo_161627" data-name="Grupo 161627">
              <path id="Trazado_169581" data-name="Trazado 169581" d="M62.157,299.177a45.792,45.792,0,0,1-6.362.222,45.789,45.789,0,0,1-6.363-.222,45.789,45.789,0,0,1,6.363-.222A45.791,45.791,0,0,1,62.157,299.177Z" transform="translate(-49.432 -298.955)" fill="#263238"/>
            </g>
          </g>
          <g id="Grupo_161643" data-name="Grupo 161643" transform="translate(32.876 221.141)">
            <g id="Grupo_161642" data-name="Grupo 161642">
              <path id="Trazado_169588" data-name="Trazado 169588" d="M342.479,295.089c0,.122-58.115.222-129.785.222-71.7,0-129.8-.1-129.8-.222s58.1-.223,129.8-.223C284.364,294.866,342.479,294.966,342.479,295.089Z" transform="translate(-82.896 -294.866)" fill="#263238"/>
            </g>
          </g>
          <g id="Grupo_161652" data-name="Grupo 161652" transform="translate(195.099 180.801)">
            <path id="Trazado_169593" data-name="Trazado 169593" d="M273.188,247.546l8.871,20.118,3.088-8.852,7.588-2.783Z" transform="translate(-273.188 -247.546)" fill="#263238"/>
          </g>
          <g id="Grupo_161662" data-name="Grupo 161662" transform="translate(211.757 195.905)">
            <g id="Grupo_161656" data-name="Grupo 161656">
              <g id="Grupo_161653" data-name="Grupo 161653" transform="translate(0.271 0.226)">
                <rect id="Rectángulo_38563" data-name="Rectángulo 38563" width="11.14" height="11.14" fill="#fff"/>
              </g>
              <g id="Grupo_161655" data-name="Grupo 161655">
                <g id="Grupo_161654" data-name="Grupo 161654">
                  <path id="Trazado_169594" data-name="Trazado 169594" d="M304.139,276.628a7.152,7.152,0,0,1-.043-.841q-.019-.88-.05-2.285c-.025-2-.058-4.745-.1-8.014l.192.192-11.139.03c-.049.048.419-.419.221-.22V267l0,1.489q0,1.474-.006,2.88c-.008,1.867-.015,3.631-.022,5.255l-.192-.192,8.014.1,2.285.05a7.172,7.172,0,0,1,.841.043,4.784,4.784,0,0,1-.761.044l-2.241.05-8.137.1-.191,0v-.194c-.007-1.624-.014-3.388-.022-5.255q0-1.4-.006-2.88,0-.737,0-1.489v-1.514c-.2.2.269-.273.222-.224l11.139.031h.194l0,.192c-.039,3.319-.073,6.106-.1,8.137q-.032,1.379-.05,2.241A4.784,4.784,0,0,1,304.139,276.628Z" transform="translate(-292.728 -265.263)" fill="#263238"/>
                </g>
              </g>
            </g>
            <g id="Grupo_161661" data-name="Grupo 161661" transform="translate(1.307 1.262)">
              <g id="Grupo_161658" data-name="Grupo 161658" transform="translate(4.312)">
                <g id="Grupo_161657" data-name="Grupo 161657">
                  <path id="Trazado_169595" data-name="Trazado 169595" d="M299.541,275.811a46.313,46.313,0,0,1,0-9.068,46.478,46.478,0,0,1,0,9.068Z" transform="translate(-299.319 -266.743)" fill="#263238"/>
                </g>
              </g>
              <g id="Grupo_161660" data-name="Grupo 161660" transform="translate(0 4.312)">
                <g id="Grupo_161659" data-name="Grupo 161659">
                  <path id="Trazado_169596" data-name="Trazado 169596" d="M303.329,272.023a46.312,46.312,0,0,1-9.068,0,46.477,46.477,0,0,1,9.068,0Z" transform="translate(-294.261 -271.801)" fill="#263238"/>
                </g>
              </g>
            </g>
          </g>
          <g id="Grupo_161663" data-name="Grupo 161663" transform="translate(293.66 32.964)">
            <rect id="Rectángulo_38564" data-name="Rectángulo 38564" width="12.24" height="205.458" fill="#455a64"/>
          </g>
          <g id="Grupo_161664" data-name="Grupo 161664" transform="translate(293.66 57.127)">
            <rect id="Rectángulo_38565" data-name="Rectángulo 38565" width="12.24" height="42.088" rx="6.12" fill="#263238"/>
          </g>
          <g id="Grupo_161681" data-name="Grupo 161681" transform="translate(0.971 238.38)">
            <g id="Grupo_161680" data-name="Grupo 161680">
              <path id="Trazado_169604" data-name="Trazado 169604" d="M350.4,315.31c0,.123-68.267.222-152.458.222-84.22,0-152.472-.1-152.472-.222s68.252-.223,152.472-.223C282.133,315.087,350.4,315.187,350.4,315.31Z" transform="translate(-45.47 -315.087)" fill="#263238"/>
            </g>
          </g>
        </g>
      </g>
      <g id="Character" transform="translate(10940.369 -10033.108)">
        <g id="Grupo_161957" data-name="Grupo 161957" transform="translate(68.866)">
          <g id="Grupo_161752" data-name="Grupo 161752" transform="translate(0 242.811)">
            <g id="Grupo_161751" data-name="Grupo 161751">
              <g id="Grupo_161750" data-name="Grupo 161750">
                <g id="Grupo_161749" data-name="Grupo 161749">
                  <g id="Grupo_161748" data-name="Grupo 161748">
                    <g id="Grupo_161747" data-name="Grupo 161747">
                      <g id="Grupo_161746" data-name="Grupo 161746">
                        <g id="Grupo_161745" data-name="Grupo 161745">
                          <path id="Trazado_169628" data-name="Trazado 169628" d="M400.82,420.687H390.443s-23.418-8.462-28.233-7.653c-4.337.728-20.214,11.276-23.325,13.364a1.971,1.971,0,0,0-.754.959h0a3.405,3.405,0,0,0,1.894,4.327l.328.136-.142.473a5.638,5.638,0,0,0-.239,1.894,2.289,2.289,0,0,0,4.254.989l-.6,1.063a2.607,2.607,0,0,0-.332,1.422l.054.966a2.6,2.6,0,0,0,1.794,2.332h0a2.594,2.594,0,0,0,2.726-.715c2.014-2.215,6.6-5.452,9.544-5.942,2.616-.436,6.739-1.693,9.372-1.681a3.256,3.256,0,0,1,3.022,2.08h0c-1.747.125-10.753,4.228-15.059,6.5a4.607,4.607,0,0,0-2.5,3.465c-.158,1.348.523,2.76,3.189,2.137,5.721-1.336,12.856-3.827,12.856-3.827s5.311-1.517,8.752.91c4.84,3.414,7.057,4.667,11.213,3.288a35.159,35.159,0,0,0,7.22-3.354l8.188-.818S411.407,423.653,400.82,420.687Z" transform="translate(-337.92 -412.98)" fill="#ffbe9d"/>
                        </g>
                      </g>
                    </g>
                  </g>
                </g>
              </g>
            </g>
          </g>
          <g id="Grupo_161754" data-name="Grupo 161754" transform="translate(22.681 252.843)">
            <g id="Grupo_161753" data-name="Grupo 161753">
              <path id="Trazado_169629" data-name="Trazado 169629" d="M402.531,440.624a3.8,3.8,0,0,1-.551.4,4.338,4.338,0,0,1-.714.424,7.091,7.091,0,0,1-1.033.469,11.3,11.3,0,0,1-7.134.238,11.057,11.057,0,0,1-4.388-2.383l-.507-.463-.461-.525a9.507,9.507,0,0,1-.852-1.149c-.523-.814-.908-1.72-1.472-2.517a3.608,3.608,0,0,0-2.339-1.615,11.385,11.385,0,0,0-3.14.025,18.514,18.514,0,0,1-6.762-.669,19.5,19.5,0,0,1-5.812-2.775A20.218,20.218,0,0,1,365,428.12a1.484,1.484,0,0,1-.391-1.573,1.5,1.5,0,0,1,1.24-1h.014l15.215-.633,4.362-.145,1.16-.022a1.74,1.74,0,0,1,.4.016,1.8,1.8,0,0,1-.4.053l-1.158.087-4.356.263-15.208.793h.014a1.078,1.078,0,0,0-.891.725,1.053,1.053,0,0,0,.292,1.131,19.961,19.961,0,0,0,2.319,1.916,19.211,19.211,0,0,0,5.684,2.7,18.211,18.211,0,0,0,6.6.663,11.669,11.669,0,0,1,3.261-.008,3.843,3.843,0,0,1,1.5.646,4.753,4.753,0,0,1,1.088,1.149c.592.847.971,1.761,1.471,2.547a9.177,9.177,0,0,0,.809,1.109l.439.508.485.451a10.83,10.83,0,0,0,4.231,2.355,11.342,11.342,0,0,0,6.985-.1A16.79,16.79,0,0,0,402.531,440.624Z" transform="translate(-364.525 -424.748)" fill="#eb996e"/>
            </g>
          </g>
          <g id="Grupo_161907" data-name="Grupo 161907" transform="translate(123.563)">
            <g id="Grupo_161759" data-name="Grupo 161759">
              <g id="Grupo_161758" data-name="Grupo 161758">
                <g id="Grupo_161757" data-name="Grupo 161757">
                  <g id="Grupo_161756" data-name="Grupo 161756">
                    <g id="Grupo_161755" data-name="Grupo 161755">
                      <path id="Trazado_169630" data-name="Trazado 169630" d="M537.108,134.064a9.275,9.275,0,0,0-9.98-3.935,12.681,12.681,0,0,0-15.543,1.537,11.28,11.28,0,0,0-16.231,10.547,9.425,9.425,0,0,0-6.945,16.488,9.06,9.06,0,0,0,5.2,17.26l42.652-31.2A9.275,9.275,0,0,0,537.108,134.064Z" transform="translate(-482.862 -128.156)" fill="#263238"/>
                    </g>
                  </g>
                </g>
              </g>
            </g>
            <g id="Grupo_161894" data-name="Grupo 161894" transform="translate(9.539 3.844)">
              <g id="Grupo_161887" data-name="Grupo 161887" transform="translate(0 4.464)">
                <g id="Grupo_161766" data-name="Grupo 161766" transform="translate(0 2.416)">
                  <g id="Grupo_161765" data-name="Grupo 161765">
                    <g id="Grupo_161764" data-name="Grupo 161764">
                      <g id="Grupo_161763" data-name="Grupo 161763">
                        <g id="Grupo_161762" data-name="Grupo 161762">
                          <g id="Grupo_161761" data-name="Grupo 161761">
                            <g id="Grupo_161760" data-name="Grupo 161760">
                              <path id="Trazado_169631" data-name="Trazado 169631" d="M494.053,179.187A38.438,38.438,0,0,1,529.438,140.9l1.984-.159c21.5-.457,33.892,17.543,33.754,39.043l2.586,71.494-2.218,9.194-28.939,23.892-14.538-12.875-4.175-21.065s-20.824-1.558-22.719-22.1C494.258,218.4,494.037,197.819,494.053,179.187Z" transform="translate(-494.052 -140.736)" fill="#ffbe9d"/>
                            </g>
                          </g>
                        </g>
                      </g>
                    </g>
                  </g>
                </g>
                <g id="Grupo_161775" data-name="Grupo 161775" transform="translate(23.667 102.055)">
                  <g id="Grupo_161774" data-name="Grupo 161774">
                    <g id="Grupo_161773" data-name="Grupo 161773">
                      <g id="Grupo_161772" data-name="Grupo 161772">
                        <g id="Grupo_161771" data-name="Grupo 161771">
                          <g id="Grupo_161770" data-name="Grupo 161770">
                            <g id="Grupo_161769" data-name="Grupo 161769">
                              <g id="Grupo_161768" data-name="Grupo 161768">
                                <g id="Grupo_161767" data-name="Grupo 161767">
                                  <path id="Trazado_169632" data-name="Trazado 169632" d="M521.814,267.651a50.037,50.037,0,0,0,26.316-10.036s-5.157,15.306-25.825,15.091Z" transform="translate(-521.814 -257.615)" fill="#eb996e"/>
                                </g>
                              </g>
                            </g>
                          </g>
                        </g>
                      </g>
                    </g>
                  </g>
                </g>
                <g id="Grupo_161787" data-name="Grupo 161787" transform="translate(7.477 56.543)">
                  <g id="Grupo_161786" data-name="Grupo 161786">
                    <g id="Grupo_161785" data-name="Grupo 161785">
                      <g id="Grupo_161784" data-name="Grupo 161784">
                        <g id="Grupo_161783" data-name="Grupo 161783">
                          <g id="Grupo_161782" data-name="Grupo 161782">
                            <g id="Grupo_161781" data-name="Grupo 161781">
                              <g id="Grupo_161780" data-name="Grupo 161780">
                                <g id="Grupo_161779" data-name="Grupo 161779">
                                  <g id="Grupo_161778" data-name="Grupo 161778">
                                    <g id="Grupo_161777" data-name="Grupo 161777">
                                      <g id="Grupo_161776" data-name="Grupo 161776">
                                        <path id="Trazado_169633" data-name="Trazado 169633" d="M502.826,207.121a2.945,2.945,0,0,0,3.068,2.736,2.818,2.818,0,0,0,2.816-2.889,2.948,2.948,0,0,0-3.066-2.739A2.82,2.82,0,0,0,502.826,207.121Z" transform="translate(-502.823 -204.229)" fill="#263238"/>
                                      </g>
                                    </g>
                                  </g>
                                </g>
                              </g>
                            </g>
                          </g>
                        </g>
                      </g>
                    </g>
                  </g>
                </g>
                <g id="Grupo_161800" data-name="Grupo 161800" transform="translate(5.019 48.068)">
                  <g id="Grupo_161799" data-name="Grupo 161799">
                    <g id="Grupo_161798" data-name="Grupo 161798">
                      <g id="Grupo_161797" data-name="Grupo 161797">
                        <g id="Grupo_161796" data-name="Grupo 161796">
                          <g id="Grupo_161795" data-name="Grupo 161795">
                            <g id="Grupo_161794" data-name="Grupo 161794">
                              <g id="Grupo_161793" data-name="Grupo 161793">
                                <g id="Grupo_161792" data-name="Grupo 161792">
                                  <g id="Grupo_161791" data-name="Grupo 161791">
                                    <g id="Grupo_161790" data-name="Grupo 161790">
                                      <g id="Grupo_161789" data-name="Grupo 161789">
                                        <g id="Grupo_161788" data-name="Grupo 161788">
                                          <path id="Trazado_169634" data-name="Trazado 169634" d="M500,197.857c.394.354,2.487-1.471,5.649-1.714,3.153-.289,5.6,1.152,5.914.737.155-.185-.271-.847-1.339-1.5a8.083,8.083,0,0,0-4.773-1.064,7.763,7.763,0,0,0-4.458,1.842C500.078,196.981,499.8,197.7,500,197.857Z" transform="translate(-499.94 -194.287)" fill="#263238"/>
                                        </g>
                                      </g>
                                    </g>
                                  </g>
                                </g>
                              </g>
                            </g>
                          </g>
                        </g>
                      </g>
                    </g>
                  </g>
                </g>
                <g id="Grupo_161812" data-name="Grupo 161812" transform="translate(34.669 55.736)">
                  <g id="Grupo_161811" data-name="Grupo 161811">
                    <g id="Grupo_161810" data-name="Grupo 161810">
                      <g id="Grupo_161809" data-name="Grupo 161809">
                        <g id="Grupo_161808" data-name="Grupo 161808">
                          <g id="Grupo_161807" data-name="Grupo 161807">
                            <g id="Grupo_161806" data-name="Grupo 161806">
                              <g id="Grupo_161805" data-name="Grupo 161805">
                                <g id="Grupo_161804" data-name="Grupo 161804">
                                  <g id="Grupo_161803" data-name="Grupo 161803">
                                    <g id="Grupo_161802" data-name="Grupo 161802">
                                      <g id="Grupo_161801" data-name="Grupo 161801">
                                        <path id="Trazado_169635" data-name="Trazado 169635" d="M534.723,206.174a2.945,2.945,0,0,0,3.068,2.736,2.817,2.817,0,0,0,2.816-2.89,2.948,2.948,0,0,0-3.066-2.738A2.819,2.819,0,0,0,534.723,206.174Z" transform="translate(-534.72 -203.282)" fill="#263238"/>
                                      </g>
                                    </g>
                                  </g>
                                </g>
                              </g>
                            </g>
                          </g>
                        </g>
                      </g>
                    </g>
                  </g>
                </g>
                <g id="Grupo_161825" data-name="Grupo 161825" transform="translate(35.218 45.217)">
                  <g id="Grupo_161824" data-name="Grupo 161824">
                    <g id="Grupo_161823" data-name="Grupo 161823">
                      <g id="Grupo_161822" data-name="Grupo 161822">
                        <g id="Grupo_161821" data-name="Grupo 161821">
                          <g id="Grupo_161820" data-name="Grupo 161820">
                            <g id="Grupo_161819" data-name="Grupo 161819">
                              <g id="Grupo_161818" data-name="Grupo 161818">
                                <g id="Grupo_161817" data-name="Grupo 161817">
                                  <g id="Grupo_161816" data-name="Grupo 161816">
                                    <g id="Grupo_161815" data-name="Grupo 161815">
                                      <g id="Grupo_161814" data-name="Grupo 161814">
                                        <g id="Grupo_161813" data-name="Grupo 161813">
                                          <path id="Trazado_169636" data-name="Trazado 169636" d="M535.421,194.512c.395.354,2.491-1.47,5.65-1.714,3.153-.288,5.6,1.152,5.915.737.154-.185-.268-.846-1.341-1.5a8.072,8.072,0,0,0-4.772-1.065,7.768,7.768,0,0,0-4.459,1.842C535.5,193.636,535.229,194.355,535.421,194.512Z" transform="translate(-535.363 -190.942)" fill="#263238"/>
                                        </g>
                                      </g>
                                    </g>
                                  </g>
                                </g>
                              </g>
                            </g>
                          </g>
                        </g>
                      </g>
                    </g>
                  </g>
                </g>
                <g id="Grupo_161837" data-name="Grupo 161837" transform="translate(18.491 46.591)">
                  <g id="Grupo_161836" data-name="Grupo 161836">
                    <g id="Grupo_161835" data-name="Grupo 161835">
                      <g id="Grupo_161834" data-name="Grupo 161834">
                        <g id="Grupo_161833" data-name="Grupo 161833">
                          <g id="Grupo_161832" data-name="Grupo 161832">
                            <g id="Grupo_161831" data-name="Grupo 161831">
                              <g id="Grupo_161830" data-name="Grupo 161830">
                                <g id="Grupo_161829" data-name="Grupo 161829">
                                  <g id="Grupo_161828" data-name="Grupo 161828">
                                    <g id="Grupo_161827" data-name="Grupo 161827">
                                      <g id="Grupo_161826" data-name="Grupo 161826">
                                        <path id="Trazado_169637" data-name="Trazado 169637" d="M523.987,219c0-.182-1.99-.364-5.206-.517-.813-.018-1.59-.118-1.77-.658a4.116,4.116,0,0,1,.348-2.435q.9-3.019,1.9-6.335c2.616-9.013,4.441-16.4,4.078-16.5s-2.78,7.121-5.4,16.134q-.939,3.331-1.794,6.364a4.69,4.69,0,0,0-.165,3.2,2.032,2.032,0,0,0,1.42,1.074,5.5,5.5,0,0,0,1.386.081C522,219.326,523.988,219.182,523.987,219Z" transform="translate(-515.743 -192.555)" fill="#263238"/>
                                      </g>
                                    </g>
                                  </g>
                                </g>
                              </g>
                            </g>
                          </g>
                        </g>
                      </g>
                    </g>
                  </g>
                </g>
                <g id="Grupo_161849" data-name="Grupo 161849" transform="translate(26.807 74.481)">
                  <g id="Grupo_161848" data-name="Grupo 161848">
                    <g id="Grupo_161847" data-name="Grupo 161847">
                      <g id="Grupo_161846" data-name="Grupo 161846">
                        <g id="Grupo_161845" data-name="Grupo 161845">
                          <g id="Grupo_161844" data-name="Grupo 161844">
                            <g id="Grupo_161843" data-name="Grupo 161843">
                              <g id="Grupo_161842" data-name="Grupo 161842">
                                <g id="Grupo_161841" data-name="Grupo 161841">
                                  <g id="Grupo_161840" data-name="Grupo 161840">
                                    <g id="Grupo_161839" data-name="Grupo 161839">
                                      <g id="Grupo_161838" data-name="Grupo 161838">
                                        <path id="Trazado_169638" data-name="Trazado 169638" d="M534.9,225.272c-.517.01-.25,3.442-2.991,6.11s-6.424,2.583-6.412,3.065c-.031.219.867.6,2.414.52a8.569,8.569,0,0,0,5.367-2.363,7.465,7.465,0,0,0,2.288-5.106C535.584,226.051,535.134,225.233,534.9,225.272Z" transform="translate(-525.497 -225.27)" fill="#263238"/>
                                      </g>
                                    </g>
                                  </g>
                                </g>
                              </g>
                            </g>
                          </g>
                        </g>
                      </g>
                    </g>
                  </g>
                </g>
                <g id="Grupo_161857" data-name="Grupo 161857" transform="translate(34.47 36.164)">
                  <g id="Grupo_161856" data-name="Grupo 161856">
                    <g id="Grupo_161855" data-name="Grupo 161855">
                      <g id="Grupo_161854" data-name="Grupo 161854">
                        <g id="Grupo_161853" data-name="Grupo 161853">
                          <g id="Grupo_161852" data-name="Grupo 161852">
                            <g id="Grupo_161851" data-name="Grupo 161851">
                              <g id="Grupo_161850" data-name="Grupo 161850">
                                <path id="Trazado_169639" data-name="Trazado 169639" d="M534.531,183.922c.441.79,3.1-.163,6.416-.373,3.306-.285,6.12.259,6.4-.585.117-.4-.5-1.1-1.712-1.711a9.9,9.9,0,0,0-5.009-.9,9.516,9.516,0,0,0-4.75,1.632C534.8,182.76,534.333,183.545,534.531,183.922Z" transform="translate(-534.487 -180.324)" fill="#263238"/>
                              </g>
                            </g>
                          </g>
                        </g>
                      </g>
                    </g>
                  </g>
                </g>
                <g id="Grupo_161865" data-name="Grupo 161865" transform="translate(5.022 39.645)">
                  <g id="Grupo_161864" data-name="Grupo 161864">
                    <g id="Grupo_161863" data-name="Grupo 161863">
                      <g id="Grupo_161862" data-name="Grupo 161862">
                        <g id="Grupo_161861" data-name="Grupo 161861">
                          <g id="Grupo_161860" data-name="Grupo 161860">
                            <g id="Grupo_161859" data-name="Grupo 161859">
                              <g id="Grupo_161858" data-name="Grupo 161858">
                                <path id="Trazado_169640" data-name="Trazado 169640" d="M500.024,187.676c.556.721,2.741-.021,5.367-.049,2.626-.12,4.85.5,5.362-.256.226-.365-.122-1.087-1.092-1.771a7.776,7.776,0,0,0-8.647.246C500.085,186.583,499.778,187.324,500.024,187.676Z" transform="translate(-499.943 -184.406)" fill="#263238"/>
                              </g>
                            </g>
                          </g>
                        </g>
                      </g>
                    </g>
                  </g>
                </g>
                <g id="Grupo_161872" data-name="Grupo 161872" transform="translate(1.044)">
                  <g id="Grupo_161871" data-name="Grupo 161871">
                    <g id="Grupo_161870" data-name="Grupo 161870">
                      <g id="Grupo_161869" data-name="Grupo 161869">
                        <g id="Grupo_161868" data-name="Grupo 161868">
                          <g id="Grupo_161867" data-name="Grupo 161867">
                            <g id="Grupo_161866" data-name="Grupo 161866">
                              <path id="Trazado_169641" data-name="Trazado 169641" d="M495.459,169.179s4.4-13.311,10.366-16.811c7.228-4.238,11.123,3.755,18.127,1.182s13.9-6.638,21.667-1.684c8.5,5.422,5.082,9.974,6.305,19.06,4.959,36.833,12.549,46.756,13.081,29.177.058-1.926,5.234-3.867,5.377-11.995.183-10.54-.428-23.271-3.354-30.507-2.467-6.1-6.378-10.137-13.155-14.392-10.7-6.717-24.579-5.772-33.923-4.072S493.315,153.122,495.459,169.179Z" transform="translate(-495.277 -137.902)" fill="#263238"/>
                            </g>
                          </g>
                        </g>
                      </g>
                    </g>
                  </g>
                </g>
                <g id="Grupo_161879" data-name="Grupo 161879" transform="translate(69.413 55.886)">
                  <g id="Grupo_161878" data-name="Grupo 161878">
                    <g id="Grupo_161877" data-name="Grupo 161877">
                      <g id="Grupo_161876" data-name="Grupo 161876">
                        <g id="Grupo_161875" data-name="Grupo 161875">
                          <g id="Grupo_161874" data-name="Grupo 161874">
                            <g id="Grupo_161873" data-name="Grupo 161873">
                              <path id="Trazado_169642" data-name="Trazado 169642" d="M575.479,209.318a5.6,5.6,0,0,1,5.6-5.86c3.864.059,8.306,1.9,8.685,9.842.673,14.094-13.617,11.862-13.66,11.459C576.072,224.485,575.709,215.219,575.479,209.318Z" transform="translate(-575.475 -203.457)" fill="#ffbe9d"/>
                            </g>
                          </g>
                        </g>
                      </g>
                    </g>
                  </g>
                </g>
                <g id="Grupo_161886" data-name="Grupo 161886" transform="translate(72.841 60.459)">
                  <g id="Grupo_161885" data-name="Grupo 161885">
                    <g id="Grupo_161884" data-name="Grupo 161884">
                      <g id="Grupo_161883" data-name="Grupo 161883">
                        <g id="Grupo_161882" data-name="Grupo 161882">
                          <g id="Grupo_161881" data-name="Grupo 161881">
                            <g id="Grupo_161880" data-name="Grupo 161880">
                              <path id="Trazado_169643" data-name="Trazado 169643" d="M579.508,220.1c.06-.049.254.16.678.331a2.46,2.46,0,0,0,1.837-.05c1.463-.617,2.6-3.041,2.552-5.586a8.125,8.125,0,0,0-.855-3.482,2.842,2.842,0,0,0-1.937-1.8,1.25,1.25,0,0,0-1.417.743c-.17.4-.067.679-.141.708-.038.037-.314-.222-.228-.809a1.57,1.57,0,0,1,.512-.91,1.856,1.856,0,0,1,1.341-.424,3.456,3.456,0,0,1,2.669,2.063,8.343,8.343,0,0,1,1.038,3.887c.046,2.845-1.281,5.572-3.291,6.258a2.635,2.635,0,0,1-2.264-.265C579.55,220.441,579.461,220.129,579.508,220.1Z" transform="translate(-579.497 -208.821)" fill="#eb996e"/>
                            </g>
                          </g>
                        </g>
                      </g>
                    </g>
                  </g>
                </g>
              </g>
              <g id="Grupo_161893" data-name="Grupo 161893" transform="translate(9.22)">
                <g id="Grupo_161892" data-name="Grupo 161892">
                  <g id="Grupo_161891" data-name="Grupo 161891">
                    <g id="Grupo_161890" data-name="Grupo 161890">
                      <g id="Grupo_161889" data-name="Grupo 161889">
                        <g id="Grupo_161888" data-name="Grupo 161888">
                          <path id="Trazado_169644" data-name="Trazado 169644" d="M562.616,171.658c-1.726,1.392-3.552,2.831-5.736,3.224s-4.8-.669-5.344-2.819c-.245-.965-.1-2.119-.8-2.825-.84-.841-2.234-.445-3.4-.226a9,9,0,0,1-9.828-5.691c-.917,1.644-3.356,1.771-5.015.879s-2.807-2.474-4.155-3.789-3.181-2.442-5.018-2.03c-1.028.231-1.951.928-3,.917-1.86-.016-2.933-2.107-3.359-3.916s-.814-3.931-2.457-4.8c-1.523-.808-3.358-.124-5.038.262s-3.905.162-4.473-1.465a3.346,3.346,0,0,1,.425-2.6,9.135,9.135,0,0,1,10.474-4.3,12.381,12.381,0,0,1,22.485-4.2,12.565,12.565,0,0,1,20.386,2.969,9.107,9.107,0,0,1,11.29,12.389c2.643,1.242,5.007,3.58,5.29,6.487s-2.319,6.031-5.187,5.49a5.044,5.044,0,0,1-8.3,5.708" transform="translate(-504.867 -132.666)" fill="#263238"/>
                        </g>
                      </g>
                    </g>
                  </g>
                </g>
              </g>
            </g>
            <g id="Grupo_161900" data-name="Grupo 161900" transform="translate(64.612 36.67)">
              <g id="Grupo_161899" data-name="Grupo 161899">
                <g id="Grupo_161898" data-name="Grupo 161898">
                  <g id="Grupo_161897" data-name="Grupo 161897">
                    <g id="Grupo_161896" data-name="Grupo 161896">
                      <g id="Grupo_161895" data-name="Grupo 161895">
                        <path id="Trazado_169645" data-name="Trazado 169645" d="M579.111,171.172a3.376,3.376,0,0,1-.66,2.772,4.534,4.534,0,0,1-2.684,1.905,4.888,4.888,0,0,1-4.1-.846l.587-.136a14.068,14.068,0,0,1-2.527,3.73,8.086,8.086,0,0,1-2.435,1.8,6.263,6.263,0,0,1-7.052-1.514,8.155,8.155,0,0,1-1.371-2.835,2.8,2.8,0,0,1-.2-1.128c.06-.018.21.359.5,1.021a9.478,9.478,0,0,0,1.512,2.57c1.493,1.91,5.917,2.594,8.464-.476a14.165,14.165,0,0,0,2.414-3.5l.215-.434.373.3a4.284,4.284,0,0,0,3.476.81,4.158,4.158,0,0,0,2.438-1.544A6.856,6.856,0,0,0,579.111,171.172Z" transform="translate(-558.653 -171.171)" fill="#455a64"/>
                      </g>
                    </g>
                  </g>
                </g>
              </g>
            </g>
            <g id="Grupo_161906" data-name="Grupo 161906" transform="translate(19.411 2.638)">
              <g id="Grupo_161905" data-name="Grupo 161905">
                <g id="Grupo_161904" data-name="Grupo 161904">
                  <g id="Grupo_161903" data-name="Grupo 161903">
                    <g id="Grupo_161902" data-name="Grupo 161902">
                      <g id="Grupo_161901" data-name="Grupo 161901">
                        <path id="Trazado_169646" data-name="Trazado 169646" d="M542.163,135.293c.011.048-.359.128-.966.443a4.857,4.857,0,0,0-2.036,2.031l-.147.281-.215-.245a17.574,17.574,0,0,0-7.237-4.962,13.709,13.709,0,0,0-5.632-.773,11.462,11.462,0,0,0-5.818,2.176,11.638,11.638,0,0,0-3.277,3.644,9.544,9.544,0,0,0-1.208,4.362l-.009.448-.436-.084a7.915,7.915,0,0,0-5.787,1.177,7.728,7.728,0,0,0-2.923,3.68,10.547,10.547,0,0,0-.544,4.235,2.874,2.874,0,0,1-.262-1.136,7.835,7.835,0,0,1,.378-3.251,8.02,8.02,0,0,1,3-4.046,8.474,8.474,0,0,1,6.28-1.395l-.444.365a10.175,10.175,0,0,1,1.261-4.742,12.261,12.261,0,0,1,3.5-3.916,12.082,12.082,0,0,1,6.234-2.3,14.153,14.153,0,0,1,5.934.889,17.154,17.154,0,0,1,7.333,5.347l-.362.036a4.788,4.788,0,0,1,2.324-2.031A2.112,2.112,0,0,1,542.163,135.293Z" transform="translate(-505.632 -131.251)" fill="#455a64"/>
                      </g>
                    </g>
                  </g>
                </g>
              </g>
            </g>
          </g>
          <g id="Grupo_161936" data-name="Grupo 161936" transform="translate(58.346 115.163)">
            <g id="Grupo_161913" data-name="Grupo 161913" transform="translate(0 8.023)">
              <g id="Grupo_161908" data-name="Grupo 161908">
                <path id="Trazado_169647" data-name="Trazado 169647" d="M605.773,354.783c-.77,0-2.39-66.026-2.39-66.026l-45.088-16.1-34.624,31.17-17.653-27.791-15.52,7.137c-1.961.9-10.558,4.343-12.274,5.653-4.922,3.759-15.214,12.758-18.12,23.733-4.435,16.751-11.393,72.467-11.393,72.467l-42.35,14.963.921,27.246,41.443,6.487c10-.361,22.109-4.584,26.01-11.525v14.556H602.064S606.544,354.783,605.773,354.783Z" transform="translate(-406.361 -272.657)" fill="#ff725e"/>
              </g>
              <g id="Grupo_161910" data-name="Grupo 161910" transform="translate(67.943 57.02)">
                <g id="Grupo_161909" data-name="Grupo 161909">
                  <path id="Trazado_169648" data-name="Trazado 169648" d="M488.02,339.543a1.269,1.269,0,0,1,.016.274c0,.205,0,.47,0,.8-.009.735-.021,1.769-.037,3.085-.048,2.679-.165,6.556-.375,11.342s-.512,10.482-.739,16.81-.317,13.286-.358,20.594c-.073,14.62-.033,27.855-.031,37.436,0,4.768,0,8.637,0,11.345-.009,1.316-.014,2.35-.019,3.085-.007.332-.012.6-.016.8a1.261,1.261,0,0,1-.02.274,1.244,1.244,0,0,1-.025-.274c-.008-.2-.017-.469-.028-.8-.015-.734-.037-1.767-.065-3.083-.032-2.709-.08-6.577-.138-11.345-.084-9.58-.173-22.816-.1-37.44.041-7.308.134-14.276.393-20.607s.589-12.025.835-16.809.415-8.655.517-11.332c.05-1.315.09-2.348.119-3.082.016-.333.03-.6.04-.8A1.284,1.284,0,0,1,488.02,339.543Z" transform="translate(-486.06 -339.543)" fill="#263238"/>
                </g>
              </g>
              <g id="Grupo_161912" data-name="Grupo 161912" transform="translate(63.439 63.287)" opacity="0.3">
                <g id="Grupo_161911" data-name="Grupo 161911">
                  <path id="Trazado_169649" data-name="Trazado 169649" d="M487.241,346.894c-7.224,27.23-9.137,56.732-1.886,83.954C485.5,400.536,485.321,372.159,487.241,346.894Z" transform="translate(-480.777 -346.894)"/>
                </g>
              </g>
            </g>
            <g id="Grupo_161924" data-name="Grupo 161924" transform="translate(172.32 23.104)">
              <g id="Grupo_161915" data-name="Grupo 161915" transform="translate(3.626 48.909)" opacity="0.3">
                <g id="Grupo_161914" data-name="Grupo 161914">
                  <path id="Trazado_169650" data-name="Trazado 169650" d="M612.75,349.844l7.915,50.995a3.473,3.473,0,0,0,.556,1.653c.843,1.073,2.51.8,3.821.416,3.191-.928,8.21-1.269,9.934-4.111l.418-7.262c-.466-2.2-2.6-4.311-3.594-6.325L613.25,347.72" transform="translate(-612.75 -347.72)"/>
                </g>
              </g>
              <g id="Grupo_161919" data-name="Grupo 161919" transform="translate(3.739 0.898)">
                <g id="Grupo_161916" data-name="Grupo 161916">
                  <path id="Trazado_169651" data-name="Trazado 169651" d="M633.507,291.4s14.724,8.287,20.181,19.951c6.655,14.224,36.125,65.488,37.213,78.277,1.09,12.814.644,27.4-21.17,31.764s-44.59,4.063-44.59,4.063l-8.9-26.5,25.007-12.918-6.233-5.475a14.6,14.6,0,0,1-3.325-4.244L612.882,340.1" transform="translate(-612.882 -291.401)" fill="#ff725e"/>
                </g>
                <g id="Grupo_161918" data-name="Grupo 161918">
                  <g id="Grupo_161917" data-name="Grupo 161917">
                    <path id="Trazado_169652" data-name="Trazado 169652" d="M612.882,340.1s.165.283.467.847l1.328,2.5,5.055,9.636c2.187,4.187,4.857,9.3,7.95,15.223l2.4,4.6q.618,1.187,1.256,2.41a21.142,21.142,0,0,0,1.375,2.415,14.506,14.506,0,0,0,1.828,2.179c.69.663,1.459,1.3,2.2,1.96l4.62,4.048.185.162-.218.112-24.994,12.943.1-.236c2.777,8.253,5.778,17.174,8.912,26.491l-.2-.144c7.233.014,14.789-.334,22.537-1.015,3.875-.336,7.8-.771,11.753-1.335s7.956-1.182,11.908-2.122l1.965-.477c.648-.181,1.274-.425,1.91-.634.629-.229,1.278-.409,1.888-.677l1.812-.841c.3-.142.606-.275.9-.425l.846-.521c.56-.351,1.133-.682,1.68-1.048a22.07,22.07,0,0,0,2.945-2.6,18.194,18.194,0,0,0,4.055-6.566,28.385,28.385,0,0,0,1.547-7.5,59.949,59.949,0,0,0-.034-7.57,23.46,23.46,0,0,0-1.33-7.259c-.742-2.337-1.632-4.6-2.551-6.823s-1.887-4.395-2.855-6.534c-3.926-8.539-8-16.5-11.836-23.923s-7.512-14.3-10.832-20.588l-4.7-8.99c-.732-1.426-1.44-2.812-2.1-4.168l-.969-2.008c-.322-.655-.663-1.28-.985-1.906a38.263,38.263,0,0,0-4.565-6.364,58.357,58.357,0,0,0-4.691-4.646,71.258,71.258,0,0,0-7.244-5.578c-.867-.585-1.542-1.011-2-1.3s-.686-.433-.686-.433.246.124.71.394,1.146.687,2.022,1.262a67.778,67.778,0,0,1,7.308,5.522,57.894,57.894,0,0,1,4.736,4.636,38.28,38.28,0,0,1,4.624,6.383c.327.629.676,1.263,1,1.918l.974,2c.669,1.35,1.382,2.734,2.118,4.156l4.73,8.973c3.338,6.279,7.016,13.146,10.881,20.564s7.94,15.376,11.882,23.923c.973,2.142,1.951,4.315,2.868,6.546s1.82,4.5,2.57,6.854a23.856,23.856,0,0,1,1.355,7.36,60.076,60.076,0,0,1,.038,7.63,28.762,28.762,0,0,1-1.569,7.615,18.63,18.63,0,0,1-4.146,6.717,22.564,22.564,0,0,1-3.009,2.656c-.557.373-1.141.711-1.712,1.068l-.861.53c-.3.153-.61.287-.915.432l-1.84.854c-.62.272-1.274.454-1.912.685-.644.212-1.279.46-1.933.643l-1.984.483c-3.986.946-7.987,1.562-11.949,2.128s-7.893,1-11.776,1.334c-7.765.679-15.324,1.022-22.581,1h-.15l-.049-.144c-3.124-9.32-6.114-18.246-8.88-26.5l-.053-.159.148-.077,25.019-12.894-.033.275-4.61-4.06c-.746-.668-1.5-1.291-2.21-1.978a14.733,14.733,0,0,1-1.86-2.23,21.4,21.4,0,0,1-1.385-2.45l-1.249-2.413-2.381-4.606-7.88-15.26-4.975-9.677q-.841-1.655-1.285-2.527C613.018,340.395,612.882,340.1,612.882,340.1Z" transform="translate(-612.882 -291.401)" fill="#263238"/>
                  </g>
                </g>
              </g>
              <g id="Grupo_161921" data-name="Grupo 161921">
                <g id="Grupo_161920" data-name="Grupo 161920">
                  <path id="Trazado_169653" data-name="Trazado 169653" d="M626.154,290.35a14.135,14.135,0,0,1-1.365.88,36.214,36.214,0,0,0-3.575,2.579,33.477,33.477,0,0,0-12.4,25.262,36.063,36.063,0,0,0,.146,4.406,14.2,14.2,0,0,1,.139,1.617,1.487,1.487,0,0,1-.106-.408c-.049-.271-.141-.668-.2-1.189a29.731,29.731,0,0,1-.288-4.43,32.573,32.573,0,0,1,12.521-25.5,29.578,29.578,0,0,1,3.683-2.482c.45-.268.822-.438,1.066-.566A1.546,1.546,0,0,1,626.154,290.35Z" transform="translate(-608.497 -290.348)" fill="#263238"/>
                </g>
              </g>
              <g id="Grupo_161923" data-name="Grupo 161923" transform="translate(32.108 84.818)">
                <g id="Grupo_161922" data-name="Grupo 161922">
                  <path id="Trazado_169654" data-name="Trazado 169654" d="M672.723,389.85a5.5,5.5,0,0,1-1.092.314l-2.995.751a85.382,85.382,0,0,0-9.672,3.12,72.314,72.314,0,0,0-9.157,4.4c-1.13.647-2.036,1.188-2.654,1.573a5.693,5.693,0,0,1-.992.554,5.481,5.481,0,0,1,.9-.7c.592-.431,1.475-1.014,2.59-1.7a60.247,60.247,0,0,1,9.152-4.543,68.941,68.941,0,0,1,9.761-3.013c1.275-.29,2.313-.5,3.034-.615A5.6,5.6,0,0,1,672.723,389.85Z" transform="translate(-646.16 -389.841)" fill="#263238"/>
                </g>
              </g>
            </g>
            <g id="Grupo_161933" data-name="Grupo 161933" transform="translate(92.61)">
              <g id="Grupo_161926" data-name="Grupo 161926" transform="translate(24.838 9.548)" opacity="0.3">
                <g id="Grupo_161925" data-name="Grupo 161925">
                  <path id="Trazado_169655" data-name="Trazado 169655" d="M577.35,274.48a8.041,8.041,0,0,0-3.584,1.781,173.436,173.436,0,0,0-28.2,26l-1.435,2.654c3.175-2.1,6.809-4.3,10.536-3.52,3.185.667,5.5,3.338,7.568,5.852a265.027,265.027,0,0,0,20.853-30.356C581.4,275.586,579.464,274.212,577.35,274.48Z" transform="translate(-544.131 -274.446)"/>
                </g>
              </g>
              <g id="Grupo_161927" data-name="Grupo 161927" transform="translate(24.699 0.268)">
                <path id="Trazado_169656" data-name="Trazado 169656" d="M543.968,302.485l12.72-16.087,19.13-22.838,10.159,9.536-17.81,27.586-12.651-7.612Z" transform="translate(-543.968 -263.561)" fill="#fff"/>
              </g>
              <g id="Grupo_161929" data-name="Grupo 161929" transform="translate(1.594 15.541)" opacity="0.3">
                <g id="Grupo_161928" data-name="Grupo 161928">
                  <path id="Trazado_169657" data-name="Trazado 169657" d="M517.025,284.328c1.693,9.057,5.89,16.6,7.583,25.659,2.021-2.639,1.539-3.77,3.56-6.409a7.268,7.268,0,0,1,2.95-2.64c2.182-.834,4.576.425,6.551,1.635a73.957,73.957,0,0,0-10.169-9.321l-.153.73q-5.107-6.351-10.483-12.505" transform="translate(-516.865 -281.476)"/>
                </g>
              </g>
              <g id="Grupo_161930" data-name="Grupo 161930" transform="translate(0.248 8.648)">
                <path id="Trazado_169658" data-name="Trazado 169658" d="M539.543,303.838l-17.869-30.447h0l-6.388,5.879,6.05,27.248,8.57-11.044Z" transform="translate(-515.286 -273.391)" fill="#fff"/>
              </g>
              <g id="Grupo_161932" data-name="Grupo 161932">
                <g id="Grupo_161931" data-name="Grupo 161931">
                  <path id="Trazado_169659" data-name="Trazado 169659" d="M538.785,301.121s-.116-.166-.322-.5l-.905-1.5-3.447-5.789-12.616-21.355.242.039-6.434,5.641.055-.169,6.138,27.49-.365-.082,8.562-11.05.14-.18.172.149,9.64,8.36-.186-.049,1.035-.2-.1.051c3.095-2.751,6.519-5.47,9.856-8.372l.849-.746.116-.1.135.072c4.45,2.372,8.436,5.313,12.653,7.615l-.29.073,17.826-27.575.031.254-10.147-9.548.268-.018-22.471,27.309-6.276,7.582L541.28,300.5c-.378.447-.583.668-.583.668s.176-.245.539-.7l1.618-2.017,6.2-7.646L571.4,263.4l.124-.152.144.135,10.169,9.524.121.114-.09.14-17.792,27.6-.111.171-.18-.1c-4.25-2.32-8.239-5.26-12.648-7.609l.251-.03-.852.748c-3.347,2.912-6.771,5.628-9.855,8.367l-.045.04-.06.012-1.035.2-.106.02-.081-.07-9.633-8.367.311-.031-8.577,11.039-.27.347-.095-.429c-2.206-9.99-4.251-19.246-6.074-27.5l-.023-.1.078-.068,6.453-5.619.146-.126.1.166c5.273,9.043,9.538,16.359,12.493,21.427,1.459,2.523,2.594,4.486,3.373,5.832l.867,1.522C538.7,300.939,538.785,301.121,538.785,301.121Z" transform="translate(-514.995 -263.246)" fill="#263238"/>
                </g>
              </g>
            </g>
            <g id="Grupo_161935" data-name="Grupo 161935" transform="translate(67.868 31.305)">
              <g id="Grupo_161934" data-name="Grupo 161934">
                <path id="Trazado_169660" data-name="Trazado 169660" d="M486.83,299.968c.123,0,.043,5.546-.179,12.377s-.5,12.368-.622,12.365-.043-5.545.179-12.379S486.708,299.965,486.83,299.968Z" transform="translate(-485.971 -299.968)" fill="#263238"/>
              </g>
            </g>
          </g>
          <g id="Grupo_161956" data-name="Grupo 161956" transform="translate(182.283 226.521)">
            <g id="Grupo_161937" data-name="Grupo 161937" transform="translate(14.161 21.761)">
              <path id="Trazado_169661" data-name="Trazado 169661" d="M574.612,421.047a8.8,8.8,0,0,0-3.112,1.135c-2.285,1.54-2.793,4.629-3.1,7.367-.1.858-.117,1.892.589,2.387a2.428,2.428,0,0,0,2.1.008,65.435,65.435,0,0,0,13.41-5.956c2.255-1.323,4.584-2.979,5.346-5.48l.148-1.072A63.916,63.916,0,0,0,574.612,421.047Z" transform="translate(-568.354 -419.398)" fill="#ffbe9d"/>
            </g>
            <g id="Grupo_161955" data-name="Grupo 161955">
              <g id="Grupo_161944" data-name="Grupo 161944">
                <g id="Grupo_161938" data-name="Grupo 161938">
                  <path id="Trazado_169662" data-name="Trazado 169662" d="M592.325,395.074c-8.343,10.036-39.395,47.118-39.395,47.118l-1.177,5.32a.423.423,0,0,0,.569.485l4.992-1.972,40.11-46.631a3.343,3.343,0,0,0-.5-4.829h0A3.337,3.337,0,0,0,592.325,395.074Z" transform="translate(-551.743 -393.872)" fill="#263238"/>
                </g>
                <g id="Grupo_161939" data-name="Grupo 161939" transform="translate(37.597 3.119)">
                  <path id="Trazado_169663" data-name="Trazado 169663" d="M595.845,399.2l5.064,4.248,1.41-1.639-5.084-4.276Z" transform="translate(-595.845 -397.53)" fill="#455a64"/>
                </g>
                <g id="Grupo_161943" data-name="Grupo 161943" transform="translate(29.746 8.025)">
                  <g id="Grupo_161940" data-name="Grupo 161940">
                    <path id="Trazado_169664" data-name="Trazado 169664" d="M588.424,413.718a1.777,1.777,0,0,1-1.156-.425l-.037-.034a1.79,1.79,0,0,1-.169-2.49l5.82-6.851a1.79,1.79,0,1,1,2.73,2.317l-5.82,6.852a1.782,1.782,0,0,1-1.219.626C588.523,413.716,588.473,413.718,588.424,413.718Zm-.984-.561a1.579,1.579,0,0,0,2.188-.209l5.819-6.851a1.576,1.576,0,1,0-2.4-2.041l-5.819,6.851a1.573,1.573,0,0,0,.181,2.222Z" transform="translate(-586.636 -403.285)" fill="#455a64"/>
                  </g>
                  <g id="Grupo_161942" data-name="Grupo 161942" transform="translate(3.527 4.041)">
                    <g id="Grupo_161941" data-name="Grupo 161941">
                      <path id="Trazado_169665" data-name="Trazado 169665" d="M593.232,410.31c-.083.09-.7-.346-1.376-.974s-1.157-1.209-1.073-1.3.7.346,1.376.974S593.314,410.22,593.232,410.31Z" transform="translate(-590.773 -408.025)" fill="#455a64"/>
                    </g>
                  </g>
                </g>
              </g>
              <g id="Grupo_161954" data-name="Grupo 161954" transform="translate(8.27 21.76)">
                <g id="Grupo_161945" data-name="Grupo 161945">
                  <path id="Trazado_169666" data-name="Trazado 169666" d="M608.966,419.4l-7.822,2.738s-7.192-1.8-10.187-2.5a7.848,7.848,0,0,0-6.062,1.059c-3.687,2.39-10.019,6.5-12.287,8.007-2.231,1.482-8.059,6.305-8.059,6.305s-4.2,4.811-2.83,7.578,5.176,2.364,5.176,2.364a5.733,5.733,0,0,0,4.551,4.289s-.956,1.5,2.637,2.455,11.942,0,11.942,0,15.324.634,16.8-.1,7.923-7.321,7.923-7.321l5.472-3.27Z" transform="translate(-561.443 -419.397)" fill="#ffbe9d"/>
                </g>
                <g id="Grupo_161947" data-name="Grupo 161947" transform="translate(1.664 5.315)">
                  <g id="Grupo_161946" data-name="Grupo 161946">
                    <path id="Trazado_169667" data-name="Trazado 169667" d="M578.951,425.634a18.736,18.736,0,0,1-2.34,1.708c-1.472,1.012-3.533,2.37-5.731,3.969a55.846,55.846,0,0,0-5.382,4.4c-1.3,1.217-2.045,2.032-2.1,1.985a2.64,2.64,0,0,1,.456-.635c.313-.392.8-.934,1.424-1.576a42.041,42.041,0,0,1,5.339-4.534c2.213-1.609,4.305-2.928,5.822-3.874A18.774,18.774,0,0,1,578.951,425.634Z" transform="translate(-563.395 -425.631)" fill="#eb996e"/>
                  </g>
                </g>
                <g id="Grupo_161949" data-name="Grupo 161949" transform="translate(5.451 12.468)">
                  <g id="Grupo_161948" data-name="Grupo 161948">
                    <path id="Trazado_169668" data-name="Trazado 169668" d="M586.764,434.026a3.657,3.657,0,0,1-.778.48l-2.181,1.182c-1.837,1-4.373,2.388-7.035,4.138a51.953,51.953,0,0,0-6.451,4.971c-1.544,1.4-2.426,2.355-2.482,2.306a3.615,3.615,0,0,1,.557-.725c.377-.451.958-1.072,1.708-1.809a42.658,42.658,0,0,1,6.422-5.113,67.734,67.734,0,0,1,7.135-4.046c.942-.463,1.71-.824,2.248-1.058A3.6,3.6,0,0,1,586.764,434.026Z" transform="translate(-567.837 -434.022)" fill="#eb996e"/>
                  </g>
                </g>
                <g id="Grupo_161951" data-name="Grupo 161951" transform="translate(10.2 18.093)">
                  <g id="Grupo_161950" data-name="Grupo 161950">
                    <path id="Trazado_169669" data-name="Trazado 169669" d="M595.353,440.623a3.96,3.96,0,0,1-.709.685c-.479.415-1.2.987-2.115,1.652-1.828,1.343-4.51,2.965-7.475,4.715a39.941,39.941,0,0,1-8.118,3.534c-1.077.348-1.956.6-2.565.772a4.153,4.153,0,0,1-.962.215,4.3,4.3,0,0,1,.909-.379l2.517-.9a46.667,46.667,0,0,0,7.993-3.619c2.971-1.753,5.66-3.323,7.523-4.591.935-.628,1.677-1.159,2.187-1.53A4.474,4.474,0,0,1,595.353,440.623Z" transform="translate(-573.408 -440.621)" fill="#eb996e"/>
                  </g>
                </g>
                <g id="Grupo_161953" data-name="Grupo 161953" transform="translate(24.756 24.935)">
                  <g id="Grupo_161952" data-name="Grupo 161952">
                    <path id="Trazado_169670" data-name="Trazado 169670" d="M601.2,448.65A6.637,6.637,0,0,1,599.887,450a29.381,29.381,0,0,1-7.627,4.845,6.634,6.634,0,0,1-1.776.612c-.053-.126,2.586-1.227,5.54-3.114C598.987,450.47,601.1,448.549,601.2,448.65Z" transform="translate(-590.483 -448.646)" fill="#eb996e"/>
                  </g>
                </g>
              </g>
            </g>
          </g>
        </g>
        <g id="Grupo_161969" data-name="Grupo 161969" transform="translate(0 189.184)">
          <g id="Grupo_161958" data-name="Grupo 161958" transform="translate(222.569 91.081)">
            <path id="Trazado_169671" data-name="Trazado 169671" d="M633.833,464.356H518.217a7.442,7.442,0,0,1,7.442-7.442H626.392a7.442,7.442,0,0,1,7.441,7.442Z" transform="translate(-518.217 -456.914)" fill="#263238"/>
          </g>
          <g id="Grupo_161963" data-name="Grupo 161963">
            <g id="Grupo_161959" data-name="Grupo 161959" transform="translate(0 0)">
              <path id="Trazado_169672" data-name="Trazado 169672" d="M455.582,442.24l-53.468-.257-18.121-85.822a7.634,7.634,0,0,0-7.476-6.087H264.775a7.634,7.634,0,0,0-7.459,9.261l18.409,84.412a6.162,6.162,0,0,0,6.02,4.849h181.6C463.346,444.255,459.923,442.24,455.582,442.24Z" transform="translate(-257.138 -350.074)" fill="#e0e0e0"/>
            </g>
            <g id="Grupo_161961" data-name="Grupo 161961" transform="translate(119.376)">
              <g id="Grupo_161960" data-name="Grupo 161960">
                <path id="Trazado_169673" data-name="Trazado 169673" d="M419.254,448.6c-.12.026-5.161-22.009-11.257-49.211s-10.945-49.284-10.825-49.312,5.159,22,11.258,49.215S419.373,448.569,419.254,448.6Z" transform="translate(-397.169 -350.074)" fill="#263238"/>
              </g>
            </g>
            <g id="Grupo_161962" data-name="Grupo 161962" transform="translate(62.203 44.523)">
              <path id="Trazado_169674" data-name="Trazado 169674" d="M343.3,405.779c2.65,3.566,2.233,8.361-.928,10.71s-7.873,1.364-10.522-2.2-2.234-8.36.928-10.71S340.65,402.214,343.3,405.779Z" transform="translate(-330.104 -402.301)" fill="#fff"/>
            </g>
          </g>
          <g id="Grupo_161964" data-name="Grupo 161964" transform="translate(165.892 93.321)">
            <rect id="Rectángulo_38589" data-name="Rectángulo 38589" width="7.743" height="3.549" rx="1.774" fill="#263238"/>
          </g>
          <g id="Grupo_161966" data-name="Grupo 161966" transform="translate(169.487 94.739)">
            <g id="Grupo_161965" data-name="Grupo 161965">
              <path id="Trazado_169675" data-name="Trazado 169675" d="M534.815,461.206a1.915,1.915,0,0,1,.228.247,2.267,2.267,0,0,1,.389.905,3.667,3.667,0,0,1-1.409,3.38,5.086,5.086,0,0,1-2.563.962,13.874,13.874,0,0,1-3.253-.09,18.85,18.85,0,0,0-3.679-.214,5.987,5.987,0,0,0-1.922.448,2.811,2.811,0,0,0-1.514,1.273,1.819,1.819,0,0,0,.414,1.91,4.5,4.5,0,0,0,1.84,1.272,17.121,17.121,0,0,1,2.261.978,3.028,3.028,0,0,1,1.559,2.081,4.177,4.177,0,0,1-2.821,4.331,16.264,16.264,0,0,1-5.642.712,94.383,94.383,0,0,1-12.115-.784c-4.179-.49-8.488-1.113-12.921-1.507a68.3,68.3,0,0,0-12.959-.03c-4.177.389-8.208.967-12.092,1.036a20.382,20.382,0,0,1-5.66-.507,7.906,7.906,0,0,1-4.517-2.858,5.682,5.682,0,0,1-1.051-4.846,3.448,3.448,0,0,1,3.62-2.556,1.966,1.966,0,0,1,1.662,1.415,2.625,2.625,0,0,1-2.069,3.121,3.236,3.236,0,0,1-1.832-.25,4.331,4.331,0,0,1-2.238-2.344,7.931,7.931,0,0,1-.565-2.68c-.065-1.645.087-2.908.083-3.767.007-.429,0-.756-.007-.976a2.152,2.152,0,0,1,0-.334,1.591,1.591,0,0,1,.049.331c.023.22.043.549.051.98.033.862-.09,2.135,0,3.756a7.817,7.817,0,0,0,.587,2.607,4.111,4.111,0,0,0,2.141,2.2,2.981,2.981,0,0,0,1.688.217,2.257,2.257,0,0,0,1.466-.973,2.223,2.223,0,0,0,.361-1.806,1.658,1.658,0,0,0-1.417-1.184,3.125,3.125,0,0,0-3.248,2.34,5.337,5.337,0,0,0,1.019,4.532,7.535,7.535,0,0,0,4.32,2.7,20.115,20.115,0,0,0,5.551.476c3.851-.08,7.867-.664,12.06-1.061a68.208,68.208,0,0,1,13.038.021c4.45.4,8.761,1.021,12.932,1.517a95,95,0,0,0,12.06.807,16,16,0,0,0,5.5-.664,4.232,4.232,0,0,0,2.015-1.561,3.33,3.33,0,0,0,.59-2.347,2.671,2.671,0,0,0-1.379-1.838,17.274,17.274,0,0,0-2.209-.966,4.825,4.825,0,0,1-1.964-1.38,2.714,2.714,0,0,1-.554-1.061,1.856,1.856,0,0,1,.107-1.186,3.089,3.089,0,0,1,1.684-1.419,6.232,6.232,0,0,1,2.017-.454,18.9,18.9,0,0,1,3.73.249,13.839,13.839,0,0,0,3.2.126,4.93,4.93,0,0,0,2.48-.888,3.586,3.586,0,0,0,1.428-3.228A2.6,2.6,0,0,0,534.815,461.206Z" transform="translate(-455.951 -461.206)" fill="#263238"/>
            </g>
          </g>
          <g id="Grupo_161968" data-name="Grupo 161968" transform="translate(223.48 94.552)">
            <g id="Grupo_161967" data-name="Grupo 161967">
              <path id="Trazado_169676" data-name="Trazado 169676" d="M632.614,461.208c0,.122-25.372.222-56.662.222s-56.666-.1-56.666-.222,25.366-.222,56.666-.222S632.614,461.086,632.614,461.208Z" transform="translate(-519.286 -460.986)" fill="#455a64"/>
            </g>
          </g>
        </g>
      </g>
      <path id="Trazado_169677" data-name="Trazado 169677" d="M217.859,297.9s22.416-29.284,36.407-35.87,11.7,30.617,20.859,40.348,29.19-30.907,42.926-34.342,5.36,50.556,17.561,63.34,98.3-75.931,98.3-75.931L429.2,266.318l12.053-12.593L429.2,271.468l7.933-7.215s-39.987,46.776-75.811,70.494-41.548-1.372-41.548-10.289.208-37.9-5.619-38.86-28.723,32.884-39.6,35.7-14.309-13.046-14.309-13.046,4.319,5.368,10.745,4.894c0,0-7.311.3-10.172-15.253s-4.579-27.574-10.875-22.995-25.184,27.473-25.184,27.473l2.661-8.082-16.4,18.857,13.736-18.857Z" transform="translate(10583.742 -10317.737)" fill="#1169e3"/>
      <line id="Línea_213" data-name="Línea 213" x2="204.792" transform="translate(10808.847 -9962.526)" fill="none" stroke="#1169e3" stroke-width="1"/>
      <line id="Línea_214" data-name="Línea 214" x2="204.792" transform="translate(10808.847 -9939.588)" fill="none" stroke="#1169e3" stroke-width="10"/>
      <line id="Línea_215" data-name="Línea 215" x2="204.792" transform="translate(10808.847 -9952.696)" fill="none" stroke="#1169e3" stroke-width="5"/>
    </g>
  </g>
</svg>
