<svg xmlns="http://www.w3.org/2000/svg" xmlns:xlink="http://www.w3.org/1999/xlink" width="70" height="85" viewBox="0 0 70 85">
  <defs>
    <clipPath id="clip-path">
      <rect id="Rectángulo_37275" data-name="Rectángulo 37275" width="46.205" height="46.21" fill="none"/>
    </clipPath>
  </defs>
  <g id="Grupo_164000" data-name="Grupo 164000" transform="translate(-689 -5504)">
    <g id="Grupo_157997" data-name="Grupo 157997" transform="translate(149 3797)">
      <rect id="Rectángulo_36766" data-name="Rectángulo 36766" width="70" height="85" rx="12" transform="translate(540 1707)" fill="#1169e3"/>
    </g>
    <g id="Grupo_156896" data-name="Grupo 156896" transform="translate(-154.188 1055.86)">
      <g id="Grupo_156868" data-name="Grupo 156868" transform="translate(843.188 4461.551)">
        <rect id="Rectángulo_37270" data-name="Rectángulo 37270" width="70" height="56" transform="translate(0 -0.411)" fill="none"/>
        <g id="Grupo_156867" data-name="Grupo 156867" transform="translate(11.802 4.647)">
          <g id="Grupo_156866" data-name="Grupo 156866" clip-path="url(#clip-path)">
            <path id="Trazado_128586" data-name="Trazado 128586" d="M12.687,34.077c-.363-.392-.7-.792-1.079-1.159A8.618,8.618,0,0,1,13.97,18.865,7.963,7.963,0,0,1,22.763,20.4c.274.265.395.273.675,0a8.129,8.129,0,0,1,13.15,2.965,8.63,8.63,0,0,1-1.855,9.419c-.413.416-.8.861-1.2,1.291a23.157,23.157,0,0,1,12.488,17.86A28.8,28.8,0,0,1,46.205,55c.006.347-.08.43-.429.429-5.819-.013-11.638-.005-17.457-.017a.747.747,0,0,0-.753.424,5.179,5.179,0,0,1-8.978-.078.587.587,0,0,0-.609-.343c-5.835.008-11.669,0-17.5.015-.385,0-.484-.086-.475-.475Q.3,41.013,12.45,34.193c.081-.045.164-.086.246-.13.01-.006.015-.02-.009.014" transform="translate(0 -12.183)"/>
            <path id="Trazado_128587" data-name="Trazado 128587" d="M11.152,37.289c-.13,1.242-.131,1.247-1.331,1.051-1.024-.167-2.044-.357-3.069-.516-.229-.036-.292-.118-.237-.326.008-.03.007-.062.013-.092.067-.349.023-.82.234-1.011s.664.041,1.008.094q1.538.239,3.072.5c.167.028.413.011.31.3" transform="translate(-4.358 -24.362)"/>
            <path id="Trazado_128588" data-name="Trazado 128588" d="M119.578,37.309c-.04-.125.063-.159.229-.186q1.971-.318,3.937-.659c.22-.039.313,0,.331.232a3.107,3.107,0,0,0,.116.732c.128.383,0,.494-.379.549-1.24.178-2.476.387-3.71.608-.247.044-.325-.007-.352-.246-.037-.322-.106-.641-.172-1.03" transform="translate(-80.208 -24.452)"/>
            <path id="Trazado_128589" data-name="Trazado 128589" d="M20.034,12.105c.083.074.154.132.218.2.845.844,1.683,1.695,2.537,2.529.2.193.178.305-.013.473-.279.245-.52.693-.81.721s-.541-.449-.8-.706c-.644-.628-1.263-1.282-1.916-1.9-.244-.23-.237-.37.013-.572.216-.174.4-.391.6-.587.052-.052.112-.1.179-.154" transform="translate(-12.79 -8.12)"/>
            <path id="Trazado_128590" data-name="Trazado 128590" d="M110.528,16.22c-.124-.143-.268-.328-.431-.493-.527-.536-.53-.533-.007-1.056.735-.735,1.477-1.463,2.2-2.209.193-.2.312-.243.505-.009.235.285.687.526.71.813.025.3-.45.541-.709.8-.629.643-1.269,1.275-1.907,1.91a.611.611,0,0,1-.362.239" transform="translate(-73.588 -8.248)"/>
            <path id="Trazado_128591" data-name="Trazado 128591" d="M43.879,4.509a.1.1,0,0,1-.07.144,1.292,1.292,0,0,0-.121.068c-1.065.606-1.065.606-1.61-.486-.283-.566-.56-1.135-.853-1.7-.1-.186-.087-.273.117-.384,1.073-.583,1.07-.591,1.61.49.269.538.535,1.077.8,1.616l.124.248" transform="translate(-27.614 -1.182)" fill="#010101"/>
            <path id="Trazado_128592" data-name="Trazado 128592" d="M92.063,5.051c-.384-.2-.788-.388-1.178-.606-.11-.061.007-.167.043-.239.417-.844.844-1.683,1.257-2.529.086-.177.173-.247.346-.117a.2.2,0,0,0,.042.02c1.085.49,1.085.49.56,1.541-.276.552-.547,1.108-.83,1.656-.052.1-.065.25-.24.275" transform="translate(-60.936 -1.002)" fill="#010101"/>
            <path id="Trazado_128593" data-name="Trazado 128593" d="M69.4,1.511v.372c0,1.233,0,1.228-1.259,1.122-.18-.015-.236-.062-.234-.241q.011-1.257,0-2.513c0-.184.059-.257.239-.232a.273.273,0,0,0,.046,0C69.4-.039,69.4-.039,69.4,1.185Z" transform="translate(-45.551 0)"/>
            <path id="Trazado_128594" data-name="Trazado 128594" d="M30.172,95.494H18.633c-.2,0-.42.078-.384-.306q1.043-10.851,11.113-15a.542.542,0,0,1,.681.144c1.637,1.566,3.3,3.11,4.929,4.678.277.265.423.309.728.014,1.628-1.575,3.29-3.115,4.926-4.682a.587.587,0,0,1,.726-.14,18.12,18.12,0,0,1,4.3,2.369c.28.206.263.311.007.526q-3.979,3.33-7.94,6.682c-.142.119-.258.227-.486.131a5.215,5.215,0,0,0-7.058,5.586" transform="translate(-12.239 -53.747)" fill="#b0c8cb"/>
            <path id="Trazado_128595" data-name="Trazado 128595" d="M42.492,24.166A5.376,5.376,0,0,0,39.349,25.5a5.18,5.18,0,0,0-1.731,3.687,6.7,6.7,0,0,0,2.248,5.668,1.108,1.108,0,0,1,.287.414,3.564,3.564,0,0,0,1.216,1.556c.153.111.312.2.217.441-.087.223-.086.449-.422.522a6.587,6.587,0,0,0-2.793,1.076c-.156.122-.242.032-.347-.068-1.464-1.388-2.992-2.715-4.379-4.175A6.741,6.741,0,0,1,31.991,27.6a6.657,6.657,0,0,1,5.157-4.788,6.264,6.264,0,0,1,5.191,1.155,1.367,1.367,0,0,1,.139.12c.009.008.006.03.014.076" transform="translate(-21.216 -15.201)" fill="#29c4bb"/>
            <path id="Trazado_128596" data-name="Trazado 128596" d="M75.424,24.13a6.441,6.441,0,0,1,6.694-.932,7.1,7.1,0,0,1,2.154,11.529c-1.379,1.385-2.834,2.693-4.254,4.036-.111.105-.2.227-.382.085a6.309,6.309,0,0,0-2.659-1.038.612.612,0,0,1-.547-.516c-.085-.333.134-.408.3-.541a3.047,3.047,0,0,0,.966-1.175,3.632,3.632,0,0,1,.823-1.1,6.739,6.739,0,0,0,1.206-7.658A5.062,5.062,0,0,0,76,24.232l-.581-.1" transform="translate(-50.595 -15.19)" fill="#29c4bb"/>
            <path id="Trazado_128597" data-name="Trazado 128597" d="M93.72,96.248a17.018,17.018,0,0,1,3.673,8.448c.06.43.074.866.133,1.3.031.231,0,.326-.269.325q-5.679-.012-11.358,0c-.269,0-.287-.09-.26-.321a4.216,4.216,0,0,0-.124-1.615.462.462,0,0,1,.146-.529c2.679-2.519,5.35-5.045,8.06-7.6" transform="translate(-57.345 -64.564)" fill="#b0c8cb"/>
            <path id="Trazado_128598" data-name="Trazado 128598" d="M54.973,38.5c-1.549-2.281-.744-5.518,1.524-6.52a2.654,2.654,0,0,1,.981-.266,22.78,22.78,0,0,1,4.174.059,3.629,3.629,0,0,1,2.988,3.3,5.61,5.61,0,0,1-.438,2.954.824.824,0,0,1-.292.411c0-.341,0-.643,0-.944A1.454,1.454,0,0,0,62.9,36.033a27.187,27.187,0,0,1-3.253-1.362.427.427,0,0,0-.434.01A25.417,25.417,0,0,1,56,36.022a1.467,1.467,0,0,0-1.031,1.5c0,.292,0,.583,0,.984" transform="translate(-36.34 -21.23)" fill="#656d78"/>
            <path id="Trazado_128599" data-name="Trazado 128599" d="M61.021,48.34c.032-.371-.183-.938.076-1.265.239-.3.8-.349,1.212-.512a3.829,3.829,0,0,0,.725-.3,1.691,1.691,0,0,1,1.925-.019,10.671,10.671,0,0,0,1.723.678.375.375,0,0,1,.3.429c-.016.713,0,1.427-.009,2.14A2.23,2.23,0,0,1,64.75,51.7c-.512.01-1.023.012-1.535,0a2.232,2.232,0,0,1-2.193-2.2c-.009-.357,0-.713,0-1.16" transform="translate(-40.897 -30.823)" fill="#efcfb3"/>
            <path id="Trazado_128600" data-name="Trazado 128600" d="M66.315,117a3.723,3.723,0,1,1-3.7-3.762,3.735,3.735,0,0,1,3.7,3.762" transform="translate(-39.49 -75.962)" fill="#1169e3"/>
            <path id="Trazado_128601" data-name="Trazado 128601" d="M55.067,73.717a5.178,5.178,0,0,1,1.947-.766.805.805,0,0,1,.966.253c.571.633,1.209,1.2,1.8,1.825.219.231.338.2.542-.01.646-.671,1.316-1.318,1.968-1.983a.458.458,0,0,1,.526-.147,9.715,9.715,0,0,1,1.94.623c.251.135.253.228.045.423q-2.26,2.116-4.5,4.251c-.138.131-.236.264-.448.061-1.58-1.511-3.173-3.01-4.779-4.529" transform="translate(-36.94 -48.875)" fill="#b3dc7e"/>
            <path id="Trazado_128602" data-name="Trazado 128602" d="M25.405,73.541a21.676,21.676,0,0,1,5.374-3.688.271.271,0,0,1,.361.061c.7.675,1.417,1.342,2.118,2-.026.162-.153.163-.244.2a18.454,18.454,0,0,0-5.249,3.287c-.139.124-.235.259-.439.048-.623-.645-1.269-1.267-1.92-1.912" transform="translate(-17.042 -46.829)" fill="#fbd670"/>
            <path id="Trazado_128603" data-name="Trazado 128603" d="M91.051,71.931c.715-.676,1.44-1.353,2.153-2.042.135-.13.236-.089.366-.025a21.925,21.925,0,0,1,5.146,3.476c.177.161.149.239,0,.391-.4.41-.777.848-1.43.825a.656.656,0,0,0-.357.09c-.638.411-1.112.185-1.659-.26a15.548,15.548,0,0,0-3.847-2.23c-.123-.052-.278-.062-.372-.225" transform="translate(-61.078 -46.825)" fill="#fbd670"/>
            <path id="Trazado_128604" data-name="Trazado 128604" d="M125.951,113.015c-.387,0-.775-.01-1.162,0-.22.008-.339-.035-.351-.291a17.8,17.8,0,0,0-1.019-5.172c-.059-.167-.029-.252.139-.319.774-.311,1.549-.621,2.313-.956.274-.12.272.063.328.218a21.023,21.023,0,0,1,1.188,5.376c.024.278.032.558.072.833.037.254-.058.322-.3.311-.4-.017-.805,0-1.208,0" transform="translate(-82.772 -71.269)" fill="#fbd670"/>
            <path id="Trazado_128605" data-name="Trazado 128605" d="M6.1,113.056c-.341,0-.684-.025-1.021.007-.381.037-.493-.064-.463-.473a23.4,23.4,0,0,1,1.218-5.985c.105-.3.214-.371.514-.235.689.312,1.39.6,2.094.878.224.089.264.173.182.408a17.355,17.355,0,0,0-.985,4.99c-.014.35-.137.446-.47.417-.354-.031-.712-.007-1.068-.007" transform="translate(-3.09 -71.31)" fill="#fbd670"/>
            <path id="Trazado_128606" data-name="Trazado 128606" d="M14.439,84.245c.115.106.173.157.228.212.57.569,1.133,1.147,1.715,1.705.182.175.14.276-.007.439a17.707,17.707,0,0,0-2.856,4.272c-.115.24-.2.322-.473.2-.7-.318-1.419-.613-2.137-.9-.213-.084-.29-.141-.174-.384a22.129,22.129,0,0,1,3.55-5.311,1.73,1.73,0,0,0,.154-.236" transform="translate(-7.164 -56.512)" fill="#fbd670"/>
            <path id="Trazado_128607" data-name="Trazado 128607" d="M118.975,90.122c-.021.105-.118.123-.2.157-.771.319-1.545.629-2.31.96-.177.077-.245.028-.315-.122a17.907,17.907,0,0,0-2.38-3.752.309.309,0,0,1-.026-.408,4.079,4.079,0,0,0,.466-1.4c.084-.528.576-.737.881-1.091.086-.1.153.045.206.1a21.42,21.42,0,0,1,3.617,5.422c.02.042.038.085.058.132" transform="translate(-76.258 -56.638)" fill="#fbd670"/>
            <path id="Trazado_128608" data-name="Trazado 128608" d="M90.792,88.8a2.63,2.63,0,0,1-.765,1.158Q86.09,93.679,82.155,97.4c-.194.184-.327.27-.477-.021a.845.845,0,0,0-.118-.143c-.531-.628-.527-.624.129-1.176q3.753-3.158,7.5-6.322a3.815,3.815,0,0,1,1.6-.943" transform="translate(-54.455 -59.567)" fill="#e5e8ec"/>
            <path id="Trazado_128609" data-name="Trazado 128609" d="M67.411,67.893c.308,0,.617-.005.925,0,.135,0,.32-.112.37.137.038.188.151.36-.054.546-.365.331-.713.684-1.046,1.047-.18.2-.286.14-.44-.024-.316-.337-.637-.673-.984-.979-.209-.184-.16-.357-.105-.576.069-.277.263-.144.408-.148.309-.011.617,0,.926,0" transform="translate(-44.293 -45.528)" fill="#efcfb3"/>
            <path id="Trazado_128610" data-name="Trazado 128610" d="M65.613,122.235a2.234,2.234,0,1,1,2.247-2.2,2.244,2.244,0,0,1-2.247,2.2" transform="translate(-42.525 -78.999)"/>
            <path id="Trazado_128611" data-name="Trazado 128611" d="M69.406,123.053a.743.743,0,1,1-.715-.758.75.75,0,0,1,.715.758" transform="translate(-45.561 -82.036)" fill="#fbfbfb"/>
          </g>
        </g>
      </g>
      <g id="Grupo_156895" data-name="Grupo 156895" transform="translate(843.835 4463.011)">
        <path id="Trazado_126894" data-name="Trazado 126894" d="M15.977,124.887c-.551.123-.679-.137-.674-.652.014-1.291-.008-1.313-1.344-1.305-.5,0-.651-.151-.642-.643.009-.458.093-.671.622-.669,1.34,0,1.374-.022,1.359-1.359-.006-.6.29-.616.739-.621s.681.07.681.608c0,1.354.027,1.378,1.35,1.373.512,0,.633.182.634.658s-.12.657-.632.654c-1.348-.008-1.381.018-1.351,1.295.014.593-.2.766-.743.662" transform="translate(-13.318 -95.082)" fill="#29c4bb"/>
        <path id="Trazado_126895" data-name="Trazado 126895" d="M214,151.165c.494-.094.767.069.686.628-.068.467.094.728.611.648s.692.107.7.652c0,.571-.229.7-.716.637-.465-.063-.612.139-.6.6.015.724-.434,1-1.135.783-.333-.1-.26-.37-.239-.579.058-.573-.072-.923-.748-.809-.523.089-.555-.239-.554-.641s.017-.726.548-.644c.572.088.843-.121.748-.725-.091-.577.28-.6.706-.552" transform="translate(-147.723 -117.603)" fill="#29c4bb"/>
        <path id="Trazado_126896" data-name="Trazado 126896" d="M211.419,69.618c.127.55-.124.739-.641.652-.559-.094-.787.135-.688.691.1.538-.137.666-.658.671-.537,0-.74-.154-.646-.677.1-.557-.132-.786-.686-.683-.573.108-.623-.192-.645-.674-.025-.566.194-.714.687-.628.536.094.736-.128.645-.652-.087-.5.075-.7.632-.684.492.018.776.087.671.651s.139.776.689.684c.517-.087.768.1.639.649" transform="translate(-154.469 -52.359)" fill="#010000"/>
        <path id="Trazado_126897" data-name="Trazado 126897" d="M55.739,186.994c.12.514-.133.7-.646.61-.6-.109-.746.2-.659.712.1.565-.178.653-.674.649-.474,0-.729-.11-.629-.621.131-.671-.2-.836-.783-.737-.593.1-.565-.273-.567-.679s.008-.728.544-.622c.721.143.9-.2.808-.848-.093-.617.377-.44.691-.458.333-.02.7-.063.606.473-.12.662.112.969.813.835.585-.112.513.3.5.687" transform="translate(-17.222 -136.123)" fill="#010000"/>
        <path id="Trazado_126898" data-name="Trazado 126898" d="M121.792,17.771c-.138-.586.186-.7.666-.629.5.074.694-.132.619-.623s.07-.714.634-.7c.519.011.756.145.666.678s.16.724.672.647c.475-.071.713.043.715.622s-.221.753-.739.671c-.547-.087-.732.162-.648.672.1.573-.212.639-.694.648-.515.011-.683-.183-.607-.655.083-.518-.109-.755-.649-.664s-.753-.129-.635-.665" transform="translate(-108.948 -15.817)" fill="#29c4bb"/>
      </g>
    </g>
  </g>
</svg>
