<svg xmlns="http://www.w3.org/2000/svg" width="85" height="80" viewBox="0 0 85 80">
  <g id="Grupo_164003" data-name="Grupo 164003" transform="translate(-813 -3418)">
    <rect id="Rectángulo_38142" data-name="Rectángulo 38142" width="85" height="80" rx="12" transform="translate(813 3418)" fill="#1169e3"/>
    <g id="Grupo_156966" data-name="Grupo 156966" transform="translate(-48 -3548)">
      <g id="Grupo_156602" data-name="Grupo 156602" transform="translate(7259.735 13530.938)">
        <g id="Grupo_156595" data-name="Grupo 156595" transform="translate(-6387.636 -6558.121)">
          <path id="Trazado_127053" data-name="Trazado 127053" d="M15.5,123.838c.441.1.543-.11.539-.522-.011-1.033.006-1.051,1.075-1.045.4,0,.521-.121.514-.514-.007-.367-.074-.537-.5-.536-1.072,0-1.1-.018-1.088-1.087.005-.484-.232-.493-.591-.5s-.545.056-.545.486c0,1.083-.022,1.1-1.08,1.1-.409,0-.506.146-.507.526s.1.526.506.524c1.079-.006,1.1.014,1.081,1.036-.011.474.164.613.594.53" transform="translate(48.274 -81.736)" fill="#29c4bb"/>
          <path id="Trazado_127054" data-name="Trazado 127054" d="M213.588,151.16c-.395-.075-.614.055-.549.5.054.374-.075.583-.489.518s-.554.086-.557.522c0,.457.183.562.573.51.372-.05.49.112.483.482-.012.58.347.8.908.627.266-.083.208-.3.191-.464-.047-.458.058-.739.6-.647.419.071.444-.191.443-.513s-.014-.581-.438-.515c-.458.071-.674-.1-.6-.58.073-.462-.224-.482-.565-.441" transform="translate(-211.994 -102.18)" fill="#29c4bb"/>
          <path id="Trazado_127055" data-name="Trazado 127055" d="M207.48,69.222c-.1.441.1.591.513.522.447-.075.63.108.551.553s.109.533.526.537.592-.123.517-.542c-.08-.446.106-.629.549-.546.459.086.5-.154.516-.54.02-.453-.156-.571-.55-.5-.429.075-.589-.1-.516-.522.07-.4-.06-.563-.506-.547-.394.014-.621.07-.537.521s-.112.621-.551.547c-.413-.069-.614.079-.512.519" transform="translate(-204.257 -61.526)" fill="#010000"/>
          <path id="Trazado_127056" data-name="Trazado 127056" d="M51.8,186.594c-.1.411.106.562.517.488.483-.087.6.164.527.57-.077.452.142.522.539.52.379,0,.583-.088.5-.5-.1-.537.164-.669.627-.59s.452-.219.454-.544-.007-.582-.435-.5c-.577.114-.724-.163-.646-.679.075-.494-.3-.352-.553-.367s-.563-.05-.485.378c.1.53-.09.776-.651.668-.468-.09-.411.237-.4.55" transform="translate(-1.211 -123.814)" fill="#010000"/>
          <path id="Trazado_127057" data-name="Trazado 127057" d="M124.938,17.381c.11-.469-.149-.56-.533-.5-.4.059-.556-.106-.5-.5s-.056-.571-.508-.562c-.415.008-.605.116-.533.542s-.128.58-.538.518c-.38-.057-.57.034-.572.5s.177.6.591.537c.438-.07.586.13.518.538-.076.458.17.511.555.519.412.008.547-.146.486-.525-.066-.415.087-.6.52-.532s.6-.1.508-.532" transform="translate(-93.29 -15.817)" fill="#29c4bb"/>
        </g>
        <g id="Grupo_156610" data-name="Grupo 156610" transform="translate(-6380.406 -6546.42)">
          <g id="Grupo_156618" data-name="Grupo 156618" transform="translate(0 0)">
            <path id="Trazado_127191" data-name="Trazado 127191" d="M52.188,88.331c-.193-.949-.917-1.434-2.1-1.434H2.051c-.187,0-.375,0-.562.014A1.6,1.6,0,0,0,0,88.535Q0,90.5,0,92.469a1.64,1.64,0,0,0,1.79,1.8q10.4.006,20.8.006a.87.87,0,0,0,.939-.617c-.038-.721-.264-.928-1.029-.928H2.116c-.676,0-.676,0-.677-.685,0-1.022.018-2.044-.009-3.065-.012-.438.15-.551.565-.546q2.376.029,4.751,0c.344,0,.429.1.414.426-.026.527-.012,1.055-.006,1.583.007.559.29.889.756.9.488.008.778-.328.783-.919,0-.545.013-1.09,0-1.634-.008-.257.055-.352.333-.35q2.529.019,5.057,0c.276,0,.343.089.335.348-.018.527-.008,1.055,0,1.583,0,.635.283.98.782.973s.756-.349.758-1c0-.528.011-1.056,0-1.583-.007-.236.054-.325.308-.323q2.554.016,5.108,0c.253,0,.315.084.309.322-.016.528-.007,1.056,0,1.583,0,.648.263.99.757,1,.512.008.781-.342.784-1.022,0-.511.013-1.022,0-1.532-.009-.257.055-.352.333-.349q2.528.019,5.057,0c.276,0,.344.09.335.348-.018.51-.006,1.022,0,1.532,0,.681.27,1.031.782,1.023s.757-.355.758-1.048c0-.511.011-1.022,0-1.533-.007-.237.054-.323.308-.322q2.554.016,5.108,0c.256,0,.313.09.307.325-.014.562-.009,1.124,0,1.686s.289.887.757.892.773-.326.781-.873c.008-.579.01-1.158,0-1.737,0-.217.053-.294.283-.293q2.579.013,5.16,0c.234,0,.284.088.28.3-.011.579-.01,1.158,0,1.737.008.551.308.874.783.866a.769.769,0,0,0,.754-.848c.01-.562.017-1.125,0-1.686-.01-.283.065-.4.362-.369s.577.018.866.025c1.361-.007,2.722-.008,4.084-.024.32,0,.412.146.411.437-.006,1.123-.013,2.247,0,3.37.005.393-.171.492-.528.49-1.43-.009-2.86,0-4.29,0q-9.8,0-19.61,0c-.1,0-.2-.01-.305-.016a.905.905,0,0,0-.7.733c.2.674.369.814,1.03.815q12.008,0,24.016,0a1.8,1.8,0,0,0,1.925-1.909c.006-1.073,0-2.146,0-3.219a4.185,4.185,0,0,0-.039-.814" transform="translate(-0.001 -54.698)"/>
            <path id="Trazado_127192" data-name="Trazado 127192" d="M14.877,30.244a4.087,4.087,0,0,0,4.951-2.556,21.347,21.347,0,0,0,.69-2.237.813.813,0,0,1,.943-.7c1.141.009,2.282,0,3.423,0,1.464,0,2.929,0,4.393.007.849.005.857.021,1.1.815.194.633.4,1.261.586,1.9.974,3.376,5.189,3.568,7,1.716a4.293,4.293,0,0,0,.836-4.869c-.921-2.481-1.892-4.944-2.844-7.413-.289-.747-.592-.923-1.411-.841a1.088,1.088,0,0,0-.509,1.59q1.392,3.641,2.792,7.278a5.352,5.352,0,0,1,.222.677,2.019,2.019,0,0,1-.744,2.272,2.439,2.439,0,0,1-2.567.1,1.724,1.724,0,0,1-.807-1.133c-.212-.663-.411-1.331-.615-2A2.581,2.581,0,0,0,29.5,22.706c-2.62-.028-5.241-.006-7.861,0-.119,0-.237-.007-.356-.011h0a2.648,2.648,0,0,0-2.756,2.25c-.209.681-.4,1.37-.634,2.042a2.027,2.027,0,0,1-2.578,1.242,1.965,1.965,0,0,1-1.547-2.052,3.552,3.552,0,0,1,.255-1.189q3.853-10,7.7-20a6.261,6.261,0,0,1,.74-1.447A3.783,3.783,0,0,1,27.807,2.9a4,4,0,0,1,1.239,1.83q1.741,4.488,3.467,8.981c.3.781.666.994,1.437.849.609-.412.786-.807.554-1.413-1.215-3.168-2.377-6.358-3.683-9.489A5.719,5.719,0,0,0,23.179.439,5.868,5.868,0,0,0,19.849,4.1q-3.892,10.091-7.771,20.188a5.86,5.86,0,0,0-.367,1.582,4.052,4.052,0,0,0,3.166,4.378" transform="translate(-7.36 0)"/>
            <path id="Trazado_127193" data-name="Trazado 127193" d="M28.8,95.494q8.07-.018,16.139,0c1.256,0,2.511-.007,3.767-.014.159-.079.218-.24.208-.549-.036-1.144-.015-2.29-.014-3.435-1.068.044-1.071-.21-1.064,1.166a5.376,5.376,0,0,1-.026.867.917.917,0,0,1-.954.813A.834.834,0,0,1,46,93.5c-.048-.509-.017-1.022-.019-1.532,0-.319-.137-.464-.459-.465q-2.248,0-4.5,0c-.332,0-.447.169-.448.478,0,.443.013.886-.008,1.328-.031.646-.408,1.043-.96,1.028s-.854-.384-.879-1.042c-.017-.442-.007-.886-.006-1.328,0-.323-.147-.462-.464-.463-1.482,0-2.964,0-4.445,0-.341,0-.5.143-.495.489,0,.442.014.886-.007,1.328a.947.947,0,0,1-.918,1.019c-.544.007-.887-.36-.919-1-.022-.442-.01-.886-.007-1.328,0-.335-.129-.5-.48-.5q-2.223,0-4.446,0c-.351,0-.483.168-.48.5,0,.442.015.886-.007,1.328-.032.645-.367,1-.918,1s-.884-.36-.919-1c-.023-.442-.01-.886-.009-1.328,0-.335-.133-.5-.483-.5q-2.223,0-4.445,0c-.355,0-.479.174-.476.507,0,.442.015.886-.007,1.328-.033.644-.375,1.01-.92,1a.947.947,0,0,1-.917-1.021c-.022-.425-.016-.852-.007-1.277.009-.4-.171-.542-.555-.541q-2.172.009-4.343,0c-.374,0-.517.164-.51.526.009.442.017.886-.007,1.328-.034.619-.359.974-.883.985a.933.933,0,0,1-.95-.984c-.027-.459-.007-.92-.012-1.38,0-.313-.139-.47-.461-.471q-2.223-.007-4.445,0c-.344,0-.49.165-.492.5q-.007,1.481,0,2.963c0,.336.151.5.493.5.2,0,.409,0,.613,0H24.768a5.611,5.611,0,0,1,.715.018.783.783,0,0,1,.746,1.061.5.5,0,0,1,.474-.208c.418.015.836,0,1.255,0,.04-.579.2-.738.839-.856" transform="translate(-2.703 -57.591)" fill="#e5e5e5"/>
            <path id="Trazado_127194" data-name="Trazado 127194" d="M25.21,95.213a5.611,5.611,0,0,0-.715-.018H5.129c-.2,0-.409,0-.613,0-.342,0-.492-.166-.493-.5q-.006-1.481,0-2.963c0-.335.147-.5.492-.5q2.223-.008,4.445,0c.322,0,.458.157.461.471.005.46-.015.92.012,1.379a.934.934,0,0,0,.95.985c.524-.011.85-.366.883-.985.024-.442.016-.886.007-1.328-.007-.362.136-.527.51-.526q2.172.006,4.343,0c.384,0,.564.145.555.541-.01.425-.015.852.006,1.277a.948.948,0,0,0,.917,1.021c.544.009.887-.357.92-1,.023-.442.011-.886.007-1.328,0-.332.122-.506.476-.507q2.223,0,4.445,0c.35,0,.484.167.483.5,0,.443-.014.886.009,1.328.034.645.369,1,.919,1s.886-.359.918-1c.022-.442.011-.886.007-1.328,0-.335.129-.5.48-.5q2.223,0,4.446,0c.351,0,.482.169.48.5,0,.443-.015.886.007,1.328.033.643.375,1.01.919,1a.947.947,0,0,0,.918-1.019c.021-.442.011-.886.007-1.328,0-.346.153-.489.494-.489,1.482,0,2.964,0,4.446,0,.317,0,.465.14.464.463,0,.443-.011.886.006,1.328.025.658.341,1.027.88,1.042s.929-.381.96-1.028c.021-.442.008-.886.008-1.328,0-.308.115-.477.448-.478q2.248,0,4.5,0c.322,0,.458.146.459.465,0,.511-.029,1.023.019,1.532a.834.834,0,0,0,.853.84.917.917,0,0,0,.954-.813,5.333,5.333,0,0,0,.025-.867c-.007-1.377,0-1.122,1.064-1.166,0-.045,0-.09,0-.136-.289-.007-.58,0-.866-.025s-.373.086-.362.369c.021.561.014,1.124,0,1.686a.769.769,0,0,1-.754.848c-.475.009-.775-.315-.783-.866-.009-.579-.01-1.158,0-1.737,0-.212-.046-.3-.28-.3q-2.58.013-5.159,0c-.23,0-.288.076-.283.293.013.579.011,1.158,0,1.737-.008.547-.311.878-.781.873s-.751-.332-.757-.892-.011-1.124,0-1.686c.006-.235-.052-.326-.307-.325q-2.554.016-5.108,0c-.254,0-.315.085-.308.322.016.511.006,1.022,0,1.533,0,.694-.253,1.04-.758,1.048s-.78-.342-.782-1.023c0-.511-.013-1.022,0-1.532.009-.259-.058-.351-.335-.348q-2.528.019-5.057,0c-.278,0-.342.092-.333.349.017.51.006,1.021,0,1.532,0,.68-.272,1.03-.784,1.022-.493-.007-.754-.35-.757-1,0-.528-.011-1.056,0-1.583.007-.237-.055-.323-.309-.322q-2.553.016-5.108,0c-.254,0-.315.087-.308.323.015.527.006,1.056,0,1.583,0,.648-.264.99-.758,1s-.779-.338-.783-.973c0-.528-.013-1.056,0-1.583.009-.259-.058-.35-.335-.348q-2.528.019-5.057,0c-.279,0-.342.093-.334.35.017.544.009,1.089,0,1.634-.005.591-.3.927-.783.919-.466-.008-.749-.338-.756-.9-.006-.528-.021-1.057.006-1.583.016-.326-.07-.43-.413-.426q-2.375.029-4.751,0c-.415-.005-.577.108-.565.546.027,1.021.008,2.043.009,3.065,0,.684,0,.685.677.686H24.927c.764,0,.99.206,1.029.928a.783.783,0,0,0-.746-1.061" transform="translate(-2.43 -57.312)" fill="#e5e5e5"/>
            <path id="Trazado_127195" data-name="Trazado 127195" d="M68.864,102.386c.179-.149.392-.082.59-.082q9.515-.006,19.03.007a.965.965,0,0,0,.421-.066c-1.256.007-2.512.015-3.767.014q-8.069-.006-16.139,0c-.643.119-.8.277-.838.856a.906.906,0,0,1,.7-.733" transform="translate(-42.904 -64.36)" fill="#e5e5e5"/>
            <path id="Unión_14" data-name="Unión 14" d="M1.548,26.154A1.967,1.967,0,0,1,0,24.1a3.551,3.551,0,0,1,.255-1.187q3.855-10,7.7-20.005A6.274,6.274,0,0,1,8.7,1.461,3.781,3.781,0,0,1,14.042.827h0a3.989,3.989,0,0,1,1.239,1.831q1.743,4.487,3.468,8.98c.3.781.667.994,1.438.85q.3.753.594,1.506a.467.467,0,0,0-.11-.014.467.467,0,0,1,.11.014,1.087,1.087,0,0,0-.51,1.59q1.393,3.64,2.792,7.277a5.436,5.436,0,0,1,.222.676,2.021,2.021,0,0,1-.742,2.274,2.323,2.323,0,0,1-1.316.417,2.858,2.858,0,0,1-1.251-.313,1.724,1.724,0,0,1-.809-1.133c-.212-.665-.41-1.331-.614-2a2.58,2.58,0,0,0-2.818-2.146c-2.622-.028-5.241,0-7.861,0-.119,0-.237-.009-.355-.012.163-.134.358-.075.54-.075.9-.007,1.8-.014,2.7,0a.52.52,0,0,0,.275-.044c-1.149,0-2.3,0-3.451,0a.355.355,0,0,0-.063.118,2.648,2.648,0,0,0-2.757,2.25c-.207.681-.4,1.371-.634,2.04a1.888,1.888,0,0,1-1.908,1.317A3.261,3.261,0,0,1,1.548,26.154ZM15.607,20.5a2.792,2.792,0,0,1,3.072,2.214c.214.646.412,1.3.612,1.951a1.675,1.675,0,0,0,1.737,1.375,1.675,1.675,0,0,1-1.737-1.377c-.2-.65-.4-1.3-.612-1.949A2.792,2.792,0,0,0,15.607,20.5Zm5.612,5.534c.079,0,.161-.013.244-.024C21.381,26.021,21.3,26.03,21.22,26.035Zm.763-.12a1.847,1.847,0,0,0,1.128-2.46A1.849,1.849,0,0,1,21.982,25.915ZM1,25.769a1.606,1.606,0,0,1-.829-1.381A1.6,1.6,0,0,0,1,25.769ZM11.03,20.5Zm-3.349-.08a.648.648,0,0,1,.276-.029l.106,0-.1,0c-.031,0-.063,0-.094,0A.462.462,0,0,0,7.682,20.423Zm2.773-.029c.275,0,.422-.067.45-.246-.028.177-.175.248-.45.243q-.6-.007-1.205-.007h.009C9.656,20.385,10.058,20.388,10.455,20.395Zm-.105-3.232c.2.012.3.062.324.285.123.9.248,1.807.415,2.7a.883.883,0,0,1,.02.167.883.883,0,0,0-.02-.167c-.167-.9-.292-1.8-.415-2.7-.027-.224-.124-.273-.324-.285Zm.56,2.947a.192.192,0,0,0,0-.024A.192.192,0,0,1,10.909,20.11Zm10.6-.907c-.476-1.239-.961-2.476-1.418-3.723C20.545,16.727,21.03,17.964,21.506,19.2ZM10.06,17.167c-.07,0-.142.009-.212.009.07,0,.142,0,.212-.009s.134-.007.2-.007h0C10.193,17.159,10.127,17.164,10.06,17.167Zm.494-11.64c-1.01,2.912-2.028,5.822-2.979,8.752-.516,1.583.229,2.627,1.87,2.808-.007.012-.016.019-.023.031.008-.012.017-.019.023-.028h.007q.665,0,1.334,0c1.053,0,2.105,0,3.159-.023A1.872,1.872,0,0,0,15.9,14.861a3.917,3.917,0,0,0-.233-.989q-1.383-4.05-2.766-8.1a1.775,1.775,0,0,0-.7-.973.31.31,0,0,0-.044-.01v0a2.109,2.109,0,0,0-.519-.071A1.078,1.078,0,0,0,10.554,5.527Zm9.735,8.662a1.218,1.218,0,0,0-.2,1.291,1.222,1.222,0,0,1,.2-1.291.535.535,0,0,1,.324-.207A.535.535,0,0,0,20.289,14.189Zm-12-11.725C7.579,4.253,6.889,6.05,6.2,7.845c.688-1.8,1.381-3.592,2.09-5.381a3.76,3.76,0,0,1,.89-1.351A3.789,3.789,0,0,0,8.288,2.464Zm3.865,2.273a.578.578,0,0,1,.046-.207A.539.539,0,0,0,12.153,4.738Zm.046-.207a21.693,21.693,0,0,1,1.606-3.449A21.515,21.515,0,0,0,12.2,4.531Zm1.606-3.449A1,1,0,0,1,13.951.9.826.826,0,0,0,13.806,1.082ZM13.951.9a.062.062,0,0,0,.014.009c.01.009.018.019.026.026.016-.034.034-.069.051-.106A.359.359,0,0,0,13.951.9Z" transform="translate(6.401 2.07)" fill="#29c4bb"/>
            <path id="Trazado_127199" data-name="Trazado 127199" d="M99.2,63.155a1.117,1.117,0,0,0,1.518-.856,2.833,2.833,0,0,0,.114-.391.713.713,0,0,1,.827-.642c.664.007,1.328,0,1.992,0,1.416-.013,1.2.1,1.505,1.1a1.028,1.028,0,0,0,1.063.852,1.093,1.093,0,0,0,1.022-1.608c-.9-2.381-1.82-4.753-2.744-7.124a1.586,1.586,0,0,0-1.559-1.1,1.6,1.6,0,0,0-1.592,1.129q-.478,1.233-.956,2.467c-.593,1.535-1.195,3.067-1.774,4.607a1.109,1.109,0,0,0,.584,1.568m2.646-4.335c.34-1.026.688-2.05,1.08-3.214.394,1.166.747,2.186,1.082,3.213.1.3-.03.5-.371.5-.476.005-.952.008-1.428,0-.329-.006-.47-.18-.363-.5" transform="translate(-62.008 -33.603)"/>
            <path id="Trazado_127200" data-name="Trazado 127200" d="M124.931,94.889c0,.323-.019.5-.111.587,1.146-.006,2.292-.013,3.438-.009.8,0,.838-.035.841-.828,0-.817.007-1.634,0-2.451-.007-.617-.064-.673-.671-.681-1.188-.015-2.377.016-3.565-.015a1.1,1.1,0,0,1,.07.487c.007.97.011,1.94,0,2.91" transform="translate(-78.57 -57.591)" fill="#bebec6"/>
            <path id="Trazado_127201" data-name="Trazado 127201" d="M93.957,91.237c.608.008.664.064.671.681.009.817,0,1.634,0,2.451,0,.793-.036.83-.841.828-1.146,0-2.292,0-3.438.009-.093.093-.266.1-.588.1q-9.548,0-19.1,0a1.745,1.745,0,0,0-.607.036c.1.006.2.016.305.016q9.8,0,19.61,0c1.43,0,2.859-.013,4.289,0,.357,0,.534-.1.528-.49-.016-1.123-.009-2.247,0-3.37,0-.291-.09-.441-.411-.437-1.361.016-2.722.017-4.084.024a.5.5,0,0,1,.1.135c1.188.03,2.377,0,3.566.015" transform="translate(-44.1 -57.321)" fill="#bebec6"/>
            <path id="Trazado_127202" data-name="Trazado 127202" d="M124.506,94.888c.011-.97.007-1.94,0-2.91a1.1,1.1,0,0,0-.07-.487h-.1c0,1.145-.021,2.291.014,3.435.01.309-.049.47-.208.549h.25c.092-.092.107-.264.111-.587" transform="translate(-78.145 -57.589)" fill="#bebec6"/>
            <path id="Trazado_127203" data-name="Trazado 127203" d="M124.706,91.261h.059a.476.476,0,0,0-.1-.136c0,.045,0,.09,0,.136h.038" transform="translate(-78.474 -57.361)" fill="#bebec6"/>
            <path id="Trazado_127204" data-name="Trazado 127204" d="M70.667,102.351q9.548,0,19.1,0c.322,0,.495-.011.588-.1H90.1a.97.97,0,0,1-.421.066q-9.515-.024-19.03-.007c-.2,0-.411-.067-.59.082a1.745,1.745,0,0,1,.607-.035" transform="translate(-44.1 -64.359)" fill="#bebec6"/>
            <path id="Trazado_127209" data-name="Trazado 127209" d="M54.943,7.9c.009.008.016.017.026.026l.054-.107a.336.336,0,0,0-.093.072l.013.009" transform="translate(-34.577 -4.919)" fill="#fe7b82"/>
            <path id="Trazado_127210" data-name="Trazado 127210" d="M38.1,60.958c.9-.006,1.8-.014,2.7,0a.509.509,0,0,0,.275-.045q-1.725,0-3.451,0a.347.347,0,0,0-.063.117c.164-.133.359-.074.539-.076" transform="translate(-23.645 -38.344)" fill="#fe7b82"/>
            <path id="Trazado_127211" data-name="Trazado 127211" d="M42.047,18.638a1.132,1.132,0,0,0-1.3.882c-.188.529-.385,1.055-.56,1.587-.738,2.245-1.546,4.466-2.279,6.713a5.382,5.382,0,0,0-.175.691,1.774,1.774,0,0,0,1.2,2.091c.215.079.478.046.642.254.155-.219.4-.153.613-.155,1.292-.012,2.585.012,3.877-.011a1.7,1.7,0,0,0,1.8-1.883,2.955,2.955,0,0,0-.165-.949c-.365-1.079-.7-2.171-1.091-3.239-.571-1.548-1.034-3.132-1.61-4.679a3.933,3.933,0,0,0-.688-1.292.292.292,0,0,1-.017-.056.4.4,0,0,1-.251.045m.831,6.864c.334.979.657,1.963,1.009,2.936.11.306.042.373-.266.369-1.192-.013-2.384-.017-3.576,0-.366.006-.428-.079-.306-.429.683-1.954,1.342-3.915,2.062-6.027L42.878,25.5" transform="translate(-23.728 -11.704)"/>
            <path id="Trazado_127212" data-name="Trazado 127212" d="M45.511,18.608A3.94,3.94,0,0,1,46.2,19.9c.576,1.546,1.039,3.131,1.61,4.679.394,1.068.726,2.16,1.091,3.239a2.985,2.985,0,0,1,.165.949,1.7,1.7,0,0,1-1.8,1.883c-1.292.024-2.585,0-3.877.011-.211,0-.458-.064-.612.155l0,0c1.5,0,3,.016,4.492-.023a1.87,1.87,0,0,0,1.952-2.2,3.833,3.833,0,0,0-.232-.99q-1.381-4.052-2.766-8.1a1.778,1.778,0,0,0-.7-.974.183.183,0,0,1-.033.024.267.267,0,0,0,.017.056" transform="translate(-26.924 -11.663)"/>
            <path id="Trazado_127213" data-name="Trazado 127213" d="M40.424,19.123c-1.011,2.911-2.028,5.822-2.981,8.752-.515,1.582.229,2.627,1.87,2.808l0,0c-.164-.208-.426-.176-.642-.254a1.774,1.774,0,0,1-1.2-2.091,5.352,5.352,0,0,1,.175-.691c.733-2.247,1.54-4.468,2.279-6.713.175-.532.371-1.059.559-1.587a1.132,1.132,0,0,1,1.3-.882.4.4,0,0,0,.251-.045.3.3,0,0,1-.01-.034c-.8-.2-1.355.023-1.6.741" transform="translate(-23.468 -11.527)"/>
            <path id="Trazado_127214" data-name="Trazado 127214" d="M50.09,18.5c0,.011.007.023.01.034a.21.21,0,0,0,.034-.025h0L50.09,18.5" transform="translate(-31.53 -11.646)"/>
            <path id="Trazado_127215" data-name="Trazado 127215" d="M42.765,51.695h.007l0,0,0,0" transform="translate(-26.919 -32.537)"/>
          </g>
        </g>
      </g>
      <rect id="Rectángulo_37300" data-name="Rectángulo 37300" width="79" height="79" transform="translate(866 6967)" fill="none"/>
    </g>
  </g>
</svg>
