<svg xmlns="http://www.w3.org/2000/svg" xmlns:xlink="http://www.w3.org/1999/xlink" width="90.773" height="90.773" viewBox="0 0 90.773 90.773">
  <defs>
    <clipPath id="clip-path">
      <rect id="Rectángulo_37157" data-name="Rectángulo 37157" width="50.868" height="40.194" fill="none"/>
    </clipPath>
  </defs>
  <g id="Grupo_163985" data-name="Grupo 163985" transform="translate(-4398 9996)">
    <path id="Trazado_127482" data-name="Trazado 127482" d="M45.387,0A45.387,45.387,0,1,1,0,45.387,45.387,45.387,0,0,1,45.387,0Z" transform="translate(4398 -9996)" fill="#b0c8cb"/>
    <g id="Grupo_158814" data-name="Grupo 158814" transform="translate(3781 -20909)">
      <g id="Grupo_156650" data-name="Grupo 156650" transform="translate(637 10939)">
        <g id="Grupo_156649" data-name="Grupo 156649" transform="translate(0 0)" clip-path="url(#clip-path)">
          <path id="Trazado_127589" data-name="Trazado 127589" d="M22.987,51.635a6.045,6.045,0,0,0-1.817-3.717c-1.831-1.858-3.682-3.7-5.532-5.537a1.357,1.357,0,0,0-2.01-.084,1.373,1.373,0,0,0,.1,1.978c.8.822,1.628,1.624,2.436,2.443a2.564,2.564,0,0,1,.11,3.686,2.631,2.631,0,0,1-3.742-.071c-2.108-2.091-4.2-4.2-6.3-6.3a2.253,2.253,0,0,1-.7-1.607c-.006-.343,0-.687-.027-1.029a.69.69,0,0,1,.484-.8h0a2.774,2.774,0,0,1,.079-1,.519.519,0,0,1-.575-.453c-.048-.352.205-.5.487-.608a2.65,2.65,0,0,1,.081-1c-.43-.007-.611-.235-.6-.655.009-.377.009-.755-.008-1.132a1.559,1.559,0,0,0-1.546-1.537,1.528,1.528,0,0,0-1.52,1.556c.016,3.071.053,6.142.081,9.213a1.883,1.883,0,0,0,.678,1.334c3.448,3.443,6.884,6.9,10.345,10.327a1.713,1.713,0,0,1,.629,1.525,6.894,6.894,0,0,0,.01.975h8.947c-.006-2.5.146-5.01-.091-7.509m-7.749-7.628c-.458-.012-1.032-.583-1.014-.909a.52.52,0,0,1,.472-.518c.282-.041.969.655.964.949-.006.344-.209.479-.422.478m7.229,13.229c.007.387-.094.739-.511.746s-.53-.336-.527-.728c.01-1.372-.009-2.745.007-4.117a5.693,5.693,0,0,0-1.843-4.449c-1.052-.984-2.045-2.03-3.063-3.05-.1-.1-.2-.191-.285-.3a.471.471,0,0,1-.006-.693.5.5,0,0,1,.737,0c.305.275.593.572.877.869,1.113,1.164,2.342,2.216,3.367,3.464a6.016,6.016,0,0,1,1.236,3.673c.037.753.007,1.509.007,2.264,0,.772-.009,1.544,0,2.316" transform="translate(-1.358 -19.467)" fill="#feb59e"/>
          <path id="Trazado_127590" data-name="Trazado 127590" d="M88.24,41.556c.025-1.923.047-3.845.057-5.768a1.494,1.494,0,0,0-.9-1.44,1.416,1.416,0,0,0-1.549.175,1.6,1.6,0,0,0-.622,1.346c-.018,2.077-.059,4.154-.059,6.231a2.79,2.79,0,0,1-.883,2.107c-2.03,2-4.039,4.022-6.048,6.043a2.655,2.655,0,0,1-2.724.784,2.523,2.523,0,0,1-1.1-4.209c.816-.858,1.669-1.681,2.508-2.517a1.5,1.5,0,0,0,.5-.984,1.255,1.255,0,0,0-.688-1.279,1.284,1.284,0,0,0-1.451.116,3.157,3.157,0,0,0-.34.314c-1.737,1.735-3.465,3.479-5.212,5.2A6.784,6.784,0,0,0,67.6,52.645c-.01,2.162,0,4.325.006,6.488h8.948a.564.564,0,0,0,.015-.153A3.144,3.144,0,0,1,77.8,56.008c3.2-3.1,6.32-6.281,9.468-9.433a4.157,4.157,0,0,0,.771-.89.6.6,0,0,1,.672-.255h0l.021-1.006a.528.528,0,0,1-.5-.5c-.015-.324.211-.481.5-.564a2.771,2.771,0,0,1,.079-1c-.512-.039-.575-.386-.57-.8M75.42,57.279c-.325-.007-.51-.16-.5-.5s.488-.853.788-.818a.562.562,0,0,1,.526.535c.03.309-.483.783-.813.782m12.251-21.2c-.154,3-.053,5.868-.081,8.73a1.386,1.386,0,0,1-.441,1q-4.694,4.7-9.392,9.388a1.367,1.367,0,0,1-.368.273.473.473,0,0,1-.609-.1.459.459,0,0,1-.016-.613,5.419,5.419,0,0,1,.5-.586q4.418-4.425,8.849-8.839a1.413,1.413,0,0,0,.459-1.124c-.026-1.938.01-3.877-.014-5.815-.01-.859.106-1.708.1-2.564,0-.306.068-.556.421-.593.373-.039.516.223.59.52a.891.891,0,0,1,.006.316" transform="translate(-38.461 -19.456)" fill="#feb59e"/>
          <path id="Trazado_127591" data-name="Trazado 127591" d="M39.222,18.037q1.987-1.982,3.97-3.969c.528-.528.73-.526,1.271.013q1.986,1.983,3.968,3.971a1.719,1.719,0,0,0,1.431.565,1.456,1.456,0,0,0,1.314-1,1.546,1.546,0,0,0-.365-1.71q-1.74-1.756-3.5-3.5a.987.987,0,0,1-.325-.769c.013-1.236.016-2.472,0-3.708,0-.315.075-.405.4-.4,1.184.02,2.37.022,3.554,0a1.556,1.556,0,0,0,1.51-1.524,1.572,1.572,0,0,0-1.464-1.57c-.325-.023-.652-.013-.978-.013-1.436,0-2.871,0-4.363,0A4.654,4.654,0,0,0,45.9,1.9,2.072,2.072,0,0,0,43.682,0,2.107,2.107,0,0,0,41.66,2.068a4.6,4.6,0,0,0,.269,2.325H33.821a4.409,4.409,0,0,0,.257-2.511A2.079,2.079,0,0,0,31.834,0a2.119,2.119,0,0,0-2.007,2.089,4.58,4.58,0,0,0,.278,2.318H21.992a4.357,4.357,0,0,0,.285-2.191A2.137,2.137,0,1,0,18,2.165a4.414,4.414,0,0,0,.289,2.261c-1.739,0-3.416,0-5.094,0a1.564,1.564,0,1,0,0,3.114c1.116.005,2.232.014,3.348-.006.319-.006.4.081.4.4q-.028,1.854,0,3.708a1.092,1.092,0,0,1-.36.859c-1.126,1.108-2.236,2.231-3.355,3.345a1.708,1.708,0,0,0-.532.917,1.595,1.595,0,0,0,2.71,1.428c1.392-1.375,2.771-2.765,4.156-4.148.487-.486.718-.489,1.2-.009q2.026,2.017,4.047,4.038a1.623,1.623,0,0,0,2.561-.014q2.007-2,4.008-4c.51-.509.721-.509,1.237.006q1.987,1.983,3.97,3.97a1.643,1.643,0,0,0,2.638.009M42.686,2.1a1.089,1.089,0,0,1,1.04-1.068,1.048,1.048,0,0,1,1.151.99,7.726,7.726,0,0,1,0,1.384,1.089,1.089,0,0,1-1.1,1.011,1.126,1.126,0,0,1-1.093-1.084c-.014-.2,0-.411,0-.616s-.012-.412,0-.616M30.879,1.961a1.1,1.1,0,0,1,2.174,0,4.966,4.966,0,0,1,.006.768h.036a6.114,6.114,0,0,1-.048.767,1.108,1.108,0,0,1-1.082.92,1.094,1.094,0,0,1-1.08-.922,5.275,5.275,0,0,1-.006-1.537m-11.823.051a1.044,1.044,0,0,1,1.111-.979,1.09,1.09,0,0,1,1.075,1.033c.019.221,0,.445,0,.668h0a6.376,6.376,0,0,1,0,.667,1.122,1.122,0,0,1-1.1,1.019,1.075,1.075,0,0,1-1.078-.973,7.774,7.774,0,0,1,0-1.434m14.274,11.3a1.652,1.652,0,0,0-2.675.006q-1.986,1.983-3.97,3.967c-.493.492-.709.493-1.2,0q-1.97-1.963-3.935-3.929a1.669,1.669,0,0,0-2.749-.017q-1.987,1.983-3.968,3.969c-.294.3-.615.514-.968.155s-.131-.678.164-.971c1.109-1.1,2.2-2.214,3.319-3.308a1.96,1.96,0,0,0,.625-1.512c-.019-1.459,0-2.918-.006-4.376,0-.658-.128-.788-.774-.79-1.3,0-2.609-.007-3.914,0-.407,0-.763-.085-.748-.558.013-.441.366-.505.747-.5q9.372.007,18.744,0H50.457c.412,0,.878-.066.948.519.044.372-.264.537-.926.537-1.253,0-2.506,0-3.759,0-.621,0-.754.134-.756.755,0,1.459.011,2.918-.006,4.376a1.962,1.962,0,0,0,.638,1.507c1.14,1.117,2.259,2.255,3.391,3.381.28.278.4.588.1.9s-.625.181-.906-.081c-.088-.082-.17-.169-.256-.254q-1.856-1.857-3.713-3.714c-1-1-1.791-1-2.782-.01q-1.858,1.856-3.714,3.714c-.79.79-.832.79-1.64-.018q-1.875-1.875-3.75-3.75" transform="translate(-6.534 0)"/>
          <path id="Trazado_127592" data-name="Trazado 127592" d="M66.086,57.16c0-2.025-.03-4.051.006-6.075a6.558,6.558,0,0,1,1.921-4.592c1.8-1.842,3.633-3.648,5.457-5.466a1.588,1.588,0,0,1,1.11-.577,1.385,1.385,0,0,1,1.362.654,1.523,1.523,0,0,1-.064,1.658,3.334,3.334,0,0,1-.478.538c-.75.755-1.529,1.483-2.249,2.265a2.355,2.355,0,0,0,.71,3.863,2.3,2.3,0,0,0,2.635-.423q3.319-3.271,6.592-6.589a1.95,1.95,0,0,0,.518-1.3c.159-2.16.066-4.322.093-6.482a1.839,1.839,0,0,1,.613-1.471,1.494,1.494,0,0,1,1.578-.337,1.609,1.609,0,0,1,1.143,1.456,47.387,47.387,0,0,1-.018,4.887c-.012.188-.035.375-.051.563a1.364,1.364,0,0,0,.466,1.289c.377-.081.462-.347.465-.69.014-1.974.039-3.948.054-5.922a2.493,2.493,0,0,0-.344-1.275,2.564,2.564,0,0,0-4.787,1.287q-.048,3.192-.067,6.386a1.705,1.705,0,0,1-.527,1.284c-2.048,2.03-4.08,4.077-6.123,6.113a1.622,1.622,0,0,1-2.341.125,1.55,1.55,0,0,1,.157-2.283c.8-.8,1.607-1.6,2.4-2.406a2.392,2.392,0,0,0,.056-3.452,2.363,2.363,0,0,0-3.406.09c-1.8,1.791-3.59,3.6-5.4,5.385a7.815,7.815,0,0,0-2.386,5.675c-.023,2.094-.008,4.189-.016,6.283,0,.317.043.605.4.679.387.08.554-.18.653-.5-.184-.179-.14-.414-.14-.631" transform="translate(-37.082 -18.115)"/>
          <path id="Trazado_127593" data-name="Trazado 127593" d="M67.41,52.47A6.782,6.782,0,0,1,69.537,47.5c1.747-1.724,3.475-3.469,5.212-5.2a3.2,3.2,0,0,1,.34-.313,1.284,1.284,0,0,1,1.451-.116,1.255,1.255,0,0,1,.688,1.279,1.5,1.5,0,0,1-.5.984c-.839.837-1.692,1.66-2.508,2.518a2.523,2.523,0,0,0,1.1,4.209,2.655,2.655,0,0,0,2.724-.784c2.009-2.021,4.017-4.043,6.048-6.043a2.786,2.786,0,0,0,.882-2.106c0-2.077.041-4.154.059-6.231a1.593,1.593,0,0,1,.622-1.346,1.417,1.417,0,0,1,1.549-.176,1.5,1.5,0,0,1,.9,1.44q-.016,2.884-.057,5.768c-.005.417.058.763.57.8a1.364,1.364,0,0,1-.466-1.289c.016-.188.039-.375.051-.563a47.4,47.4,0,0,0,.018-4.887,1.609,1.609,0,0,0-1.143-1.456,1.494,1.494,0,0,0-1.578.337A1.839,1.839,0,0,0,84.89,35.8c-.027,2.161.066,4.323-.093,6.482a1.952,1.952,0,0,1-.518,1.3Q81,46.892,77.687,50.171a2.3,2.3,0,0,1-2.635.423,2.355,2.355,0,0,1-.71-3.863c.72-.783,1.5-1.51,2.249-2.265a3.334,3.334,0,0,0,.478-.538,1.523,1.523,0,0,0,.064-1.658,1.385,1.385,0,0,0-1.362-.654,1.59,1.59,0,0,0-1.11.577C72.837,44.01,71,45.816,69.2,47.658a6.558,6.558,0,0,0-1.921,4.592c-.036,2.024-.01,4.05-.006,6.075,0,.217-.044.452.14.631,0-2.162-.017-4.325-.006-6.487" transform="translate(-38.272 -19.281)"/>
          <path id="Trazado_127594" data-name="Trazado 127594" d="M28.373,60.809a7.26,7.26,0,0,0-2.056-5.023c-1.911-1.972-3.867-3.9-5.821-5.832a2.221,2.221,0,0,0-2.379-.54,2.363,2.363,0,0,0-.937,3.925c.855.892,1.752,1.743,2.612,2.631a1.509,1.509,0,0,1-1.448,2.535,1.848,1.848,0,0,1-.908-.551C15.631,56.142,13.855,54.3,12,52.542a3.052,3.052,0,0,1-1.192-2.773.606.606,0,0,0-.546-.735,2.882,2.882,0,0,0,.319,3.273c2.128,2.145,4.288,4.26,6.4,6.42a2.587,2.587,0,0,0,3.417.07,2.406,2.406,0,0,0,.049-3.433c-.758-.818-1.571-1.585-2.36-2.375a2.326,2.326,0,0,1-.545-.741,1.531,1.531,0,0,1,.375-1.7,1.583,1.583,0,0,1,1.828-.046,4.437,4.437,0,0,1,.533.484l5.1,5.1a6.916,6.916,0,0,1,2.111,5.089c0,1.905,0,3.811,0,5.717,0,.233.061.486-.135.684.1.323.267.583.654.5.358-.074.4-.363.4-.679-.01-2.2.022-4.395-.029-6.591" transform="translate(-5.629 -27.9)"/>
          <path id="Trazado_127595" data-name="Trazado 127595" d="M27.324,66.892c.006-1.906,0-3.811,0-5.717a6.917,6.917,0,0,0-2.11-5.088l-5.1-5.1a4.334,4.334,0,0,0-.533-.484,1.581,1.581,0,0,0-1.827.046,1.531,1.531,0,0,0-.375,1.7,2.324,2.324,0,0,0,.545.742c.788.79,1.6,1.556,2.36,2.375a2.406,2.406,0,0,1-.049,3.433,2.587,2.587,0,0,1-3.417-.07c-2.112-2.161-4.272-4.275-6.4-6.421a2.882,2.882,0,0,1-.319-3.273.691.691,0,0,0-.484.8c.023.342.021.686.027,1.029a2.25,2.25,0,0,0,.7,1.606c2.1,2.1,4.193,4.206,6.3,6.3a2.631,2.631,0,0,0,3.742.07,2.565,2.565,0,0,0-.11-3.686c-.807-.819-1.631-1.621-2.436-2.443a1.373,1.373,0,0,1-.1-1.978,1.357,1.357,0,0,1,2.01.084c1.85,1.84,3.7,3.679,5.532,5.537A6.047,6.047,0,0,1,27.1,60.067c.237,2.5.085,5.005.091,7.509.2-.2.134-.451.134-.684" transform="translate(-5.47 -27.9)"/>
          <path id="Trazado_127596" data-name="Trazado 127596" d="M12.632,56.832a1.684,1.684,0,0,0-.585-1.4C8.593,51.917,5.139,48.4,1.637,44.94a2.057,2.057,0,0,1-.664-1.6c.075-2.883-.165-5.762-.1-8.646a1.974,1.974,0,0,1,.553-1.5,1.505,1.505,0,0,1,1.61-.4,1.736,1.736,0,0,1,1.181,1.437,3.412,3.412,0,0,1,.023.822A1.1,1.1,0,0,0,4.7,36.16a.555.555,0,0,0,.433-.612c-.01-.428.007-.858-.019-1.286a2.478,2.478,0,0,0-.9-1.837,2.425,2.425,0,0,0-2.692-.389A2.436,2.436,0,0,0,0,34.4c.008,2.95.066,5.9.066,8.85A3.29,3.29,0,0,0,1.1,45.718c3.238,3.215,6.44,6.465,9.7,9.662a2.354,2.354,0,0,1,.932,2.209.521.521,0,0,0,.394.677c.382.079.562-.164.649-.5a1.138,1.138,0,0,1-.14-.935" transform="translate(0 -18.089)"/>
          <path id="Trazado_127597" data-name="Trazado 127597" d="M13.9,57.984a1.713,1.713,0,0,0-.629-1.525c-3.462-3.429-6.9-6.884-10.345-10.327A1.884,1.884,0,0,1,2.248,44.8c-.029-3.071-.066-6.142-.082-9.212a1.529,1.529,0,0,1,1.52-1.556,1.559,1.559,0,0,1,1.546,1.537c.017.377.017.755.008,1.132-.01.42.171.647.6.655a1.105,1.105,0,0,1-.464-1.115,3.456,3.456,0,0,0-.023-.822A1.736,1.736,0,0,0,4.174,33.98a1.5,1.5,0,0,0-1.61.4,1.973,1.973,0,0,0-.553,1.5c-.064,2.883.176,5.763.1,8.646a2.056,2.056,0,0,0,.664,1.6c3.5,3.466,6.956,6.978,10.41,10.49a1.684,1.684,0,0,1,.585,1.4,1.138,1.138,0,0,0,.14.935,6.894,6.894,0,0,1-.01-.975" transform="translate(-1.138 -19.282)"/>
          <path id="Trazado_127598" data-name="Trazado 127598" d="M98.754,61.919c-.228.227-.43.487-.66.717q-4.522,4.522-9.052,9.036a1.568,1.568,0,0,0-.539,1.309c.021.325.123.685-.125.986.084.337.266.578.647.5.353-.072.419-.357.4-.675-.009-.188.02-.38-.006-.565a1.329,1.329,0,0,1,.5-1.2Q94.989,67,100.027,61.935a5.066,5.066,0,0,0,.634-.739.6.6,0,0,0-.126-.933,6.939,6.939,0,0,0-1.781,1.656" transform="translate(-50.286 -34.289)"/>
          <path id="Trazado_127599" data-name="Trazado 127599" d="M99.819,60.5a4.179,4.179,0,0,1-.771.889c-3.149,3.152-6.267,6.335-9.468,9.434A3.144,3.144,0,0,0,88.348,73.8a.55.55,0,0,1-.016.153c.248-.3.146-.661.125-.986A1.569,1.569,0,0,1,89,71.658q4.543-4.5,9.052-9.036c.23-.23.431-.489.66-.717a6.946,6.946,0,0,1,1.781-1.656.6.6,0,0,0-.672.255" transform="translate(-50.241 -34.275)"/>
          <path id="Trazado_127600" data-name="Trazado 127600" d="M116.211,56.522c.3-.046.514-.19.516-.527s-.23-.468-.515-.539c-.426.529-.426.529,0,1.066" transform="translate(-65.942 -31.554)" fill="#070605"/>
          <path id="Trazado_127601" data-name="Trazado 127601" d="M115.479,56.019a.528.528,0,0,0,.5.5c-.425-.537-.425-.537,0-1.066-.287.082-.513.24-.5.564" transform="translate(-65.706 -31.553)" fill="#070605"/>
          <path id="Trazado_127602" data-name="Trazado 127602" d="M10.24,45.173a.216.216,0,0,1,.128.145.516.516,0,0,0,.437-.538c0-.353-.291-.408-.525-.523a.425.425,0,0,1-.139.2c-.291.282-.267.52.1.711" transform="translate(-5.657 -25.182)" fill="#050403"/>
          <path id="Trazado_127603" data-name="Trazado 127603" d="M9.588,44.865a.519.519,0,0,0,.575.453.217.217,0,0,0-.128-.145c-.365-.191-.389-.429-.1-.711a.423.423,0,0,0,.139-.2c-.282.108-.535.256-.487.608" transform="translate(-5.452 -25.182)" fill="#050403"/>
          <path id="Trazado_127604" data-name="Trazado 127604" d="M40.545,66.219a6.02,6.02,0,0,0-1.236-3.673c-1.026-1.249-2.254-2.3-3.367-3.464-.284-.3-.572-.593-.877-.869a.5.5,0,0,0-.737,0,.472.472,0,0,0,.007.693c.087.105.187.2.285.3,1.018,1.019,2.012,2.066,3.063,3.049a5.691,5.691,0,0,1,1.843,4.45c-.016,1.372,0,2.744-.007,4.117,0,.392.109.734.526.728s.519-.359.512-.746c-.013-.772,0-1.543,0-2.315,0-.755.029-1.511-.007-2.264" transform="translate(-19.447 -33.029)" fill="#fadfe1"/>
          <path id="Trazado_127605" data-name="Trazado 127605" d="M30.322,53.625a.519.519,0,0,0-.472.518c-.019.326.556.9,1.014.909.213,0,.416-.135.422-.478.005-.294-.682-.99-.964-.949" transform="translate(-16.984 -30.511)" fill="#fadfe0"/>
          <path id="Trazado_127606" data-name="Trazado 127606" d="M99.035,36.612c-.353.037-.424.287-.421.592.008.856-.109,1.705-.1,2.564.024,1.938-.012,3.877.014,5.816a1.412,1.412,0,0,1-.459,1.124q-4.438,4.4-8.848,8.839a5.34,5.34,0,0,0-.5.586.457.457,0,0,0,.016.612.472.472,0,0,0,.609.1,1.358,1.358,0,0,0,.368-.273q4.7-4.691,9.392-9.388a1.384,1.384,0,0,0,.441-1c.028-2.861-.074-5.725.081-8.729a.9.9,0,0,0-.006-.316c-.075-.3-.217-.559-.591-.52" transform="translate(-50.422 -20.83)" fill="#fadfe1"/>
          <path id="Trazado_127607" data-name="Trazado 127607" d="M85.376,84.7c-.3-.035-.778.472-.788.818s.176.492.5.5.843-.473.813-.782a.563.563,0,0,0-.526-.535" transform="translate(-48.13 -48.19)" fill="#fadee0"/>
          <path id="Trazado_127608" data-name="Trazado 127608" d="M40.1,24.283l3.714-3.714c.99-.99,1.784-.987,2.782.009l3.713,3.714c.085.086.168.173.256.254.281.262.6.39.906.081s.176-.617-.1-.9c-1.131-1.126-2.25-2.265-3.39-3.382a1.96,1.96,0,0,1-.639-1.506c.018-1.459,0-2.918.007-4.376,0-.621.134-.754.755-.755,1.253,0,2.506,0,3.759,0,.662,0,.97-.165.926-.537-.07-.585-.536-.519-.948-.519H33.405q-9.372,0-18.744,0c-.381,0-.734.063-.747.505-.014.472.341.561.748.558,1.3-.009,2.609,0,3.914,0,.645,0,.773.132.774.79,0,1.459-.012,2.918.007,4.376a1.961,1.961,0,0,1-.625,1.513c-1.115,1.093-2.21,2.207-3.319,3.308-.295.293-.515.614-.164.971s.674.141.968-.156q1.979-1.989,3.968-3.968a1.669,1.669,0,0,1,2.749.017q1.969,1.964,3.936,3.929c.49.488.705.487,1.2-.005q1.987-1.981,3.97-3.966a1.651,1.651,0,0,1,2.675-.006q1.877,1.872,3.75,3.75c.808.808.849.808,1.64.018m-8.919-5.219a1.636,1.636,0,0,1-.505,1.2c-.909.909-1.815,1.821-2.729,2.727-.391.387-.592.384-.993-.014-.913-.905-1.816-1.82-2.73-2.725a1.8,1.8,0,0,1-.55-1.338c0-1.491,0-2.983,0-4.474,0-.559.172-.721.746-.723,1.012,0,2.023,0,3.035,0s2.023.006,3.034,0c.468,0,.7.194.693.675-.007,1.56,0,3.12,0,4.68m4.324-.147c.011-1.491,0-2.983,0-4.474,0-.571.159-.728.732-.73,1.012,0,2.023,0,3.035,0,.994,0,1.989,0,2.983,0,.58,0,.752.159.753.716.006,1.525,0,3.051,0,4.577a1.749,1.749,0,0,1-.543,1.288c-.9.895-1.792,1.8-2.694,2.688-.395.391-.6.389-.993,0-.913-.906-1.818-1.819-2.73-2.726a1.777,1.777,0,0,1-.551-1.334" transform="translate(-7.917 -7.199)" fill="#72c1e8"/>
          <path id="Trazado_127609" data-name="Trazado 127609" d="M30.093,5.782a1.122,1.122,0,0,0,1.1-1.019,6.377,6.377,0,0,0,0-.667h0c0-.223.016-.447,0-.668A1.089,1.089,0,0,0,30.122,2.4a1.044,1.044,0,0,0-1.11.979,7.737,7.737,0,0,0,0,1.434,1.076,1.076,0,0,0,1.078.973" transform="translate(-16.49 -1.363)" fill="#fdb59e"/>
          <path id="Trazado_127610" data-name="Trazado 127610" d="M57.5,5.783a1.108,1.108,0,0,0,1.082-.92,6.041,6.041,0,0,0,.048-.767h-.036a4.965,4.965,0,0,0-.006-.768,1.1,1.1,0,0,0-2.173,0,5.257,5.257,0,0,0,.005,1.536,1.1,1.1,0,0,0,1.08.922" transform="translate(-32.068 -1.363)" fill="#fdb59e"/>
          <path id="Trazado_127611" data-name="Trazado 127611" d="M83.87,4.7a1.125,1.125,0,0,0,1.093,1.084,1.089,1.089,0,0,0,1.1-1.01,7.77,7.77,0,0,0,0-1.384,1.048,1.048,0,0,0-1.151-.99,1.09,1.09,0,0,0-1.04,1.068c-.014.2,0,.411,0,.616s-.012.412,0,.616" transform="translate(-47.717 -1.363)" fill="#fdb59e"/>
          <path id="Trazado_127612" data-name="Trazado 127612" d="M43.383,15.1c-1.011.009-2.023,0-3.034,0s-2.023,0-3.035,0c-.573,0-.743.163-.746.723,0,1.491,0,2.983,0,4.474a1.8,1.8,0,0,0,.55,1.338c.914.9,1.817,1.819,2.73,2.725.4.4.6.4.993.013.914-.9,1.82-1.817,2.729-2.726a1.638,1.638,0,0,0,.505-1.2c0-1.56,0-3.12,0-4.68,0-.481-.226-.678-.693-.675m-.336,5.246a.832.832,0,0,1-.266.638c-.731.724-1.465,1.445-2.178,2.188-.22.23-.336.166-.523-.025Q39,22.045,37.9,20.966a.943.943,0,0,1-.305-.728c.01-1.235.015-2.47,0-3.7,0-.314.075-.414.4-.4.788.024,1.578.008,2.367.008.772,0,1.544.011,2.316-.006.278-.006.384.056.38.36-.017,1.287-.012,2.573,0,3.859" transform="translate(-20.806 -8.594)"/>
          <path id="Trazado_127613" data-name="Trazado 127613" d="M68.29,24.379c.9-.892,1.795-1.793,2.693-2.689a1.749,1.749,0,0,0,.543-1.287c0-1.526,0-3.052,0-4.577,0-.557-.174-.714-.754-.716-.994,0-1.989,0-2.983,0-1.012,0-2.023,0-3.035,0-.574,0-.731.159-.733.73,0,1.492.006,2.983,0,4.474a1.776,1.776,0,0,0,.551,1.334c.911.907,1.817,1.82,2.73,2.726.4.394.6.4.993.005M65.3,20.926a.785.785,0,0,1-.254-.592c.007-1.287.01-2.574,0-3.861,0-.272.079-.347.347-.341.789.017,1.578.006,2.368.006s1.579.013,2.368-.006c.292-.007.379.078.376.373-.016,1.27-.011,2.539,0,3.809a.9.9,0,0,1-.281.687c-.732.724-1.462,1.45-2.179,2.188-.187.192-.3.188-.485,0-.742-.763-1.5-1.51-2.253-2.261" transform="translate(-36.425 -8.596)"/>
        </g>
      </g>
      <g id="Grupo_156651" data-name="Grupo 156651" transform="translate(280 6270)">
        <path id="Trazado_127053" data-name="Trazado 127053" d="M15.507,123.96c-.454.1-.559-.113-.555-.537.012-1.063-.007-1.081-1.106-1.075-.409,0-.536-.124-.528-.529.007-.377.077-.553.512-.551,1.1,0,1.131-.018,1.119-1.119-.005-.5.239-.507.608-.511s.56.058.56.5c0,1.115.023,1.135,1.112,1.131.421,0,.521.15.522.541s-.1.541-.52.539c-1.11-.006-1.137.014-1.112,1.066.012.488-.169.631-.611.545" transform="translate(339.683 4573.993)" fill="#29c4bb"/>
        <path id="Trazado_127054" data-name="Trazado 127054" d="M213.642,151.161c.406-.078.632.057.565.517-.056.385.077.6.5.533s.57.088.573.537c0,.47-.189.578-.589.525-.383-.052-.5.115-.5.5.012.6-.357.826-.934.645-.274-.086-.214-.3-.2-.477.048-.472-.06-.76-.616-.666-.431.073-.457-.2-.456-.527s.014-.6.451-.53c.471.073.694-.1.616-.6-.075-.475.23-.5.582-.454" transform="translate(195.806 4552.685)" fill="#29c4bb"/>
        <path id="Trazado_127055" data-name="Trazado 127055" d="M210.718,69.268c.1.453-.1.608-.527.537-.46-.078-.648.111-.567.569s-.113.548-.542.553-.609-.127-.532-.557c.082-.459-.109-.648-.565-.562-.472.089-.513-.158-.531-.555-.021-.466.16-.588.566-.517.441.077.606-.106.531-.537-.072-.412.061-.579.521-.563.4.014.639.072.552.536s.115.639.567.563c.425-.072.632.081.526.534" transform="translate(199.254 4608.526)" fill="#010000"/>
        <path id="Trazado_127056" data-name="Trazado 127056" d="M55.04,186.64c.1.423-.11.578-.532.5-.5-.09-.614.169-.543.587.079.465-.146.537-.555.535-.39,0-.6-.091-.518-.511.108-.553-.169-.688-.645-.607s-.466-.225-.467-.559.007-.6.448-.512c.593.117.745-.168.665-.7-.077-.508.311-.362.569-.377.274-.016.579-.052.5.389-.1.545.092.8.67.687.482-.092.423.243.409.566" transform="translate(311.829 4530.025)" fill="#010000"/>
        <path id="Trazado_127057" data-name="Trazado 127057" d="M121.786,17.426c-.114-.483.153-.577.548-.518.41.061.572-.109.509-.513s.058-.588.522-.578c.427.009.623.119.548.558s.131.6.553.533c.391-.059.587.035.589.513s-.182.62-.608.553c-.45-.072-.6.133-.533.553.078.472-.175.526-.572.534-.424.009-.562-.151-.5-.54.068-.427-.09-.622-.535-.547s-.62-.106-.523-.547" transform="translate(261.153 4643.184)" fill="#29c4bb"/>
      </g>
    </g>
  </g>
</svg>
