<svg xmlns="http://www.w3.org/2000/svg" xmlns:xlink="http://www.w3.org/1999/xlink" width="90.773" height="90.773" viewBox="0 0 90.773 90.773">
  <defs>
    <clipPath id="clip-path">
      <rect id="Rectángulo_37148" data-name="Rectángulo 37148" width="35.408" height="50.258" fill="none"/>
    </clipPath>
  </defs>
  <g id="Grupo_163986" data-name="Grupo 163986" transform="translate(-4749 9996)">
    <path id="Trazado_127483" data-name="Trazado 127483" d="M45.387,0A45.387,45.387,0,1,1,0,45.387,45.387,45.387,0,0,1,45.387,0Z" transform="translate(4749 -9996)" fill="#b0c8cb"/>
    <g id="Grupo_158815" data-name="Grupo 158815" transform="translate(11148.246 -3425.586)">
      <g id="Grupo_156595" data-name="Grupo 156595" transform="translate(-6385.246 -6555.413)">
        <path id="Trazado_127053" data-name="Trazado 127053" d="M15.375,123.6c.416.093.513-.1.509-.492-.011-.974.006-.992,1.015-.986.375,0,.492-.114.485-.485-.007-.346-.07-.507-.469-.505-1.011,0-1.037-.017-1.026-1.026,0-.457-.219-.465-.558-.469s-.514.053-.514.459c0,1.022-.021,1.041-1.019,1.037-.386,0-.478.138-.479.5s.091.5.477.494c1.018-.006,1.042.013,1.02.978-.011.448.155.579.561.5" transform="translate(44.792 -83.878)" fill="#29c4bb"/>
        <path id="Trazado_127054" data-name="Trazado 127054" d="M213.5,151.159c-.373-.071-.579.052-.518.474.051.353-.071.55-.461.489s-.522.081-.525.492c0,.431.173.53.54.481.351-.047.462.105.455.455-.011.547.328.757.857.591.251-.079.2-.279.18-.437-.044-.432.055-.7.565-.611.395.067.419-.181.418-.484s-.013-.548-.414-.486c-.432.067-.636-.091-.564-.547.068-.436-.211-.455-.533-.417" transform="translate(-211.994 -104.948)" fill="#29c4bb"/>
        <path id="Trazado_127055" data-name="Trazado 127055" d="M207.478,69.132c-.1.416.094.558.484.492.422-.071.594.1.52.521s.1.5.5.507.558-.116.488-.511c-.075-.42.1-.594.518-.515s.471-.145.487-.509c.019-.427-.147-.539-.519-.474-.4.071-.555-.1-.487-.492.066-.378-.056-.531-.477-.516-.371.013-.586.066-.506.491s-.105.586-.52.516c-.39-.066-.58.074-.483.49" transform="translate(-204.437 -61.871)" fill="#010000"/>
        <path id="Trazado_127056" data-name="Trazado 127056" d="M51.8,186.5c-.091.388.1.53.488.46.455-.082.563.155.5.538-.072.426.134.493.509.49.358,0,.55-.083.475-.469-.1-.507.155-.631.591-.556s.427-.206.428-.513-.006-.549-.411-.47c-.544.108-.683-.154-.61-.641.07-.466-.285-.332-.522-.346s-.531-.047-.458.357c.09.5-.085.732-.614.63-.442-.085-.388.223-.375.519" transform="translate(-4.069 -127.272)" fill="#010000"/>
        <path id="Trazado_127057" data-name="Trazado 127057" d="M124.759,17.292c.1-.443-.141-.529-.5-.475s-.524-.1-.467-.47-.053-.539-.479-.53c-.392.008-.571.109-.5.512s-.121.547-.507.489c-.358-.054-.538.032-.54.47s.167.569.558.507c.413-.066.553.122.489.507-.072.432.16.482.524.49.389.008.516-.138.458-.495-.062-.391.082-.57.49-.5s.569-.1.48-.5" transform="translate(-94.9 -15.817)" fill="#29c4bb"/>
      </g>
      <g id="Grupo_156617" data-name="Grupo 156617" transform="translate(-6371.163 -6550.425)">
        <g id="Grupo_156617-2" data-name="Grupo 156617" clip-path="url(#clip-path)">
          <path id="Trazado_127344" data-name="Trazado 127344" d="M34.665,45.086c.621.261.755.513.62,1.16a5.024,5.024,0,0,1-4.818,4q-12.745.032-25.491,0A5.014,5.014,0,0,1,.01,45.391C0,45.212,0,45.033,0,44.854Q0,28.3,0,11.743A5.091,5.091,0,0,1,3.736,6.606a8.657,8.657,0,0,1,2.506-.158c.342,0,.417-.1.409-.42-.021-.912-.01-1.824-.007-2.737,0-.75.246-1,.992-1,2,0,4.007-.008,6.01.005a.666.666,0,0,0,.674-.367,3.928,3.928,0,0,1,6.759,0,.668.668,0,0,0,.673.37c1.985-.014,3.971-.009,5.957-.006.817,0,1.048.236,1.05,1.054,0,.877.019,1.754-.008,2.63-.011.365.072.488.461.479a9.557,9.557,0,0,1,2.139.086A5.086,5.086,0,0,1,35.4,11.261a.825.825,0,0,1-.534.892c-.643.169-.936,0-1.087-.639-.062-.261-.094-.528-.158-.789a3.287,3.287,0,0,0-3.258-2.6q-12.637-.016-25.274,0a3.377,3.377,0,0,0-3.416,3.3c-.016.2-.013.393-.013.59q0,16.34,0,32.679a5.269,5.269,0,0,0,.083,1.067,3.357,3.357,0,0,0,3.421,2.816q7.754.011,15.508,0,4.668,0,9.337,0a3.411,3.411,0,0,0,3.647-2.692c.228-.729.453-.908,1.012-.8" transform="translate(0 0)"/>
          <path id="Trazado_127345" data-name="Trazado 127345" d="M37.714,61.209a.869.869,0,0,0-.855.8,3.5,3.5,0,0,1-3.575,2.862q-12.534.008-25.068,0a3.531,3.531,0,0,1-3.66-3.655q-.01-16.748,0-33.5a3.521,3.521,0,0,1,3.655-3.652q12.534-.008,25.068,0a3.534,3.534,0,0,1,3.66,3.322c.076.736.249.9.973.888-.214.132-.207.34-.205.555.006.917,0,1.835.005,2.752a1.734,1.734,0,0,0-.6,1.615c.025,1.769.03,3.538,0,5.307a1.385,1.385,0,0,0,.7,1.473,3.119,3.119,0,0,0-.093,1.317c-.021.659,0,1.32,0,1.98a1.548,1.548,0,0,0-.593,1.5q.023,5.805,0,11.611c0,.645.063,1.2.69,1.532a2.611,2.611,0,0,0-.095,1.209c-.02.695,0,1.39,0,2.085" transform="translate(-3.05 -16.123)" fill="#29c4bb"/>
          <path id="Trazado_127346" data-name="Trazado 127346" d="M103.588,96.926c-.654-.058-.858-.26-.858-.9q0-6.414-.005-12.828a.8.8,0,0,1,.769-.91.841.841,0,0,1,.74.95q-.007,6.386,0,12.772a.818.818,0,0,1-.644.917" transform="translate(-68.828 -55.134)"/>
          <path id="Trazado_127347" data-name="Trazado 127347" d="M103.579,55.251c-.651-.059-.855-.262-.856-.9,0-2.175.008-4.35-.009-6.525a.85.85,0,0,1,.77-.97.886.886,0,0,1,.745,1c-.012,2.141-.009,4.282,0,6.423,0,.479-.14.839-.647.966" transform="translate(-68.821 -31.395)"/>
          <path id="Trazado_127348" data-name="Trazado 127348" d="M51.106,7.06a2.464,2.464,0,1,1-2.422-2.487A2.483,2.483,0,0,1,51.106,7.06" transform="translate(-30.941 -3.064)" fill="#fee734"/>
          <path id="Trazado_127349" data-name="Trazado 127349" d="M31.1,14.124c-2.085,0-4.069,0-6.053,0-.252,0-.395-.028-.385-.339.022-.661.016-1.323,0-1.984-.006-.26.086-.336.34-.335,1.645.009,3.29,0,4.934,0,.169,0,.321,0,.323.237a4.273,4.273,0,0,0,.839,2.413" transform="translate(-16.526 -7.685)" fill="#9baeca"/>
          <path id="Trazado_127350" data-name="Trazado 127350" d="M63.109,14.124a4.292,4.292,0,0,0,.839-2.414c0-.243.156-.236.324-.236,1.645,0,3.29,0,4.934,0,.254,0,.345.076.339.335-.015.661-.02,1.324,0,1.984.011.311-.134.34-.385.339-1.984-.007-3.968,0-6.054,0" transform="translate(-42.285 -7.685)" fill="#9baeca"/>
          <path id="Trazado_127351" data-name="Trazado 127351" d="M38.5,47.531q0,8.237,0,16.474a2.116,2.116,0,0,1-2.433,2.418H11.436a2.08,2.08,0,0,1-2.329-2.3q0-16.608,0-33.216a2.062,2.062,0,0,1,2.3-2.278H36.195a2.074,2.074,0,0,1,2.3,2.326q0,8.291,0,16.581" transform="translate(-6.101 -19.178)"/>
          <path id="Trazado_127352" data-name="Trazado 127352" d="M40.051,50.524q0,8.265,0,16.53c0,.808-.112.917-.934.917H14.59c-.813,0-.924-.111-.924-.927q0-16.476,0-32.953c0-.809.107-.913.934-.913H39.127c.823,0,.924.1.924.923q0,8.211,0,16.423" transform="translate(-9.157 -22.23)" fill="#f4f2f7"/>
          <path id="Trazado_127353" data-name="Trazado 127353" d="M59.122,46.826c1.411,0,2.822,0,4.233,0,.6,0,.916.26.924.727.008.487-.33.772-.944.773q-4.207,0-8.413,0c-.615,0-.958-.285-.952-.766s.326-.734.971-.735c1.393,0,2.787,0,4.18,0" transform="translate(-36.162 -31.374)"/>
          <path id="Trazado_127354" data-name="Trazado 127354" d="M59.12,79.335c-1.411,0-2.822,0-4.233,0-.6,0-.913-.257-.918-.731s.327-.767.9-.768q4.26-.01,8.519,0c.569,0,.9.31.891.776s-.324.721-.926.722c-1.411,0-2.822,0-4.233,0" transform="translate(-36.161 -52.148)" fill="#010101"/>
          <path id="Trazado_127355" data-name="Trazado 127355" d="M59.123,108.971q2.09,0,4.179,0c.655,0,.969.238.977.724s-.33.775-.945.776q-4.206.007-8.413,0c-.614,0-.957-.291-.951-.771s.327-.728.973-.729q2.09,0,4.179,0" transform="translate(-36.162 -73.013)"/>
          <path id="Trazado_127356" data-name="Trazado 127356" d="M59.114,59.782c-1.393,0-2.787,0-4.18,0-.631,0-.962-.263-.963-.747s.341-.754.961-.754q4.207,0,8.413,0c.61,0,.95.292.935.778-.015.464-.338.72-.933.722-1.411,0-2.822,0-4.233,0" transform="translate(-36.162 -39.048)"/>
          <path id="Trazado_127357" data-name="Trazado 127357" d="M59.134,90.879q-2.009,0-4.018,0a2.572,2.572,0,0,1-.532-.034.687.687,0,0,1-.6-.763.677.677,0,0,1,.675-.693c.266-.023.535-.012.8-.012,2.625,0,5.25,0,7.876,0,.455,0,.825.105.937.6.117.515-.263.9-.908.9-1.411.01-2.822,0-4.232,0" transform="translate(-36.169 -59.882)" fill="#010101"/>
          <path id="Trazado_127358" data-name="Trazado 127358" d="M59.18,120.41q2.063,0,4.126,0c.629,0,.965.261.974.739s-.324.761-.947.762q-4.207,0-8.413,0c-.621,0-.957-.277-.948-.761s.346-.738.974-.74q2.117,0,4.234,0" transform="translate(-36.162 -80.677)"/>
          <path id="Trazado_127359" data-name="Trazado 127359" d="M23.1,48.878a1.071,1.071,0,0,1,.851.391c.35.318.637.932,1.039.9.355-.029.668-.59,1-.918.7-.695,1.39-1.393,2.089-2.085.416-.412.843-.464,1.176-.155.367.341.34.772-.1,1.213q-1.759,1.77-3.53,3.528c-.49.487-.839.484-1.33,0-.536-.527-1.069-1.056-1.592-1.6a.689.689,0,0,1-.155-.836.719.719,0,0,1,.553-.443" transform="translate(-15.054 -31.365)"/>
          <path id="Trazado_127360" data-name="Trazado 127360" d="M29.287,78.557a.921.921,0,0,1-.313.712c-1.2,1.2-2.392,2.4-3.6,3.6a.766.766,0,0,1-1.252,0q-.786-.766-1.552-1.552a.759.759,0,1,1,1.054-1.077,9.254,9.254,0,0,1,.791.8c.237.285.394.287.66.012.942-.975,1.912-1.924,2.871-2.882a.739.739,0,0,1,.873-.207.776.776,0,0,1,.466.606" transform="translate(-14.923 -52.185)"/>
          <path id="Trazado_127361" data-name="Trazado 127361" d="M29.053,109.722a.766.766,0,0,1-.285.584c-1.213,1.212-2.421,2.43-3.642,3.635a.749.749,0,0,1-1.213-.008q-.79-.763-1.556-1.551a.769.769,0,0,1-.07-1.175c.325-.306.734-.268,1.135.1.026.024.049.052.077.075.36.311.639.93,1.045.9.352-.022.673-.577,1-.9q1.1-1.095,2.2-2.2a.749.749,0,0,1,.883-.177.689.689,0,0,1,.425.708" transform="translate(-14.771 -72.993)"/>
        </g>
      </g>
    </g>
  </g>
</svg>
