<svg xmlns="http://www.w3.org/2000/svg" xmlns:xlink="http://www.w3.org/1999/xlink" width="70" height="85" viewBox="0 0 70 85">
  <defs>
    <clipPath id="clip-path">
      <rect id="Rect치ngulo_37914" data-name="Rect치ngulo 37914" width="39.338" height="39.342" fill="none"/>
    </clipPath>
  </defs>
  <g id="Grupo_163996" data-name="Grupo 163996" transform="translate(-503 -4139.875)">
    <rect id="Rect치ngulo_37872" data-name="Rect치ngulo 37872" width="70" height="85" rx="12" transform="translate(503 4139.875)" fill="#1169e3"/>
    <g id="Grupo_163975" data-name="Grupo 163975" transform="translate(512.607 4157.457)">
      <g id="Grupo_156582" data-name="Grupo 156582">
        <path id="Trazado_127053" data-name="Trazado 127053" d="M15.232,123.416c-.4.088-.489-.1-.485-.469.01-.929-.006-.945-.967-.94-.358,0-.469-.109-.462-.463.007-.33.067-.483.447-.482.964,0,.989-.016.979-.978,0-.435.209-.443.532-.447s.49.051.49.437c0,.975.02.992.972.988.368,0,.455.131.456.473s-.086.473-.455.471c-.971-.005-.994.013-.973.932.01.427-.148.552-.535.477" transform="translate(-13.318 -89.361)" fill="#29c4bb"/>
        <path id="Trazado_127054" data-name="Trazado 127054" d="M213.435,151.158c.355-.068.552.05.494.452-.049.337.067.524.44.466s.5.077.5.469c0,.411-.165.506-.515.459-.335-.045-.441.1-.434.433.011.522-.312.722-.817.564-.24-.075-.187-.266-.172-.417.042-.412-.052-.665-.539-.582-.377.064-.4-.172-.4-.461s.012-.523.394-.464c.412.064.607-.087.538-.522-.065-.416.2-.434.509-.4" transform="translate(-164.083 -111.951)" fill="#29c4bb"/>
        <path id="Trazado_127055" data-name="Trazado 127055" d="M210.308,69.062c.092.4-.089.532-.461.469-.4-.068-.567.1-.5.5s-.1.479-.474.483-.532-.111-.465-.487c.072-.4-.1-.566-.494-.491s-.449-.138-.464-.485c-.018-.407.14-.514.495-.452.386.067.53-.092.464-.469-.063-.361.054-.506.455-.492.354.013.559.063.483.469s.1.559.5.492c.372-.063.553.071.46.467" transform="translate(-160.498 -52.631)" fill="#010000"/>
        <path id="Trazado_127056" data-name="Trazado 127056" d="M54.631,186.433c.087.37-.1.506-.465.439-.434-.079-.537.147-.474.513.069.407-.128.47-.485.467-.341,0-.525-.079-.453-.447.094-.483-.148-.6-.564-.531s-.407-.2-.409-.489.006-.524.392-.448c.519.1.651-.146.581-.611-.067-.445.272-.317.5-.33s.506-.045.437.34c-.086.477.081.7.585.6.421-.081.37.213.357.495" transform="translate(-42.505 -136.017)" fill="#010000"/>
        <path id="Trazado_127057" data-name="Trazado 127057" d="M121.783,17.224c-.1-.422.134-.5.479-.453s.5-.1.445-.449.05-.514.457-.506c.374.008.544.1.479.488s.115.521.484.466c.342-.051.513.031.515.448s-.159.542-.532.483c-.394-.063-.527.117-.466.484.069.412-.153.46-.5.467-.371.008-.492-.132-.437-.472.06-.373-.078-.543-.467-.478s-.542-.093-.457-.479" transform="translate(-95.608 -15.816)" fill="#29c4bb"/>
      </g>
      <g id="Grupo_158093" data-name="Grupo 158093" transform="translate(6.482 6.474)">
        <g id="Grupo_158093-2" data-name="Grupo 158093" clip-path="url(#clip-path)">
          <path id="Trazado_132390" data-name="Trazado 132390" d="M10.8,31.711c-.309-.334-.6-.675-.919-.987a7.337,7.337,0,0,1,2.011-11.964,6.78,6.78,0,0,1,7.486,1.3c.233.226.336.233.574,0a6.921,6.921,0,0,1,11.2,2.524,7.347,7.347,0,0,1-1.58,8.019c-.352.355-.68.733-1.019,1.1A19.716,19.716,0,0,1,39.183,46.916a24.518,24.518,0,0,1,.155,2.609c.005.3-.068.366-.365.365-4.954-.011-9.908,0-14.862-.015a.636.636,0,0,0-.641.361,4.409,4.409,0,0,1-7.643-.066.5.5,0,0,0-.518-.292c-4.967.006-9.935,0-14.9.013-.328,0-.412-.073-.4-.4Q.254,37.617,10.6,31.81c.069-.039.14-.073.209-.111.009,0,.013-.017-.008.012" transform="translate(0 -13.072)"/>
          <path id="Trazado_132391" data-name="Trazado 132391" d="M10.46,37.145c-.111,1.057-.112,1.062-1.133.895-.872-.142-1.74-.3-2.613-.439-.2-.03-.249-.1-.2-.277.007-.025.006-.052.011-.078.057-.3.02-.7.2-.861s.565.035.858.08q1.309.2,2.615.427c.142.024.352.009.264.253" transform="translate(-4.676 -26.139)"/>
          <path id="Trazado_132392" data-name="Trazado 132392" d="M119.577,37.181c-.034-.106.053-.135.2-.158q1.678-.271,3.352-.561c.188-.033.266,0,.282.2a2.645,2.645,0,0,0,.1.624c.109.326,0,.421-.323.467-1.056.152-2.108.33-3.159.517-.21.038-.276-.006-.3-.209-.031-.274-.09-.546-.147-.877" transform="translate(-86.058 -26.235)"/>
          <path id="Trazado_132393" data-name="Trazado 132393" d="M19.89,12.1c.07.063.131.113.186.168.719.719,1.433,1.443,2.16,2.153.168.164.151.26-.011.4-.238.208-.443.59-.69.614s-.46-.382-.685-.6c-.548-.535-1.075-1.091-1.631-1.617-.207-.2-.2-.315.011-.487.184-.149.339-.333.508-.5.045-.044.1-.082.152-.131" transform="translate(-13.723 -8.712)"/>
          <path id="Trazado_132394" data-name="Trazado 132394" d="M110.4,15.637c-.106-.122-.228-.279-.367-.42-.449-.456-.451-.454-.006-.9.626-.626,1.257-1.245,1.873-1.881.164-.169.266-.207.43-.008.2.242.585.448.6.692s-.383.46-.6.685c-.535.548-1.08,1.086-1.623,1.626a.52.52,0,0,1-.308.2" transform="translate(-78.955 -8.849)"/>
          <path id="Trazado_132395" data-name="Trazado 132395" d="M43.475,4.1a.089.089,0,0,1-.059.122,1.1,1.1,0,0,0-.1.058c-.907.516-.907.516-1.371-.414-.241-.482-.477-.966-.726-1.444-.083-.159-.074-.233.1-.327.914-.5.911-.5,1.37.417.229.458.456.917.684,1.376l.106.211" transform="translate(-29.628 -1.269)" fill="#010101"/>
          <path id="Trazado_132396" data-name="Trazado 132396" d="M91.881,4.523c-.327-.166-.671-.331-1-.516-.094-.052.006-.142.036-.2.355-.719.718-1.433,1.07-2.153.073-.151.147-.21.295-.1a.173.173,0,0,0,.036.017c.924.418.924.418.477,1.312-.235.47-.466.943-.707,1.41-.044.086-.055.212-.2.234" transform="translate(-65.38 -1.075)" fill="#010101"/>
          <path id="Trazado_132397" data-name="Trazado 132397" d="M69.175,1.287V1.6c0,1.05,0,1.045-1.072.955-.154-.013-.2-.053-.2-.205q.01-1.07,0-2.14c0-.156.05-.219.2-.2a.233.233,0,0,0,.04,0c1.029-.049,1.029-.049,1.029.993Z" transform="translate(-48.873 0)"/>
          <path id="Trazado_132398" data-name="Trazado 132398" d="M28.4,93.209H18.575c-.174,0-.358.066-.327-.261A14.377,14.377,0,0,1,27.71,80.176a.461.461,0,0,1,.58.122c1.394,1.333,2.805,2.648,4.2,3.983.235.226.36.263.62.012,1.386-1.341,2.8-2.652,4.194-3.986a.5.5,0,0,1,.618-.119A15.427,15.427,0,0,1,41.577,82.2c.239.175.224.265.006.448q-3.388,2.835-6.76,5.689c-.121.1-.219.193-.414.112A4.44,4.44,0,0,0,28.4,93.209" transform="translate(-13.132 -57.667)" fill="#fee9a6"/>
          <path id="Trazado_132399" data-name="Trazado 132399" d="M40.877,23.943A4.577,4.577,0,0,0,38.2,25.078a4.41,4.41,0,0,0-1.474,3.139,5.707,5.707,0,0,0,1.914,4.826.943.943,0,0,1,.244.352A3.035,3.035,0,0,0,39.92,34.72c.131.094.266.168.185.376-.074.19-.073.382-.359.444a5.608,5.608,0,0,0-2.378.916c-.133.1-.206.027-.3-.058-1.246-1.182-2.547-2.311-3.728-3.555a5.739,5.739,0,0,1-1.407-5.975,5.667,5.667,0,0,1,4.39-4.076,5.333,5.333,0,0,1,4.42.983,1.165,1.165,0,0,1,.118.1c.008.007.005.025.012.065" transform="translate(-22.763 -16.31)" fill="#fe816e"/>
          <path id="Trazado_132400" data-name="Trazado 132400" d="M75.424,23.909a5.484,5.484,0,0,1,5.7-.793,6.044,6.044,0,0,1,1.833,9.816c-1.174,1.179-2.413,2.293-3.622,3.436-.094.089-.169.193-.325.072a5.372,5.372,0,0,0-2.264-.884.521.521,0,0,1-.466-.439c-.072-.283.114-.347.26-.46a2.594,2.594,0,0,0,.822-1,3.092,3.092,0,0,1,.7-.939,5.737,5.737,0,0,0,1.027-6.52,4.31,4.31,0,0,0-3.17-2.2l-.494-.087" transform="translate(-54.285 -16.298)" fill="#fe816e"/>
          <path id="Trazado_132401" data-name="Trazado 132401" d="M92.5,96.248a14.489,14.489,0,0,1,3.127,7.192c.051.366.063.737.113,1.1.027.2,0,.277-.229.277q-4.835-.011-9.67,0c-.229,0-.244-.077-.221-.273a3.59,3.59,0,0,0-.106-1.375.393.393,0,0,1,.124-.45c2.281-2.145,4.555-4.3,6.862-6.474" transform="translate(-61.528 -69.273)" fill="#fee9a6"/>
          <path id="Trazado_132402" data-name="Trazado 132402" d="M54.854,37.484a3.81,3.81,0,0,1,1.3-5.551,2.259,2.259,0,0,1,.835-.226,19.394,19.394,0,0,1,3.554.05,3.09,3.09,0,0,1,2.544,2.81,4.776,4.776,0,0,1-.373,2.515.7.7,0,0,1-.248.35c0-.291,0-.547,0-.8a1.238,1.238,0,0,0-.859-1.247,23.147,23.147,0,0,1-2.769-1.159.363.363,0,0,0-.369.009,21.641,21.641,0,0,1-2.734,1.142,1.249,1.249,0,0,0-.878,1.274c0,.248,0,.5,0,.837" transform="translate(-38.99 -22.779)" fill="#656d78"/>
          <path id="Trazado_132403" data-name="Trazado 132403" d="M61.013,47.985c.027-.316-.156-.8.065-1.077.2-.256.678-.3,1.032-.436a3.26,3.26,0,0,0,.617-.26,1.44,1.44,0,0,1,1.639-.017,9.085,9.085,0,0,0,1.467.578.319.319,0,0,1,.258.365c-.013.607,0,1.215-.008,1.822a1.9,1.9,0,0,1-1.9,1.886c-.436.008-.871.01-1.307,0a1.9,1.9,0,0,1-1.867-1.874c-.007-.3,0-.607,0-.988" transform="translate(-43.88 -33.071)" fill="#efcfb3"/>
          <path id="Trazado_132404" data-name="Trazado 132404" d="M65.208,116.443a3.17,3.17,0,1,1-3.148-3.2,3.179,3.179,0,0,1,3.148,3.2" transform="translate(-42.37 -81.503)" fill="#fe816e"/>
          <path id="Trazado_132405" data-name="Trazado 132405" d="M55.067,73.589a4.408,4.408,0,0,1,1.657-.652.685.685,0,0,1,.822.215c.486.539,1.029,1.026,1.528,1.554.186.2.288.172.461-.009.55-.571,1.12-1.122,1.675-1.688a.39.39,0,0,1,.448-.126,8.272,8.272,0,0,1,1.652.53c.213.115.216.195.039.36q-1.924,1.8-3.833,3.62c-.117.111-.2.225-.382.052-1.345-1.287-2.7-2.563-4.068-3.856" transform="translate(-39.634 -52.439)" fill="#b3dc7e"/>
          <path id="Trazado_132406" data-name="Trazado 132406" d="M25.4,72.987a18.454,18.454,0,0,1,4.575-3.14.231.231,0,0,1,.307.052c.6.575,1.206,1.143,1.8,1.706-.022.138-.13.139-.208.171a15.711,15.711,0,0,0-4.469,2.8c-.119.106-.2.22-.374.041-.53-.549-1.08-1.079-1.635-1.628" transform="translate(-18.285 -50.245)" fill="#fbd670"/>
          <path id="Trazado_132407" data-name="Trazado 132407" d="M91.051,71.615c.609-.575,1.226-1.152,1.833-1.738.115-.111.2-.075.312-.022a18.666,18.666,0,0,1,4.381,2.959c.151.137.127.2,0,.333-.343.349-.661.722-1.217.7a.558.558,0,0,0-.3.077c-.543.35-.946.158-1.412-.222a13.237,13.237,0,0,0-3.275-1.9c-.1-.044-.237-.052-.317-.191" transform="translate(-65.533 -50.24)" fill="#fbd670"/>
          <path id="Trazado_132408" data-name="Trazado 132408" d="M125.571,112.009c-.33,0-.66-.009-.989,0-.187.007-.289-.029-.3-.248a15.152,15.152,0,0,0-.868-4.4c-.05-.142-.025-.214.118-.272.659-.265,1.319-.529,1.969-.814.233-.1.231.053.279.186a17.9,17.9,0,0,1,1.011,4.577c.02.237.027.475.061.709.031.216-.049.274-.256.265-.342-.015-.686,0-1.029,0" transform="translate(-88.809 -76.467)" fill="#fbd670"/>
          <path id="Trazado_132409" data-name="Trazado 132409" d="M5.875,112.053c-.29,0-.582-.022-.87.006-.324.031-.42-.055-.394-.4a19.919,19.919,0,0,1,1.037-5.1c.089-.258.182-.316.437-.2.587.266,1.183.511,1.783.747.191.075.224.147.155.347a14.775,14.775,0,0,0-.839,4.248c-.012.3-.117.38-.4.355-.3-.026-.606-.006-.909-.006" transform="translate(-3.316 -76.51)" fill="#fbd670"/>
          <path id="Trazado_132410" data-name="Trazado 132410" d="M13.88,84.245c.1.091.147.134.194.18.486.485.965.976,1.46,1.452.155.149.119.235-.006.374A15.075,15.075,0,0,0,13.1,89.888c-.1.2-.174.274-.4.171-.6-.27-1.208-.522-1.82-.764-.182-.072-.247-.12-.148-.327a18.84,18.84,0,0,1,3.023-4.522,1.471,1.471,0,0,0,.131-.2" transform="translate(-7.687 -60.634)" fill="#fbd670"/>
          <path id="Trazado_132411" data-name="Trazado 132411" d="M118.188,89.277c-.018.09-.1.105-.169.133-.656.272-1.315.536-1.967.817-.151.065-.209.024-.268-.1a15.246,15.246,0,0,0-2.026-3.194.263.263,0,0,1-.022-.348,3.473,3.473,0,0,0,.4-1.191c.071-.45.491-.627.75-.929.073-.085.131.038.175.087a18.237,18.237,0,0,1,3.08,4.616c.017.036.032.072.05.112" transform="translate(-81.82 -60.769)" fill="#fbd670"/>
          <path id="Trazado_132412" data-name="Trazado 132412" d="M89.363,88.8a2.239,2.239,0,0,1-.652.986q-3.352,3.169-6.7,6.34c-.165.157-.278.23-.406-.018a.719.719,0,0,0-.1-.122c-.452-.535-.449-.531.11-1Q84.808,92.295,88,89.6a3.248,3.248,0,0,1,1.363-.8" transform="translate(-58.427 -63.911)" fill="#e5e8ec"/>
          <path id="Trazado_132413" data-name="Trazado 132413" d="M67.205,67.89c.262,0,.525,0,.788,0,.115,0,.272-.1.315.116.033.16.129.306-.046.465-.311.282-.607.582-.891.892-.154.168-.243.119-.374-.02-.269-.287-.543-.573-.838-.834-.178-.157-.136-.3-.09-.49.059-.236.224-.122.347-.126.263-.009.525,0,.788,0" transform="translate(-47.524 -48.848)" fill="#efcfb3"/>
          <path id="Trazado_132414" data-name="Trazado 132414" d="M65.283,121.571A1.9,1.9,0,1,1,67.2,119.7a1.91,1.91,0,0,1-1.913,1.871" transform="translate(-45.626 -84.761)"/>
          <path id="Trazado_132415" data-name="Trazado 132415" d="M69.185,122.941a.633.633,0,1,1-.609-.646.639.639,0,0,1,.609.646" transform="translate(-48.884 -88.02)" fill="#fbfbfb"/>
        </g>
      </g>
    </g>
  </g>
</svg>
