<svg xmlns="http://www.w3.org/2000/svg" xmlns:xlink="http://www.w3.org/1999/xlink" width="70" height="85" viewBox="0 0 70 85">
  <defs>
    <clipPath id="clip-path">
      <rect id="Rect치ngulo_37909" data-name="Rect치ngulo 37909" width="57.451" height="57.355" fill="none"/>
    </clipPath>
  </defs>
  <g id="Grupo_164011" data-name="Grupo 164011" transform="translate(-503 -4089)">
    <g id="Grupo_163997" data-name="Grupo 163997">
      <rect id="Rect치ngulo_37872" data-name="Rect치ngulo 37872" width="70" height="85" rx="12" transform="translate(503 4089)" fill="#1169e3"/>
      <g id="Grupo_163976" data-name="Grupo 163976" transform="translate(506.912 4102.587)">
        <path id="Trazado_127053" data-name="Trazado 127053" d="M15.375,123.6c.416.093.513-.1.509-.492-.011-.974.006-.992,1.015-.986.375,0,.492-.114.485-.485-.007-.346-.07-.507-.469-.505-1.011,0-1.037-.017-1.026-1.026,0-.457-.219-.465-.558-.469s-.514.053-.514.459c0,1.022-.021,1.041-1.019,1.037-.386,0-.478.138-.479.5s.091.5.477.494c1.018-.006,1.042.013,1.02.978-.011.448.155.579.561.5" transform="translate(44.792 -83.878)" fill="#29c4bb"/>
        <path id="Trazado_127054" data-name="Trazado 127054" d="M213.5,151.159c-.373-.071-.579.052-.518.474.051.353-.071.55-.461.489s-.522.081-.525.492c0,.431.173.53.54.481.351-.047.462.105.455.455-.011.547.328.757.857.591.251-.079.2-.279.18-.437-.044-.432.055-.7.565-.611.395.067.419-.181.418-.484s-.013-.548-.414-.486c-.432.067-.636-.091-.564-.547.068-.436-.211-.455-.533-.417" transform="translate(-211.994 -104.948)" fill="#29c4bb"/>
        <path id="Trazado_127055" data-name="Trazado 127055" d="M207.478,69.132c-.1.416.094.558.484.492.422-.071.594.1.52.521s.1.5.5.507.558-.116.488-.511c-.075-.42.1-.594.518-.515s.471-.145.487-.509c.019-.427-.147-.539-.519-.474-.4.071-.555-.1-.487-.492.066-.378-.056-.531-.477-.516-.371.013-.586.066-.506.491s-.105.586-.52.516c-.39-.066-.58.074-.483.49" transform="translate(-204.437 -61.871)" fill="#010000"/>
        <path id="Trazado_127056" data-name="Trazado 127056" d="M51.8,186.5c-.091.388.1.53.488.46.455-.082.563.155.5.538-.072.426.134.493.509.49.358,0,.55-.083.475-.469-.1-.507.155-.631.591-.556s.427-.206.428-.513-.006-.549-.411-.47c-.544.108-.683-.154-.61-.641.07-.466-.285-.332-.522-.346s-.531-.047-.458.357c.09.5-.085.732-.614.63-.442-.085-.388.223-.375.519" transform="translate(-4.069 -127.272)" fill="#010000"/>
        <path id="Trazado_127057" data-name="Trazado 127057" d="M124.759,17.292c.1-.443-.141-.529-.5-.475s-.524-.1-.467-.47-.053-.539-.479-.53c-.392.008-.571.109-.5.512s-.121.547-.507.489c-.358-.054-.538.032-.54.47s.167.569.558.507c.413-.066.553.122.489.507-.072.432.16.482.524.49.389.008.516-.138.458-.495-.062-.391.082-.57.49-.5s.569-.1.48-.5" transform="translate(-94.9 -15.817)" fill="#29c4bb"/>
      </g>
    </g>
    <g id="Grupo_163977" data-name="Grupo 163977" transform="translate(510.158 4104)">
      <g id="Grupo_158084" data-name="Grupo 158084" clip-path="url(#clip-path)">
        <path id="Trazado_132244" data-name="Trazado 132244" d="M47.908,43.464l-.047-.011c-.012.024-.023.048-.033.072.027-.021.05-.041.08-.062" transform="translate(-30.427 -27.643)"/>
        <path id="Trazado_132245" data-name="Trazado 132245" d="M51.858,43.225h-.014l.007.011.007-.011" transform="translate(-32.981 -27.498)"/>
        <path id="Trazado_132246" data-name="Trazado 132246" d="M54.4,33.295a2.777,2.777,0,0,0,2.962-2.964q0-13.67,0-27.34A2.78,2.78,0,0,0,54.366,0Q42.573,0,30.781,0a2.787,2.787,0,0,0-3.018,3.023q0,4.277,0,8.554V12.5l-.23-.341c-3.428-5.1-8.186-7.3-14.276-6.369A13.781,13.781,0,0,0,1.886,18.881c-.075,5.143-.033,10.288-.013,15.432a4.586,4.586,0,0,0,3.743,4.443c.722.143,1.451.035,2.283.122l-.417.295A16.97,16.97,0,0,0,.22,50.7,46.38,46.38,0,0,0,0,56.7c-.019.518.114.655.644.654q14.8-.027,29.6-.013c1.218,0,1.225,0,1.217-1.21a29.635,29.635,0,0,0-.275-5.877A16.948,16.948,0,0,0,20.643,37.4c-.248-.105-.427-.208-.477-.5-.106-.606-.236-1.208-.361-1.81a.324.324,0,0,1,.223-.439,6.386,6.386,0,0,0,3.91-4.8c.04-.193.11-.264.3-.253a5.177,5.177,0,0,0,3.529-.942c0,.7-.01,1.292,0,1.888a2.773,2.773,0,0,0,2.766,2.751c.5.01,1,0,1.5,0,1.271,0,1.284,0,1.274,1.267a2.256,2.256,0,0,0,3.96,1.639c.841-.848,1.7-1.68,2.527-2.541a1.131,1.131,0,0,1,.9-.373q6.85.019,13.7.007M6.188,36.968a2.682,2.682,0,0,1-2.458-2.56c-.043-1.885-.011-3.771-.011-5.754a4.894,4.894,0,0,0,3.289.939c.321-.019.485.024.566.422a6.163,6.163,0,0,0,2.289,3.7c.272.214.319.318.065.6A2.7,2.7,0,0,0,9.4,36.982c-1.094,0-2.155.056-3.208-.014M7.413,25.006c0,.789,0,1.578,0,2.367,0,.149.083.326-.2.382a2.855,2.855,0,1,1,.009-5.564c.288.061.193.244.194.39.009.808,0,1.617,0,2.425m3.424,30.5c-.962-.033-1.927-.032-2.889,0-.417.013-.552-.077-.546-.527.027-2.119,0-4.238.023-6.356.005-.432-.1-.545-.536-.538-1.324.024-1.325,0-1.325,1.356,0,1.868-.008,3.737.007,5.605,0,.337-.057.471-.435.46-.962-.029-1.927-.014-2.89-.007-.236,0-.378-.007-.391-.324a16.617,16.617,0,0,1,2.424-10.1,15.571,15.571,0,0,1,4.714-4.686c.337-.216.46-.173.625.181.69,1.475,1.411,2.936,2.17,4.5l1.188-1.349c.287.571.5,1.019.735,1.455a.865.865,0,0,1,.018.67c-.763,3.058-1.531,6.115-2.283,9.177-.087.353-.223.491-.609.477M16.57,35.444c-.053-.227,0-.286.238-.305,1.113-.092,1.116-.1,1.333.977.263,1.3.263,1.3-.918,1.884-.378.188-.763.364-1.131.57a.537.537,0,0,1-.776-.114,2.752,2.752,0,0,0,1.254-3.012m-1.052,5.848c.16-.135.274-.2.421-.011.024.03.056.053.081.082.327.37,1,.681.947,1.083a6.264,6.264,0,0,1-.812,1.813c-.1.2-.3.115-.572.15-.115.021-.254-.069-.333-.283a4.881,4.881,0,0,0-.227-.464c-.687-1.373-.684-1.37.5-2.37m-1.535-4.31c-.342.033-.689.007-1.034.007-.326,0-.653.023-.977,0a.909.909,0,0,1-.855-.914.891.891,0,0,1,.853-.912,17.577,17.577,0,0,1,2.011,0,.854.854,0,0,1,.824.877.894.894,0,0,1-.822.941M11.2,39.243c.315-.1.6-.4.968-.219.652.318,1.3.648,1.92.96l-1.823,1.822c-.355-.729-.731-1.5-1.107-2.269-.054-.111-.1-.25.042-.294M13.23,55.468c.551-2.208,1.093-4.385,1.638-6.561.2-.8.409-1.6.6-2.4.041-.168.087-.275.293-.266s.2.135.234.265c.747,2.976,1.494,5.952,2.25,8.962Zm8.6-14.842c.185-.4.314-.466.7-.21A15.172,15.172,0,0,1,29.52,51.764c.131,1.116.059,2.231.1,3.347.01.3-.079.4-.386.389-.963-.019-1.927-.026-2.889,0-.373.011-.441-.114-.438-.457.015-2.138,0-4.276.017-6.414,0-.409-.064-.56-.522-.551-1.337.027-1.337,0-1.337,1.345,0,1.868-.012,3.737.009,5.605,0,.387-.114.479-.482.47-1.021-.024-2.042-.019-3.063,0a.393.393,0,0,1-.463-.36q-1.164-4.7-2.347-9.4a.74.74,0,0,1,.046-.558c.234-.437.449-.885.747-1.481l1.17,1.382c.756-1.558,1.474-3,2.15-4.457m-1.522-1.335c.181.159-.075.376-.157.554-.3.66-.626,1.313-.971,2.029L17.36,40c.676-.338,1.351-.718,2.062-1.01.3-.124.655.1.886.3m3.546-20.8a7.955,7.955,0,0,0-1.49-2.967c-.328-.426-.561-.438-.866-.021a2.969,2.969,0,0,1-.319.323c-.493.339-.5.641-.089,1.122a4.843,4.843,0,0,1,1.117,3.2c.011,2.85.022,5.7,0,8.551a4.582,4.582,0,0,1-4.6,4.586,26.558,26.558,0,0,1-4.612-.1A4.523,4.523,0,0,1,9.273,28.8q-.043-4.246,0-8.493A3.711,3.711,0,0,1,13.2,16.641a.61.61,0,0,1,.513.292,5.255,5.255,0,0,1,1.079,2.992c.013.37.129.48.466.425a.678.678,0,0,1,.115,0c1.409,0,1.409,0,1.172-1.425a8.169,8.169,0,0,0-1.384-3.2h0a2.133,2.133,0,0,0-1.911-.957,5.688,5.688,0,0,0-5.63,4.061h0l-.124.511a1.378,1.378,0,0,1,.016-.985,8.232,8.232,0,0,1,5.894-6.922,8.342,8.342,0,0,1,10.51,6.411,5.081,5.081,0,0,1,.045.517h0c.139.2.084.417.106.733a1.151,1.151,0,0,1-.214-.611m.382,9.263c-.238-.065-.17-.22-.171-.354-.007-.808,0-1.616,0-2.424s0-1.616,0-2.425c0-.163-.044-.315.23-.359a2.906,2.906,0,0,1,3.464,2.926,2.943,2.943,0,0,1-3.522,2.635m3.468-6.51a5.015,5.015,0,0,0-1.558-.738c-.36-.083-.233-.354-.228-.552a10.671,10.671,0,0,0-.89-4.663A10.18,10.18,0,0,0,5.57,20c.017.319-.063.492-.4.559a5.011,5.011,0,0,0-1.424.68c-.362-4.961,1.179-9.075,5.388-11.823a11.418,11.418,0,0,1,12.957-.164c4.2,2.564,6.1,7.007,5.611,11.988m15.409,8.494c-.18.261-.3.761-.532.741-.33-.029-.395-.522-.659-.849h1.21a.471.471,0,0,1-.019.108m-.575-1.988h-.116c-1.817,0-1.811,0-2.662-1.589-.118-.22-.107-.326.1-.462A2.529,2.529,0,0,0,40.9,24.284c.075-.244.2-.263.417-.258.827.017,1.656.025,2.482,0,.265-.009.366.063.442.306a2.454,2.454,0,0,0,1.015,1.36c.247.16.242.308.076.505a.2.2,0,0,0-.028.05,2.107,2.107,0,0,1-2.765,1.5m8.887,3.7c-2.361-.009-4.723-.005-7.194-.005,1.03-1.648,2-3.192,2.957-4.741a.32.32,0,0,1,.464-.158,6.139,6.139,0,0,1,4.02,4.541c.051.2.064.363-.246.362M32.433,18.34a4.016,4.016,0,0,1-.06,5.013,4.567,4.567,0,0,0-.253,5.164.615.615,0,0,1,.036.635,6.837,6.837,0,0,0-.583,1.984c-.015.11,0,.226-.132.3a1.272,1.272,0,0,1-1.827-1.159q0-12.426,0-24.852c0-.809,0-1.618,0-2.427s.327-1.141,1.165-1.141q11.792,0,23.583,0c.824,0,1.148.327,1.149,1.158q0,6.849,0,13.7,0,6.762,0,13.524a1.255,1.255,0,0,1-1.79,1.209c-.176-.067-.153-.2-.172-.323a7.174,7.174,0,0,0-.586-1.983.566.566,0,0,1,.022-.584,4.671,4.671,0,0,0-.3-5.315,3.9,3.9,0,0,1-.76-3.312,4.181,4.181,0,0,1,.606-1.3,6.056,6.056,0,0,0,.367-6.5c-.557-1.1-1.061-2.223-1.67-3.288a9.465,9.465,0,0,0-8.7-5.112A9.461,9.461,0,0,0,33.89,8.857c-.672,1.185-1.27,2.416-1.84,3.654a5.711,5.711,0,0,0,.383,5.83m1.8-.568a4.419,4.419,0,0,1-.267-4.99,33.326,33.326,0,0,1,2.158-4.009,8.043,8.043,0,0,1,13.5.982c.608,1.136,1.177,2.294,1.735,3.456a4.048,4.048,0,0,1-.273,4.223,5.58,5.58,0,0,0,.061,6.825,2.912,2.912,0,0,1,.49,2.779A7.943,7.943,0,0,0,48.551,24.9c-.558-.2-1.138-.349-1.713-.5a1.193,1.193,0,0,1-.724-.434c-.228-.325-.262-.582.123-.867a4.5,4.5,0,0,0,1.876-3.833c0-1.868-.026-3.737.014-5.6.012-.579-.131-.822-.72-.714a.965.965,0,0,1-.23-.012c-.915.037-.915.037-.915.952,0,1.791,0,3.582,0,5.373A2.778,2.778,0,0,1,43.329,22.2c-.578,0-1.156.011-1.734,0a2.758,2.758,0,0,1-2.727-2.728c-.021-1.56-.015-3.12,0-4.68a1.7,1.7,0,0,1,1.281-1.717c.517-.118.646-.343.566-.8a1,1,0,0,1,.013-.23c-.044-1.053-.093-1.087-1.112-.771a3.685,3.685,0,0,0-2.6,3.456c-.02,1.618-.033,3.236,0,4.853a4.4,4.4,0,0,0,1.735,3.44c.573.462.49,1.03-.217,1.3a7.788,7.788,0,0,1-.89.235,8.13,8.13,0,0,0-4.111,2.441,2.432,2.432,0,0,1,.289-2.5,7.292,7.292,0,0,0,1.232-2.646,5.25,5.25,0,0,0-.825-4.075m4.008,14.82c-.722.774-1.49,1.5-2.242,2.25-.158.157-.3.374-.585.246-.264-.119-.256-.351-.255-.588,0-.847-.029-1.7.013-2.541.023-.457-.138-.569-.55-.52-.247.03-.5-.014-.749.01-.382.037-.511-.064-.4-.473a6.158,6.158,0,0,1,3.894-4.391c.217-.085.4-.175.575.119.95,1.555,1.924,3.1,2.889,4.642,0,.059,0,.119,0,.178-1.227-.432-1.89.322-2.585,1.067" transform="translate(0 -0.001)"/>
        <path id="Trazado_132247" data-name="Trazado 132247" d="M128.059,96.573q-7.86.019-15.722,0c-.377,0-.478.095-.472.472.023,1.522.028,3.044,0,4.565-.008.435.1.535.534.532,2.6-.023,5.2-.011,7.8-.011,2.62,0,5.241-.008,7.861.009.378,0,.478-.1.472-.473q-.033-2.311,0-4.623c.005-.379-.1-.472-.474-.471m-2.7,3.707c-3.7,0-7.4-.009-11.094.013-.47,0-.561-.139-.552-.572.025-1.29.007-1.29,1.324-1.29h5.2c1.984,0,3.968.013,5.951-.011.419-.005.5.121.494.513-.017,1.348,0,1.348-1.324,1.348" transform="translate(-71.163 -61.436)"/>
        <path id="Trazado_132248" data-name="Trazado 132248" d="M122.456,127.069c-3.063.021-6.126.011-9.19.011-1.405,0-1.39,0-1.4,1.387,0,.377.1.477.474.472,1.676-.021,3.352-.009,5.028-.009h4.277c1.337,0,1.316,0,1.343-1.329.009-.433-.1-.535-.533-.532" transform="translate(-71.167 -80.837)"/>
        <path id="Trazado_132249" data-name="Trazado 132249" d="M137.8,116.907c-1.7.021-3.391.009-5.086.009h-4.219c-1.37,0-1.352,0-1.372,1.356-.006.4.094.506.5.5,3.082-.019,6.165-.01,9.248-.01,1.384,0,1.37,0,1.371-1.414,0-.354-.083-.449-.443-.445" transform="translate(-80.868 -74.372)"/>
        <path id="Trazado_132250" data-name="Trazado 132250" d="M113.079,118.771H114c1.518,0,1.513,0,1.442-1.511-.011-.223-.024-.349-.3-.345-1.039.016-2.08.009-3.12,0-.176,0-.259.027-.289.241-.2,1.493-.113,1.61,1.346,1.61" transform="translate(-71.029 -74.377)"/>
        <path id="Trazado_132251" data-name="Trazado 132251" d="M149.738,127.1h-.982c-1.532,0-1.526,0-1.389,1.567.02.229.087.288.3.286,1.04-.009,2.08-.006,3.12,0,.174,0,.261-.023.291-.239.208-1.483.107-1.613-1.344-1.613" transform="translate(-93.714 -80.857)"/>
        <path id="Trazado_132252" data-name="Trazado 132252" d="M133.142,137.268c-.909,0-.909,0-.909.883,0,.967,0,.967.941.967.909,0,.909,0,.909-.883,0-.967,0-.967-.941-.967" transform="translate(-84.122 -87.325)"/>
        <path id="Trazado_132253" data-name="Trazado 132253" d="M143.4,137.268c-.995,0-.995,0-.995.971,0,.879,0,.879.855.879.995,0,.995,0,.995-.971,0-.879,0-.879-.855-.879" transform="translate(-90.591 -87.325)"/>
        <path id="Trazado_132254" data-name="Trazado 132254" d="M153.506,137.268c-.934,0-.934,0-.934.916,0,.934,0,.934.916.934.934,0,.934,0,.934-.916,0-.934,0-.934-.916-.934" transform="translate(-97.061 -87.325)"/>
        <path id="Trazado_132255" data-name="Trazado 132255" d="M85.663,12.091A9.9,9.9,0,0,1,103,12.073c.61,1.066,1.113,2.192,1.671,3.288a6.056,6.056,0,0,1-.367,6.5,4.189,4.189,0,0,0-.606,1.3,3.9,3.9,0,0,0,.761,3.312,4.671,4.671,0,0,1,.3,5.315.566.566,0,0,0-.022.584,7.174,7.174,0,0,1,.586,1.983c.019.124,0,.256.172.323a1.255,1.255,0,0,0,1.789-1.209q0-6.762,0-13.524,0-6.849,0-13.7c0-.831-.324-1.158-1.148-1.158q-11.792,0-23.583,0c-.838,0-1.161.319-1.165,1.141s0,1.618,0,2.427q0,12.426,0,24.852a1.272,1.272,0,0,0,1.827,1.159c.129-.069.117-.186.132-.3a6.825,6.825,0,0,1,.582-1.984.615.615,0,0,0-.035-.635,4.567,4.567,0,0,1,.253-5.164,4.017,4.017,0,0,0,.06-5.013,5.711,5.711,0,0,1-.384-5.83c.57-1.238,1.169-2.468,1.84-3.654" transform="translate(-51.774 -3.235)" fill="#e5e8ec"/>
        <path id="Trazado_132256" data-name="Trazado 132256" d="M92.075,34.207a2.432,2.432,0,0,0-.289,2.5A8.13,8.13,0,0,1,95.9,34.263a7.788,7.788,0,0,0,.89-.235c.708-.272.79-.84.218-1.3a4.4,4.4,0,0,1-1.735-3.44c-.037-1.617-.024-3.235,0-4.853a3.685,3.685,0,0,1,2.6-3.456c1.019-.316,1.068-.282,1.112.771h1.819c.04-.934.04-.934,1-.934.843,0,.843,0,.883.934.6,0,1.194-.015,1.791-.007s.867.267.958.907a.965.965,0,0,0,.23.012c.589-.108.732.135.72.714-.04,1.867-.018,3.735-.014,5.6a4.5,4.5,0,0,1-1.876,3.833c-.385.284-.351.542-.123.867a1.192,1.192,0,0,0,.724.434c.575.155,1.154.3,1.713.5a7.942,7.942,0,0,1,3.087,2.138,2.912,2.912,0,0,0-.49-2.779,5.58,5.58,0,0,1-.061-6.825,4.047,4.047,0,0,0,.273-4.223c-.558-1.162-1.126-2.32-1.735-3.456a8.043,8.043,0,0,0-13.5-.982A33.349,33.349,0,0,0,92.214,22.5a4.419,4.419,0,0,0,.268,4.99,5.251,5.251,0,0,1,.825,4.075,7.286,7.286,0,0,1-1.232,2.646" transform="translate(-58.247 -9.714)" fill="#656d78"/>
        <path id="Trazado_132257" data-name="Trazado 132257" d="M35.054,43.191l-.007.011a8.281,8.281,0,0,1,1.486,3.91c.05.508-.016.8-.625.708-.375-.054-.839.1-1.122-.069s-.111-.668-.181-1.02A4.77,4.77,0,0,0,33.564,44.4c-.4-.441-.389-.743.015-1.054.01-.024.021-.048.033-.073a11.774,11.774,0,0,0-2.273-.083,8.175,8.175,0,0,1,1.384,3.2c.238,1.428.237,1.428-1.171,1.425a.717.717,0,0,0-.115,0c-.337.056-.453-.054-.466-.425A5.253,5.253,0,0,0,29.891,44.4a.609.609,0,0,0-.513-.292,3.711,3.711,0,0,0-3.931,3.662q-.033,4.246,0,8.493A4.522,4.522,0,0,0,29.17,60.65a26.527,26.527,0,0,0,4.613.1,4.583,4.583,0,0,0,4.6-4.586c.023-2.85.013-5.7,0-8.551a4.844,4.844,0,0,0-1.117-3.2c-.411-.482-.4-.784.089-1.122a10.4,10.4,0,0,0-2.3-.095m.593,6.473a.922.922,0,1,1-.954.932.929.929,0,0,1,.954-.932m-7.414,0a.922.922,0,1,1-.94.888.929.929,0,0,1,.94-.888m3.557,9.245a4.742,4.742,0,0,1-4.51-5.271c.036-.357.239-.275.43-.275,1.4,0,2.808,0,4.213,0,1.385,0,2.771.015,4.155-.01.386-.007.454.114.472.478a4.69,4.69,0,0,1-4.76,5.08" transform="translate(-16.178 -27.464)" fill="#efcfb3"/>
        <path id="Trazado_132258" data-name="Trazado 132258" d="M16.912,115.568c-.236-.436-.448-.883-.735-1.455l-1.188,1.349c-.759-1.568-1.479-3.029-2.17-4.5-.166-.354-.288-.4-.625-.181a15.568,15.568,0,0,0-4.714,4.686,16.614,16.614,0,0,0-2.424,10.1c.013.318.155.326.391.324.963-.007,1.927-.023,2.89.007.378.012.438-.123.435-.46-.015-1.868-.007-3.737-.007-5.605,0-1.352,0-1.332,1.325-1.356.434-.008.541.106.536.538-.024,2.119,0,4.238-.023,6.356-.006.45.13.54.547.527.962-.032,1.927-.032,2.889,0,.387.013.523-.125.609-.477.752-3.061,1.52-6.118,2.283-9.177a.863.863,0,0,0-.018-.67" transform="translate(-3.201 -70.39)" fill="#75b0f1"/>
        <path id="Trazado_132259" data-name="Trazado 132259" d="M49.43,114.1c-.3.6-.513,1.044-.747,1.481a.738.738,0,0,0-.046.558q1.175,4.7,2.347,9.4a.393.393,0,0,0,.463.36c1.021-.017,2.042-.023,3.062,0,.369.009.487-.083.483-.47-.021-1.868-.009-3.737-.009-5.605,0-1.341,0-1.317,1.337-1.345.458-.009.526.143.522.551-.02,2.138,0,4.276-.017,6.414,0,.342.065.468.438.456.962-.029,1.926-.022,2.889,0,.307.006.4-.086.386-.389-.039-1.115.033-2.231-.1-3.347a15.171,15.171,0,0,0-6.991-11.347c-.384-.256-.513-.189-.7.21-.676,1.459-1.394,2.9-2.15,4.457L49.43,114.1" transform="translate(-30.92 -70.401)" fill="#75b0f1"/>
        <path id="Trazado_132260" data-name="Trazado 132260" d="M28.558,22.046A11.416,11.416,0,0,0,15.6,22.21c-4.209,2.747-5.749,6.862-5.388,11.823a5.022,5.022,0,0,1,1.424-.681c.334-.067.414-.239.4-.559a10.179,10.179,0,0,1,19.458-4.711,10.671,10.671,0,0,1,.891,4.663c0,.2-.132.469.228.552a5.009,5.009,0,0,1,1.557.737c.486-4.981-1.409-9.424-5.611-11.988" transform="translate(-6.465 -12.794)" fill="#a9b1bc"/>
        <path id="Trazado_132261" data-name="Trazado 132261" d="M113.542,33.216a2.11,2.11,0,0,1-1.179-.1c-.005.793-.021,1.586-.009,2.379,0,.277-.082.345-.355.356-1.5.062-1.5.071-1.5-1.392,0-.447-.009-.894-.014-1.341-.009.008-.014.019-.025.026a2.639,2.639,0,0,1-1.794-.066,1.007,1.007,0,0,0-.013.23c.08.461-.049.686-.566.8a1.7,1.7,0,0,0-1.281,1.717c-.014,1.56-.02,3.121,0,4.68a2.759,2.759,0,0,0,2.727,2.729c.577.014,1.156.007,1.734,0A2.778,2.778,0,0,0,114.2,40.3c.006-1.791,0-3.582,0-5.373,0-.915,0-.915.915-.952a1.474,1.474,0,0,0-1.57-.758" transform="translate(-67.936 -21.041)" fill="#efcfb3"/>
        <path id="Trazado_132262" data-name="Trazado 132262" d="M123.9,33.05c-.6-.008-1.194,0-1.792.007,0,.012,0,.025,0,.038a2.108,2.108,0,0,0,1.179.1,1.475,1.475,0,0,1,1.571.759c-.091-.64-.354-.9-.958-.907" transform="translate(-77.68 -21.023)" fill="#efcfb3"/>
        <path id="Trazado_132263" data-name="Trazado 132263" d="M113.732,33.14a.33.33,0,0,0,.025-.026c0-.013,0-.027,0-.04h-1.819a2.64,2.64,0,0,0,1.795.066" transform="translate(-71.21 -21.041)" fill="#efcfb3"/>
        <path id="Trazado_132264" data-name="Trazado 132264" d="M37.1,37.772h0a5.188,5.188,0,0,0-.045-.517,8.342,8.342,0,0,0-10.51-6.411,8.232,8.232,0,0,0-5.894,6.922c.051.154-.039.341.108.473a5.688,5.688,0,0,1,5.63-4.061,2.133,2.133,0,0,1,1.912.957,3.492,3.492,0,0,1,2.278-.041c.01.015.034.038.03.045-.016.027-.022.052-.035.079l.048.011a.432.432,0,0,0,.09-.06c.639-.7.639-.7,1.291-.033h.014a.543.543,0,0,1,.092-.1,6.825,6.825,0,0,1,1.822-.053c.16.005.357.02.389.252a3,3,0,0,0,.319-.323c.305-.417.538-.406.866.021A7.954,7.954,0,0,1,36.99,37.9l.108-.123h0" transform="translate(-13.136 -19.408)" fill="#b17946"/>
        <path id="Trazado_132265" data-name="Trazado 132265" d="M53.8,42.733a6.837,6.837,0,0,0-1.822.053.557.557,0,0,0-.092.1,10.377,10.377,0,0,1,2.3.095c-.032-.233-.228-.247-.389-.253" transform="translate(-33.006 -27.163)" fill="#b17946"/>
        <path id="Trazado_132266" data-name="Trazado 132266" d="M43.945,42.938c.013-.026.02-.051.035-.078,0-.007-.02-.031-.03-.045a3.494,3.494,0,0,0-2.278.041,11.833,11.833,0,0,1,2.273.083" transform="translate(-26.51 -27.128)" fill="#b17946"/>
        <path id="Trazado_132267" data-name="Trazado 132267" d="M99.289,77.688c-.966-1.546-1.94-3.087-2.889-4.642-.179-.293-.358-.2-.575-.118a6.157,6.157,0,0,0-3.894,4.391c-.108.408.021.51.4.473.248-.024.5.02.75-.01.412-.05.573.062.55.52-.043.845-.01,1.694-.014,2.541,0,.237-.009.469.255.588.283.128.426-.089.585-.246.752-.745,1.52-1.477,2.242-2.25.695-.744,1.358-1.5,2.585-1.067,0-.059,0-.119,0-.178" transform="translate(-58.46 -46.341)" fill="#b3dc7e"/>
        <path id="Trazado_132268" data-name="Trazado 132268" d="M38.9,127.089c-.206-.009-.252.1-.293.266-.2.8-.4,1.6-.6,2.4-.544,2.176-1.087,4.354-1.638,6.561h5.019c-.756-3.01-1.5-5.986-2.25-8.962-.033-.131-.042-.257-.234-.265" transform="translate(-23.132 -80.849)" fill="#fbd670"/>
        <path id="Trazado_132269" data-name="Trazado 132269" d="M124.99,72.892a.32.32,0,0,0-.464.158c-.959,1.549-1.927,3.093-2.957,4.741,2.472,0,4.833,0,7.194.005.309,0,.3-.158.246-.362a6.139,6.139,0,0,0-4.02-4.541" transform="translate(-77.339 -46.345)" fill="#b3dc7e"/>
        <path id="Trazado_132270" data-name="Trazado 132270" d="M13.709,60.881a2.855,2.855,0,1,0-.009,5.564c.286-.056.2-.233.2-.382.008-.789,0-1.578,0-2.367,0-.808,0-1.617,0-2.425,0-.146.094-.329-.194-.39" transform="translate(-6.495 -38.691)" fill="#efcfb3"/>
        <path id="Trazado_132271" data-name="Trazado 132271" d="M66.358,60.915c-.275.044-.23.2-.23.359,0,.808,0,1.616,0,2.424s0,1.617,0,2.425c0,.133-.067.288.171.354a2.943,2.943,0,0,0,3.521-2.636,2.906,2.906,0,0,0-3.464-2.926" transform="translate(-42.064 -38.726)" fill="#efcfb3"/>
        <path id="Trazado_132272" data-name="Trazado 132272" d="M114.692,68.246a.192.192,0,0,1,.029-.05c.166-.2.17-.345-.077-.505a2.454,2.454,0,0,1-1.015-1.36c-.076-.242-.178-.314-.442-.306-.827.027-1.655.019-2.482,0-.22,0-.342.015-.417.258a2.531,2.531,0,0,1-1.039,1.412c-.206.135-.217.242-.1.462.851,1.586.845,1.589,2.662,1.589h.116a2.107,2.107,0,0,0,2.765-1.5" transform="translate(-69.389 -42.002)" fill="#efcfb3"/>
        <path id="Trazado_132273" data-name="Trazado 132273" d="M33.417,96.591a17.579,17.579,0,0,0-2.011,0,.891.891,0,0,0-.853.912.909.909,0,0,0,.855.914c.323.028.651.005.977,0,.345,0,.693.026,1.034-.007a.894.894,0,0,0,.822-.941.854.854,0,0,0-.824-.877" transform="translate(-19.437 -61.428)" fill="#a9b1bc"/>
        <path id="Trazado_132274" data-name="Trazado 132274" d="M42.1,99.829a.537.537,0,0,0,.776.114c.368-.206.753-.382,1.131-.57,1.18-.586,1.18-.586.918-1.884-.217-1.075-.22-1.069-1.333-.977-.237.02-.291.078-.238.306A2.751,2.751,0,0,1,42.1,99.829" transform="translate(-26.78 -61.374)" fill="#eecfb3"/>
        <path id="Trazado_132275" data-name="Trazado 132275" d="M40.475,115.636a4.887,4.887,0,0,1,.227.464c.08.214.218.3.334.283.271-.035.473.052.572-.15a6.268,6.268,0,0,0,.812-1.813c.048-.4-.62-.713-.946-1.083-.025-.029-.058-.051-.082-.081-.147-.188-.261-.125-.421.011-1.18,1-1.183,1-.5,2.37" transform="translate(-25.453 -71.974)" fill="#fec629"/>
        <path id="Trazado_132276" data-name="Trazado 132276" d="M30.582,107.668c.377.77.752,1.54,1.107,2.269l1.823-1.822c-.623-.312-1.268-.643-1.92-.961-.371-.181-.653.117-.968.219-.138.044-.1.183-.042.294" transform="translate(-19.423 -68.132)" fill="#5c9bea"/>
        <path id="Trazado_132277" data-name="Trazado 132277" d="M49.776,107.091c-.711.292-1.387.672-2.062,1.009l1.82,1.878c.345-.717.667-1.369.971-2.029.082-.178.338-.4.157-.554-.232-.2-.583-.428-.886-.3" transform="translate(-30.354 -68.105)" fill="#5c9bea"/>
        <path id="Trazado_132278" data-name="Trazado 132278" d="M115.882,82.276c.228.02.352-.48.532-.741a.461.461,0,0,0,.019-.108h-1.21c.264.327.329.82.659.849" transform="translate(-73.301 -51.801)" fill="#f6e2a1"/>
        <path id="Trazado_132279" data-name="Trazado 132279" d="M20.475,50.456a1.38,1.38,0,0,0-.016.985l.124-.511c-.277-.1-.121-.3-.108-.473" transform="translate(-12.962 -32.098)" fill="#8e6138"/>
        <path id="Trazado_132280" data-name="Trazado 132280" d="M20.659,50.929c-.147-.132-.057-.319-.108-.473-.013.169-.169.37.108.473" transform="translate(-13.039 -32.098)" fill="#8e6138"/>
        <path id="Trazado_132281" data-name="Trazado 132281" d="M65.671,50.474c.053.119-.005.141-.108.123a1.157,1.157,0,0,0,.214.611c-.022-.317.034-.534-.105-.733" transform="translate(-41.709 -32.11)" fill="#8c5f37"/>
        <path id="Trazado_132282" data-name="Trazado 132282" d="M65.671,50.473h0l-.108.123c.1.018.162,0,.108-.123" transform="translate(-41.709 -32.109)" fill="#8c5f37"/>
        <path id="Trazado_132283" data-name="Trazado 132283" d="M129.427,101.651c-1.984.024-3.968.011-5.951.011h-5.2c-1.316,0-1.3,0-1.324,1.29-.009.433.082.575.552.572,3.7-.023,7.4-.012,11.094-.012,1.322,0,1.306,0,1.323-1.348.005-.391-.075-.518-.494-.513" transform="translate(-74.4 -64.667)" fill="#e5e8ec"/>
        <path id="Trazado_132284" data-name="Trazado 132284" d="M117.163,33.424a.822.822,0,0,0,1.263.823c.23-.1.222-.292.229-.478.017-.459,0-.918.01-1.377a.875.875,0,0,1,.163-.668l-.019-.009a.9.9,0,0,1-.061-.1c-.119-.205.019-.548-.28-.64a2.434,2.434,0,0,0-1.074-.017c-.153.023-.2.153-.234.291a.854.854,0,0,1-.17.465.791.791,0,0,1,.167.617c.012.363,0,.727,0,1.09" transform="translate(-74.426 -19.663)"/>
        <path id="Trazado_132285" data-name="Trazado 132285" d="M117.126,30.995c.03-.137.081-.268.234-.291a2.434,2.434,0,0,1,1.074.017c.3.092.162.436.281.64a.815.815,0,0,0,.061.1l.018.009c.008-.008.015-.017.025-.026-.04-.934-.04-.934-.883-.934-.958,0-.958,0-1,.934.008.006.013.013.02.02a.855.855,0,0,0,.17-.465" transform="translate(-74.391 -19.407)"/>
        <path id="Trazado_132286" data-name="Trazado 132286" d="M118.632,33.8c-.013.459.006.919-.01,1.377-.007.186,0,.38-.229.478a.822.822,0,0,1-1.263-.823c0-.364.008-.727,0-1.091a.792.792,0,0,0-.167-.617.245.245,0,0,1-.019.02c.005.447.013.894.014,1.341,0,1.463,0,1.454,1.5,1.392.273-.011.359-.079.355-.356-.012-.793,0-1.586.009-2.379l-.024-.012a.878.878,0,0,0-.163.668" transform="translate(-74.393 -21.075)"/>
        <path id="Trazado_132287" data-name="Trazado 132287" d="M122.063,33.112c0-.013,0-.025,0-.038-.009.008-.016.017-.025.026l.024.012" transform="translate(-77.637 -21.041)"/>
        <path id="Trazado_132288" data-name="Trazado 132288" d="M116.938,33.114a.02.02,0,0,0,0-.04c0,.013,0,.027,0,.04" transform="translate(-74.392 -21.041)"/>
        <path id="Trazado_132289" data-name="Trazado 132289" d="M39.271,71.15c-1.385.025-2.77.01-4.155.01-1.4,0-2.808,0-4.213,0-.192,0-.395-.081-.43.276a4.742,4.742,0,0,0,4.51,5.271,4.69,4.69,0,0,0,4.76-5.08c-.017-.365-.086-.485-.472-.478m-1.718,2.232a2.771,2.771,0,0,1-4.892,0c-.191-.326-.061-.383.252-.377.731.013,1.463,0,2.194,0s1.463.009,2.195,0c.315-.006.44.052.251.377" transform="translate(-19.369 -45.263)"/>
        <path id="Trazado_132290" data-name="Trazado 132290" d="M48.122,44.685A4.969,4.969,0,0,1,48.931,47c.04.433.191.6.637.592.985-.009,1-.021.86-1.009a6.9,6.9,0,0,0-1.056-2.832c-.119-.182-.358-.381-.2-.624l-.007-.011a2.408,2.408,0,0,0-1.38.093c-.031.021-.053.041-.08.062-.227.554.12.963.422,1.415" transform="translate(-30.299 -27.388)"/>
        <path id="Trazado_132291" data-name="Trazado 132291" d="M48.962,43.879a6.9,6.9,0,0,1,1.057,2.832c.14.987.124,1-.86,1.009-.446,0-.6-.158-.637-.592a4.971,4.971,0,0,0-.809-2.315c-.3-.453-.649-.861-.422-1.415-.4.311-.411.613-.015,1.054a4.774,4.774,0,0,1,1.042,2.331c.069.352-.09.856.181,1.021s.746.015,1.122.069c.609.087.675-.2.625-.708a8.279,8.279,0,0,0-1.486-3.91c-.154.243.085.442.2.624" transform="translate(-29.888 -27.517)"/>
        <path id="Trazado_132292" data-name="Trazado 132292" d="M49.429,42.352h0c-.652-.672-.652-.671-1.291.033a.451.451,0,0,1-.09.06,2.406,2.406,0,0,1,1.381-.094" transform="translate(-30.566 -26.625)"/>
        <path id="Trazado_132293" data-name="Trazado 132293" d="M51.806,62.86a.922.922,0,1,0-.918-.912.931.931,0,0,0,.918.912" transform="translate(-32.374 -38.816)" fill="#020202"/>
        <path id="Trazado_132294" data-name="Trazado 132294" d="M31.481,62.861a.922.922,0,1,0-.931-.955.931.931,0,0,0,.931.955" transform="translate(-19.434 -38.817)" fill="#020202"/>
        <path id="Trazado_132295" data-name="Trazado 132295" d="M41.015,76.248c-.731.013-1.463,0-2.195,0s-1.463.009-2.194,0c-.314-.006-.444.051-.252.377a2.771,2.771,0,0,0,4.892,0c.19-.325.064-.383-.251-.377" transform="translate(-23.083 -48.506)" fill="#fe816d"/>
      </g>
    </g>
  </g>
</svg>
