<svg xmlns="http://www.w3.org/2000/svg" xmlns:xlink="http://www.w3.org/1999/xlink" width="70" height="85" viewBox="0 0 70 85">
  <defs>
    <clipPath id="clip-path">
      <rect id="Rect치ngulo_37869" data-name="Rect치ngulo 37869" width="52.098" height="52.122" fill="none"/>
    </clipPath>
  </defs>
  <g id="Grupo_163993" data-name="Grupo 163993" transform="translate(-503 -4089)">
    <rect id="Rect치ngulo_37872" data-name="Rect치ngulo 37872" width="70" height="85" rx="12" transform="translate(503 4089)" fill="#1169e3"/>
    <g id="Grupo_158010" data-name="Grupo 158010" transform="translate(512.328 4108.19)">
      <g id="Grupo_158009" data-name="Grupo 158009" clip-path="url(#clip-path)">
        <path id="Trazado_131266" data-name="Trazado 131266" d="M53.168,8.165c.628.207.74.36.734,1.063a8.763,8.763,0,0,1-.144,2.275,4.225,4.225,0,0,1-4.085,3.133c-.746.017-1.493.024-2.238-.005-.367-.014-.409.113-.348.429.232,1.213.444,2.431.667,3.646a1.212,1.212,0,0,1-.566,1.395,1.145,1.145,0,0,1-1.435-.259q-2.57-2.427-5.123-4.872a1.111,1.111,0,0,0-.848-.337q-10.2.014-20.4,0A1.168,1.168,0,0,0,18.5,15q-2.512,2.414-5.049,4.8a1.167,1.167,0,0,1-1.791.057,1.252,1.252,0,0,1-.263-1.14c.228-1.2.428-2.4.668-3.594.082-.408-.027-.5-.432-.5a18.723,18.723,0,0,1-2.793-.055,4.141,4.141,0,0,1-3.571-3.958Q5.2,7.31,5.265,4A4.163,4.163,0,0,1,8.546.1c.092-.02.21.023.263-.1H50.344A9.57,9.57,0,0,1,51.37.353,4.149,4.149,0,0,1,53.9,4.075c.025.387,0,.776.008,1.164a.8.8,0,0,1-.707.893.736.736,0,0,1-.943-.689,7.731,7.731,0,0,1-.023-1.014,2.562,2.562,0,0,0-2.766-2.752c-1.353,0-2.706-.01-4.059.006q-17.61.007-35.219,0c-.221,0-.441,0-.662,0A2.482,2.482,0,0,0,6.957,4.121q-.106,3.2,0,6.411A2.526,2.526,0,0,0,9.6,12.964c.831.03,1.662.011,2.494.007a1.668,1.668,0,0,1,1.417.66,1.975,1.975,0,0,1,.241,1.412c-.158.848-.321,1.7-.477,2.631C14.717,16.3,16.141,15,17.5,13.64a2.01,2.01,0,0,1,1.628-.675q10.441.014,20.883,0a2.065,2.065,0,0,1,1.668.7c.882.913,1.83,1.76,2.752,2.632.455.43.9.872,1.4,1.341a16.64,16.64,0,0,0-.271-1.658c-.056-.368-.137-.733-.195-1.1A1.575,1.575,0,0,1,46.937,13c.762-.02,1.525,0,2.288-.005a2.682,2.682,0,0,0,3.02-3,7.659,7.659,0,0,1,.026-1.168.7.7,0,0,1,.9-.662" transform="translate(-3.515)"/>
        <path id="Trazado_131267" data-name="Trazado 131267" d="M.088,76.142a9.6,9.6,0,0,1,8.15-8.449,14.579,14.579,0,0,1,1.725-.1H20.037c1.166,0,1.662.6,1.487,1.743a4.079,4.079,0,0,1-1.366,2.536c-.154.135-.242.23-.136.462A11.941,11.941,0,0,1,21,77.788a4.638,4.638,0,0,0,.6,2.523c.283.5.514,1.028.751,1.551a2,2,0,0,1-1.7,2.947.574.574,0,0,0-.6.654q.006,1.628,0,3.256a2.873,2.873,0,0,1-3,3.006c-1.153,0-2.307.01-3.46,0-.887-.01-1.142.594-.938,1.44.057.237.258.173.415.192a1.938,1.938,0,0,1,1.772,1.9,1.988,1.988,0,0,1-1.514,2.221,2.676,2.676,0,0,1-.6.05q-5.215,0-10.431,0A1.925,1.925,0,0,1,.184,95.411c0-.39-.007-.78,0-1.17A1.85,1.85,0,0,1,1.668,92.37c.285-.067.34-.17.338-.429-.011-1.374.025-2.748-.015-4.121A18.216,18.216,0,0,0,1.5,85.179c-.124-.694-.068-.851.536-1.189.491-.153.841.041,1.019.595a10.185,10.185,0,0,1,.318,1.491.54.54,0,0,0,.651.531c.406-.024.815.014,1.221-.013a1.511,1.511,0,0,0,1.472-1.3,8.552,8.552,0,0,0,.067-1.776A3.353,3.353,0,0,1,8.1,80.776c.8-.653,1.628-1.276,2.446-1.91A3.456,3.456,0,0,0,12,76.143a4.8,4.8,0,0,1,1.5-3.458,4.957,4.957,0,0,1,3.772-1.463,2.42,2.42,0,0,0,2.4-1.464c.2-.425.163-.484-.316-.484q-3.1,0-6.2,0c-1.3-.013-2.608-.02-3.911,0a7.99,7.99,0,0,0-7.481,6.814,10.615,10.615,0,0,0,.283,3.569c.086.4.176.794.249,1.193.161.887-.154,1.219-1.06,1.127a.757.757,0,0,1-.541-.663C.5,80.337.3,79.363.106,78.388c-.016-.079,0-.172-.107-.2v-.509a4.083,4.083,0,0,0,.053-1.02,1.618,1.618,0,0,1,.036-.517" transform="translate(0.001 -45.41)"/>
        <path id="Trazado_131268" data-name="Trazado 131268" d="M.085,95.132c-.024.343.13.7-.085,1.028V95.143c.024-.04.052-.046.085-.011" transform="translate(0 -63.892)" fill="#4c4c4c"/>
        <path id="Trazado_131269" data-name="Trazado 131269" d="M.085,94.14,0,94.151v-.509l.088-.01,0,.508" transform="translate(0 -62.9)" fill="#888"/>
        <path id="Trazado_131270" data-name="Trazado 131270" d="M97.921,67.6c1.764,0,3.528-.023,5.291,0a9.541,9.541,0,0,1,9.127,11.158c-.523,2.759-1.118,5.505-1.7,8.252a13.727,13.727,0,0,0-.113,2.583c-.019.8,0,1.594-.007,2.391,0,.213.04.307.286.367a1.87,1.87,0,0,1,1.534,1.985c0,.407.007.814,0,1.221a1.9,1.9,0,0,1-2.005,1.962q-4.248.009-8.5,0c-.746,0-1.493.011-2.238,0a2.093,2.093,0,0,1-.3-4.127c.619-.052.619-.376.629-.787a.822.822,0,0,0-.694-.869,2.42,2.42,0,0,0-.406-.014c-1.136,0-2.273,0-3.409,0a2.867,2.867,0,0,1-2.953-2.951c-.008-1.085-.01-2.171,0-3.256.006-.464-.19-.671-.654-.713a1.932,1.932,0,0,1-1.663-2.835,11.38,11.38,0,0,0,1.436-6.011,8.036,8.036,0,0,1,.872-3.522.42.42,0,0,0-.128-.594,3.962,3.962,0,0,1-1.363-2.748,1.247,1.247,0,0,1,1.356-1.5c1.866-.006,3.731,0,5.6,0Z" transform="translate(-60.4 -45.403)"/>
        <path id="Trazado_131271" data-name="Trazado 131271" d="M3.76,85.068c.85-.012,1.066-.288.913-1.133C4.5,82.955,4.238,81.991,4.12,81a8.056,8.056,0,0,1,6.714-8.674,36.828,36.828,0,0,1,4.819-.088,11.493,11.493,0,0,0,.516,3.012.688.688,0,0,1-.109.624,5.421,5.421,0,0,0-1.423,3.7A2.932,2.932,0,0,1,13.482,81.8c-.879.716-1.78,1.4-2.676,2.1A3.358,3.358,0,0,0,9.42,86.645c0,.474.01.948-.006,1.422a1.661,1.661,0,0,1-1.8,1.76c-.423,0-.85-.033-1.269.01-.39.041-.492-.147-.549-.469-.088-.5-.218-.991-.3-1.49a.852.852,0,0,0-.938-.8c-.1-.472-.228-.94-.294-1.416a.6.6,0,0,0-.506-.6" transform="translate(-2.526 -48.502)" fill="#6b63ae"/>
        <path id="Trazado_131272" data-name="Trazado 131272" d="M66.1,11.287c-.637.146-.786.326-.791.969,0,.407,0,.813,0,1.22a2.688,2.688,0,0,1-2.718,2.755c-.846.019-1.694,0-2.541,0a1.461,1.461,0,0,0-1.578,1.877c.17.981.345,1.962.54,3.07l-4.392-4.214a.729.729,0,0,1,.569-.161c.373-.011.746,0,1.12-.006a3.186,3.186,0,0,0,3.135-3.118c.028-1.272.012-2.544,0-3.816,0-.517-.064-.564-.6-.577-.169,0-.339,0-.509,0H25.616a5.094,5.094,0,0,1-.712-.015c-.17-.024-.4.01-.422-.26a1.381,1.381,0,0,1,.932-.147q11.823-.006,23.645,0H59.638a5.556,5.556,0,0,0,.61-.016.507.507,0,0,0,.5-.424.548.548,0,0,0-.323-.625,3.68,3.68,0,0,0-.683-.187.385.385,0,0,1-.253-.393,3.156,3.156,0,0,0-.957-2.2.361.361,0,0,1-.142-.355c1.455,0,2.91-.034,4.364-.005A2.647,2.647,0,0,1,65.3,7.2c.018.371,0,.744.008,1.117.008.62.2.837.821.932q-.015,1.017-.03,2.034" transform="translate(-16.447 -3.122)" fill="#29c4bb"/>
        <path id="Trazado_131273" data-name="Trazado 131273" d="M48.607,4.668a4.037,4.037,0,0,1,1.1,1.656,4.2,4.2,0,0,1,.126,1.192,1.383,1.383,0,0,1-.933.146q-14.2.006-28.4,0-2.341,0-4.682,0a3.053,3.053,0,0,0-.759.06c-.558.142-.711.459-.47.98a.871.871,0,0,1,.121.331c.206.181.456.1.684.1q16.844.007,33.688,0c.848,0,.744-.095.747.771,0,1.221,0,2.443,0,3.664a3.339,3.339,0,0,1-3.416,3.4l-1.577,0a2.542,2.542,0,0,0-2.11-.747q-10,.035-20,0a2.537,2.537,0,0,0-2.109.747,9.944,9.944,0,0,1-3.965,0,1.686,1.686,0,0,0-1.573-.738c-.779.031-1.56.014-2.341.006a2.691,2.691,0,0,1-2.81-2.822c-.005-2.018-.011-4.036,0-6.054a2.652,2.652,0,0,1,2.709-2.705q17.883-.008,35.766,0c.068,0,.135.01.2.015" transform="translate(-6.665 -3.125)" fill="#29c4bb"/>
        <path id="Trazado_131274" data-name="Trazado 131274" d="M29.548,42.178l3.965,0L29.121,46.4c.192-1.084.342-2.041.537-2.989a2.077,2.077,0,0,0-.109-1.233" transform="translate(-19.563 -28.334)" fill="#29c4bb"/>
        <path id="Trazado_131275" data-name="Trazado 131275" d="M26.12,87.289a3.374,3.374,0,0,1,2.795-3.73c.634-.112,1.289.019,1.923-.14.211-.053.244.138.3.272a9.512,9.512,0,0,1,.761,3.145,18.141,18.141,0,0,1,.048,2.034,4.705,4.705,0,0,0,.646,2.52c.3.551.553,1.124.812,1.695.234.514.083.766-.473.83A2.048,2.048,0,0,0,30.991,96.1c0,1.069,0,2.137,0,3.206a1.373,1.373,0,0,1-1.513,1.511c-1.137,0-2.273,0-3.41,0a2.353,2.353,0,0,0-2.531,2.588c0,.178.088.393-.239.358q-2.374-.251-4.747-.493a4.528,4.528,0,0,1,4.014-2.9,3.82,3.82,0,0,0,3.492-3.837q.026-3.917,0-7.834a8.236,8.236,0,0,0,.069-1.412" transform="translate(-12.46 -56.033)" fill="#c1885d"/>
        <path id="Trazado_131276" data-name="Trazado 131276" d="M20.877,95.229c.134.144.08.322.081.486q0,4.448,0,8.9a4.027,4.027,0,0,1-3.655,3.854,4.13,4.13,0,0,0-3.64,2.365c-.08.162-.125.363-.358.386-.759-.066-1.517-.139-2.277-.193-.222-.015-.284-.1-.283-.314.007-1.187.011-2.373,0-3.559,0-.282.109-.339.36-.334a15.534,15.534,0,0,0,1.626-.011,3.146,3.146,0,0,0,2.9-3.223c.015-.457.008-.915,0-1.373a1.95,1.95,0,0,1,.824-1.659c.8-.6,1.573-1.233,2.374-1.83a5.04,5.04,0,0,0,2.049-3.491" transform="translate(-7.217 -63.973)" fill="#d39761"/>
        <path id="Trazado_131277" data-name="Trazado 131277" d="M40.17,75.892a8.245,8.245,0,0,0-.441-2.2,2.705,2.705,0,0,1,.034-1.434c2.183-.006,4.366,0,6.548-.026.374,0,.321.175.262.4a2.534,2.534,0,0,1-2.463,1.838,5.637,5.637,0,0,0-2.839.613,8.837,8.837,0,0,0-1.1.807" transform="translate(-26.635 -48.522)" fill="#5e57a9"/>
        <path id="Trazado_131278" data-name="Trazado 131278" d="M11.137,149.72q-2.7.008-5.389.018c-.357,0-.538-.148-.532-.514.006-.39,0-.78,0-1.17,0-.346.173-.5.511-.464q2.6.26,5.2.523a1.388,1.388,0,0,1,.2,1.606" transform="translate(-3.503 -99.145)" fill="#df8086"/>
        <path id="Trazado_131279" data-name="Trazado 131279" d="M22.838,150.8a3.65,3.65,0,0,0-.2-1.606q2.728.249,5.455.5c.387.035.441.311.432.623a.45.45,0,0,1-.5.5q-2.59-.01-5.18-.017" transform="translate(-15.205 -100.225)" fill="#da646f"/>
        <path id="Trazado_131280" data-name="Trazado 131280" d="M106.51,103.572c-.554.066-1.109.125-1.661.2-.244.033-.293-.064-.257-.281A2.4,2.4,0,0,0,102,100.814c-1.117.05-2.238.013-3.357.008a1.364,1.364,0,0,1-1.5-1.475c-.008-1.068,0-2.136,0-3.2a2.043,2.043,0,0,0-1.955-2.224c-.547-.07-.742-.359-.453-.833a10.782,10.782,0,0,0,1.518-6.3,7.443,7.443,0,0,1,.732-3.093c.091-.222.2-.332.452-.259a4.21,4.21,0,0,0,1.163.084,3.251,3.251,0,0,1,3.388,3.2,5.148,5.148,0,0,0,2.267,4.21c.674.485,1.3,1.041,1.978,1.513a2.243,2.243,0,0,1,1,2.374,26.569,26.569,0,0,0-.571,6.363c.039.588.009,1.18,0,1.771a.87.87,0,0,1-.155.623" transform="translate(-63.551 -56.034)" fill="#fddcce"/>
        <path id="Trazado_131281" data-name="Trazado 131281" d="M121.277,72.248a16.967,16.967,0,0,1,5.1.337,8.081,8.081,0,0,1,5.458,9.542q-.764,3.6-1.5,7.2c-.075.371-.186.559-.608.519-.453-.043-.915,0-1.372-.014a1.6,1.6,0,0,1-1.622-1.5,7.744,7.744,0,0,1-.019-1.219,3.777,3.777,0,0,0-1.07-2.963c.108-.9.385-1.762.524-2.653a2,2,0,0,0,.053-.74q0-.423,0-.846a2.775,2.775,0,0,0-.035-.8,8.82,8.82,0,0,0-4.578-6.523c-.139-.076-.33-.118-.327-.339" transform="translate(-81.471 -48.516)" fill="#df7d4d"/>
        <path id="Trazado_131282" data-name="Trazado 131282" d="M110.663,79.874q0,.459,0,.918c-.137.223.031.488-.1.712a8.971,8.971,0,0,1-.623,2.654c-.912-.7-1.82-1.412-2.737-2.108a3.519,3.519,0,0,1-1.458-2.773,4.815,4.815,0,0,0-5.1-4.8,2.612,2.612,0,0,1-2.68-1.834c-.054-.2-.163-.419.24-.416,2.459.02,4.918.019,7.377.025a10.1,10.1,0,0,1,2.1,1.4,8.748,8.748,0,0,1,2.884,5.4c.135.259-.038.556.1.815" transform="translate(-65.77 -48.523)" fill="#e1934a"/>
        <path id="Trazado_131283" data-name="Trazado 131283" d="M130.853,126.913c0-1.742-.044-3.485.015-5.225a14.87,14.87,0,0,1,.707-3.531c.019.4.022.811.062,1.214a3.116,3.116,0,0,0,3.042,2.85c.49.017.982.02,1.473,0,.268-.01.343.077.34.342-.013,1.168-.009,2.336,0,3.5,0,.206-.008.338-.28.361-1.786.151-3.571.321-5.356.485" transform="translate(-87.894 -79.375)" fill="#fdcabe"/>
        <path id="Trazado_131284" data-name="Trazado 131284" d="M133.606,148.188c1.21-.128,2.42-.261,3.63-.384.775-.079,1.552-.136,2.326-.22.447-.048.627.135.6.574-.017.338-.012.678,0,1.017.012.38-.148.561-.54.558-1.694-.012-3.388-.014-5.083-.02a.517.517,0,0,1-.135-.364,1.142,1.142,0,0,0-.8-1.16" transform="translate(-89.754 -99.139)" fill="#92d7f6"/>
        <path id="Trazado_131285" data-name="Trazado 131285" d="M123.274,149.44c.665.039.838.223.932,1.018a4.484,4.484,0,0,1,.005.506c-1.814.006-3.629.009-5.443.02-.359,0-.536-.157-.542-.514-.006-.315.051-.578.441-.613q2.3-.205,4.606-.418" transform="translate(-79.422 -100.391)" fill="#b2e3f7"/>
        <path id="Trazado_131286" data-name="Trazado 131286" d="M23.545,14.9a.782.782,0,0,1-.434-.931c.133-.46.494-.562.913-.562H58.009c.22,0,.439-.018.659-.027.219.013.44.014.657.041a.769.769,0,0,1,.728.77.748.748,0,0,1-.758.733c-.372.02-.746,0-1.119,0H24.408c-.288,0-.575-.015-.863-.024" transform="translate(-15.501 -8.987)" fill="#000100"/>
        <path id="Trazado_131287" data-name="Trazado 131287" d="M32.648,26.682q-4.3,0-8.593,0a.9.9,0,0,1-.853-.334.752.752,0,0,1,.46-1.162,2.1,2.1,0,0,1,.5-.032q8.517,0,17.034,0a3.047,3.047,0,0,1,.406.009.756.756,0,0,1,.7.791.713.713,0,0,1-.759.72c-1.068.015-2.135.007-3.2.007H32.648" transform="translate(-15.497 -16.897)"/>
        <path id="Trazado_131288" data-name="Trazado 131288" d="M136.55,93.851c-.2-.251-.058-.545-.1-.815.2.25.058.545.1.815" transform="translate(-91.657 -62.5)" fill="#e59660"/>
        <path id="Trazado_131289" data-name="Trazado 131289" d="M136.453,99.028c.038-.237-.094-.5.1-.712-.038.237.094.5-.1.712" transform="translate(-91.66 -66.047)" fill="#e69263"/>
      </g>
    </g>
    <g id="Grupo_158008" data-name="Grupo 158008" transform="translate(507.328 4102.006)">
      <path id="Trazado_131261" data-name="Trazado 131261" d="M15.945,119.667c-.545-.121-.671.135-.666.644.014,1.275-.008,1.3-1.328,1.29-.491,0-.644.149-.634.635.009.453.092.663.614.661,1.324,0,1.358.022,1.343,1.343-.006.6.287.609.73.613s.673-.069.673-.6c0-1.338.027-1.362,1.334-1.357.506,0,.625-.18.626-.65s-.118-.649-.624-.647c-1.332.008-1.364-.017-1.335-1.279.014-.586-.2-.757-.734-.654" transform="translate(-13.318 -99.758)" fill="#29c4bb"/>
      <path id="Trazado_131262" data-name="Trazado 131262" d="M213.972,155.115c.488.093.758-.068.677-.62-.067-.462.092-.719.6-.64s.683-.106.688-.644c0-.564-.226-.694-.707-.629-.459.062-.6-.138-.6-.595.014-.716-.429-.991-1.121-.774-.329.1-.257.365-.236.573.057.566-.072.912-.74.8-.517-.088-.549.236-.547.633s.017.718.541.636c.565-.087.833.119.739.716-.09.571.276.6.7.545" transform="translate(-154.597 -140.201)" fill="#29c4bb"/>
      <path id="Trazado_131263" data-name="Trazado 131263" d="M211.371,69.623c.126-.544-.123-.73-.633-.644-.552.093-.778-.133-.68-.682.094-.531-.135-.658-.65-.663-.531,0-.731.152-.638.669.1.55-.131.777-.677.675-.566-.106-.616.19-.637.666-.025.559.192.705.679.62.53-.092.727.127.637.644-.086.495.074.7.625.675.486-.017.767-.086.663-.643s.138-.767.681-.675c.51.086.759-.1.632-.641" transform="translate(-151.369 -29.462)" fill="#010000"/>
      <path id="Trazado_131264" data-name="Trazado 131264" d="M55.692,186.938c.119-.508-.131-.694-.639-.6-.6.108-.737-.2-.651-.7.095-.558-.176-.645-.666-.642-.469,0-.72.109-.622.614.129.663-.2.826-.774.728-.586-.1-.559.27-.561.671s.008.719.538.614c.712-.141.894.2.8.838-.092.61.373.434.683.453.329.02.7.062.6-.467-.118-.654.111-.958.8-.825.578.111.507-.292.49-.679" transform="translate(-40.668 -184.989)" fill="#010000"/>
      <path id="Trazado_131265" data-name="Trazado 131265" d="M121.791,17.778c-.136.579.184.692.658.622.493-.073.686.131.611.616s.069.705.627.694c.513-.01.747-.143.658-.67s.158-.716.664-.64c.469.07.7-.042.707-.615s-.218-.744-.73-.663c-.541.086-.724-.16-.64-.664.094-.566-.21-.631-.686-.641-.509-.01-.675.181-.6.648.082.512-.107.746-.642.656s-.744.127-.628.657" transform="translate(-90.431 39.277)" fill="#29c4bb"/>
    </g>
  </g>
</svg>
