<svg xmlns="http://www.w3.org/2000/svg" xmlns:xlink="http://www.w3.org/1999/xlink" width="70" height="85" viewBox="0 0 70 85">
  <defs>
    <clipPath id="clip-path">
      <rect id="Rect치ngulo_37655" data-name="Rect치ngulo 37655" width="48.634" height="48.608" fill="none"/>
    </clipPath>
  </defs>
  <g id="Grupo_163992" data-name="Grupo 163992" transform="translate(-503 -4089)">
    <rect id="Rect치ngulo_37872" data-name="Rect치ngulo 37872" width="70" height="85" rx="12" transform="translate(503 4089)" fill="#1169e3"/>
    <g id="Grupo_163967" data-name="Grupo 163967" transform="translate(514.026 4108.309)">
      <g id="Grupo_157667" data-name="Grupo 157667" clip-path="url(#clip-path)">
        <path id="Trazado_130825" data-name="Trazado 130825" d="M24.689,0a5.915,5.915,0,0,1,2.523,1.413,3.009,3.009,0,0,0,3.2.638,8.507,8.507,0,0,1,1.66-.37,2.823,2.823,0,0,1,2.777,1.163A18.344,18.344,0,0,1,36.06,4.766a2.377,2.377,0,0,0,1.864,1.218c.423.051.842.134,1.265.188a3.256,3.256,0,0,1,3.255,3.243c.07.531.171,1.059.256,1.589a2.008,2.008,0,0,0,.985,1.435c.549.341,1.109.667,1.65,1.021a2.968,2.968,0,0,1,1.5,3.627.432.432,0,0,0,.285.573,2.57,2.57,0,0,1,1.494,2.4c.02,1.391-.006,2.782.011,4.174a.829.829,0,0,1-.671.939.656.656,0,0,1-.833-.47,2.012,2.012,0,0,1-.078-.7c0-1.171,0-2.342,0-3.513s-.368-1.529-1.539-1.529H8.713c-.253,0-.506.012-.758-.012q-2.4,0-4.792,0c-1.039,0-1.387.278-1.593,1.294A.92.92,0,0,1,.76,21.1.73.73,0,0,1,0,20.511v-.949a2.626,2.626,0,0,1,1.375-1.979.505.505,0,0,0,.258-.594,4.048,4.048,0,0,1-.079-1.363,3.147,3.147,0,0,1,1.188-1.934A14.361,14.361,0,0,1,4.5,12.572a2.506,2.506,0,0,0,1.37-1.928C5.94,10.1,6,9.545,6.122,9a3.32,3.32,0,0,1,3.22-2.948c.486-.065.969-.149,1.453-.219A2.321,2.321,0,0,0,12.476,4.65c.376-.6.7-1.238,1.138-1.8a2.977,2.977,0,0,1,3.012-1.274A13.634,13.634,0,0,1,18.569,2,2.553,2.553,0,0,0,21.09,1.48c.381-.307.78-.593,1.183-.873A3.242,3.242,0,0,1,23.929,0Z"/>
        <path id="Trazado_130826" data-name="Trazado 130826" d="M0,55.013a.4.4,0,0,0,.087-.02.764.764,0,0,1,.161.621q.009,2.249,0,4.5a.759.759,0,0,1-.162.62A.172.172,0,0,0,0,60.71Z" transform="translate(0 -31.653)" fill="#050505"/>
        <path id="Trazado_130827" data-name="Trazado 130827" d="M18.366,44.291c.126-.006.252-.018.378-.018H56.119c.854,0,1.322.288,1.5.941a2.157,2.157,0,0,1,.056.562c0,1.312,0,2.624,0,3.936,0,.621.145.8.759.943q0,.936,0,1.872a1.546,1.546,0,0,0-.628,1.431,1.426,1.426,0,0,1-1.593,1.492c-2.8.008-5.6,0-8.4,0h-19.6a5.828,5.828,0,0,1-.852-.028,17.751,17.751,0,0,1-4.178-1.946c-.174-.111-.357-.218-.319-.473.056-.176.215-.269.327-.4a2.113,2.113,0,0,0,0-2.888.6.6,0,0,1-.131-.727A1.9,1.9,0,0,0,21.189,46.3a14.089,14.089,0,0,1-1.423.005.683.683,0,0,0-.738.471c-.149.356.074.789-.2,1.123a.443.443,0,0,1-.281-.331,7.68,7.68,0,0,1-.3-3.029.419.419,0,0,1,.119-.251" transform="translate(-10.485 -25.483)" fill="#fdf4e5"/>
        <path id="Trazado_130828" data-name="Trazado 130828" d="M16.829,60.8c.237.007.473.02.71.02,9.3,0,18.6-.016,27.9.017,1.492.006,1.969-.609,1.881-1.872-.043-.621.159-.823.752-.931a.8.8,0,0,1,.672.884,2.722,2.722,0,0,1-1.071,2.724,1.205,1.205,0,0,0-.628,1.523,2.663,2.663,0,0,1-1.157,2.681,20.168,20.168,0,0,1-1.963,1.236,2.345,2.345,0,0,0-1.169,1.8c-.071.532-.144,1.066-.247,1.592a3.155,3.155,0,0,1-3.155,2.963c-.454.062-.906.138-1.36.2A2.3,2.3,0,0,0,36.2,74.813c-.3.52-.611,1.033-.94,1.535a2.983,2.983,0,0,1-3.64,1.487c-.632-.138-1.262-.286-1.891-.438a2.009,2.009,0,0,0-1.711.327c-.554.393-1.1.8-1.654,1.193a3.072,3.072,0,0,1-3.865.008c-.542-.384-1.077-.776-1.615-1.165a2.166,2.166,0,0,0-1.8-.363c-.8.165-1.585.424-2.4.535a2.789,2.789,0,0,1-2.84-1.222c-.428-.6-.814-1.241-1.188-1.881a2.34,2.34,0,0,0-1.829-1.2c-.517-.067-1.035-.138-1.546-.237-1.973-.383-2.737-1.218-3-3.229-.067-.517-.167-1.029-.25-1.544A2.045,2.045,0,0,0,5.02,67.154c-.552-.338-1.112-.665-1.652-1.02a2.961,2.961,0,0,1-1.469-3.6.429.429,0,0,0-.276-.578A2.409,2.409,0,0,1,.2,60.074V54.336c.063-.317.326-.384.578-.466a.672.672,0,0,1,.846.52,2.323,2.323,0,0,1,.062.706c0,1.36,0,2.72,0,4.079.005,1.092.4,1.485,1.491,1.486q6.143,0,12.286,0a5.207,5.207,0,0,1,1.359.144" transform="translate(-0.116 -30.996)"/>
        <path id="Trazado_130829" data-name="Trazado 130829" d="M48.3,18.08a15.106,15.106,0,0,1,5.555,1.778A16.742,16.742,0,0,1,61.005,27.1c.079.153.136.317.2.475a.113.113,0,0,1-.09.141,2.351,2.351,0,0,1-.379.01q-11.273,0-22.546,0c-.249,0-.6.1-.477-.381.1-.266.321-.2.52-.18a3.008,3.008,0,0,0,2.06-.517,1.773,1.773,0,0,0,.244-2.873c-.1-.1-.224-.177-.264-.324a.614.614,0,0,1,.506-.473c.15.021.236.152.361.216a.6.6,0,0,0,.91-.611,6.918,6.918,0,0,1-.135-.7,1.18,1.18,0,0,1,.55-.74A17.583,17.583,0,0,1,47.255,18.3,2.044,2.044,0,0,1,48.3,18.08" transform="translate(-21.694 -10.4)" fill="#f8f19c"/>
        <path id="Trazado_130830" data-name="Trazado 130830" d="M44.361,5.429a21.948,21.948,0,0,0,2.268-1.547,1.742,1.742,0,0,1,2.5,0c.455.315.9.649,1.339.982A3.689,3.689,0,0,0,53.74,5.5c.689-.171,1.371-.374,2.078-.477a1.437,1.437,0,0,1,1.424.556,7.236,7.236,0,0,1,.865,1.358,4.274,4.274,0,0,0,3.8,2.493,11.249,11.249,0,0,1,1.263.2,1.542,1.542,0,0,1,1.321,1.362c.129.747.245,1.5.383,2.242A3.327,3.327,0,0,0,66.384,15.5c.582.379,1.19.72,1.772,1.1,1.126.734,1.069,1.248.79,2.5-.041.182-.161.2-.317.2-1.2,0-2.406-.012-3.608.006-.312,0-.348-.206-.435-.4a17.678,17.678,0,0,0-6.522-7.784,18.015,18.015,0,0,0-16.67-1.939c-.148.052-.3.1-.445.152.006-.468.4-.7.65-1,.723-.874,1.5-1.7,2.284-2.522a5.574,5.574,0,0,1,.478-.381" transform="translate(-23.57 -1.93)" fill="#8fd9a9"/>
        <path id="Trazado_130831" data-name="Trazado 130831" d="M17.615,55.293c-.331.007-.662.02-.993.02q-6.351,0-12.7,0c-1.143,0-1.592-.457-1.593-1.611q0-2.2,0-4.408c0-.625-.153-.808-.759-.936q0-.937,0-1.874a.766.766,0,0,0,.771-.83,1.38,1.38,0,0,1,1.479-1.378c1.656,0,3.311.011,4.966.017a8.479,8.479,0,0,0,.428,3.536c.116-.412-.065-.809.118-1.169.227.194.165.463.166.707.007,1.64,0,3.279,0,4.919,0,.843.125.966.95.969.552,0,1.1-.02,1.655.006.438.02.8-.31,1.236-.233.244.464.738.6,1.143.84a25,25,0,0,0,3.13,1.425" transform="translate(-0.902 -25.485)" fill="#faeace"/>
        <path id="Trazado_130832" data-name="Trazado 130832" d="M24.962,7.659c-.594.649-1.194,1.292-1.781,1.948a20.2,20.2,0,0,0-1.631,1.953,20,20,0,0,0-4.829,2.962A17.972,17.972,0,0,0,11.8,21.106a.6.6,0,0,1-.665.429c-1.075-.023-2.151-.02-3.226,0-.322.006-.465-.069-.54-.413a1.77,1.77,0,0,1,.973-2.378c.455-.286.917-.561,1.38-.832a3.743,3.743,0,0,0,1.865-2.922c.073-.563.182-1.122.268-1.684a1.6,1.6,0,0,1,1.444-1.463c.717-.116,1.433-.236,2.148-.365a3.363,3.363,0,0,0,2.331-1.561c.407-.639.8-1.288,1.211-1.925a1.48,1.48,0,0,1,1.707-.712c.492.114.99.2,1.477.338a4.6,4.6,0,0,0,2.8.042" transform="translate(-4.171 -4.16)" fill="#5ec682"/>
        <path id="Trazado_130833" data-name="Trazado 130833" d="M28.375,26.964c-.13.369,0,.469.384.468q11.249-.017,22.5-.011c.166,0,.353.059.488-.1.071.058.107.144.008.179a1.047,1.047,0,0,1-.329.013l-29.815,0h-.361a8.52,8.52,0,0,1,.852-1.671,16.73,16.73,0,0,1,12.821-8.114,12.876,12.876,0,0,1,3.917.1,16.617,16.617,0,0,0-5.795,3.188c-.2.162-.446.313-.494.61-.215.04-.252-.157-.339-.27a1.82,1.82,0,0,0-1.94-.693,1.77,1.77,0,0,0-1.413,1.435,2.306,2.306,0,0,1-.16.593c-.366.288-.846.315-1.24.566a1.826,1.826,0,0,0,.009,3.223,4.32,4.32,0,0,1,.907.49" transform="translate(-12.23 -10.141)" fill="#f8f19c"/>
        <path id="Trazado_130834" data-name="Trazado 130834" d="M70.179,53.009c0-1.155,0-2.212,0-3.27a1.747,1.747,0,0,1,.03-.47.66.66,0,0,1,.736-.532.623.623,0,0,1,.642.631q.058,2.869.073,5.738a.756.756,0,0,1-.567.786.787.787,0,0,1-.928-.39q-1.25-1.807-2.5-3.62c-.167.094-.1.235-.1.345-.006.964,0,1.929-.006,2.893,0,.57-.263.868-.717.867s-.7-.289-.7-.871c0-1.834,0-3.668,0-5.5,0-.378.083-.708.475-.835a.757.757,0,0,1,.916.4c.859,1.262,1.734,2.513,2.649,3.836" transform="translate(-38.068 -28.051)"/>
        <path id="Trazado_130835" data-name="Trazado 130835" d="M23.849,55.581a3.163,3.163,0,0,1-1.909.395c-.426-.014-.853.009-1.279,0-.581-.011-.839-.257-.839-.843,0-1.974.009-3.947.015-5.921a.775.775,0,0,1,.823-.5c.521.013,1.043-.007,1.564.007a2.04,2.04,0,0,1,1.874,2.9c-.068.159-.148.26.014.446a2.266,2.266,0,0,1-.263,3.516" transform="translate(-11.409 -28.037)"/>
        <path id="Trazado_130836" data-name="Trazado 130836" d="M36.146,53.552c0,.635.007,1.135,0,1.635s-.262.778-.691.784a.692.692,0,0,1-.725-.761q-.017-2.868,0-5.736a.691.691,0,0,1,.777-.758c.553-.011,1.106-.017,1.659.008a2.253,2.253,0,0,1,2.1,1.743,2.153,2.153,0,0,1-1.239,2.457c-.315.147-.369.23-.109.494.408.417.785.866,1.162,1.313a.7.7,0,0,1-.015,1.084c-.349.291-.706.241-1.069-.166-.587-.659-1.166-1.324-1.846-2.1" transform="translate(-19.984 -28.035)"/>
        <path id="Trazado_130837" data-name="Trazado 130837" d="M82.173,52.618c0-.869-.006-1.738,0-2.607.006-.662.259-.91.927-.921.427-.008.853-.011,1.28,0a2.9,2.9,0,0,1,3,2.481,4.318,4.318,0,0,1-.261,2.869,2.8,2.8,0,0,1-2.692,1.742c-.442,0-.884.011-1.327.01-.644,0-.918-.264-.926-.92-.011-.884,0-1.769,0-2.654" transform="translate(-47.296 -28.252)"/>
        <path id="Trazado_130838" data-name="Trazado 130838" d="M54.761,55.235a.673.673,0,0,1-.493.72.629.629,0,0,1-.783-.273,2.312,2.312,0,0,1-.164-.339c-.313-.789-.312-.79-1.14-.79a4.154,4.154,0,0,1-.663-.005,1.056,1.056,0,0,0-1.407.913.664.664,0,0,1-.924.488.729.729,0,0,1-.37-1.027c.532-1.415,1.075-2.826,1.612-4.239.174-.457.341-.915.519-1.37a.8.8,0,0,1,.777-.584.818.818,0,0,1,.834.574Q53.633,52.13,54.7,54.96a1.755,1.755,0,0,1,.063.275" transform="translate(-28.057 -28.048)"/>
        <path id="Trazado_130839" data-name="Trazado 130839" d="M61.195,73.832a15.515,15.515,0,0,1-3.732,5.141,16.857,16.857,0,0,1-8.7,4.317,4.7,4.7,0,0,1-.471.038,3.28,3.28,0,0,1-1.565-.445,14.265,14.265,0,0,1-2.891-1.6c-.149-.108-.5-.2-.22-.519a2,2,0,0,1,.7-.06q2.762,0,5.525,0c.173,0,.347.006.519-.009.318-.028.6-.127.669-.483s-.135-.56-.45-.676a1.49,1.49,0,0,0-.654-.075c-2.575,0-5.151-.011-7.726.008a1.435,1.435,0,0,1-1.237-.553c-.333-.421-.732-.788-1.04-1.23-.259-.371-.177-.54.267-.576.173-.014.348-.006.521-.006H53.6a1.3,1.3,0,0,0,.694-.1.553.553,0,0,0,.356-.647c-.069-.29-.3-.386-.56-.443a3.857,3.857,0,0,0-.851-.05q-6.879,0-13.757,0a1.6,1.6,0,0,1-.836-.11,5.937,5.937,0,0,1-.936-1.693c-.1-.235-.028-.4.275-.384.095.006.19,0,.285,0q11.2,0,22.409.008c.167,0,.418-.16.515.143" transform="translate(-21.681 -42.39)" fill="#f8f19c"/>
        <path id="Trazado_130840" data-name="Trazado 130840" d="M47.748,84.516a19.019,19.019,0,0,0,4.193.4c7.64-.33,13.111-3.97,16.445-10.833a.677.677,0,0,1,.734-.467c1.075.025,2.152.017,3.228,0,.282,0,.408.063.478.366a1.808,1.808,0,0,1-1,2.453,8.414,8.414,0,0,1-.815.484,4.236,4.236,0,0,0-2.48,3.807c-.028.392-.124.779-.188,1.169a1.559,1.559,0,0,1-1.391,1.4c-.732.124-1.465.243-2.2.374a3.358,3.358,0,0,0-2.328,1.565c-.356.56-.684,1.138-1.045,1.694a1.667,1.667,0,0,1-2.159.893c-.4-.085-.8-.174-1.2-.3a3.962,3.962,0,0,0-3.74.522.786.786,0,0,1-.72-.094,50.54,50.54,0,0,1-5.449-2.932,1.555,1.555,0,0,1-.444-.347c-.053-.073-.105-.182.076-.165" transform="translate(-27.41 -42.373)" fill="#8fd9a9"/>
        <path id="Trazado_130841" data-name="Trazado 130841" d="M24.5,84.519c.061.295.347.35.545.478a49.7,49.7,0,0,0,5.277,2.837,1.745,1.745,0,0,0,.715.222c-.48.358-.962.714-1.44,1.073a1.725,1.725,0,0,1-2.265-.01c-.38-.284-.777-.546-1.143-.846a3.948,3.948,0,0,0-3.818-.8,14.954,14.954,0,0,1-1.8.417,1.413,1.413,0,0,1-1.492-.6,9.788,9.788,0,0,1-.838-1.318,4.287,4.287,0,0,0-3.853-2.49,10.811,10.811,0,0,1-1.168-.191,1.541,1.541,0,0,1-1.356-1.328c-.14-.761-.249-1.527-.392-2.288a3.315,3.315,0,0,0-1.509-2.26c-.584-.376-1.19-.72-1.772-1.1-1.14-.742-1.06-1.279-.786-2.494.041-.18.165-.2.32-.2,1.2,0,2.4.011,3.606-.005.312,0,.348.211.435.407a18.053,18.053,0,0,0,4.966,6.616,17.735,17.735,0,0,0,7.643,3.809.527.527,0,0,1,.123.065" transform="translate(-4.165 -42.376)" fill="#5ec682"/>
        <path id="Trazado_130842" data-name="Trazado 130842" d="M51.724,73.769c-.135-.163-.322-.1-.488-.1q-11.25,0-22.5,0c-.521,0-.522,0-.285.483.251.508.505,1.014.758,1.521-.181.166-.416.126-.63.16-.532.083-.749.275-.705.648.055.468.42.45.752.453,1.074.009,2.148,0,3.222,0q6.113,0,12.225,0c.272,0,.576-.081.8.175-.17.127-.367.069-.551.069q-6.73.005-13.46.006c-.151,0-.362-.082-.442.062-.093.168.13.254.222.368.3.367.606.722.9,1.089a1.447,1.447,0,0,0,1.256.576c2.622-.033,5.245-.016,7.867-.012.168,0,.35-.054.5.07-.195.227-.463.167-.707.167q-3.929.009-7.858,0a4.793,4.793,0,0,0-.615.019.5.5,0,0,0-.509.516.525.525,0,0,0,.479.555,8.691,8.691,0,0,0,1.275.042c.277.014.574-.069.814.148a5.9,5.9,0,0,0,1.614,1.119,13.917,13.917,0,0,0,3.155,1.358,11.671,11.671,0,0,1-3.446.15,16.791,16.791,0,0,1-12.619-7.133,13.469,13.469,0,0,1-1.539-2.7h.472q14.836,0,29.671.007c.113,0,.408-.194.368.182" transform="translate(-12.21 -42.327)" fill="#f4e972"/>
        <path id="Trazado_130843" data-name="Trazado 130843" d="M35.327,33.821a2.232,2.232,0,0,1-2-2.168A2.155,2.155,0,0,1,34.9,29.726c.237-.082.487-.129.73-.193.088-.011.142.046.2.1.394.335.569.346.989.061a.473.473,0,0,1,.205-.1.985.985,0,0,1,.767.423,1.922,1.922,0,0,1,.244,3.2,3.059,3.059,0,0,1-2.715.607" transform="translate(-19.182 -16.998)" fill="#f8f19c"/>
        <path id="Trazado_130844" data-name="Trazado 130844" d="M71.51,29.529a8.327,8.327,0,0,1,1.07.35A1.989,1.989,0,0,1,73.808,31.5a1.877,1.877,0,0,1-.977,1.905,3.109,3.109,0,0,1-3.361.062,1.937,1.937,0,0,1-.011-3.5c.212-.131.444-.23.666-.344.106-.017.168.061.243.112a.631.631,0,0,0,.912-.072c.062-.066.124-.141.231-.129" transform="translate(-39.343 -16.996)" fill="#f8f19c"/>
        <path id="Trazado_130845" data-name="Trazado 130845" d="M70.318,26.544c-.417.663-.9.693-1.386.089a3.141,3.141,0,0,0-.059-.421.589.589,0,0,0-1.139-.007c-.018.06-.025.124-.037.185-.1.484-.386.713-.815.649a.734.734,0,0,1-.592-.879,2.024,2.024,0,0,1,4.034.1c.006.094,0,.189-.005.284" transform="translate(-38.151 -14.011)" fill="#f8f19c"/>
        <path id="Trazado_130846" data-name="Trazado 130846" d="M40.147,26.618c-.491.6-.965.566-1.384-.093A2.03,2.03,0,0,1,40.206,24.4a2.073,2.073,0,0,1,2.425,1.07c.042.167.085.334.126.5a.764.764,0,0,1-.387,1,.733.733,0,0,1-.963-.357c-.116-.081-.121-.215-.157-.333a.48.48,0,0,0-.941.011c-.037.117-.037.254-.162.328" transform="translate(-22.311 -13.99)" fill="#f8f19c"/>
        <path id="Trazado_130847" data-name="Trazado 130847" d="M54.393,33.058a2.462,2.462,0,0,1-1.789-.775.712.712,0,1,1,.958-1.05,1.13,1.13,0,0,0,1.756-.009.71.71,0,1,1,.971,1.036,2.511,2.511,0,0,1-1.9.8" transform="translate(-30.125 -17.854)" fill="#f8f19c"/>
        <path id="Trazado_130848" data-name="Trazado 130848" d="M42.024,28.573a3.073,3.073,0,0,1,.044-.371.6.6,0,0,1,1.174-.006,2.818,2.818,0,0,1,.042.371l-.481.39-.78-.384" transform="translate(-24.188 -15.945)" fill="#f8f19c"/>
        <path id="Trazado_130849" data-name="Trazado 130849" d="M23.181,58.438a3.6,3.6,0,0,1,1.432-.034.849.849,0,0,1-.1,1.678A5.283,5.283,0,0,1,23.2,60.05a6.36,6.36,0,0,1-.019-1.611" transform="translate(-13.318 -33.585)" fill="#fcf3e5"/>
        <path id="Trazado_130850" data-name="Trazado 130850" d="M23.715,53.33c-.15-.043-.474.115-.516-.079a4.378,4.378,0,0,1,0-1.12c0-.023.136-.054.209-.056.252-.006.5-.009.755,0a.584.584,0,0,1,.611.638.593.593,0,0,1-.6.611c-.14.013-.283,0-.465,0" transform="translate(-13.331 -29.971)" fill="#fdf4e5"/>
        <path id="Trazado_130851" data-name="Trazado 130851" d="M23.173,58.559q.01.806.019,1.612a5.71,5.71,0,0,1-.019-1.612" transform="translate(-13.311 -33.706)" fill="#e9dac0"/>
        <path id="Trazado_130852" data-name="Trazado 130852" d="M38.559,52a5.112,5.112,0,0,1,.538.034.78.78,0,0,1,.7.716.762.762,0,0,1-.576.815,2.989,2.989,0,0,1-.934.07c-.208.01-.22-.123-.218-.277a5.782,5.782,0,0,0-.007-.753c-.062-.487.082-.73.495-.6" transform="translate(-21.902 -29.913)" fill="#faf2e3"/>
        <path id="Trazado_130853" data-name="Trazado 130853" d="M86.258,56.686c-.719.011-.719.011-.721-.632,0-1.074.006-2.148-.016-3.221-.007-.317.09-.4.4-.4,1.113,0,1.58.23,1.886,1a2.888,2.888,0,0,1-.422,2.894,1.419,1.419,0,0,1-1.126.36" transform="translate(-49.225 -30.18)" fill="#fdf4e5"/>
        <path id="Trazado_130854" data-name="Trazado 130854" d="M55.582,56.469H54.133l.721-1.907.727,1.907" transform="translate(-31.158 -31.405)" fill="#faf1e3"/>
        <path id="Trazado_130855" data-name="Trazado 130855" d="M53.594,80q-8.165.006-16.331.01c-.577,0-.884-.244-.9-.686-.012-.46.308-.72.9-.738.22-.006.441-.02.661-.03.188.011.376.029.565.03q7.2,0,14.4,0c.126,0,.253,0,.379,0,.4.007.725.126.817.563a.7.7,0,0,1-.5.849" transform="translate(-20.932 -45.216)" fill="#010100"/>
        <path id="Trazado_130856" data-name="Trazado 130856" d="M47.7,88.655c-.632-.007-1.264-.01-1.9-.021-.563-.009-.869-.266-.87-.719s.295-.7.869-.7q4.509-.006,9.017-.008a.691.691,0,0,1,.577.837c-.078.458-.419.593-.838.593H48.22c-.173,0-.346.012-.519.019" transform="translate(-25.864 -50.193)"/>
      </g>
    </g>
    <g id="Grupo_163968" data-name="Grupo 163968" transform="translate(-505.045 -583.563)">
      <g id="Grupo_156584" data-name="Grupo 156584" transform="translate(661 25)">
        <path id="Trazado_127053" data-name="Trazado 127053" d="M15.507,123.96c-.454.1-.559-.113-.555-.537.012-1.063-.007-1.081-1.106-1.075-.409,0-.536-.124-.528-.529.007-.377.077-.553.512-.551,1.1,0,1.131-.018,1.119-1.119-.005-.5.239-.507.608-.511s.56.058.56.5c0,1.115.023,1.135,1.112,1.131.421,0,.521.15.522.541s-.1.541-.52.539c-1.11-.006-1.137.014-1.112,1.066.012.488-.169.631-.611.545" transform="translate(339.683 4573.259)" fill="#29c4bb"/>
        <path id="Trazado_127054" data-name="Trazado 127054" d="M213.642,151.161c.406-.078.632.057.565.517-.056.385.077.6.5.533s.57.088.573.537c0,.47-.189.578-.589.525-.383-.052-.5.115-.5.5.012.6-.357.826-.934.645-.274-.086-.214-.3-.2-.477.048-.472-.06-.76-.616-.666-.431.073-.457-.2-.456-.527s.014-.6.451-.53c.471.073.694-.1.616-.6-.075-.475.23-.5.582-.454" transform="translate(195.806 4551.753)" fill="#29c4bb"/>
        <path id="Trazado_127055" data-name="Trazado 127055" d="M210.718,69.268c.1.453-.1.608-.527.537-.46-.078-.648.111-.567.569s-.113.548-.542.553-.609-.127-.532-.557c.082-.459-.109-.648-.565-.562-.472.089-.513-.158-.531-.555-.021-.466.16-.588.566-.517.441.077.606-.106.531-.537-.072-.412.061-.579.521-.563.4.014.639.072.552.536s.115.639.567.563c.425-.072.632.081.526.534" transform="translate(199.254 4608.17)" fill="#010000"/>
        <path id="Trazado_127056" data-name="Trazado 127056" d="M55.04,186.64c.1.423-.11.578-.532.5-.5-.09-.614.169-.543.587.079.465-.146.537-.555.535-.39,0-.6-.091-.518-.511.108-.553-.169-.688-.645-.607s-.466-.225-.467-.559.007-.6.448-.512c.593.117.745-.168.665-.7-.077-.508.311-.362.569-.377.274-.016.579-.052.5.389-.1.545.092.8.67.687.482-.092.423.243.409.566" transform="translate(311.829 4528.862)" fill="#010000"/>
        <path id="Trazado_127057" data-name="Trazado 127057" d="M121.786,17.426c-.114-.483.153-.577.548-.518.41.061.572-.109.509-.513s.058-.588.522-.578c.427.009.623.119.548.558s.131.6.553.533c.391-.059.587.035.589.513s-.182.62-.608.553c-.45-.072-.6.133-.533.553.078.472-.175.526-.572.534-.424.009-.562-.151-.5-.54.068-.427-.09-.622-.535-.547s-.62-.106-.523-.547" transform="translate(261.153 4643.184)" fill="#29c4bb"/>
      </g>
    </g>
  </g>
</svg>
