<svg xmlns="http://www.w3.org/2000/svg" width="70" height="85" viewBox="0 0 70 85">
  <g id="Grupo_163994" data-name="Grupo 163994" transform="translate(-503 -4089)">
    <rect id="Rectángulo_37872" data-name="Rectángulo 37872" width="70" height="85" rx="12" transform="translate(503 4089)" fill="#1169e3"/>
    <g id="Grupo_163973" data-name="Grupo 163973" transform="translate(514.919 4108.635)">
      <g id="Grupo_158065" data-name="Grupo 158065" transform="translate(0 0)">
        <path id="Trazado_131993" data-name="Trazado 131993" d="M18.573,52.566a.681.681,0,0,1,.284-.906,6.006,6.006,0,0,1,4.624-.8,2.769,2.769,0,0,1,1.78,1.307.383.383,0,0,0,.456.208c2.963-.382,4.492,2.04,4.582,4.139a7.637,7.637,0,0,1-.859,3.833,6.576,6.576,0,0,0-.465,1.622,8.877,8.877,0,0,1-2.581,4.791.54.54,0,0,0-.191.45c.008.711.012,1.422,0,2.132a.366.366,0,0,0,.283.413c.443.162.867.376,1.311.535a.8.8,0,0,1,.6.98.727.727,0,0,1-.99.522,11.118,11.118,0,0,1-1.234-.485c-.629-.248-.929-.043-.944.641-.009.411.02.823-.011,1.232a1.638,1.638,0,0,1-.958,1.518.564.564,0,0,0-.362.6c.008.774.012,1.549,0,2.323-.006.354.114.519.489.518q3.365-.009,6.731,0c.349,0,.477-.145.473-.483-.01-.853.012-1.707-.009-2.56a2.294,2.294,0,0,0-1.089-1.99c-.523-.339-.593-.6-.386-1.1.411-.486.679-.542,1.219-.216a2.5,2.5,0,0,1,.673.514c.254.316.482.286.809.136.658-.3,1.332-.571,2.009-.825.269-.1.322-.251.345-.521a2.176,2.176,0,0,0-.569-1.7,8.47,8.47,0,0,1-1.758-3.777c-.136-.642-.48-1.226-.566-1.895a6.271,6.271,0,0,1,1.663-5.228.839.839,0,0,0,.265-.653,3.648,3.648,0,0,1,3.772-3.841,3.691,3.691,0,0,1,3.484,3.986.547.547,0,0,0,.187.448,6.242,6.242,0,0,1,1.383,6.337,17.446,17.446,0,0,1-.815,2.758,9.85,9.85,0,0,1-1.475,2.3,2.681,2.681,0,0,0-.216,1.577c.071.152.229.161.352.212,1.017.425,2.039.837,3.058,1.258a3.059,3.059,0,0,1,2.055,3.043c0,.553-.034,1.109.008,1.659a1.892,1.892,0,0,1-1.273,2.117H1.284A1.9,1.9,0,0,1,.01,77.579c.045-.6,0-1.2.013-1.8a2.969,2.969,0,0,1,1.914-2.838q1.58-.684,3.184-1.31a.549.549,0,0,0,.395-.588,2.806,2.806,0,0,0-.583-1.907A8.909,8.909,0,0,1,3.1,63.35c.037-.785.239-1,.925-1.029a.662.662,0,0,1,.622.817,7.6,7.6,0,0,0,.839,3.936A6.017,6.017,0,0,0,7.33,69.491a1.278,1.278,0,0,0,1.836-.1,6.586,6.586,0,0,0,1.5-1.936,7.2,7.2,0,0,0,1.016-4.074,3.19,3.19,0,0,0-1.019-2.315A3.116,3.116,0,0,0,8.391,60.2a4.006,4.006,0,0,0-2.354.535c-.538.317-.846.279-1.152-.1a.7.7,0,0,1,.1-1.051c1.782-1.4,6.083-1.484,7.585,1.374a6.436,6.436,0,0,1,.443,4.742,10.023,10.023,0,0,1-1.993,3.986c-.245.294-.163.593-.168.893-.016.89-.006.89.82,1.228.583.239,1.17.466,1.746.72a.358.358,0,0,0,.488-.107,3.523,3.523,0,0,1,1.366-.906c1.4-.57,2.791-1.162,4.195-1.721.3-.12.436-.27.378-.587a.677.677,0,0,1,0-.189,3.692,3.692,0,0,0-1.061-3.257,7.924,7.924,0,0,1-1.846-4.432,3.561,3.561,0,0,0-.228-.765,8.535,8.535,0,0,1-.375-5.785c.2-.67.39-.782,1.064-.7a.679.679,0,0,1,.456.925c-.091.4-.172.8-.25,1.2a6.469,6.469,0,0,0,.109,2.341c.025.147,0,.357.176.4.147.04.226-.143.331-.232.048-.04.089-.088.134-.133A9.659,9.659,0,0,1,21.4,56.8a3.13,3.13,0,0,0,2.148-2.2c.083-.334.242-.65.357-.977a.816.816,0,0,0-.4-1.081,2.653,2.653,0,0,0-1.786-.278,6.065,6.065,0,0,0-1.832.612,2.152,2.152,0,0,1-.584.184c-.351.008-.677-.036-.725-.486" transform="translate(0 -31.142)"/>
        <path id="Trazado_131994" data-name="Trazado 131994" d="M39,15.258c.167-.968.339-2.108.569-3.236a1.235,1.235,0,0,0-.416-1.333c-.759-.667-1.451-1.408-2.186-2.1a1.87,1.87,0,0,1-.584-2.1A1.853,1.853,0,0,1,38.07,5.183c1.081-.124,2.155-.315,3.234-.46a.908.908,0,0,0,.778-.579c.465-1,.976-1.978,1.459-2.969a1.911,1.911,0,0,1,3.528,0c.484.991.988,1.973,1.45,2.974a.944.944,0,0,0,.83.581c1.1.143,2.186.314,3.28.468a1.842,1.842,0,0,1,1.611,1.279,1.841,1.841,0,0,1-.529,2.03c-.814.795-1.619,1.6-2.447,2.38a.841.841,0,0,0-.275.843c.205,1.133.393,2.27.593,3.4a1.918,1.918,0,0,1-2.718,2.046c-1.037-.533-2.07-1.072-3.094-1.628a.868.868,0,0,0-.924-.006c-1.037.566-2.076,1.13-3.139,1.644A1.917,1.917,0,0,1,39,15.258" transform="translate(-22.285 0)"/>
        <path id="Trazado_131995" data-name="Trazado 131995" d="M10.664,21.832a1.475,1.475,0,0,1,1.342.856c.36.719.721,1.437,1.066,2.163a.514.514,0,0,0,.458.331c.814.1,1.625.235,2.435.36a1.573,1.573,0,0,1,.861,2.607q-.869.874-1.762,1.724a.519.519,0,0,0-.183.537c.144.728.261,1.46.382,2.193a1.6,1.6,0,0,1-1.26,2,1.467,1.467,0,0,1-1.046-.182c-.683-.36-1.369-.714-2.046-1.085a.571.571,0,0,0-.615,0c-.662.365-1.339.7-2,1.061a1.5,1.5,0,0,1-1.772-.087,1.592,1.592,0,0,1-.581-1.688c.147-.743.251-1.494.4-2.237a.484.484,0,0,0-.185-.493c-.558-.537-1.1-1.086-1.665-1.621a1.522,1.522,0,0,1-.441-1.682A1.475,1.475,0,0,1,5.359,25.52c.767-.1,1.527-.241,2.3-.332a.556.556,0,0,0,.492-.359c.34-.71.693-1.414,1.042-2.12a1.5,1.5,0,0,1,1.475-.877" transform="translate(-2.429 -13.415)"/>
        <path id="Trazado_131996" data-name="Trazado 131996" d="M87.243,21.83a1.523,1.523,0,0,1,1.5.855q.547,1.072,1.065,2.159a.513.513,0,0,0,.454.335c.813.1,1.623.235,2.433.36a1.573,1.573,0,0,1,.877,2.6c-.552.564-1.111,1.124-1.7,1.652a.754.754,0,0,0-.237.795c.141.759.267,1.522.392,2.285a1.382,1.382,0,0,1-.63,1.43,1.441,1.441,0,0,1-1.6.17c-.711-.374-1.425-.74-2.129-1.127a.6.6,0,0,0-.656,0c-.66.368-1.338.7-2,1.061a1.508,1.508,0,0,1-1.733-.091,1.523,1.523,0,0,1-.606-1.669c.158-.739.256-1.492.4-2.235a.53.53,0,0,0-.193-.537c-.563-.531-1.109-1.079-1.667-1.616a1.53,1.53,0,0,1-.448-1.681A1.5,1.5,0,0,1,82.1,25.521c.75-.1,1.5-.242,2.247-.325a.653.653,0,0,0,.582-.449c.31-.671.65-1.329.981-1.991a1.535,1.535,0,0,1,1.338-.926" transform="translate(-49.573 -13.414)"/>
        <path id="Trazado_131997" data-name="Trazado 131997" d="M17.179,76.609A2.805,2.805,0,0,1,18.2,78.8a7.75,7.75,0,0,1-2.474,6.206,1.39,1.39,0,0,1-2.205.07A7.337,7.337,0,0,1,11.3,81.567a6.248,6.248,0,0,1-.356-2.839.731.731,0,0,0-.52-.807c.014-.094-.008-.2.077-.275a4.287,4.287,0,0,1,3.084-1.512,7.862,7.862,0,0,1,2.583.089,2.888,2.888,0,0,1,1.006.385" transform="translate(-6.408 -46.743)" fill="#c38858"/>
        <path id="Trazado_131998" data-name="Trazado 131998" d="M67.93,104.455a.851.851,0,0,0,.491,1.01,2.056,2.056,0,0,1,1.1,1.863c.025,1.026,0,2.052.013,3.078,0,.254-.088.319-.328.318q-3.669-.01-7.338,0c-.219,0-.3-.058-.3-.291.01-1.01.008-2.021,0-3.031,0-.191.065-.252.253-.31a1.384,1.384,0,0,0,1.074-1.477c.007-.426,0-.852,0-1.278,0-.764.389-1.02,1.1-.726.35.143.7.292,1.048.434.569.231.79.168,1.174-.324l1.709.734" transform="translate(-37.83 -63.593)" fill="#de646e"/>
        <path id="Trazado_131999" data-name="Trazado 131999" d="M46.31,55.57c.34.463.483.484,1.3.2.048.185-.081.295-.186.406a5.728,5.728,0,0,0-1.351,4.734,4.993,4.993,0,0,0,.128.743l-.678.708a7.59,7.59,0,0,1-.335-2.854,6.718,6.718,0,0,1,.306-1.519.749.749,0,0,0-.349-.894,4.537,4.537,0,0,1,1.024-1.253c.085-.072.168-.138.146-.266" transform="translate(-27.737 -34.146)" fill="#714d44"/>
        <path id="Trazado_132000" data-name="Trazado 132000" d="M17.3,75.941a10.537,10.537,0,0,0-2.787-.394,5.4,5.4,0,0,0-3.651,1.282,1.818,1.818,0,0,1-.234.151,3.688,3.688,0,0,1,.788-1.41.884.884,0,0,0,1.085,0,4.462,4.462,0,0,1,4.245-.1.942.942,0,0,1,.556.472" transform="translate(-6.531 -46.075)" fill="#b17949"/>
        <path id="Trazado_132001" data-name="Trazado 132001" d="M56.981,72.056a7.427,7.427,0,0,1-2.074,4.455,3.534,3.534,0,0,1-5.163-.025,7.266,7.266,0,0,1-1.984-4.048.621.621,0,0,1,.182-.683,7.263,7.263,0,0,1,3.1-2.173,4.71,4.71,0,0,0,1.629-.945c.218-.192.407-.2.594.052a6.874,6.874,0,0,0,1.719,1.465,10.52,10.52,0,0,1,1.66,1.394,1.083,1.083,0,0,1,.331.508" transform="translate(-29.322 -42.088)" fill="#f1d0a4"/>
        <path id="Trazado_132002" data-name="Trazado 132002" d="M44.334,104.205a4.11,4.11,0,0,0,2.442.572c.229-.024.319.056.3.285a2.42,2.42,0,0,0,0,.473.542.542,0,0,1-.457.7,1.222,1.222,0,0,0-.869,1.272c0,1.088-.008,2.176,0,3.264,0,.251-.047.363-.333.361-2.38-.016-4.76-.017-7.14-.023a.4.4,0,0,1-.124-.3,24.777,24.777,0,0,1,.076-3.353,1.589,1.589,0,0,1,.976-1.3c1.532-.669,3.083-1.292,4.629-1.928a.541.541,0,0,1,.5-.025" transform="translate(-23.433 -63.999)" fill="#de646e"/>
        <path id="Trazado_132003" data-name="Trazado 132003" d="M96.113,85.376a6.541,6.541,0,0,1-2.484,3.956,1.528,1.528,0,0,1-1.967.032A6.883,6.883,0,0,1,89.2,85.807c-.067-.2,0-.28.2-.334a10.084,10.084,0,0,0,3.941-2.451c.4-.362.4-.365.68.141a7.2,7.2,0,0,0,2.094,2.214" transform="translate(-54.796 -50.856)" fill="#e2a66f"/>
        <path id="Trazado_132004" data-name="Trazado 132004" d="M89.862,71.175a4.079,4.079,0,0,1,6.266,2.945,5.844,5.844,0,0,1,.069.989c-.019.375-.1.746-.167,1.162a2.659,2.659,0,0,1-.869-.817A11.256,11.256,0,0,1,94.068,73.8c-.4-.727-.873-.783-1.44-.162a12.492,12.492,0,0,1-2.907,2.405,3.135,3.135,0,0,1-1.08.46,1.439,1.439,0,0,1-.3-.972,5.976,5.976,0,0,1,.93-3.749c.152-.251.408-.391.594-.6" transform="translate(-54.264 -43.324)" fill="#845b51"/>
        <path id="Trazado_132005" data-name="Trazado 132005" d="M47.4,60.9c-.391-.167-.243-.566-.264-.818a6.093,6.093,0,0,1,1.047-4.367c.188-.249.417-.466.627-.7a4.471,4.471,0,0,1,3.133-.579,1.585,1.585,0,0,1,.717.347.864.864,0,0,1,.313,1.122,5.932,5.932,0,0,0-.433,1.149,2.9,2.9,0,0,1-1.957,2.017A11.652,11.652,0,0,0,47.4,60.9" transform="translate(-28.94 -33.397)" fill="#845b51"/>
        <path id="Trazado_132006" data-name="Trazado 132006" d="M102.85,113.911c-.868,0-1.737-.011-2.605.006-.272.005-.374-.079-.333-.344a.514.514,0,0,0,0-.142,2.489,2.489,0,0,1,.731-2.212,4.326,4.326,0,0,0,1.062-2.238c.071-.365.189-.336.46-.22.882.378,1.777.727,2.662,1.1a1.641,1.641,0,0,1,1.1,1.61c0,.663-.011,1.327.008,1.99.01.358-.137.463-.479.456-.868-.018-1.737-.006-2.605-.006" transform="translate(-61.375 -66.783)" fill="#d5cbf1"/>
        <path id="Trazado_132007" data-name="Trazado 132007" d="M88.078,109.85a6.814,6.814,0,0,0,1.613,2.743.665.665,0,0,1,.182.559c-.034.468.2,1.074-.089,1.365-.263.268-.868.066-1.322.073-.757.01-1.515-.007-2.272.008-.248.005-.321-.067-.318-.316.016-1.12.012-2.241.015-3.361a.25.25,0,0,1,.141-.352,12.424,12.424,0,0,1,1.876-.77.191.191,0,0,1,.174.052" transform="translate(-52.758 -67.464)" fill="#d5cbf1"/>
        <path id="Trazado_132008" data-name="Trazado 132008" d="M66.02,58.758a2.39,2.39,0,0,1,2.609,1.984,5.511,5.511,0,0,1-.433,3.646,23.129,23.129,0,0,0-2.836-2.294,2.936,2.936,0,0,1-.4-.465.367.367,0,0,1,.056-.4,5.234,5.234,0,0,0,.892-2.265.417.417,0,0,1,.108-.207" transform="translate(-39.895 -36.101)" fill="#845b51"/>
        <path id="Trazado_132009" data-name="Trazado 132009" d="M20.458,111.862c0,1.283,0,2.526,0,3.771,0,.2-.083.235-.254.234-.662-.007-1.324-.009-1.986,0-.2,0-.272-.062-.271-.268.008-1.166,0-2.333,0-3.5,0-.139,0-.259.2-.189a3.613,3.613,0,0,0,2.3-.049" transform="translate(-11.03 -68.735)" fill="#f6f5f5"/>
        <path id="Trazado_132010" data-name="Trazado 132010" d="M5.332,113.608l2.35,3.3H4.79c-.03-.035-.075-.067-.08-.114a7.977,7.977,0,0,1,.059-2.709c.061-.25.162-.574.563-.478" transform="translate(-2.841 -69.798)" fill="#cbf39e"/>
        <path id="Trazado_132011" data-name="Trazado 132011" d="M43.765,103.743c-1.31.445-2.559,1.04-3.844,1.546-.263.1-.515.236-.781.33-1.245.441-1.364.923-1.421,2.049-.05.99-.009,1.986-.008,2.978-.4.1-.511-.052-.5-.452.027-.96.007-1.921.01-2.882a2.065,2.065,0,0,1,1.339-2.035c1.461-.621,2.939-1.2,4.4-1.827.4-.173.561.135.808.291" transform="translate(-22.864 -63.536)" fill="#db4955"/>
        <path id="Trazado_132012" data-name="Trazado 132012" d="M59.135,97.928a2.473,2.473,0,0,1-2.946.336,2.245,2.245,0,0,1-.1-1.425.422.422,0,0,1,.526-.357A6.817,6.817,0,0,0,58.72,96.4c.3-.055.487.045.455.4a8.539,8.539,0,0,1-.04,1.123" transform="translate(-34.423 -59.229)" fill="#f1d0a4"/>
        <path id="Trazado_132013" data-name="Trazado 132013" d="M97.587,105.585a4.367,4.367,0,0,1-1.021,2.776c-.149.2-.242.191-.382.006a4.23,4.23,0,0,1-.892-1.848c0-.4.28-.709.342-1.094.026-.163.242-.182.4-.188a8.4,8.4,0,0,0,1.268-.1c.4-.076.33.21.283.451" transform="translate(-58.554 -64.594)" fill="#e2a66e"/>
        <path id="Trazado_132014" data-name="Trazado 132014" d="M28.2,108.62l2,.82-2,2.853Z" transform="translate(-17.331 -66.743)" fill="#b2e49e"/>
        <path id="Trazado_132015" data-name="Trazado 132015" d="M56.892,71.67a15.659,15.659,0,0,0-3.03-2.522,2.608,2.608,0,0,1-.684-.714c-.157-.255-.291-.322-.544-.079a5.333,5.333,0,0,1-2.012,1.107,7.474,7.474,0,0,0-2.836,2.144c-.127.132-.09.294-.114.446a.77.77,0,0,1,.158-.941,7.791,7.791,0,0,1,2.994-2.173,7.407,7.407,0,0,0,1.875-.982c.157-.125.259-.124.378.049a6.221,6.221,0,0,0,1.756,1.562,11.377,11.377,0,0,1,1.928,1.669c.113.12.29.229.132.435" transform="translate(-29.233 -41.702)" fill="#f0b987"/>
        <path id="Trazado_132016" data-name="Trazado 132016" d="M58.59,97.119c0-.347-.017-.695-.008-1.041.008-.294-.039-.433-.4-.349a4.568,4.568,0,0,1-2.1.066c-.29-.069-.447.066-.44.382.01.426,0,.852,0,1.278a.711.711,0,0,1-.5-.835,9.948,9.948,0,0,0,0-1.227c-.008-.242.03-.346.308-.259a4.86,4.86,0,0,0,2.923,0c.089-.027.285-.156.278.079a8.028,8.028,0,0,1-.063,1.906" transform="translate(-33.878 -58.42)" fill="#f0ba87"/>
        <path id="Trazado_132017" data-name="Trazado 132017" d="M95.147,63.149A2.106,2.106,0,0,1,97.9,64.2c-.04.265-.253.212-.4.175a9.686,9.686,0,0,0-2.256-.126c-.239-.006-.542.1-.641-.236-.088-.3.1-.505.315-.685.072-.061.149-.116.224-.174" transform="translate(-58.12 -38.695)" fill="#845a50"/>
        <path id="Trazado_132018" data-name="Trazado 132018" d="M89.158,72.24a7.027,7.027,0,0,0-1.034,1.777,5.681,5.681,0,0,0-.187,3.548c-.2.1-.411.225-.535-.1-.755-1.964.425-4.631,1.756-5.23" transform="translate(-53.561 -44.389)" fill="#714c43"/>
        <path id="Trazado_132019" data-name="Trazado 132019" d="M11.552,113.007a4.442,4.442,0,0,1-.867-1.115c-.276-.357-.511-.746-.764-1.121a.192.192,0,0,1,.124-.226,7.243,7.243,0,0,1,1.167-.493c.195-.063.389-.056.381.237-.023.906.052,1.814-.04,2.718" transform="translate(-6.092 -67.604)" fill="#afe09c"/>
        <path id="Trazado_132020" data-name="Trazado 132020" d="M93.824,63.429c-.127.178-.251.36-.382.535a.341.341,0,0,0-.062.354c.072.173.211.069.327.073a8.5,8.5,0,0,1,2.577.164.238.238,0,0,0,.3-.079,3.111,3.111,0,0,1,.157.335c.088.264.016.337-.265.246a5.857,5.857,0,0,0-3.742.023c-.086.029-.18.1-.261.019s0-.179.025-.262a2,2,0,0,1,1.331-1.408" transform="translate(-56.798 -38.975)" fill="#714c43"/>
        <path id="Trazado_132021" data-name="Trazado 132021" d="M20.972,106.051a1.749,1.749,0,0,1-2.007.237c-.194-.775.015-1.064.795-1.081a3.954,3.954,0,0,0,.794-.091c.309-.07.5,0,.449.372a3.619,3.619,0,0,1-.031.562" transform="translate(-11.612 -64.576)" fill="#c28857"/>
        <path id="Trazado_132022" data-name="Trazado 132022" d="M65.518,58.74a4.421,4.421,0,0,1-.765,2.339,1.36,1.36,0,0,0-.29.532.888.888,0,0,1-.229-1.169A6.681,6.681,0,0,0,64.66,59.3a.67.67,0,0,1,.858-.562" transform="translate(-39.393 -36.082)" fill="#714c44"/>
        <path id="Trazado_132023" data-name="Trazado 132023" d="M20.346,105.254c-.016-.265.064-.61-.073-.775-.167-.2-.477.071-.734.072-.016,0-.032,0-.047,0-.312.025-.668-.11-.925.064-.278.189-.066.6-.227.875-.45-.1-.466-.44-.443-.8.017-.281-.082-.648.061-.822.162-.2.473.087.724.136a2.454,2.454,0,0,0,1.43-.15c.227-.093.325-.059.305.2a3.923,3.923,0,0,1-.069,1.206" transform="translate(-10.986 -63.778)" fill="#af7848"/>
        <path id="Trazado_132024" data-name="Trazado 132024" d="M97.31,104.8c0-.283-.056-.459-.4-.3a2.611,2.611,0,0,1-1.115.078c-.264,0-.459.06-.387.36.093.391-.3.515-.392.8a4.81,4.81,0,0,1-.173-1.72c0-.2.094-.187.238-.129a2.591,2.591,0,0,0,2.021,0c.2-.082.263-.024.25.168a2.3,2.3,0,0,1-.041.748" transform="translate(-58.277 -63.812)" fill="#d2965b"/>
        <path id="Trazado_132025" data-name="Trazado 132025" d="M4.78,112.941c-.482.169-.518.6-.534,1-.031.767-.008,1.536-.008,2.3-.363.078-.523-.054-.512-.439.017-.674,0-1.349.007-2.024a1.619,1.619,0,0,1,.2-.81c.346-.61.469-.616.842-.028" transform="translate(-2.289 -69.131)" fill="#b2e49e"/>
        <path id="Trazado_132026" data-name="Trazado 132026" d="M31.277,117.33c0,.531-.011,1.063.005,1.594.007.241-.091.292-.3.284-.345-.013-.69,0-1.122,0l1.331-1.906.091.032" transform="translate(-18.345 -72.076)" fill="#c7ef9b"/>
        <path id="Trazado_132027" data-name="Trazado 132027" d="M11.03,112.227c0-.845-.023-1.691,0-2.536.008-.366-.138-.413-.406-.267a9.529,9.529,0,0,0-1.222.568,1.352,1.352,0,0,1-.334-.481c.573-.235,1.145-.454,1.7-.707.293-.132.313-.007.312.231,0,1.057,0,2.115,0,3.172a.172.172,0,0,1-.009.04l-.043-.02" transform="translate(-5.57 -66.823)" fill="#92d1a0"/>
        <path id="Trazado_132028" data-name="Trazado 132028" d="M87.966,109.159c-.626.251-1.254.5-1.879.753-.146.059-.3.125-.312.317-.172-.7-.172-.7.437-.948l1.172-.484c.509-.21.509-.21.582.362" transform="translate(-52.645 -66.773)" fill="#c6b6f1"/>
        <path id="Trazado_132029" data-name="Trazado 132029" d="M103.832,86.01a4.875,4.875,0,0,1-2.094-2.214,9.155,9.155,0,0,0,2.112,2.137c.007,0-.012.051-.019.077" transform="translate(-62.515 -51.49)" fill="#c89058"/>
        <path id="Trazado_132030" data-name="Trazado 132030" d="M40.72,8.923c1.246-.193,2.491-.394,3.738-.576a1.933,1.933,0,0,0,1.534-1.122q.768-1.545,1.526-3.094c.115-.236.234-.459.542-.448.284.01.391.231.5.446.493,1,.993,2,1.478,3.012A2,2,0,0,0,51.66,8.355c1.141.154,2.277.337,3.416.5.243.035.468.081.556.357s-.081.445-.253.613c-.8.782-1.6,1.574-2.412,2.344a2.1,2.1,0,0,0-.639,2.062c.2,1.084.359,2.177.535,3.265.114.479-.148.329-.375.221-1.042-.494-2.047-1.058-3.067-1.594a2.7,2.7,0,0,0-2.7-.009c-.683.362-1.352.75-2.05,1.085-.214.1-.441.22-.667.049s-.184-.419-.143-.655c.117-.684.2-1.376.354-2.053a2.916,2.916,0,0,0-1.11-3.107c-.795-.653-1.472-1.428-2.205-2.145a.408.408,0,0,1-.175-.368" transform="translate(-25.018 -2.263)" fill="#fed063"/>
        <path id="Trazado_132031" data-name="Trazado 132031" d="M40.229,17.274c.823.827,1.607,1.693,2.5,2.447a2.97,2.97,0,0,1,1.113,3.149c-.168.716-.264,1.45-.383,2.177-.027.167-.069.359.1.484s.332.03.487-.049c.813-.421,1.619-.854,2.437-1.263a2.326,2.326,0,0,1,2.183,0c1.155.584,2.308,1.172,3.449,1.783.253.135.248.025.257-.154a.449.449,0,0,1-.126.629.532.532,0,0,1-.62-.012c-1-.532-2.016-1.044-3.012-1.588a2.077,2.077,0,0,0-2.156.011c-.938.519-1.9,1-2.845,1.5-.24.126-.48.283-.749.1-.3-.2-.2-.509-.154-.781.183-1.121.377-2.24.571-3.36a1.886,1.886,0,0,0-.6-1.758c-.837-.817-1.677-1.629-2.51-2.45-.359-.353-.337-.567.059-.87" transform="translate(-24.527 -10.614)" fill="#feb55f"/>
        <path id="Trazado_132032" data-name="Trazado 132032" d="M9.464,29.148c.606-.1,1.21-.211,1.819-.286a1.74,1.74,0,0,0,1.47-1.035c.323-.683.66-1.36,1-2.035.052-.1.073-.269.232-.266s.177.161.231.269c.337.676.685,1.347,1,2.033a1.716,1.716,0,0,0,1.468,1.032c.72.088,1.436.2,2.154.3.132.02.313,0,.362.158.043.139-.114.211-.2.295q-.825.815-1.658,1.622a1.609,1.609,0,0,0-.5,1.543c.119.65.2,1.306.3,1.959-.184.132-.331,0-.475-.079-.533-.309-1.1-.556-1.641-.843a2.057,2.057,0,0,0-2.036.006q-.4.21-.8.4c-.2.093-.414.223-.62.06-.189-.15-.116-.376-.077-.576.063-.325.112-.652.159-.98A1.988,1.988,0,0,0,11.086,31c-.445-.469-.916-.913-1.366-1.377-.126-.13-.305-.242-.257-.471" transform="translate(-5.81 -15.685)" fill="#fed063"/>
        <path id="Trazado_132033" data-name="Trazado 132033" d="M8.371,34.913c.483.5.937,1.029,1.456,1.486a2.494,2.494,0,0,1,.772,2.686c-.045.183-.086.367-.121.551-.024.123-.062.266.056.353s.241.025.357-.034c.367-.185.734-.369,1.1-.55a2,2,0,0,1,1.862,0q1.1.546,2.194,1.1a.348.348,0,0,1,.039.086c.032.21.185.472-.006.616-.141.107-.337-.1-.5-.189q-.923-.475-1.837-.967a1.685,1.685,0,0,0-1.71,0c-.676.37-1.361.722-2.046,1.076-.091.047-.187.15-.3.083-.141-.084-.076-.226-.056-.343.128-.76.248-1.523.4-2.279a1.64,1.64,0,0,0-.5-1.59c-.519-.507-1.043-1.007-1.558-1.518-.118-.116-.347-.212-.289-.394.066-.205.319-.143.5-.177a.954.954,0,0,1,.188,0" transform="translate(-4.717 -21.449)" fill="#feb55f"/>
        <path id="Trazado_132034" data-name="Trazado 132034" d="M86.2,29.154c.591-.1,1.178-.217,1.772-.28a1.788,1.788,0,0,0,1.565-1.117c.291-.646.62-1.274.939-1.907.061-.12.079-.308.246-.316s.2.18.256.3c.332.662.674,1.318.983,1.99a1.718,1.718,0,0,0,1.464,1.039c.719.088,1.436.2,2.154.3.132.02.318-.007.365.152s-.131.235-.226.33c-.514.512-1.023,1.031-1.558,1.522a1.709,1.709,0,0,0-.568,1.66c.109.636.2,1.275.3,1.913-.207.089-.365-.045-.53-.124q-.809-.392-1.608-.8a2.037,2.037,0,0,0-1.993,0c-.293.154-.593.3-.882.457a.521.521,0,0,1-.539.048c-.206-.122-.14-.327-.114-.513.046-.328.1-.656.161-.98A1.987,1.987,0,0,0,87.821,31c-.441-.472-.915-.914-1.365-1.378-.126-.13-.3-.241-.258-.471" transform="translate(-52.962 -15.69)" fill="#fed063"/>
        <path id="Trazado_132035" data-name="Trazado 132035" d="M85.129,34.917c.493.508.962,1.042,1.485,1.516a2.438,2.438,0,0,1,.765,2.6c-.05.2-.067.4-.11.6-.03.136-.119.286.051.375a.411.411,0,0,0,.4-.05c.3-.172.61-.326.915-.489a2.1,2.1,0,0,1,2.07-.011c.7.362,1.408.7,2.113,1.053.009.013.024.025.026.039.043.225.2.507.007.66-.146.115-.364-.117-.541-.208-.617-.316-1.23-.641-1.843-.965a1.635,1.635,0,0,0-1.627.008c-.681.364-1.366.721-2.052,1.075-.1.054-.209.178-.34.094s-.059-.226-.039-.346c.132-.761.261-1.524.4-2.284a1.639,1.639,0,0,0-.483-1.556c-.533-.517-1.067-1.032-1.593-1.556-.116-.114-.348-.208-.261-.4.074-.165.3-.123.471-.148a1.231,1.231,0,0,1,.189,0" transform="translate(-51.892 -21.452)" fill="#feb55f"/>
        <path id="Trazado_132036" data-name="Trazado 132036" d="M68.845,116.258c-.426,0-.854.012-1.279,0a.722.722,0,0,1-.757-.738.713.713,0,0,1,.765-.677c.869-.01,1.738-.012,2.606,0a.674.674,0,0,1,.723.706.7.7,0,0,1-.731.707c-.441.016-.884,0-1.327,0" transform="translate(-41.051 -70.561)"/>
      </g>
    </g>
    <g id="Grupo_163974" data-name="Grupo 163974" transform="translate(507.555 4099.437)">
      <path id="Trazado_127053" data-name="Trazado 127053" d="M15.511,123.967c-.455.1-.56-.113-.556-.538.012-1.064-.007-1.083-1.108-1.077-.41,0-.537-.125-.529-.53.007-.378.077-.554.513-.552,1.1,0,1.133-.018,1.121-1.121-.005-.5.239-.508.609-.512s.561.058.561.5c0,1.117.023,1.137,1.114,1.132.422,0,.522.15.523.542s-.1.542-.521.54c-1.112-.006-1.139.014-1.114,1.068.012.489-.169.632-.612.546" transform="translate(-13.318 -81.738)" fill="#29c4bb"/>
      <path id="Trazado_127054" data-name="Trazado 127054" d="M213.645,151.161c.407-.078.633.057.565.518-.056.386.077.6.5.534s.571.088.574.537c0,.471-.189.579-.59.525-.383-.052-.5.115-.5.5.012.6-.358.827-.936.646-.274-.086-.214-.3-.2-.478.048-.472-.06-.762-.617-.667-.431.073-.458-.2-.457-.528s.014-.6.452-.531c.472.073.695-.1.617-.6-.075-.476.231-.5.583-.455" transform="translate(-157.104 -102.159)" fill="#29c4bb"/>
      <path id="Trazado_127055" data-name="Trazado 127055" d="M210.724,69.27c.105.454-.1.609-.528.538-.461-.078-.649.111-.568.57s-.113.549-.543.553-.61-.127-.533-.558c.082-.459-.109-.649-.565-.563-.473.089-.514-.158-.532-.556-.021-.467.16-.589.567-.518.442.077.607-.106.532-.537-.072-.413.061-.58.522-.564.406.014.64.072.553.537s.115.64.568.564c.426-.072.633.081.527.535" transform="translate(-153.658 -48.883)" fill="#010000"/>
      <path id="Trazado_127056" data-name="Trazado 127056" d="M55.046,186.643c.1.424-.11.579-.533.5-.5-.09-.615.169-.544.588.079.466-.147.538-.556.536-.391,0-.6-.091-.519-.512.108-.554-.169-.689-.646-.608s-.466-.225-.468-.56.007-.6.449-.513c.594.118.746-.168.666-.7-.077-.509.311-.363.57-.378.274-.016.58-.052.5.39-.1.546.093.8.671.688.483-.093.423.244.409.567" transform="translate(-41.154 -123.786)" fill="#010000"/>
      <path id="Trazado_127057" data-name="Trazado 127057" d="M121.786,17.429c-.114-.483.154-.578.549-.519.411.061.573-.109.51-.514s.058-.589.523-.579c.428.009.624.12.549.559s.132.6.554.534c.392-.059.588.035.59.513s-.182.621-.609.553c-.451-.072-.6.134-.534.554.079.472-.175.527-.572.535-.425.009-.563-.151-.5-.541.068-.427-.09-.623-.536-.548s-.621-.106-.524-.548" transform="translate(-91.799 -15.817)" fill="#29c4bb"/>
    </g>
  </g>
</svg>
