<svg xmlns="http://www.w3.org/2000/svg" xmlns:xlink="http://www.w3.org/1999/xlink" width="70" height="85" viewBox="0 0 70 85">
  <defs>
    <clipPath id="clip-path">
      <rect id="Rect치ngulo_37155" data-name="Rect치ngulo 37155" width="49.33" height="49.502" fill="none"/>
    </clipPath>
  </defs>
  <g id="Grupo_163934" data-name="Grupo 163934" transform="translate(-923 -1834)">
    <rect id="Rect치ngulo_37872" data-name="Rect치ngulo 37872" width="70" height="85" rx="12" transform="translate(923 1834)" fill="#1169e3"/>
    <g id="Grupo_157122" data-name="Grupo 157122" transform="translate(7312.246 8401.412)">
      <g id="Grupo_156595" data-name="Grupo 156595" transform="translate(-6385.246 -6555.413)">
        <path id="Trazado_127053" data-name="Trazado 127053" d="M15.375,123.6c.416.093.513-.1.509-.492-.011-.974.006-.992,1.015-.986.375,0,.492-.114.485-.485-.007-.346-.07-.507-.469-.505-1.011,0-1.037-.017-1.026-1.026,0-.457-.219-.465-.558-.469s-.514.053-.514.459c0,1.022-.021,1.041-1.019,1.037-.386,0-.478.138-.479.5s.091.5.477.494c1.018-.006,1.042.013,1.02.978-.011.448.155.579.561.5" transform="translate(44.792 -83.878)" fill="#29c4bb"/>
        <path id="Trazado_127054" data-name="Trazado 127054" d="M213.5,151.159c-.373-.071-.579.052-.518.474.051.353-.071.55-.461.489s-.522.081-.525.492c0,.431.173.53.54.481.351-.047.462.105.455.455-.011.547.328.757.857.591.251-.079.2-.279.18-.437-.044-.432.055-.7.565-.611.395.067.419-.181.418-.484s-.013-.548-.414-.486c-.432.067-.636-.091-.564-.547.068-.436-.211-.455-.533-.417" transform="translate(-211.994 -104.948)" fill="#29c4bb"/>
        <path id="Trazado_127055" data-name="Trazado 127055" d="M207.478,69.132c-.1.416.094.558.484.492.422-.071.594.1.52.521s.1.5.5.507.558-.116.488-.511c-.075-.42.1-.594.518-.515s.471-.145.487-.509c.019-.427-.147-.539-.519-.474-.4.071-.555-.1-.487-.492.066-.378-.056-.531-.477-.516-.371.013-.586.066-.506.491s-.105.586-.52.516c-.39-.066-.58.074-.483.49" transform="translate(-204.437 -61.871)" fill="#010000"/>
        <path id="Trazado_127056" data-name="Trazado 127056" d="M51.8,186.5c-.091.388.1.53.488.46.455-.082.563.155.5.538-.072.426.134.493.509.49.358,0,.55-.083.475-.469-.1-.507.155-.631.591-.556s.427-.206.428-.513-.006-.549-.411-.47c-.544.108-.683-.154-.61-.641.07-.466-.285-.332-.522-.346s-.531-.047-.458.357c.09.5-.085.732-.614.63-.442-.085-.388.223-.375.519" transform="translate(-4.069 -127.272)" fill="#010000"/>
        <path id="Trazado_127057" data-name="Trazado 127057" d="M124.759,17.292c.1-.443-.141-.529-.5-.475s-.524-.1-.467-.47-.053-.539-.479-.53c-.392.008-.571.109-.5.512s-.121.547-.507.489c-.358-.054-.538.032-.54.47s.167.569.558.507c.413-.066.553.122.489.507-.072.432.16.482.524.49.389.008.516-.138.458-.495-.062-.391.082-.57.49-.5s.569-.1.48-.5" transform="translate(-94.9 -15.817)" fill="#29c4bb"/>
      </g>
      <g id="Grupo_156642" data-name="Grupo 156642" transform="translate(-6378 -6550.146)">
        <g id="Grupo_156642-2" data-name="Grupo 156642" clip-path="url(#clip-path)">
          <path id="Trazado_127556" data-name="Trazado 127556" d="M36.93,0a1.085,1.085,0,0,1,.488,1.063c-.009,5.149,0,10.3-.015,15.446,0,.4.058.552.507.532.926-.043.928-.012.928-.934,0-.322.009-.644,0-.965a.782.782,0,0,1,.684-.894c.507-.043.782.168.894.706a6.2,6.2,0,0,1,.046,1.2c.008.69.023.709.7.713,1.173.006,2.346-.01,3.519.007a9.41,9.41,0,0,1,.964-.008c.368.013.521-.142.518-.511-.008-.8,0-1.607,0-2.411,0-1.4,0-2.8,0-4.194,0-.562-.047-.6-.606-.608-.289-.005-.579.01-.867-.01-1.158.017-2.316,0-3.474.008-.734,0-.74.009-.743.764,0,.611.006,1.223,0,1.834a1.364,1.364,0,0,1-.2.783c-.177.254-.4.43-.732.282a.768.768,0,0,1-.688-.884c.008-1.16,0-2.319,0-3.479a1.591,1.591,0,0,1,.19-.737q1.767-3.477,3.52-6.962c.167-.331.362-.628.778-.622s.6.309.765.639q1.724,3.419,3.462,6.83a2.255,2.255,0,0,1,.25,1.063c-.006,2.625.005,5.25-.013,7.875,0,.388.071.523.49.512,1.239-.031,2.48-.014,3.719-.01.728,0,.986.27.969,1a28.842,28.842,0,0,1-2.723,11.065c-.072.161-.151.319-.216.483a.8.8,0,0,1-1.022.563.685.685,0,0,1-.523-.834,3.174,3.174,0,0,1,.3-.863,29.227,29.227,0,0,0,2.447-8.461c.034-.289.017-.583.072-.866.08-.415-.124-.512-.478-.5-.467.013-.934-.013-1.4-.013q-15.87,0-31.74,0a1.175,1.175,0,0,0-.7.09,1.244,1.244,0,0,0-.332.58C15.491,22.192,14.3,25.1,13.092,28c-.282.679-.16.86.592.868.66.007,1.32,0,1.98,0,.83.005,1.109.217,1.272,1.013.4,1.956.81,3.91,1.269,5.854.178.752.4,1.492.6,2.237.515,1.9,1.856,2.636,3.685,2.771a10.545,10.545,0,0,0,2.743-.125c.9-.169,1.278.122,1.437,1.041.311,1.793.638,3.582.947,5.375.152.878.149.879,1.02.879H43.664c.193,0,.387,0,.579,0,.338,0,.676.006,1.014,0,.475-.009.5-.039.434-.5-.2-1.3-.4-2.608-.6-3.913-.3-1.972-.609-3.944-.909-5.917a2.11,2.11,0,0,1,.362-1.643c.921-1.281,1.718-2.644,2.512-4.007a1.447,1.447,0,0,1,.5-.578c.269-.154.54-.224.777.064a.808.808,0,0,1,.15,1.194q-1.21,2.137-2.58,4.176a.87.87,0,0,0-.148.673q.856,5.449,1.7,10.9a.954.954,0,0,1-.472,1.14H26.78a1.489,1.489,0,0,1-.507-.974c-.332-1.981-.706-3.956-1.036-5.938-.066-.4-.282-.338-.541-.306a9.434,9.434,0,0,1-4.012-.276A5.076,5.076,0,0,1,17.2,38.166c-.649-2.356-1.164-4.742-1.632-7.138-.088-.449-.239-.631-.729-.6a8.867,8.867,0,0,1-1.975-.035,1.771,1.771,0,0,1-1.453-2.367c.525-1.446,1.149-2.856,1.726-4.284.812-2.008,1.628-4.014,2.422-6.029a.951.951,0,0,1,1.024-.687c.659.021,1.32,0,1.98.008.177,0,.293-.008.326-.235.131-.89.285-1.778.434-2.666a.238.238,0,0,0-.16-.3.726.726,0,0,1-.411-.752c0-.837,0-1.675,0-2.512a.619.619,0,0,1,.246-.6c.308-.161.243-.325.125-.572a3.626,3.626,0,0,1-.135-2.9A34.061,34.061,0,0,1,22.146.386,1.4,1.4,0,0,1,22.624,0h.387a1.057,1.057,0,0,1,.607.438,36.053,36.053,0,0,1,2.944,5.59,4.373,4.373,0,0,1,.089,3.249.629.629,0,0,0,.086.717.966.966,0,0,1,.181.685c0,.773,0,1.546,0,2.319a1.032,1.032,0,0,1-.272.8.715.715,0,0,0-.194.666c.1.653.227,1.3.308,1.956.041.333.219.452.551.463,1.071.034,1.07.044,1.07-1.014q0-4.2,0-8.406a5.536,5.536,0,0,1,.015-.628.93.93,0,0,1,.972-.926.9.9,0,0,1,.749,1.028c.021,1.047.006,2.094.007,3.141q0,3.02,0,6.04c0,.734.013.742.764.746,1.095.007,2.19-.017,3.284.011.368-.009.738-.016,1.105,0s.563-.112.545-.521c-.021-.477-.06-.541-.566-.544-.593,0-1.186-.015-1.78-.014-.541-.12-.825-.409-.821-.834a.886.886,0,0,1,.858-.865,4.062,4.062,0,0,1,.715-.022c.4-.014.8,0,1.207-.007.258,0,.363-.12.386-.381.089-1.021.056-1.064-.956-1.073a2.561,2.561,0,0,1-.577-.041.825.825,0,0,1-.689-.853.8.8,0,0,1,.674-.813,9.223,9.223,0,0,1,1.146-.028c.281,0,.4-.125.4-.406,0-1.2.06-1.036-.955-1.05-.207,0-.414.008-.622-.005a2.875,2.875,0,0,1-.853-.067q-.725-.206-.735-.82c-.006-.405.219-.668.709-.827.655-.014,1.311-.027,1.966-.017.341.005.48-.128.493-.48.039-1.064.05-1.064-1-1.071a3.534,3.534,0,0,1-.527-.023.8.8,0,0,1-.69-.75.793.793,0,0,1,.554-.852A3.013,3.013,0,0,1,35.352,4.4c.322,0,.47-.128.467-.458-.006-.628-.009-1.256,0-1.884.005-.325-.125-.471-.456-.465-.386.008-.773.01-1.16,0-1.157.02-2.313,0-3.469.01-.566,0-.606.044-.614.6-.008.514.016,1.029-.01,1.542a.865.865,0,0,1-.891.928c-.581-.153-.814-.393-.831-.957q-.045-1.422,0-2.845A.8.8,0,0,1,29,0Z" transform="translate(-7.721)"/>
          <path id="Trazado_127557" data-name="Trazado 127557" d="M4.9,18.9a.734.734,0,0,1-.7-.5c-.215-.466-.428-.934-.622-1.409a2.908,2.908,0,0,0-1.649-1.66c-.475-.2-.941-.411-1.408-.622a.744.744,0,0,1,.007-1.42c.439-.2.871-.411,1.318-.587A2.953,2.953,0,0,0,3.6,10.953c.175-.448.387-.881.585-1.32a.749.749,0,0,1,1.441.008c.221.5.453.992.668,1.494A2.71,2.71,0,0,0,7.747,12.6q.771.339,1.537.689a.745.745,0,0,1-.007,1.42c-.5.224-.991.456-1.493.668a2.714,2.714,0,0,0-1.5,1.488c-.221.516-.451,1.028-.687,1.538a.729.729,0,0,1-.7.493" transform="translate(0 -6.215)"/>
          <path id="Trazado_127558" data-name="Trazado 127558" d="M28.747,58.393c.135-.181.327-.084.488-.084Q46.087,58.3,62.94,58.3c.384,0,.507.049.475.491a29.09,29.09,0,0,1-2.72,9.892c-.312.689-.269.9.238,1.289a10.143,10.143,0,0,0-.676,1.28.8.8,0,0,0-1.082.433q-1.306,2.312-2.8,4.5a1.317,1.317,0,0,0-.163,1.016q.552,3.576,1.106,7.153c.167,1.081.331,2.162.513,3.241.044.26-.051.3-.274.29-.45-.018-.9-.015-1.351-.021a.748.748,0,0,1-.254-.554c-.528-3.358-1.037-6.718-1.561-10.077a1.6,1.6,0,0,1,.367-1.208c.92-1.344,1.764-2.734,2.547-4.162a33.035,33.035,0,0,0,4.233-12.4c0-.032.01-.064.013-.1.085-.761.025-.831-.748-.831q-15.585,0-31.17,0c-.3,0-.617.085-.88-.144" transform="translate(-19.647 -39.833)" fill="#f4af84"/>
          <path id="Trazado_127559" data-name="Trazado 127559" d="M105.592,36.4c-1.365.006-2.731.007-4.1.024-.254,0-.287-.108-.283-.318.01-.514.011-1.029,0-1.543-.012-.6-.173-.783-.764-.922a8.527,8.527,0,0,0,0-1.444c.578-.117.752-.312.759-.915.01-.85.013-1.7,0-2.549,0-.266.063-.358.343-.355,1.346.019,2.692.017,4.038.022a.821.821,0,0,1,.156.635q.007,3.365,0,6.729a.839.839,0,0,1-.156.636" transform="translate(-68.652 -19.396)" fill="#fdce4a"/>
          <path id="Trazado_127560" data-name="Trazado 127560" d="M136.6,5.047a.7.7,0,0,1-.459.672c-.438.2-.874.4-1.318.588a2.526,2.526,0,0,0-1.419,1.429c-.178.43-.379.849-.568,1.274a.73.73,0,0,1-1.371.011c-.215-.466-.426-.934-.632-1.4a2.334,2.334,0,0,0-1.262-1.261c-.471-.2-.936-.42-1.4-.634a.728.728,0,0,1,.012-1.37c.439-.2.875-.4,1.318-.588a2.469,2.469,0,0,0,1.364-1.355c.188-.443.395-.877.59-1.318a.729.729,0,0,1,.692-.505.72.72,0,0,1,.7.494c.2.455.417.9.613,1.36a2.387,2.387,0,0,0,1.293,1.3c.47.2.938.417,1.4.632a.7.7,0,0,1,.449.679" transform="translate(-87.272 -0.401)"/>
          <path id="Trazado_127561" data-name="Trazado 127561" d="M19.975,58.631l32.278,0c.695,0,.737,0,.678.709a26.239,26.239,0,0,1-1.172,5.727,42.537,42.537,0,0,1-3.916,8.521c-.613,1.058-1.295,2.07-1.965,3.088-.282.428-.115.815-.059,1.2.284,1.961.621,3.914.927,5.872.21,1.343.4,2.689.6,4.032a2.9,2.9,0,0,0,.086.325c-1.482.006-2.963.016-4.445.017-3.9,0-7.8-.007-11.694.012-.4,0-.51-.124-.571-.483-.342-2.014-.7-4.024-1.062-6.036-.137-.769-.42-.954-1.219-.8a9.537,9.537,0,0,1-3.457.059,3.622,3.622,0,0,1-3.106-2.655c-.807-2.668-1.331-5.4-1.89-8.122-.19-.923-.3-1.031-1.239-1.031-.757,0-1.514.01-2.271,0-.517-.009-.674-.241-.482-.715q1.953-4.824,3.921-9.643c.011-.027.041-.047.063-.07" transform="translate(-10.875 -40.071)" fill="#fdc7a1"/>
          <path id="Trazado_127562" data-name="Trazado 127562" d="M68.008,9.109q-.015-.71-.029-1.419c.569-.134.728-.32.733-.891.006-.644.01-1.288,0-1.932,0-.227.06-.307.3-.3,1.32.015,2.639.015,3.959.02a.654.654,0,0,1,.145.494c.008.7.01,1.41,0,2.115a.551.551,0,0,1-.233.544c-.629.472-.6.99.09,1.387a2.75,2.75,0,0,1,.1,1.54c-.009.161-.128.238-.3.24a3.006,3.006,0,0,0-.666.023.693.693,0,0,0-.582.806c.062.465.4.612.826.632l.62.026a2.315,2.315,0,0,1,0,1.752c-.73.44-.728,1,0,1.437a2.336,2.336,0,0,1-.005,1.752c-.207.007-.414.011-.621.021-.421.022-.752.173-.827.637-.065.4.173.674.683.821.064.005-.014-.005.046.013.261.078.641-.159.778.164a1.218,1.218,0,0,1-.06,1.142c-1.271.006-2.542,0-3.812.026-.365.009-.45-.093-.448-.452.015-3.186,0-6.372.016-9.558,0-.543-.163-.9-.713-1.033" transform="translate(-46.46 -3.118)" fill="#fdce4a"/>
          <path id="Trazado_127563" data-name="Trazado 127563" d="M42.248,17.476c-.531.005-1.062.005-1.592.02a.532.532,0,0,1-.423-.181,2.362,2.362,0,0,1-.644-2.563A17.426,17.426,0,0,1,41.2,11.309c.232-.028.3.159.376.309a22.364,22.364,0,0,1,1.283,2.8,3.139,3.139,0,0,1-.171,2.566.892.892,0,0,1-.437.493" transform="translate(-26.959 -7.727)" fill="#fb6240"/>
          <path id="Trazado_127564" data-name="Trazado 127564" d="M116.693,36.4q0-4,0-8c.465-.005.931,0,1.4-.021.24-.01.3.088.3.309q-.009,3.711,0,7.423c0,.22-.054.321-.3.311-.465-.02-.931-.016-1.4-.022" transform="translate(-79.753 -19.399)" fill="#fba129"/>
          <path id="Trazado_127565" data-name="Trazado 127565" d="M46.028,14.264c1.067-1.413.695-2.834-.007-4.237A9.564,9.564,0,0,0,44.976,8.1l.818-1.49a23.813,23.813,0,0,1,2.5,5.153,2.334,2.334,0,0,1-.727,2.371.484.484,0,0,1-.386.151c-.386-.011-.772-.013-1.158-.018" transform="translate(-30.739 -4.516)" fill="#dd5039"/>
          <path id="Trazado_127566" data-name="Trazado 127566" d="M43.136,47.045c-.993.007-1.986.008-2.978.024-.245,0-.287-.062-.243-.3q.223-1.227.39-2.465c.034-.252.105-.355.378-.345.656.025,1.313.018,1.969.023a5.851,5.851,0,0,1,.42,1.946,1.839,1.839,0,0,1,.064,1.121" transform="translate(-27.269 -30.04)" fill="#fcac52"/>
          <path id="Trazado_127567" data-name="Trazado 127567" d="M107.757,18.373h-3.435c.413-.816.807-1.581,1.186-2.352.089-.181.23-.142.367-.143.241,0,.482.009.723.014a.524.524,0,0,1,.27.263q.45.881.881,1.77c.069.144.143.3.009.449" transform="translate(-71.298 -10.849)" fill="#fdc7a1"/>
          <path id="Trazado_127568" data-name="Trazado 127568" d="M83.446,7.734a2.4,2.4,0,0,0,.085-1.087c.016-.688,0-1.377,0-2.066.482,0,.964,0,1.445-.019.236-.009.3.078.3.3-.011.835-.015,1.671,0,2.507.006.277-.116.308-.343.309a7.237,7.237,0,0,0-1.488.053" transform="translate(-57.031 -3.117)" fill="#fca129"/>
          <path id="Trazado_127569" data-name="Trazado 127569" d="M49.079,47.044,48.6,43.977c.448-.006.9,0,1.344-.023.255-.016.335.1.369.317q.193,1.256.4,2.511c.034.205-.015.293-.238.285-.463-.017-.928-.016-1.392-.023" transform="translate(-33.212 -30.039)" fill="#df9249"/>
          <path id="Trazado_127570" data-name="Trazado 127570" d="M42.853,36.668c-1.073.005-2.146.005-3.219.02-.212,0-.261-.067-.271-.273-.053-.99-.06-.992.944-.989.849,0,1.7.01,2.546.016a1.212,1.212,0,0,1,0,1.226" transform="translate(-26.89 -24.212)" fill="#dfdfdf"/>
          <path id="Trazado_127571" data-name="Trazado 127571" d="M112.67,18.278a12.082,12.082,0,0,0-.918-2.009c-.069-.162-.16-.316-.241-.473a4.013,4.013,0,0,1,1.514.033c.436.191.51.836.756,1.275.2.359.373.734.594,1.174Z" transform="translate(-76.211 -10.754)" fill="#f4af84"/>
          <path id="Trazado_127572" data-name="Trazado 127572" d="M81,20.766a.4.4,0,0,1,.123-.066c.74-.092.74-.091.74-.833q0-.452,0-.9c.467,0,.934.013,1.4,0,.238-.007.355.046.34.316a11.421,11.421,0,0,0,0,1.159c.012.258-.085.33-.333.326-.757-.011-1.513,0-2.27,0" transform="translate(-55.362 -12.96)" fill="#faa129"/>
          <path id="Trazado_127573" data-name="Trazado 127573" d="M83.733,30.977q0-.876,0-1.752c.481-.008.963-.006,1.444-.027.242-.01.3.093.292.313-.013.385-.02.773,0,1.157.016.276-.11.316-.342.309-.466-.013-.932,0-1.4,0" transform="translate(-57.227 -19.955)" fill="#fca129"/>
          <path id="Trazado_127574" data-name="Trazado 127574" d="M83.731,41.11q0-.876.005-1.752c.465,0,.931.016,1.4,0,.233-.006.355.036.339.31-.028.462.148,1.06-.079,1.353-.243.312-.868.068-1.325.1a2.652,2.652,0,0,1-.335-.017" transform="translate(-57.225 -26.899)" fill="#fca229"/>
          <path id="Trazado_127575" data-name="Trazado 127575" d="M82.079,50.849c0-.079,0-.158,0-.237a3.113,3.113,0,0,0-.027-.847c-.111-.361-.527-.028-.738-.235.74,0,1.48,0,2.219-.014.2,0,.306.06.28.274a.306.306,0,0,0,0,.048c.052,1.028.052,1.029-.965,1.028-.257,0-.514-.011-.771-.016" transform="translate(-55.574 -33.842)" fill="#fba129"/>
          <path id="Trazado_127576" data-name="Trazado 127576" d="M50.428,36.668V35.441c.273-.006.545-.015.817-.016.943,0,.934,0,.886.966-.012.233-.082.3-.309.3-.464-.019-.929-.015-1.394-.02" transform="translate(-34.465 -24.211)" fill="#c4c3c8"/>
          <path id="Trazado_127577" data-name="Trazado 127577" d="M111.322,7.63l.561,1.142h-1.069a7,7,0,0,1,.508-1.142" transform="translate(-75.735 -5.215)" fill="#3b4f53"/>
          <path id="Trazado_127578" data-name="Trazado 127578" d="M12.676,19.351a4.321,4.321,0,0,0-2.411,2.418,4.357,4.357,0,0,0-2.423-2.417,4.309,4.309,0,0,0,2.413-2.425,4.377,4.377,0,0,0,2.421,2.424" transform="translate(-5.36 -11.569)" fill="#fdce4a"/>
          <path id="Trazado_127579" data-name="Trazado 127579" d="M135.555,10.431a3.981,3.981,0,0,0,1.962-1.967,3.893,3.893,0,0,0,1.973,1.945,3.92,3.92,0,0,0-1.956,2,3.935,3.935,0,0,0-1.979-1.973" transform="translate(-92.644 -5.785)" fill="#fdce4a"/>
          <path id="Trazado_127580" data-name="Trazado 127580" d="M74.082,72.1a.786.786,0,0,1-.51.7c-.5.222-.99.461-1.494.67a2.807,2.807,0,0,0-1.556,1.561c-.214.5-.448,1-.669,1.494a.729.729,0,0,1-1.372,0c-.221-.5-.456-.992-.669-1.494a2.8,2.8,0,0,0-1.554-1.562c-.5-.21-.995-.448-1.494-.669a.735.735,0,0,1,0-1.4c.485-.213.964-.438,1.451-.645a2.869,2.869,0,0,0,1.6-1.587c.2-.488.436-.965.649-1.45a.738.738,0,0,1,1.412,0c.207.47.436.93.629,1.406a2.891,2.891,0,0,0,1.659,1.65c.475.194.937.419,1.407.627a.784.784,0,0,1,.513.7" transform="translate(-43.918 -45.924)"/>
          <path id="Trazado_127581" data-name="Trazado 127581" d="M74.541,80.032a4.341,4.341,0,0,0-2.406-2.394,4.385,4.385,0,0,0,2.384-2.345c1.116,1.617,1.116,1.617,2.389,2.341a6.2,6.2,0,0,0-1.4.944,5.745,5.745,0,0,0-.966,1.455" transform="translate(-49.3 -51.458)" fill="#fca129"/>
        </g>
      </g>
    </g>
  </g>
</svg>
